  0
SECTION
  2
HEADER
  9
$ACADVER
  1
AC1024
  9
$ACADMAINTVER
 70
6
  9
$DWGCODEPAGE
  3
ANSI_1252
  9
$LASTSAVEDBY
  1
ezdxf
  9
$INSBASE
 10
0.0
 20
0.0
 30
0.0
  9
$EXTMIN
 10
1e+20
 20
1e+20
 30
1e+20
  9
$EXTMAX
 10
-1e+20
 20
-1e+20
 30
-1e+20
  9
$LIMMIN
 10
0.0
 20
0.0
  9
$LIMMAX
 10
420.0
 20
297.0
  9
$ORTHOMODE
 70
0
  9
$REGENMODE
 70
1
  9
$FILLMODE
 70
1
  9
$QTEXTMODE
 70
0
  9
$MIRRTEXT
 70
1
  9
$LTSCALE
 40
1.0
  9
$ATTMODE
 70
1
  9
$TEXTSIZE
 40
2.5
  9
$TRACEWID
 40
1.0
  9
$TEXTSTYLE
  7
Standard
  9
$CLAYER
  8
0
  9
$CELTYPE
  6
ByLayer
  9
$CECOLOR
 62
256
  9
$CELTSCALE
 40
1.0
  9
$DISPSILH
 70
0
  9
$DIMSCALE
 40
1.0
  9
$DIMASZ
 40
2.5
  9
$DIMEXO
 40
0.5291666666666666
  9
$DIMDLI
 40
3.75
  9
$DIMRND
 40
0.0
  9
$DIMDLE
 40
0.0
  9
$DIMEXE
 40
0.8819444444444444
  9
$DIMTP
 40
0.0
  9
$DIMTM
 40
0.0
  9
$DIMTXT
 40
1.8288
  9
$DIMCEN
 40
2.5
  9
$DIMTSZ
 40
1.0943166666666666
  9
$DIMTOL
 70
0
  9
$DIMLIM
 70
0
  9
$DIMTIH
 70
0
  9
$DIMTOH
 70
0
  9
$DIMSE1
 70
0
  9
$DIMSE2
 70
0
  9
$DIMTAD
 70
1
  9
$DIMZIN
 70
8
  9
$DIMBLK
  1

  9
$DIMASO
 70
1
  9
$DIMSHO
 70
1
  9
$DIMPOST
  1

  9
$DIMAPOST
  1

  9
$DIMALT
 70
0
  9
$DIMALTD
 70
3
  9
$DIMALTF
 40
0.03937007874
  9
$DIMLFAC
 40
1.0
  9
$DIMTOFL
 70
1
  9
$DIMTVP
 40
0.0
  9
$DIMTIX
 70
0
  9
$DIMSOXD
 70
0
  9
$DIMSAH
 70
0
  9
$DIMBLK1
  1

  9
$DIMBLK2
  1

  9
$DIMSTYLE
  2
COTAS_PAPEL
  9
$DIMCLRD
 70
0
  9
$DIMCLRE
 70
0
  9
$DIMCLRT
 70
0
  9
$DIMTFAC
 40
1.0
  9
$DIMGAP
 40
0.6
  9
$DIMJUST
 70
0
  9
$DIMSD1
 70
0
  9
$DIMSD2
 70
0
  9
$DIMTOLJ
 70
0
  9
$DIMTZIN
 70
8
  9
$DIMALTZ
 70
0
  9
$DIMALTTZ
 70
0
  9
$DIMUPT
 70
0
  9
$DIMDEC
 70
0
  9
$DIMTDEC
 70
2
  9
$DIMALTU
 70
2
  9
$DIMALTTD
 70
3
  9
$DIMTXSTY
  7
Standard
  9
$DIMAUNIT
 70
0
  9
$DIMADEC
 70
0
  9
$DIMALTRND
 40
0.0
  9
$DIMAZIN
 70
0
  9
$DIMDSEP
 70
44
  9
$DIMATFIT
 70
3
  9
$DIMFRAC
 70
0
  9
$DIMLDRBLK
  1

  9
$DIMLUNIT
 70
2
  9
$DIMLWD
 70
-2
  9
$DIMLWE
 70
-2
  9
$DIMTMOVE
 70
0
  9
$DIMFXL
 40
1.0
  9
$DIMFXLON
 70
0
  9
$DIMJOGANG
 40
0.785398163397
  9
$DIMTFILL
 70
0
  9
$DIMTFILLCLR
 70
0
  9
$DIMARCSYM
 70
0
  9
$DIMLTYPE
  6

  9
$DIMLTEX1
  6

  9
$DIMLTEX2
  6

  9
$DIMTXTDIRECTION
 70
0
  9
$LUNITS
 70
2
  9
$LUPREC
 70
4
  9
$SKETCHINC
 40
1.0
  9
$FILLETRAD
 40
10.0
  9
$AUNITS
 70
0
  9
$AUPREC
 70
2
  9
$MENU
  1
.
  9
$ELEVATION
 40
0.0
  9
$PELEVATION
 40
0.0
  9
$THICKNESS
 40
0.0
  9
$LIMCHECK
 70
0
  9
$CHAMFERA
 40
0.0
  9
$CHAMFERB
 40
0.0
  9
$CHAMFERC
 40
0.0
  9
$CHAMFERD
 40
0.0
  9
$SKPOLY
 70
0
  9
$TDCREATE
 40
2461323.928148148
  9
$TDUCREATE
 40
2458532.153996898
  9
$TDUPDATE
 40
2461323.928148148
  9
$TDUUPDATE
 40
2458532.1544311
  9
$TDINDWG
 40
0.0
  9
$TDUSRTIMER
 40
0.0
  9
$USRTIMER
 70
1
  9
$ANGBASE
 50
0.0
  9
$ANGDIR
 70
0
  9
$PDMODE
 70
0
  9
$PDSIZE
 40
0.0
  9
$PLINEWID
 40
0.0
  9
$SPLFRAME
 70
0
  9
$SPLINETYPE
 70
6
  9
$SPLINESEGS
 70
8
  9
$HANDSEED
  5
10E
  9
$SURFTAB1
 70
6
  9
$SURFTAB2
 70
6
  9
$SURFTYPE
 70
6
  9
$SURFU
 70
6
  9
$SURFV
 70
6
  9
$UCSBASE
  2

  9
$UCSNAME
  2

  9
$UCSORG
 10
0.0
 20
0.0
 30
0.0
  9
$UCSXDIR
 10
1.0
 20
0.0
 30
0.0
  9
$UCSYDIR
 10
0.0
 20
1.0
 30
0.0
  9
$UCSORTHOREF
  2

  9
$UCSORTHOVIEW
 70
0
  9
$UCSORGTOP
 10
0.0
 20
0.0
 30
0.0
  9
$UCSORGBOTTOM
 10
0.0
 20
0.0
 30
0.0
  9
$UCSORGLEFT
 10
0.0
 20
0.0
 30
0.0
  9
$UCSORGRIGHT
 10
0.0
 20
0.0
 30
0.0
  9
$UCSORGFRONT
 10
0.0
 20
0.0
 30
0.0
  9
$UCSORGBACK
 10
0.0
 20
0.0
 30
0.0
  9
$PUCSBASE
  2

  9
$PUCSNAME
  2

  9
$PUCSORG
 10
0.0
 20
0.0
 30
0.0
  9
$PUCSXDIR
 10
1.0
 20
0.0
 30
0.0
  9
$PUCSYDIR
 10
0.0
 20
1.0
 30
0.0
  9
$PUCSORTHOREF
  2

  9
$PUCSORTHOVIEW
 70
0
  9
$PUCSORGTOP
 10
0.0
 20
0.0
 30
0.0
  9
$PUCSORGBOTTOM
 10
0.0
 20
0.0
 30
0.0
  9
$PUCSORGLEFT
 10
0.0
 20
0.0
 30
0.0
  9
$PUCSORGRIGHT
 10
0.0
 20
0.0
 30
0.0
  9
$PUCSORGFRONT
 10
0.0
 20
0.0
 30
0.0
  9
$PUCSORGBACK
 10
0.0
 20
0.0
 30
0.0
  9
$USERI1
 70
0
  9
$USERI2
 70
0
  9
$USERI3
 70
0
  9
$USERI4
 70
0
  9
$USERI5
 70
0
  9
$USERR1
 40
0.0
  9
$USERR2
 40
0.0
  9
$USERR3
 40
0.0
  9
$USERR4
 40
0.0
  9
$USERR5
 40
0.0
  9
$WORLDVIEW
 70
1
  9
$SHADEDGE
 70
3
  9
$SHADEDIF
 70
70
  9
$TILEMODE
 70
1
  9
$MAXACTVP
 70
64
  9
$PINSBASE
 10
0.0
 20
0.0
 30
0.0
  9
$PLIMCHECK
 70
0
  9
$PEXTMIN
 10
1e+20
 20
1e+20
 30
1e+20
  9
$PEXTMAX
 10
-1e+20
 20
-1e+20
 30
-1e+20
  9
$PLIMMIN
 10
0.0
 20
0.0
  9
$PLIMMAX
 10
420.0
 20
297.0
  9
$UNITMODE
 70
0
  9
$VISRETAIN
 70
1
  9
$PLINEGEN
 70
0
  9
$PSLTSCALE
 70
1
  9
$TREEDEPTH
 70
3020
  9
$CMLSTYLE
  2
Standard
  9
$CMLJUST
 70
0
  9
$CMLSCALE
 40
20.0
  9
$PROXYGRAPHICS
 70
1
  9
$MEASUREMENT
 70
1
  9
$CELWEIGHT
370
-1
  9
$ENDCAPS
280
0
  9
$JOINSTYLE
280
0
  9
$LWDISPLAY
290
1
  9
$INSUNITS
 70
4
  9
$HYPERLINKBASE
  1

  9
$STYLESHEET
  1

  9
$XEDIT
290
1
  9
$CEPSNTYPE
380
0
  9
$PSTYLEMODE
290
1
  9
$FINGERPRINTGUID
  2
{9847E42F-D89B-47DE-AD8B-D9DD81CF0236}
  9
$VERSIONGUID
  2
{EE20230A-1BC3-4974-AD82-046206A2A101}
  9
$EXTNAMES
290
1
  9
$PSVPSCALE
 40
0.0
  9
$OLESTARTUP
290
0
  9
$SORTENTS
280
127
  9
$INDEXCTL
280
0
  9
$HIDETEXT
280
1
  9
$XCLIPFRAME
280
1
  9
$HALOGAP
280
0
  9
$OBSCOLOR
 70
257
  9
$OBSLTYPE
280
0
  9
$INTERSECTIONDISPLAY
280
0
  9
$INTERSECTIONCOLOR
 70
257
  9
$DIMASSOC
280
2
  9
$PROJECTNAME
  1

  9
$CAMERADISPLAY
290
0
  9
$LENSLENGTH
 40
50.0
  9
$CAMERAHEIGHT
 40
0.0
  9
$STEPSPERSEC
 40
24.0
  9
$STEPSIZE
 40
100.0
  9
$3DDWFPREC
 40
2.0
  9
$PSOLWIDTH
 40
0.005
  9
$PSOLHEIGHT
 40
0.08
  9
$LOFTANG1
 40
1.570796326795
  9
$LOFTANG2
 40
1.570796326795
  9
$LOFTMAG1
 40
0.0
  9
$LOFTMAG2
 40
0.0
  9
$LOFTPARAM
 70
7
  9
$LOFTNORMALS
280
1
  9
$LATITUDE
 40
37.795
  9
$LONGITUDE
 40
-122.394
  9
$NORTHDIRECTION
 40
0.0
  9
$TIMEZONE
 70
-8000
  9
$LIGHTGLYPHDISPLAY
280
1
  9
$TILEMODELIGHTSYNCH
280
1
  9
$CMATERIAL
347
20
  9
$SOLIDHIST
280
0
  9
$SHOWHIST
280
1
  9
$DWFFRAME
280
2
  9
$DGNFRAME
280
2
  9
$REALWORLDSCALE
290
1
  9
$INTERFERECOLOR
 62
256
  9
$CSHADOW
280
0
  9
$SHADOWPLANELOCATION
 40
0.0
  0
ENDSEC
  0
SECTION
  2
CLASSES
  0
CLASS
  1
ACDBDICTIONARYWDFLT
  2
AcDbDictionaryWithDefault
  3
ObjectDBX Classes
 90
0
 91
0
280
0
281
0
  0
CLASS
  1
SUN
  2
AcDbSun
  3
SCENEOE
 90
1153
 91
0
280
0
281
0
  0
CLASS
  1
VISUALSTYLE
  2
AcDbVisualStyle
  3
ObjectDBX Classes
 90
4095
 91
0
280
0
281
0
  0
CLASS
  1
MATERIAL
  2
AcDbMaterial
  3
ObjectDBX Classes
 90
1153
 91
0
280
0
281
0
  0
CLASS
  1
SCALE
  2
AcDbScale
  3
ObjectDBX Classes
 90
1153
 91
0
280
0
281
0
  0
CLASS
  1
TABLESTYLE
  2
AcDbTableStyle
  3
ObjectDBX Classes
 90
4095
 91
0
280
0
281
0
  0
CLASS
  1
MLEADERSTYLE
  2
AcDbMLeaderStyle
  3
ACDB_MLEADERSTYLE_CLASS
 90
4095
 91
0
280
0
281
0
  0
CLASS
  1
DICTIONARYVAR
  2
AcDbDictionaryVar
  3
ObjectDBX Classes
 90
0
 91
0
280
0
281
0
  0
CLASS
  1
CELLSTYLEMAP
  2
AcDbCellStyleMap
  3
ObjectDBX Classes
 90
1152
 91
0
280
0
281
0
  0
CLASS
  1
MENTALRAYRENDERSETTINGS
  2
AcDbMentalRayRenderSettings
  3
SCENEOE
 90
1024
 91
0
280
0
281
0
  0
CLASS
  1
ACDBDETAILVIEWSTYLE
  2
AcDbDetailViewStyle
  3
ObjectDBX Classes
 90
1025
 91
0
280
0
281
0
  0
CLASS
  1
ACDBSECTIONVIEWSTYLE
  2
AcDbSectionViewStyle
  3
ObjectDBX Classes
 90
1025
 91
0
280
0
281
0
  0
CLASS
  1
RASTERVARIABLES
  2
AcDbRasterVariables
  3
ISM
 90
0
 91
0
280
0
281
0
  0
CLASS
  1
LAYOUT
  2
AcDbLayout
  3
ObjectDBX Classes
 90
0
 91
0
280
0
281
0
  0
CLASS
  1
ACDBPLACEHOLDER
  2
AcDbPlaceHolder
  3
ObjectDBX Classes
 90
0
 91
0
280
0
281
0
  0
ENDSEC
  0
SECTION
  2
TABLES
  0
TABLE
  2
VPORT
  5
8
330
0
100
AcDbSymbolTable
 70
1
  0
VPORT
  5
23
330
8
100
AcDbSymbolTableRecord
100
AcDbViewportTableRecord
  2
*Active
 70
0
 10
0.0
 20
0.0
 11
1.0
 21
1.0
 12
0.0
 22
0.0
 13
0.0
 23
0.0
 14
0.5
 24
0.5
 15
0.5
 25
0.5
 16
0.0
 26
0.0
 36
1.0
 17
0.0
 27
0.0
 37
0.0
 40
1000.0
 41
1.34
 42
50.0
 43
0.0
 44
0.0
 50
0.0
 51
0.0
 71
0
 72
1000
 73
1
 74
3
 75
0
 76
0
 77
0
 78
0
281
0
 65
0
146
0.0
  0
ENDTAB
  0
TABLE
  2
LTYPE
  5
2
330
0
100
AcDbSymbolTable
 70
3
  0
LTYPE
  5
24
330
2
100
AcDbSymbolTableRecord
100
AcDbLinetypeTableRecord
  2
ByBlock
 70
0
  3

 72
65
 73
0
 40
0.0
  0
LTYPE
  5
25
330
2
100
AcDbSymbolTableRecord
100
AcDbLinetypeTableRecord
  2
ByLayer
 70
0
  3

 72
65
 73
0
 40
0.0
  0
LTYPE
  5
26
330
2
100
AcDbSymbolTableRecord
100
AcDbLinetypeTableRecord
  2
Continuous
 70
0
  3

 72
65
 73
0
 40
0.0
  0
ENDTAB
  0
TABLE
  2
LAYER
  5
1
330
0
100
AcDbSymbolTable
 70
6
  0
LAYER
  5
27
330
1
100
AcDbSymbolTableRecord
100
AcDbLayerTableRecord
  2
0
 70
0
 62
7
  6
Continuous
370
-3
390
13
347
21
  0
LAYER
  5
28
330
1
100
AcDbSymbolTableRecord
100
AcDbLayerTableRecord
  2
Defpoints
 70
0
 62
7
  6
Continuous
290
0
370
-3
390
13
347
21
  0
LAYER
  5
32
330
1
100
AcDbSymbolTableRecord
100
AcDbLayerTableRecord
  2
LAMINA_FONDO
 70
0
 62
7
420
15132390
  6
Continuous
370
5
390
13
347
21
  0
LAYER
  5
34
330
1
100
AcDbSymbolTableRecord
100
AcDbLayerTableRecord
  2
LAMINA_MARCO
 70
0
 62
49
420
2236962
  6
Continuous
370
40
390
13
347
21
  0
LAYER
  5
40
330
1
100
AcDbSymbolTableRecord
100
AcDbLayerTableRecord
  2
LAMINA_TABLAS
 70
0
 62
49
420
2236962
  6
Continuous
370
15
390
13
347
21
  0
LAYER
  5
55
330
1
100
AcDbSymbolTableRecord
100
AcDbLayerTableRecord
  2
LAMINA_TEXTO
 70
0
 62
19
420
1118481
  6
Continuous
370
9
390
13
347
21
  0
ENDTAB
  0
TABLE
  2
STYLE
  5
5
330
0
100
AcDbSymbolTable
 70
3
  0
STYLE
  5
29
330
5
100
AcDbSymbolTableRecord
100
AcDbTextStyleTableRecord
  2
Standard
 70
0
 40
0.0
 41
1.0
 50
0.0
 71
0
 42
2.5
  3
txt
  4

  0
STYLE
  5
2F
330
5
100
AcDbSymbolTableRecord
100
AcDbTextStyleTableRecord
  2
ESTANDAR
 70
0
 40
0.0
 41
1.0
 50
0.0
 71
0
 42
2.5
  3
arial.ttf
  4

  0
STYLE
  5
30
330
5
100
AcDbSymbolTableRecord
100
AcDbTextStyleTableRecord
  2
NEGRITA
 70
0
 40
0.0
 41
1.0
 50
0.0
 71
0
 42
2.5
  3
arialbd.ttf
  4

  0
ENDTAB
  0
TABLE
  2
VIEW
  5
7
330
0
100
AcDbSymbolTable
 70
0
  0
ENDTAB
  0
TABLE
  2
UCS
  5
6
330
0
100
AcDbSymbolTable
 70
0
  0
ENDTAB
  0
TABLE
  2
APPID
  5
3
330
0
100
AcDbSymbolTable
 70
3
  0
APPID
  5
2A
330
3
100
AcDbSymbolTableRecord
100
AcDbRegAppTableRecord
  2
ACAD
 70
0
  0
APPID
  5
10B
330
3
100
AcDbSymbolTableRecord
100
AcDbRegAppTableRecord
  2
HATCHBACKGROUNDCOLOR
 70
0
  0
APPID
  5
10C
330
3
100
AcDbSymbolTableRecord
100
AcDbRegAppTableRecord
  2
EZDXF
 70
0
  0
ENDTAB
  0
TABLE
  2
DIMSTYLE
  5
4
330
0
100
AcDbSymbolTable
 70
2
100
AcDbDimStyleTable
  0
DIMSTYLE
105
2B
330
4
100
AcDbSymbolTableRecord
100
AcDbDimStyleTableRecord
  2
Standard
 70
0
 40
1.0
 41
2.5
 42
0.625
 43
3.75
 44
1.25
 45
0.0
 46
0.0
 47
0.0
 48
0.0
 49
2.5
140
2.5
141
2.5
142
0.0
143
0.03937007874
144
1.0
145
0.0
146
1.0
147
0.625
148
0.0
 69
0
 70
0
 71
0
 72
0
 73
0
 74
0
 75
0
 76
0
 77
1
 78
8
 79
3
170
0
171
3
172
1
173
0
174
0
175
0
176
0
177
0
178
0
179
2
271
2
272
2
273
2
274
3
275
0
276
0
277
2
278
44
279
0
280
0
281
0
282
0
283
0
284
8
285
0
286
0
288
0
289
3
290
0
371
-2
372
-2
  0
DIMSTYLE
105
31
330
4
100
AcDbSymbolTableRecord
100
AcDbDimStyleTableRecord
  2
COTAS_PAPEL
 70
0
 40
1.0
 41
2.0
 42
0.5291666666666666
 43
3.75
 44
0.8819444444444444
 45
0.0
 46
0.0
 47
0.0
 48
0.0
 49
2.5
140
1.8288
141
2.5
142
1.0943166666666666
143
0.03937007874
144
1.0
145
0.0
146
1.0
147
0.6
148
0.0
 69
0
 70
0
 71
0
 72
0
 73
0
 74
0
 75
0
 76
0
 77
1
 78
8
 79
3
170
0
171
3
172
1
173
0
174
0
175
0
176
8
177
8
178
250
179
2
271
0
272
2
273
2
274
3
275
0
276
0
277
2
278
44
279
0
280
0
281
0
282
0
283
0
284
8
285
0
286
0
288
0
289
3
290
0
340
2F
371
15
372
13
  0
ENDTAB
  0
TABLE
  2
BLOCK_RECORD
  5
9
330
0
100
AcDbSymbolTable
 70
2
  0
BLOCK_RECORD
  5
17
330
9
100
AcDbSymbolTableRecord
100
AcDbBlockTableRecord
  2
*Model_Space
340
1A
 70
0
280
1
281
0
  0
BLOCK_RECORD
  5
1B
330
9
100
AcDbSymbolTableRecord
100
AcDbBlockTableRecord
  2
*Paper_Space
340
1E
 70
0
280
1
281
0
  0
ENDTAB
  0
ENDSEC
  0
SECTION
  2
BLOCKS
  0
BLOCK
  5
18
330
17
100
AcDbEntity
  8
0
100
AcDbBlockBegin
  2
*Model_Space
 70
0
 10
0.0
 20
0.0
 30
0.0
  3
*Model_Space
  1

  0
ENDBLK
  5
19
330
17
100
AcDbEntity
  8
0
100
AcDbBlockEnd
  0
BLOCK
  5
1C
330
1B
100
AcDbEntity
  8
0
100
AcDbBlockBegin
  2
*Paper_Space
 70
0
 10
0.0
 20
0.0
 30
0.0
  3
*Paper_Space
  1

  0
ENDBLK
  5
1D
330
1B
100
AcDbEntity
  8
0
100
AcDbBlockEnd
  0
ENDSEC
  0
SECTION
  2
ENTITIES
  0
HATCH
  5
33
330
17
100
AcDbEntity
  8
LAMINA_FONDO
 62
7
420
15132390
100
AcDbHatch
 10
0.0
 20
0.0
 30
0.0
210
0.0
220
0.0
230
1.0
  2
SOLID
 70
1
 71
0
 91
1
 92
3
 72
0
 73
1
 93
4
 10
607.9811111111111
 20
353.4715277777778
 10
823.588888888889
 20
353.4715277777778
 10
823.588888888889
 20
348.17986111111117
 10
607.9811111111111
 20
348.17986111111117
 97
0
 75
0
 76
1
 98
0
  0
LINE
  5
35
330
17
100
AcDbEntity
  8
LAMINA_MARCO
100
AcDbLine
 10
8.0
 20
8.0
 30
0.0
 11
833.0
 21
8.0
 31
0.0
  0
LINE
  5
36
330
17
100
AcDbEntity
  8
LAMINA_MARCO
100
AcDbLine
 10
833.0
 20
8.0
 30
0.0
 11
833.0
 21
586.0000000000001
 31
0.0
  0
LINE
  5
37
330
17
100
AcDbEntity
  8
LAMINA_MARCO
100
AcDbLine
 10
833.0
 20
586.0000000000001
 30
0.0
 11
8.0
 21
586.0000000000001
 31
0.0
  0
LINE
  5
38
330
17
100
AcDbEntity
  8
LAMINA_MARCO
100
AcDbLine
 10
8.0
 20
586.0000000000001
 30
0.0
 11
8.0
 21
8.0
 31
0.0
  0
LINE
  5
39
330
17
100
AcDbEntity
  8
LAMINA_MARCO
100
AcDbLine
 10
8.0
 20
52.99999999999999
 30
0.0
 11
833.0
 21
52.99999999999999
 31
0.0
  0
LINE
  5
3A
330
17
100
AcDbEntity
  8
LAMINA_MARCO
100
AcDbLine
 10
115.25000000000001
 20
8.0
 30
0.0
 11
115.25000000000001
 21
52.99999999999999
 31
0.0
  0
LINE
  5
3B
330
17
100
AcDbEntity
  8
LAMINA_MARCO
100
AcDbLine
 10
206.00000000000003
 20
8.0
 30
0.0
 11
206.00000000000003
 21
52.99999999999999
 31
0.0
  0
LINE
  5
3C
330
17
100
AcDbEntity
  8
LAMINA_MARCO
100
AcDbLine
 10
354.50000000000006
 20
8.0
 30
0.0
 11
354.50000000000006
 21
52.99999999999999
 31
0.0
  0
LINE
  5
3D
330
17
100
AcDbEntity
  8
LAMINA_MARCO
100
AcDbLine
 10
486.50000000000006
 20
8.0
 30
0.0
 11
486.50000000000006
 21
52.99999999999999
 31
0.0
  0
LINE
  5
3E
330
17
100
AcDbEntity
  8
LAMINA_MARCO
100
AcDbLine
 10
659.75
 20
8.0
 30
0.0
 11
659.75
 21
52.99999999999999
 31
0.0
  0
LINE
  5
3F
330
17
100
AcDbEntity
  8
LAMINA_MARCO
100
AcDbLine
 10
767.0000000000001
 20
8.0
 30
0.0
 11
767.0000000000001
 21
52.99999999999999
 31
0.0
  0
LINE
  5
41
330
17
100
AcDbEntity
  8
LAMINA_TABLAS
370
15
100
AcDbLine
 10
607.9811111111111
 20
353.4715277777778
 30
0.0
 11
823.588888888889
 21
353.4715277777778
 31
0.0
  0
LINE
  5
42
330
17
100
AcDbEntity
  8
LAMINA_TABLAS
370
15
100
AcDbLine
 10
607.9811111111111
 20
276.74236111111117
 30
0.0
 11
823.588888888889
 21
276.74236111111117
 31
0.0
  0
LINE
  5
43
330
17
100
AcDbEntity
  8
LAMINA_TABLAS
370
15
100
AcDbLine
 10
607.9811111111111
 20
276.74236111111117
 30
0.0
 11
607.9811111111111
 21
353.4715277777778
 31
0.0
  0
LINE
  5
44
330
17
100
AcDbEntity
  8
LAMINA_TABLAS
370
15
100
AcDbLine
 10
823.588888888889
 20
276.74236111111117
 30
0.0
 11
823.588888888889
 21
353.4715277777778
 31
0.0
  0
LINE
  5
45
330
17
100
AcDbEntity
  8
LAMINA_TABLAS
370
15
100
AcDbLine
 10
607.9811111111111
 20
348.17986111111117
 30
0.0
 11
823.588888888889
 21
348.17986111111117
 31
0.0
  0
LINE
  5
46
330
17
100
AcDbEntity
  8
LAMINA_TABLAS
370
15
100
AcDbLine
 10
607.9811111111111
 20
342.8881944444445
 30
0.0
 11
823.588888888889
 21
342.8881944444445
 31
0.0
  0
LINE
  5
47
330
17
100
AcDbEntity
  8
LAMINA_TABLAS
370
15
100
AcDbLine
 10
607.9811111111111
 20
337.5965277777778
 30
0.0
 11
823.588888888889
 21
337.5965277777778
 31
0.0
  0
LINE
  5
48
330
17
100
AcDbEntity
  8
LAMINA_TABLAS
370
15
100
AcDbLine
 10
607.9811111111111
 20
332.30486111111117
 30
0.0
 11
823.588888888889
 21
332.30486111111117
 31
0.0
  0
LINE
  5
49
330
17
100
AcDbEntity
  8
LAMINA_TABLAS
370
15
100
AcDbLine
 10
607.9811111111111
 20
327.0131944444445
 30
0.0
 11
823.588888888889
 21
327.0131944444445
 31
0.0
  0
LINE
  5
4A
330
17
100
AcDbEntity
  8
LAMINA_TABLAS
370
15
100
AcDbLine
 10
607.9811111111111
 20
321.7215277777778
 30
0.0
 11
823.588888888889
 21
321.7215277777778
 31
0.0
  0
LINE
  5
4B
330
17
100
AcDbEntity
  8
LAMINA_TABLAS
370
15
100
AcDbLine
 10
607.9811111111111
 20
312.46111111111117
 30
0.0
 11
823.588888888889
 21
312.46111111111117
 31
0.0
  0
LINE
  5
4C
330
17
100
AcDbEntity
  8
LAMINA_TABLAS
370
15
100
AcDbLine
 10
607.9811111111111
 20
307.1694444444445
 30
0.0
 11
823.588888888889
 21
307.1694444444445
 31
0.0
  0
LINE
  5
4D
330
17
100
AcDbEntity
  8
LAMINA_TABLAS
370
15
100
AcDbLine
 10
607.9811111111111
 20
301.8777777777778
 30
0.0
 11
823.588888888889
 21
301.8777777777778
 31
0.0
  0
LINE
  5
4E
330
17
100
AcDbEntity
  8
LAMINA_TABLAS
370
15
100
AcDbLine
 10
607.9811111111111
 20
296.58611111111117
 30
0.0
 11
823.588888888889
 21
296.58611111111117
 31
0.0
  0
LINE
  5
4F
330
17
100
AcDbEntity
  8
LAMINA_TABLAS
370
15
100
AcDbLine
 10
607.9811111111111
 20
291.2944444444445
 30
0.0
 11
823.588888888889
 21
291.2944444444445
 31
0.0
  0
LINE
  5
50
330
17
100
AcDbEntity
  8
LAMINA_TABLAS
370
15
100
AcDbLine
 10
607.9811111111111
 20
286.0027777777778
 30
0.0
 11
823.588888888889
 21
286.0027777777778
 31
0.0
  0
LINE
  5
51
330
17
100
AcDbEntity
  8
LAMINA_TABLAS
370
15
100
AcDbLine
 10
625.2297333333333
 20
276.74236111111117
 30
0.0
 11
625.2297333333333
 21
353.4715277777778
 31
0.0
  0
LINE
  5
52
330
17
100
AcDbEntity
  8
LAMINA_TABLAS
370
15
100
AcDbLine
 10
661.8830555555555
 20
276.74236111111117
 30
0.0
 11
661.8830555555555
 21
353.4715277777778
 31
0.0
  0
LINE
  5
53
330
17
100
AcDbEntity
  8
LAMINA_TABLAS
370
15
100
AcDbLine
 10
776.1551777777779
 20
276.74236111111117
 30
0.0
 11
776.1551777777779
 21
353.4715277777778
 31
0.0
  0
LINE
  5
54
330
17
100
AcDbEntity
  8
LAMINA_TABLAS
370
15
100
AcDbLine
 10
802.0281111111112
 20
276.74236111111117
 30
0.0
 11
802.0281111111112
 21
353.4715277777778
 31
0.0
  0
TEXT
  5
56
330
17
100
AcDbEntity
  8
LAMINA_TEXTO
 62
251
420
5592405
100
AcDbText
 10
12.5
 20
45.5
 30
0.0
 40
2.4764999999999997
  1
PROYECTO:
  7
NEGRITA
 41
0.885
 11
12.5
 21
45.5
 31
0.0
100
AcDbText
  0
TEXT
  5
57
330
17
100
AcDbEntity
  8
LAMINA_TEXTO
 62
19
420
1118481
100
AcDbText
 10
12.5
 20
37.24999999999999
 30
0.0
 40
3.2384999999999993
  1
VIVIENDA EDGAR ORTEGA Y FAMILIA
  7
ESTANDAR
 41
0.885
 11
12.5
 21
37.24999999999999
 31
0.0
100
AcDbText
  0
TEXT
  5
58
330
17
100
AcDbEntity
  8
LAMINA_TEXTO
 62
251
420
5592405
100
AcDbText
 10
119.75000000000001
 20
45.5
 30
0.0
 40
2.4764999999999997
  1
PROPIETARIO:
  7
NEGRITA
 41
0.885
 11
119.75000000000001
 21
45.5
 31
0.0
100
AcDbText
  0
TEXT
  5
59
330
17
100
AcDbEntity
  8
LAMINA_TEXTO
 62
19
420
1118481
100
AcDbText
 10
119.75000000000001
 20
37.24999999999999
 30
0.0
 40
3.2384999999999993
  1
SR. EDGAR ORTEGA
  7
ESTANDAR
 41
0.885
 11
119.75000000000001
 21
37.24999999999999
 31
0.0
100
AcDbText
  0
TEXT
  5
5A
330
17
100
AcDbEntity
  8
LAMINA_TEXTO
 62
251
420
5592405
100
AcDbText
 10
210.50000000000006
 20
45.5
 30
0.0
 40
2.4764999999999997
  1
DISEÑO ARQUITECTÓNICO:
  7
NEGRITA
 41
0.885
 11
210.50000000000006
 21
45.5
 31
0.0
100
AcDbText
  0
TEXT
  5
5B
330
17
100
AcDbEntity
  8
LAMINA_TEXTO
 62
19
420
1118481
100
AcDbText
 10
210.50000000000006
 20
37.24999999999999
 30
0.0
 40
3.2384999999999993
  1
DAVID SAAVEDRA
  7
ESTANDAR
 41
0.885
 11
210.50000000000006
 21
37.24999999999999
 31
0.0
100
AcDbText
  0
TEXT
  5
5C
330
17
100
AcDbEntity
  8
LAMINA_TEXTO
 62
251
420
5592405
100
AcDbText
 10
359.00000000000006
 20
45.5
 30
0.0
 40
2.4764999999999997
  1
DISEÑO ESTRUCTURAL:
  7
NEGRITA
 41
0.885
 11
359.00000000000006
 21
45.5
 31
0.0
100
AcDbText
  0
TEXT
  5
5D
330
17
100
AcDbEntity
  8
LAMINA_TEXTO
 62
19
420
1118481
100
AcDbText
 10
359.00000000000006
 20
37.24999999999999
 30
0.0
 40
3.2384999999999993
  1
ING. PATRICIO RODRIGUEZ
  7
ESTANDAR
 41
0.885
 11
359.00000000000006
 21
37.24999999999999
 31
0.0
100
AcDbText
  0
TEXT
  5
5E
330
17
100
AcDbEntity
  8
LAMINA_TEXTO
 62
19
420
1118481
100
AcDbText
 10
359.00000000000006
 20
31.549999999999994
 30
0.0
 40
3.2384999999999993
  1
SENESCYT: 1007-15-1429459
  7
ESTANDAR
 41
0.885
 11
359.00000000000006
 21
31.549999999999994
 31
0.0
100
AcDbText
  0
TEXT
  5
5F
330
17
100
AcDbEntity
  8
LAMINA_TEXTO
 62
251
420
5592405
100
AcDbText
 10
491.00000000000006
 20
45.5
 30
0.0
 40
2.4764999999999997
  1
CONTENIDO:
  7
NEGRITA
 41
0.885
 11
491.00000000000006
 21
45.5
 31
0.0
100
AcDbText
  0
TEXT
  5
60
330
17
100
AcDbEntity
  8
LAMINA_TEXTO
 62
19
420
1118481
100
AcDbText
 10
491.00000000000006
 20
36.5
 30
0.0
 40
4.191
  1
Conexiones de vigas de acero
  7
NEGRITA
 41
0.885
 11
491.00000000000006
 21
36.5
 31
0.0
100
AcDbText
  0
TEXT
  5
61
330
17
100
AcDbEntity
  8
LAMINA_TEXTO
 62
19
420
1118481
100
AcDbText
 10
491.00000000000006
 20
28.999999999999996
 30
0.0
 40
2.6669999999999994
  1
Anclajes, bastones, estribos y placas de las conexiones de las vigas IPE 240 e IPE 200.
  7
ESTANDAR
 41
0.885
 11
491.00000000000006
 21
28.999999999999996
 31
0.0
100
AcDbText
  0
TEXT
  5
62
330
17
100
AcDbEntity
  8
LAMINA_TEXTO
 62
251
420
5592405
100
AcDbText
 10
664.25
 20
45.5
 30
0.0
 40
2.4764999999999997
  1
FECHA:
  7
NEGRITA
 41
0.885
 11
664.25
 21
45.5
 31
0.0
100
AcDbText
  0
TEXT
  5
63
330
17
100
AcDbEntity
  8
LAMINA_TEXTO
 62
19
420
1118481
100
AcDbText
 10
664.25
 20
37.24999999999999
 30
0.0
 40
3.2384999999999993
  1
OCTUBRE 2026
  7
ESTANDAR
 41
0.885
 11
664.25
 21
37.24999999999999
 31
0.0
100
AcDbText
  0
TEXT
  5
64
330
17
100
AcDbEntity
  8
LAMINA_TEXTO
 62
251
420
5592405
100
AcDbText
 10
771.5
 20
45.5
 30
0.0
 40
2.4764999999999997
  1
LÁMINA:
  7
NEGRITA
 41
0.885
 11
771.5
 21
45.5
 31
0.0
100
AcDbText
  0
TEXT
  5
65
330
17
100
AcDbEntity
  8
LAMINA_TEXTO
 62
19
420
1118481
100
AcDbText
 10
790.7321750000001
 20
23.000000000000004
 30
0.0
 40
6.857999999999999
  1
1 / 1
  7
NEGRITA
 41
0.885
 11
790.7321750000001
 21
23.000000000000004
 31
0.0
100
AcDbText
  0
TEXT
  5
66
330
17
100
AcDbEntity
  8
LAMINA_TEXTO
 62
250
420
0
100
AcDbText
 10
17.41111111111103
 20
569.6513888888888
 30
0.0
 40
4.444999999999999
  1
Conexiones de vigas de acero a vigas y columnas de hormigón
  7
NEGRITA
 41
0.885
 11
17.41111111111103
 21
569.6513888888888
 31
0.0
100
AcDbText
  0
TEXT
  5
67
330
17
100
AcDbEntity
  8
LAMINA_TEXTO
 62
250
420
0
100
AcDbText
 10
17.41111111111103
 20
557.3923611111111
 30
0.0
 40
3.4924999999999993
  1
1. Planta de ubicación
  7
NEGRITA
 41
0.885
 11
17.41111111111103
 21
557.3923611111111
 31
0.0
100
AcDbText
  0
TEXT
  5
68
330
17
100
AcDbEntity
  8
LAMINA_TEXTO
 62
250
420
0
100
AcDbText
 10
17.41111111111103
 20
284.71833462412224
 30
0.0
 40
2.6987499999999995
  1
PLANTA DE UBICACIÓN
  7
NEGRITA
 41
0.885
 11
17.41111111111103
 21
284.71833462412224
 31
0.0
100
AcDbText
  0
TEXT
  5
69
330
17
100
AcDbEntity
  8
LAMINA_TEXTO
 62
250
420
0
100
AcDbText
 10
17.41111111111103
 20
280.4409040685667
 30
0.0
 40
2.2859999999999996
  1
Rojo: unión placa extremo-columna
  7
NEGRITA
 41
0.885
 11
17.41111111111103
 21
280.4409040685667
 31
0.0
100
AcDbText
  0
TEXT
  5
6A
330
17
100
AcDbEntity
  8
LAMINA_TEXTO
 62
250
420
0
100
AcDbText
 10
71.39563611111102
 20
280.4409040685667
 30
0.0
 40
2.2859999999999996
  1
 (B4, C4, D4X, D4Y, D3), con 2 bastones Ø12 (naranja) en la viga en línea; punto naranja: pata hacia abajo.
  7
ESTANDAR
 41
0.885
 11
71.39563611111102
 21
280.4409040685667
 31
0.0
100
AcDbText
  0
TEXT
  5
6B
330
17
100
AcDbEntity
  8
LAMINA_TEXTO
 62
250
420
0
100
AcDbText
 10
224.23061111111102
 20
280.4409040685667
 30
0.0
 40
2.2859999999999996
  1
Círculos: conexión sándwich (10)
  7
NEGRITA
 41
0.885
 11
224.23061111111102
 21
280.4409040685667
 31
0.0
100
AcDbText
  0
TEXT
  5
6C
330
17
100
AcDbEntity
  8
LAMINA_TEXTO
 62
250
420
0
100
AcDbText
 10
274.690886111111
 20
280.4409040685667
 30
0.0
 40
2.2859999999999996
  1
, con los 2 anclajes que atraviesan
  7
ESTANDAR
 41
0.885
 11
274.690886111111
 21
280.4409040685667
 31
0.0
100
AcDbText
  0
TEXT
  5
6D
330
17
100
AcDbEntity
  8
LAMINA_TEXTO
 62
250
420
0
100
AcDbText
 10
17.41111111111103
 20
276.3839596241222
 30
0.0
 40
2.2859999999999996
  1
la viga. Viga D entre 3 y 4: estribos Ø10 cada 110 / 140 / 110. Ejes 4 (B-C y C-D):
  7
ESTANDAR
 41
0.885
 11
17.41111111111103
 21
276.3839596241222
 31
0.0
100
AcDbText
  0
TEXT
  5
6E
330
17
100
AcDbEntity
  8
LAMINA_TEXTO
 62
250
420
0
100
AcDbText
 10
133.17478611111102
 20
276.3839596241222
 30
0.0
 40
2.2859999999999996
  1
VCS+1Ø12
  7
NEGRITA
 41
0.885
 11
133.17478611111102
 21
276.3839596241222
 31
0.0
100
AcDbText
  0
TEXT
  5
6F
330
17
100
AcDbEntity
  8
LAMINA_TEXTO
 62
250
420
0
100
AcDbText
 10
149.32283611111103
 20
276.3839596241222
 30
0.0
 40
2.2859999999999996
  1
, varilla extra abajo (celeste).
  7
ESTANDAR
 41
0.885
 11
149.32283611111103
 21
276.3839596241222
 31
0.0
100
AcDbText
  0
TEXT
  5
70
330
17
100
AcDbEntity
  8
LAMINA_TEXTO
 62
250
420
0
100
AcDbText
 10
18.82222222222214
 20
174.9898624019
 30
0.0
 40
2.6987499999999995
  1
CORTE A-A: VCS+1Ø12 (EJE 4)
  7
NEGRITA
 41
0.885
 11
18.82222222222214
 21
174.9898624019
 31
0.0
100
AcDbText
  0
TEXT
  5
71
330
17
100
AcDbEntity
  8
LAMINA_TEXTO
 62
250
420
0
100
AcDbText
 10
18.82222222222214
 20
170.71243184634446
 30
0.0
 40
2.2859999999999996
  1
3Ø12 arriba, 4Ø12 abajo (1-2-1).
  7
ESTANDAR
 41
0.885
 11
18.82222222222214
 21
170.71243184634446
 31
0.0
100
AcDbText
  0
TEXT
  5
72
330
17
100
AcDbEntity
  8
LAMINA_TEXTO
 62
250
420
0
100
AcDbText
 10
65.93922222222214
 20
170.71243184634446
 30
0.0
 40
2.2859999999999996
  1
Varilla extra Ø12, L = 1500,
  7
NEGRITA
 41
0.885
 11
65.93922222222214
 21
170.71243184634446
 31
0.0
100
AcDbText
  0
TEXT
  5
73
330
17
100
AcDbEntity
  8
LAMINA_TEXTO
 62
250
420
0
100
AcDbText
 10
18.82222222222214
 20
166.65548740190002
 30
0.0
 40
2.2859999999999996
  1
centrada en el cruce con la IPE 200 (ejes F y G).
  7
NEGRITA
 41
0.885
 11
18.82222222222214
 21
166.65548740190002
 31
0.0
100
AcDbText
  0
TEXT
  5
74
330
17
100
AcDbEntity
  8
LAMINA_TEXTO
 62
250
420
0
100
AcDbText
 10
120.35481481481474
 20
174.9898624019
 30
0.0
 40
2.6987499999999995
  1
CORTE B-B: VCM CON BASTONES
  7
NEGRITA
 41
0.885
 11
120.35481481481474
 21
174.9898624019
 31
0.0
100
AcDbText
  0
TEXT
  5
75
330
17
100
AcDbEntity
  8
LAMINA_TEXTO
 62
250
420
0
100
AcDbText
 10
120.35481481481474
 20
170.71243184634446
 30
0.0
 40
2.2859999999999996
  1
B4, C4, D4Y. VCM 5Ø12 + 5Ø12 (pares en las esquinas).
  7
ESTANDAR
 41
0.885
 11
120.35481481481474
 21
170.71243184634446
 31
0.0
100
AcDbText
  0
TEXT
  5
76
330
17
100
AcDbEntity
  8
LAMINA_TEXTO
 62
250
420
0
100
AcDbText
 10
202.50158981481474
 20
170.71243184634446
 30
0.0
 40
2.2859999999999996
  1
Bastones
  7
NEGRITA
 41
0.885
 11
202.50158981481474
 21
170.71243184634446
 31
0.0
100
AcDbText
  0
TEXT
  5
77
330
17
100
AcDbEntity
  8
LAMINA_TEXTO
 62
250
420
0
100
AcDbText
 10
120.35481481481474
 20
166.65548740190002
 30
0.0
 40
2.2859999999999996
  1
Ø12 junto al par de esquina, a 80 de arriba.
  7
NEGRITA
 41
0.885
 11
120.35481481481474
 21
166.65548740190002
 31
0.0
100
AcDbText
  0
TEXT
  5
78
330
17
100
AcDbEntity
  8
LAMINA_TEXTO
 62
250
420
0
100
AcDbText
 10
221.88740740740738
 20
174.9898624019
 30
0.0
 40
2.6987499999999995
  1
CORTE C-C: VCS CON BASTONES
  7
NEGRITA
 41
0.885
 11
221.88740740740738
 21
174.9898624019
 31
0.0
100
AcDbText
  0
TEXT
  5
79
330
17
100
AcDbEntity
  8
LAMINA_TEXTO
 62
250
420
0
100
AcDbText
 10
221.88740740740738
 20
170.71243184634446
 30
0.0
 40
2.2859999999999996
  1
D4X y D3. VCS 3Ø12 + 3Ø12.
  7
ESTANDAR
 41
0.885
 11
221.88740740740738
 21
170.71243184634446
 31
0.0
100
AcDbText
  0
TEXT
  5
7A
330
17
100
AcDbEntity
  8
LAMINA_TEXTO
 62
250
420
0
100
AcDbText
 10
265.56588240740734
 20
170.71243184634446
 30
0.0
 40
2.2859999999999996
  1
Bastones Ø12 contra el estribo,
  7
NEGRITA
 41
0.885
 11
265.56588240740734
 21
170.71243184634446
 31
0.0
100
AcDbText
  0
TEXT
  5
7B
330
17
100
AcDbEntity
  8
LAMINA_TEXTO
 62
250
420
0
100
AcDbText
 10
221.88740740740738
 20
166.65548740190002
 30
0.0
 40
2.2859999999999996
  1
debajo de las esquinas, a 80 de arriba (en D4X: a 98).
  7
NEGRITA
 41
0.885
 11
221.88740740740738
 21
166.65548740190002
 31
0.0
100
AcDbText
  0
TEXT
  5
7C
330
17
100
AcDbEntity
  8
LAMINA_TEXTO
 62
250
420
0
100
AcDbText
 10
324.8311111111111
 20
570.9743055555556
 30
0.0
 40
3.4924999999999993
  1
2. Unión placa extremo - columna (C4; igual en B4, D4X, D4Y, D3)
  7
NEGRITA
 41
0.885
 11
324.8311111111111
 21
570.9743055555556
 31
0.0
100
AcDbText
  0
TEXT
  5
7D
330
17
100
AcDbEntity
  8
LAMINA_TEXTO
 62
250
420
0
100
AcDbText
 10
324.8311111111111
 20
462.31952675937265
 30
0.0
 40
2.6987499999999995
  1
DETALLE 2.1 - C4: CORTE POR EL EJE DEL VOLADIZO
  7
NEGRITA
 41
0.885
 11
324.8311111111111
 21
462.31952675937265
 31
0.0
100
AcDbText
  0
TEXT
  5
7E
330
17
100
AcDbEntity
  8
LAMINA_TEXTO
 62
250
420
0
100
AcDbText
 10
324.8311111111111
 20
458.0420962038171
 30
0.0
 40
2.2859999999999996
  1
Anclajes A1 (rojo) con placa de cabeza P1 dentro de la jaula de estribos. Bastones Ø12 (naranja) con pata de 200 hacia abajo. Estribos del nudo Ø10 (morado) en 4 niveles; 2 estribos Ø14 (verde) en
  7
ESTANDAR
 41
0.885
 11
324.8311111111111
 21
458.0420962038171
 31
0.0
100
AcDbText
  0
TEXT
  5
7F
330
17
100
AcDbEntity
  8
LAMINA_TEXTO
 62
250
420
0
100
AcDbText
 10
324.8311111111111
 20
453.9851517593726
 30
0.0
 40
2.2859999999999996
  1
la cabeza de la columna. Transparente: va después.
  7
ESTANDAR
 41
0.885
 11
324.8311111111111
 21
453.9851517593726
 31
0.0
100
AcDbText
  0
TEXT
  5
80
330
17
100
AcDbEntity
  8
LAMINA_TEXTO
 62
250
420
0
100
AcDbText
 10
326.2422222222222
 20
371.78632417396864
 30
0.0
 40
2.6987499999999995
  1
DETALLE 2.2 - C4: VISTA DESDE EL VOLADIZO
  7
NEGRITA
 41
0.885
 11
326.2422222222222
 21
371.78632417396864
 31
0.0
100
AcDbText
  0
TEXT
  5
81
330
17
100
AcDbEntity
  8
LAMINA_TEXTO
 62
250
420
0
100
AcDbText
 10
326.2422222222222
 20
367.5088936184131
 30
0.0
 40
2.2859999999999996
  1
Placa P2 140x260x12 sobre grout de 25.
  7
ESTANDAR
 41
0.885
 11
326.2422222222222
 21
367.5088936184131
 31
0.0
100
AcDbText
  0
TEXT
  5
82
330
17
100
AcDbEntity
  8
LAMINA_TEXTO
 62
250
420
0
100
AcDbText
 10
384.66222222222217
 20
367.5088936184131
 30
0.0
 40
2.2859999999999996
  1
En D4X los A1 van a 62 y 173
  7
NEGRITA
 41
0.885
 11
384.66222222222217
 21
367.5088936184131
 31
0.0
100
AcDbText
  0
TEXT
  5
83
330
17
100
AcDbEntity
  8
LAMINA_TEXTO
 62
250
420
0
100
AcDbText
 10
428.4295972222222
 20
367.5088936184131
 30
0.0
 40
2.2859999999999996
  1
 (cruzan debajo de los de
  7
ESTANDAR
 41
0.885
 11
428.4295972222222
 21
367.5088936184131
 31
0.0
100
AcDbText
  0
TEXT
  5
84
330
17
100
AcDbEntity
  8
LAMINA_TEXTO
 62
250
420
0
100
AcDbText
 10
326.2422222222222
 20
363.45194917396867
 30
0.0
 40
2.2859999999999996
  1
D4Y).
  7
ESTANDAR
 41
0.885
 11
326.2422222222222
 21
363.45194917396867
 31
0.0
100
AcDbText
  0
TEXT
  5
85
330
17
100
AcDbEntity
  8
LAMINA_TEXTO
 62
250
420
0
100
AcDbText
 10
466.40611111111116
 20
312.5910545371504
 30
0.0
 40
2.6987499999999995
  1
DETALLE 2.3 - C4: PLANTA A LA ALTURA DE LOS A1
  7
NEGRITA
 41
0.885
 11
466.40611111111116
 21
312.5910545371504
 31
0.0
100
AcDbText
  0
TEXT
  5
86
330
17
100
AcDbEntity
  8
LAMINA_TEXTO
 62
250
420
0
100
AcDbText
 10
466.40611111111116
 20
308.31362398159484
 30
0.0
 40
2.2859999999999996
  1
Bastones a ±82 del eje, junto a las barras de esquina de la VCM. Tramo recto 1220 desde la cara
  7
ESTANDAR
 41
0.885
 11
466.40611111111116
 21
308.31362398159484
 31
0.0
100
AcDbText
  0
TEXT
  5
87
330
17
100
AcDbEntity
  8
LAMINA_TEXTO
 62
250
420
0
100
AcDbText
 10
466.40611111111116
 20
304.2566795371504
 30
0.0
 40
2.2859999999999996
  1
exterior de la pata.
  7
ESTANDAR
 41
0.885
 11
466.40611111111116
 21
304.2566795371504
 31
0.0
100
AcDbText
  0
TEXT
  5
88
330
17
100
AcDbEntity
  8
LAMINA_TEXTO
 62
250
420
0
100
AcDbText
 10
324.8311111111111
 20
189.8625823149282
 30
0.0
 40
2.6987499999999995
  1
DETALLE 2.4 - D4: VISTA DESDE EL SUR
  7
NEGRITA
 41
0.885
 11
324.8311111111111
 21
189.8625823149282
 31
0.0
100
AcDbText
  0
TEXT
  5
89
330
17
100
AcDbEntity
  8
LAMINA_TEXTO
 62
250
420
0
100
AcDbText
 10
324.8311111111111
 20
185.58515175937265
 30
0.0
 40
2.2859999999999996
  1
Dos voladizos.
  7
ESTANDAR
 41
0.885
 11
324.8311111111111
 21
185.58515175937265
 31
0.0
100
AcDbText
  0
TEXT
  5
8A
330
17
100
AcDbEntity
  8
LAMINA_TEXTO
 62
250
420
0
100
AcDbText
 10
346.3576111111111
 20
185.58515175937265
 30
0.0
 40
2.2859999999999996
  1
A1 de D4X a 62 y 173, debajo de los de D4Y; bastones de D4X a 98, hacia el oeste por la VCS del eje 4.
  7
NEGRITA
 41
0.885
 11
346.3576111111111
 21
185.58515175937265
 31
0.0
100
AcDbText
  0
TEXT
  5
8B
330
17
100
AcDbEntity
  8
LAMINA_TEXTO
 62
250
420
0
100
AcDbText
 10
500.0625361111111
 20
185.58515175937265
 30
0.0
 40
2.2859999999999996
  1
 D4Y igual a C4. Correr los estribos del nudo lo necesario.
  7
ESTANDAR
 41
0.885
 11
500.0625361111111
 21
185.58515175937265
 31
0.0
100
AcDbText
  0
TEXT
  5
8C
330
17
100
AcDbEntity
  8
LAMINA_TEXTO
 62
250
420
0
100
AcDbText
 10
324.8311111111111
 20
176.32473509270596
 30
0.0
 40
3.4924999999999993
  1
3. Conexión sándwich (A, B, C, D en 10 y 11; F4, G4)
  7
NEGRITA
 41
0.885
 11
324.8311111111111
 21
176.32473509270596
 31
0.0
100
AcDbText
  0
TEXT
  5
8D
330
17
100
AcDbEntity
  8
LAMINA_TEXTO
 62
250
420
0
100
AcDbText
 10
326.2422222222222
 20
90.83037077646664
 30
0.0
 40
2.6987499999999995
  1
DETALLE 3.1 - SÁNDWICH: VISTA LATERAL DE LA VIGA
  7
NEGRITA
 41
0.885
 11
326.2422222222222
 21
90.83037077646664
 31
0.0
100
AcDbText
  0
TEXT
  5
8E
330
17
100
AcDbEntity
  8
LAMINA_TEXTO
 62
250
420
0
100
AcDbText
 10
326.2422222222222
 20
86.55294022091108
 30
0.0
 40
2.2859999999999996
  1
Placa P3 140x220x12 sobre grout de 25 a cada lado (después).
  7
ESTANDAR
 41
0.885
 11
326.2422222222222
 21
86.55294022091108
 31
0.0
100
AcDbText
  0
TEXT
  5
8F
330
17
100
AcDbEntity
  8
LAMINA_TEXTO
 62
250
420
0
100
AcDbText
 10
416.9583222222222
 20
86.55294022091108
 30
0.0
 40
2.2859999999999996
  1
Un estribo a cada lado de los
  7
NEGRITA
 41
0.885
 11
416.9583222222222
 21
86.55294022091108
 31
0.0
100
AcDbText
  0
TEXT
  5
90
330
17
100
AcDbEntity
  8
LAMINA_TEXTO
 62
250
420
0
100
AcDbText
 10
326.2422222222222
 20
82.49599577646663
 30
0.0
 40
2.2859999999999996
  1
anclajes
  7
NEGRITA
 41
0.885
 11
326.2422222222222
 21
82.49599577646663
 31
0.0
100
AcDbText
  0
TEXT
  5
91
330
17
100
AcDbEntity
  8
LAMINA_TEXTO
 62
250
420
0
100
AcDbText
 10
338.77394722222226
 20
82.49599577646663
 30
0.0
 40
2.2859999999999996
  1
, los demás cada 110 desde ellos.
  7
ESTANDAR
 41
0.885
 11
338.77394722222226
 21
82.49599577646663
 31
0.0
100
AcDbText
  0
TEXT
  5
92
330
17
100
AcDbEntity
  8
LAMINA_TEXTO
 62
250
420
0
100
AcDbText
 10
466.40611111111116
 20
73.0785545371504
 30
0.0
 40
2.6987499999999995
  1
DETALLE 3.2 - SÁNDWICH: PLANTA POR LOS ANCLAJES
  7
NEGRITA
 41
0.885
 11
466.40611111111116
 21
73.0785545371504
 31
0.0
100
AcDbText
  0
TEXT
  5
93
330
17
100
AcDbEntity
  8
LAMINA_TEXTO
 62
250
420
0
100
AcDbText
 10
466.40611111111116
 20
68.80112398159484
 30
0.0
 40
2.2859999999999996
  1
Anclajes A2 pasantes, L = 440, entre estribos. Grout 25, placas, tuercas e IPE 200: después.
  7
ESTANDAR
 41
0.885
 11
466.40611111111116
 21
68.80112398159484
 31
0.0
100
AcDbText
  0
TEXT
  5
94
330
17
100
AcDbEntity
  8
LAMINA_TEXTO
 62
250
420
0
100
AcDbText
 10
607.9811111111111
 20
570.9743055555556
 30
0.0
 40
3.4924999999999993
  1
4. Piezas, cantidades y notas
  7
NEGRITA
 41
0.885
 11
607.9811111111111
 21
570.9743055555556
 31
0.0
100
AcDbText
  0
TEXT
  5
95
330
17
100
AcDbEntity
  8
LAMINA_TEXTO
 62
250
420
0
100
AcDbText
 10
609.3922222222222
 20
502.72812500000003
 30
0.0
 40
2.6987499999999995
  1
DETALLE 4.1 - ESTRIBO Ø14
  7
NEGRITA
 41
0.885
 11
609.3922222222222
 21
502.72812500000003
 31
0.0
100
AcDbText
  0
TEXT
  5
96
330
17
100
AcDbEntity
  8
LAMINA_TEXTO
 62
250
420
0
100
AcDbText
 10
609.3922222222222
 20
498.4506944444445
 30
0.0
 40
2.2859999999999996
  1
Cabeza de la columna (105 sobre las vigas): 2
  7
ESTANDAR
 41
0.885
 11
609.3922222222222
 21
498.4506944444445
 31
0.0
100
AcDbText
  0
TEXT
  5
97
330
17
100
AcDbEntity
  8
LAMINA_TEXTO
 62
250
420
0
100
AcDbText
 10
609.3922222222222
 20
494.39375
 30
0.0
 40
2.2859999999999996
  1
por columna, juntos, a 63 de la cara superior de
  7
ESTANDAR
 41
0.885
 11
609.3922222222222
 21
494.39375
 31
0.0
100
AcDbText
  0
TEXT
  5
98
330
17
100
AcDbEntity
  8
LAMINA_TEXTO
 62
250
420
0
100
AcDbText
 10
609.3922222222222
 20
490.3368055555556
 30
0.0
 40
2.2859999999999996
  1
la columna.
  7
ESTANDAR
 41
0.885
 11
609.3922222222222
 21
490.3368055555556
 31
0.0
100
AcDbText
  0
TEXT
  5
99
330
17
100
AcDbEntity
  8
LAMINA_TEXTO
 62
250
420
0
100
AcDbText
 10
681.2614814814815
 20
502.72812500000003
 30
0.0
 40
2.6987499999999995
  1
DETALLE 4.2 - ESTRIBO DEL NUDO
  7
NEGRITA
 41
0.885
 11
681.2614814814815
 21
502.72812500000003
 31
0.0
100
AcDbText
  0
TEXT
  5
9A
330
17
100
AcDbEntity
  8
LAMINA_TEXTO
 62
250
420
0
100
AcDbText
 10
681.2614814814815
 20
497.8774305555556
 30
0.0
 40
2.6987499999999995
  1
Ø10
  7
NEGRITA
 41
0.885
 11
681.2614814814815
 21
497.8774305555556
 31
0.0
100
AcDbText
  0
TEXT
  5
9B
330
17
100
AcDbEntity
  8
LAMINA_TEXTO
 62
250
420
0
100
AcDbText
 10
681.2614814814815
 20
493.6
 30
0.0
 40
2.2859999999999996
  1
4 niveles: 110, 155, 230 y 305 bajo la cara
  7
ESTANDAR
 41
0.885
 11
681.2614814814815
 21
493.6
 31
0.0
100
AcDbText
  0
TEXT
  5
9C
330
17
100
AcDbEntity
  8
LAMINA_TEXTO
 62
250
420
0
100
AcDbText
 10
681.2614814814815
 20
489.54305555555555
 30
0.0
 40
2.2859999999999996
  1
superior de las vigas (cada 75 o menos).
  7
ESTANDAR
 41
0.885
 11
681.2614814814815
 21
489.54305555555555
 31
0.0
100
AcDbText
  0
TEXT
  5
9D
330
17
100
AcDbEntity
  8
LAMINA_TEXTO
 62
250
420
0
100
AcDbText
 10
753.1307407407407
 20
502.72812500000003
 30
0.0
 40
2.6987499999999995
  1
DETALLE 4.3 - OPCIÓN: Ø10 EN 4
  7
NEGRITA
 41
0.885
 11
753.1307407407407
 21
502.72812500000003
 31
0.0
100
AcDbText
  0
TEXT
  5
9E
330
17
100
AcDbEntity
  8
LAMINA_TEXTO
 62
250
420
0
100
AcDbText
 10
753.1307407407407
 20
497.8774305555556
 30
0.0
 40
2.6987499999999995
  1
PIEZAS
  7
NEGRITA
 41
0.885
 11
753.1307407407407
 21
497.8774305555556
 31
0.0
100
AcDbText
  0
TEXT
  5
9F
330
17
100
AcDbEntity
  8
LAMINA_TEXTO
 62
250
420
0
100
AcDbText
 10
753.1307407407407
 20
493.6
 30
0.0
 40
2.2859999999999996
  1
4 piezas rectas con ganchos de 135° a las
  7
ESTANDAR
 41
0.885
 11
753.1307407407407
 21
493.6
 31
0.0
100
AcDbText
  0
TEXT
  5
A0
330
17
100
AcDbEntity
  8
LAMINA_TEXTO
 62
250
420
0
100
AcDbText
 10
753.1307407407407
 20
489.54305555555555
 30
0.0
 40
2.2859999999999996
  1
barras de esquina, una por cara.
  7
ESTANDAR
 41
0.885
 11
753.1307407407407
 21
489.54305555555555
 31
0.0
100
AcDbText
  0
TEXT
  5
A1
330
17
100
AcDbEntity
  8
LAMINA_TEXTO
 62
250
420
0
100
AcDbText
 10
609.3922222222222
 20
437.090625
 30
0.0
 40
2.6987499999999995
  1
DETALLE 4.4 - ANCLAJE A1 (COLUMNAS)
  7
NEGRITA
 41
0.885
 11
609.3922222222222
 21
437.090625
 31
0.0
100
AcDbText
  0
TEXT
  5
A2
330
17
100
AcDbEntity
  8
LAMINA_TEXTO
 62
250
420
0
100
AcDbText
 10
609.3922222222222
 20
432.81319444444443
 30
0.0
 40
2.2859999999999996
  1
Desde la cara de la columna. Placa de cabeza P1, arandela y tuerca:
  7
ESTANDAR
 41
0.885
 11
609.3922222222222
 21
432.81319444444443
 31
0.0
100
AcDbText
  0
TEXT
  5
A3
330
17
100
AcDbEntity
  8
LAMINA_TEXTO
 62
250
420
0
100
AcDbText
 10
609.3922222222222
 20
428.75624999999997
 30
0.0
 40
2.2859999999999996
  1
antes. Tuercas de nivelación y exterior: después.
  7
ESTANDAR
 41
0.885
 11
609.3922222222222
 21
428.75624999999997
 31
0.0
100
AcDbText
  0
TEXT
  5
A4
330
17
100
AcDbEntity
  8
LAMINA_TEXTO
 62
250
420
0
100
AcDbText
 10
717.1961111111111
 20
437.1108143939394
 30
0.0
 40
2.6987499999999995
  1
DETALLE 4.5 - ANCLAJE A2 (SÁNDWICH)
  7
NEGRITA
 41
0.885
 11
717.1961111111111
 21
437.1108143939394
 31
0.0
100
AcDbText
  0
TEXT
  5
A5
330
17
100
AcDbEntity
  8
LAMINA_TEXTO
 62
250
420
0
100
AcDbText
 10
717.1961111111111
 20
432.83338383838384
 30
0.0
 40
2.2859999999999996
  1
Pasante. Grout 25, placas P3, tuercas de nivelación y exteriores: después.
  7
ESTANDAR
 41
0.885
 11
717.1961111111111
 21
432.83338383838384
 31
0.0
100
AcDbText
  0
TEXT
  5
A6
330
17
100
AcDbEntity
  8
LAMINA_TEXTO
 62
250
420
0
100
AcDbText
 10
609.3922222222222
 20
370.2240972222222
 30
0.0
 40
2.6987499999999995
  1
P1 - PL 50x50x12
  7
NEGRITA
 41
0.885
 11
609.3922222222222
 21
370.2240972222222
 31
0.0
100
AcDbText
  0
TEXT
  5
A7
330
17
100
AcDbEntity
  8
LAMINA_TEXTO
 62
250
420
0
100
AcDbText
 10
609.3922222222222
 20
365.94666666666666
 30
0.0
 40
2.2859999999999996
  1
Agujero Ø18.
  7
ESTANDAR
 41
0.885
 11
609.3922222222222
 21
365.94666666666666
 31
0.0
100
AcDbText
  0
TEXT
  5
A8
330
17
100
AcDbEntity
  8
LAMINA_TEXTO
 62
250
420
0
100
AcDbText
 10
663.2941666666667
 20
366.30381944444446
 30
0.0
 40
2.6987499999999995
  1
P2 - PL 140x260x12 A36
  7
NEGRITA
 41
0.885
 11
663.2941666666667
 21
366.30381944444446
 31
0.0
100
AcDbText
  0
TEXT
  5
A9
330
17
100
AcDbEntity
  8
LAMINA_TEXTO
 62
250
420
0
100
AcDbText
 10
663.2941666666667
 20
362.0263888888889
 30
0.0
 40
2.2859999999999996
  1
Columnas. 4 agujeros Ø18.
  7
ESTANDAR
 41
0.885
 11
663.2941666666667
 21
362.0263888888889
 31
0.0
100
AcDbText
  0
TEXT
  5
AA
330
17
100
AcDbEntity
  8
LAMINA_TEXTO
 62
250
420
0
100
AcDbText
 10
744.1470833333334
 20
366.30381944444446
 30
0.0
 40
2.6987499999999995
  1
P3 - PL 140x220x12 A36
  7
NEGRITA
 41
0.885
 11
744.1470833333334
 21
366.30381944444446
 31
0.0
100
AcDbText
  0
TEXT
  5
AB
330
17
100
AcDbEntity
  8
LAMINA_TEXTO
 62
250
420
0
100
AcDbText
 10
744.1470833333334
 20
362.0263888888889
 30
0.0
 40
2.2859999999999996
  1
Sándwich. 4 agujeros Ø18.
  7
ESTANDAR
 41
0.885
 11
744.1470833333334
 21
362.0263888888889
 31
0.0
100
AcDbText
  0
TEXT
  5
AC
330
17
100
AcDbEntity
  8
LAMINA_TEXTO
 62
250
420
0
100
AcDbText
 10
607.9811111111111
 20
354.92673611111115
 30
0.0
 40
2.6987499999999995
  1
Cantidades (solo lo que se añade)
  7
NEGRITA
 41
0.885
 11
607.9811111111111
 21
354.92673611111115
 31
0.0
100
AcDbText
  0
TEXT
  5
AD
330
17
100
AcDbEntity
  8
LAMINA_TEXTO
 62
250
420
0
100
AcDbText
 10
609.0394444444445
 20
349.5027777777778
 30
0.0
 40
2.3812499999999996
  1
Marca
  7
NEGRITA
 41
0.885
 11
609.0394444444445
 21
349.5027777777778
 31
0.0
100
AcDbText
  0
TEXT
  5
AE
330
17
100
AcDbEntity
  8
LAMINA_TEXTO
 62
250
420
0
100
AcDbText
 10
626.2880666666666
 20
349.5027777777778
 30
0.0
 40
2.3812499999999996
  1
Elemento
  7
NEGRITA
 41
0.885
 11
626.2880666666666
 21
349.5027777777778
 31
0.0
100
AcDbText
  0
TEXT
  5
AF
330
17
100
AcDbEntity
  8
LAMINA_TEXTO
 62
250
420
0
100
AcDbText
 10
662.9413888888889
 20
349.5027777777778
 30
0.0
 40
2.3812499999999996
  1
Descripción
  7
NEGRITA
 41
0.885
 11
662.9413888888889
 21
349.5027777777778
 31
0.0
100
AcDbText
  0
TEXT
  5
B0
330
17
100
AcDbEntity
  8
LAMINA_TEXTO
 62
250
420
0
100
AcDbText
 10
780.0180850694445
 20
349.5027777777778
 30
0.0
 40
2.3812499999999996
  1
Por conexión
  7
NEGRITA
 41
0.885
 11
780.0180850694445
 21
349.5027777777778
 31
0.0
100
AcDbText
  0
TEXT
  5
B1
330
17
100
AcDbEntity
  8
LAMINA_TEXTO
 62
250
420
0
100
AcDbText
 10
814.629435763889
 20
349.5027777777778
 30
0.0
 40
2.3812499999999996
  1
Total
  7
NEGRITA
 41
0.885
 11
814.629435763889
 21
349.5027777777778
 31
0.0
100
AcDbText
  0
TEXT
  5
B2
330
17
100
AcDbEntity
  8
LAMINA_TEXTO
 62
250
420
0
100
AcDbText
 10
609.0394444444445
 20
344.21111111111117
 30
0.0
 40
2.3812499999999996
  1
A1
  7
ESTANDAR
 41
0.885
 11
609.0394444444445
 21
344.21111111111117
 31
0.0
100
AcDbText
  0
TEXT
  5
B3
330
17
100
AcDbEntity
  8
LAMINA_TEXTO
 62
250
420
0
100
AcDbText
 10
626.2880666666666
 20
344.21111111111117
 30
0.0
 40
2.3812499999999996
  1
Anclaje columna
  7
ESTANDAR
 41
0.885
 11
626.2880666666666
 21
344.21111111111117
 31
0.0
100
AcDbText
  0
TEXT
  5
B4
330
17
100
AcDbEntity
  8
LAMINA_TEXTO
 62
250
420
0
100
AcDbText
 10
662.9413888888889
 20
344.21111111111117
 30
0.0
 40
2.3812499999999996
  1
varilla roscada Ø16 (5/8"-11 UNC) ASTM A193 B7, L = 440
  7
ESTANDAR
 41
0.885
 11
662.9413888888889
 21
344.21111111111117
 31
0.0
100
AcDbText
  0
TEXT
  5
B5
330
17
100
AcDbEntity
  8
LAMINA_TEXTO
 62
250
420
0
100
AcDbText
 10
799.1309236111114
 20
344.21111111111117
 30
0.0
 40
2.3812499999999996
  1
4
  7
ESTANDAR
 41
0.885
 11
799.1309236111114
 21
344.21111111111117
 31
0.0
100
AcDbText
  0
TEXT
  5
B6
330
17
100
AcDbEntity
  8
LAMINA_TEXTO
 62
250
420
0
100
AcDbText
 10
818.8528472222224
 20
344.21111111111117
 30
0.0
 40
2.3812499999999996
  1
20
  7
ESTANDAR
 41
0.885
 11
818.8528472222224
 21
344.21111111111117
 31
0.0
100
AcDbText
  0
TEXT
  5
B7
330
17
100
AcDbEntity
  8
LAMINA_TEXTO
 62
250
420
0
100
AcDbText
 10
609.0394444444445
 20
338.9194444444445
 30
0.0
 40
2.3812499999999996
  1
A2
  7
ESTANDAR
 41
0.885
 11
609.0394444444445
 21
338.9194444444445
 31
0.0
100
AcDbText
  0
TEXT
  5
B8
330
17
100
AcDbEntity
  8
LAMINA_TEXTO
 62
250
420
0
100
AcDbText
 10
626.2880666666666
 20
338.9194444444445
 30
0.0
 40
2.3812499999999996
  1
Anclaje sándwich
  7
ESTANDAR
 41
0.885
 11
626.2880666666666
 21
338.9194444444445
 31
0.0
100
AcDbText
  0
TEXT
  5
B9
330
17
100
AcDbEntity
  8
LAMINA_TEXTO
 62
250
420
0
100
AcDbText
 10
662.9413888888889
 20
338.9194444444445
 30
0.0
 40
2.3812499999999996
  1
varilla roscada Ø16 (5/8"-11 UNC) ASTM A193 B7, L = 440
  7
ESTANDAR
 41
0.885
 11
662.9413888888889
 21
338.9194444444445
 31
0.0
100
AcDbText
  0
TEXT
  5
BA
330
17
100
AcDbEntity
  8
LAMINA_TEXTO
 62
250
420
0
100
AcDbText
 10
799.1309236111114
 20
338.9194444444445
 30
0.0
 40
2.3812499999999996
  1
4
  7
ESTANDAR
 41
0.885
 11
799.1309236111114
 21
338.9194444444445
 31
0.0
100
AcDbText
  0
TEXT
  5
BB
330
17
100
AcDbEntity
  8
LAMINA_TEXTO
 62
250
420
0
100
AcDbText
 10
818.8528472222224
 20
338.9194444444445
 30
0.0
 40
2.3812499999999996
  1
40
  7
ESTANDAR
 41
0.885
 11
818.8528472222224
 21
338.9194444444445
 31
0.0
100
AcDbText
  0
TEXT
  5
BC
330
17
100
AcDbEntity
  8
LAMINA_TEXTO
 62
250
420
0
100
AcDbText
 10
609.0394444444445
 20
333.6277777777778
 30
0.0
 40
2.3812499999999996
  1
P1
  7
ESTANDAR
 41
0.885
 11
609.0394444444445
 21
333.6277777777778
 31
0.0
100
AcDbText
  0
TEXT
  5
BD
330
17
100
AcDbEntity
  8
LAMINA_TEXTO
 62
250
420
0
100
AcDbText
 10
626.2880666666666
 20
333.6277777777778
 30
0.0
 40
2.3812499999999996
  1
Placa de cabeza
  7
ESTANDAR
 41
0.885
 11
626.2880666666666
 21
333.6277777777778
 31
0.0
100
AcDbText
  0
TEXT
  5
BE
330
17
100
AcDbEntity
  8
LAMINA_TEXTO
 62
250
420
0
100
AcDbText
 10
662.9413888888889
 20
333.6277777777778
 30
0.0
 40
2.3812499999999996
  1
PL 50x50x12 A36, agujero Ø18 (una por A1)
  7
ESTANDAR
 41
0.885
 11
662.9413888888889
 21
333.6277777777778
 31
0.0
100
AcDbText
  0
TEXT
  5
BF
330
17
100
AcDbEntity
  8
LAMINA_TEXTO
 62
250
420
0
100
AcDbText
 10
799.1309236111114
 20
333.6277777777778
 30
0.0
 40
2.3812499999999996
  1
4
  7
ESTANDAR
 41
0.885
 11
799.1309236111114
 21
333.6277777777778
 31
0.0
100
AcDbText
  0
TEXT
  5
C0
330
17
100
AcDbEntity
  8
LAMINA_TEXTO
 62
250
420
0
100
AcDbText
 10
818.8528472222224
 20
333.6277777777778
 30
0.0
 40
2.3812499999999996
  1
20
  7
ESTANDAR
 41
0.885
 11
818.8528472222224
 21
333.6277777777778
 31
0.0
100
AcDbText
  0
TEXT
  5
C1
330
17
100
AcDbEntity
  8
LAMINA_TEXTO
 62
250
420
0
100
AcDbText
 10
609.0394444444445
 20
328.33611111111117
 30
0.0
 40
2.3812499999999996
  1
P2
  7
ESTANDAR
 41
0.885
 11
609.0394444444445
 21
328.33611111111117
 31
0.0
100
AcDbText
  0
TEXT
  5
C2
330
17
100
AcDbEntity
  8
LAMINA_TEXTO
 62
250
420
0
100
AcDbText
 10
626.2880666666666
 20
328.33611111111117
 30
0.0
 40
2.3812499999999996
  1
Placa extremo
  7
ESTANDAR
 41
0.885
 11
626.2880666666666
 21
328.33611111111117
 31
0.0
100
AcDbText
  0
TEXT
  5
C3
330
17
100
AcDbEntity
  8
LAMINA_TEXTO
 62
250
420
0
100
AcDbText
 10
662.9413888888889
 20
328.33611111111117
 30
0.0
 40
2.3812499999999996
  1
PL 140x260x12 A36, 4 agujeros Ø18 (después)
  7
ESTANDAR
 41
0.885
 11
662.9413888888889
 21
328.33611111111117
 31
0.0
100
AcDbText
  0
TEXT
  5
C4
330
17
100
AcDbEntity
  8
LAMINA_TEXTO
 62
250
420
0
100
AcDbText
 10
799.1309236111114
 20
328.33611111111117
 30
0.0
 40
2.3812499999999996
  1
1
  7
ESTANDAR
 41
0.885
 11
799.1309236111114
 21
328.33611111111117
 31
0.0
100
AcDbText
  0
TEXT
  5
C5
330
17
100
AcDbEntity
  8
LAMINA_TEXTO
 62
250
420
0
100
AcDbText
 10
820.6917013888889
 20
328.33611111111117
 30
0.0
 40
2.3812499999999996
  1
5
  7
ESTANDAR
 41
0.885
 11
820.6917013888889
 21
328.33611111111117
 31
0.0
100
AcDbText
  0
TEXT
  5
C6
330
17
100
AcDbEntity
  8
LAMINA_TEXTO
 62
250
420
0
100
AcDbText
 10
609.0394444444445
 20
323.0444444444445
 30
0.0
 40
2.3812499999999996
  1
P3
  7
ESTANDAR
 41
0.885
 11
609.0394444444445
 21
323.0444444444445
 31
0.0
100
AcDbText
  0
TEXT
  5
C7
330
17
100
AcDbEntity
  8
LAMINA_TEXTO
 62
250
420
0
100
AcDbText
 10
626.2880666666666
 20
323.0444444444445
 30
0.0
 40
2.3812499999999996
  1
Placa sándwich
  7
ESTANDAR
 41
0.885
 11
626.2880666666666
 21
323.0444444444445
 31
0.0
100
AcDbText
  0
TEXT
  5
C8
330
17
100
AcDbEntity
  8
LAMINA_TEXTO
 62
250
420
0
100
AcDbText
 10
662.9413888888889
 20
323.0444444444445
 30
0.0
 40
2.3812499999999996
  1
PL 140x220x12 A36, 4 agujeros Ø18 (después)
  7
ESTANDAR
 41
0.885
 11
662.9413888888889
 21
323.0444444444445
 31
0.0
100
AcDbText
  0
TEXT
  5
C9
330
17
100
AcDbEntity
  8
LAMINA_TEXTO
 62
250
420
0
100
AcDbText
 10
799.1309236111114
 20
323.0444444444445
 30
0.0
 40
2.3812499999999996
  1
2
  7
ESTANDAR
 41
0.885
 11
799.1309236111114
 21
323.0444444444445
 31
0.0
100
AcDbText
  0
TEXT
  5
CA
330
17
100
AcDbEntity
  8
LAMINA_TEXTO
 62
250
420
0
100
AcDbText
 10
818.8528472222224
 20
323.0444444444445
 30
0.0
 40
2.3812499999999996
  1
20
  7
ESTANDAR
 41
0.885
 11
818.8528472222224
 21
323.0444444444445
 31
0.0
100
AcDbText
  0
TEXT
  5
CB
330
17
100
AcDbEntity
  8
LAMINA_TEXTO
 62
250
420
0
100
AcDbText
 10
609.0394444444445
 20
315.7684027777778
 30
0.0
 40
2.3812499999999996
  1
T
  7
ESTANDAR
 41
0.885
 11
609.0394444444445
 21
315.7684027777778
 31
0.0
100
AcDbText
  0
TEXT
  5
CC
330
17
100
AcDbEntity
  8
LAMINA_TEXTO
 62
250
420
0
100
AcDbText
 10
626.2880666666666
 20
315.7684027777778
 30
0.0
 40
2.3812499999999996
  1
Tuerca
  7
ESTANDAR
 41
0.885
 11
626.2880666666666
 21
315.7684027777778
 31
0.0
100
AcDbText
  0
TEXT
  5
CD
330
17
100
AcDbEntity
  8
LAMINA_TEXTO
 62
250
420
0
100
AcDbText
 10
662.9413888888889
 20
317.7527777777778
 30
0.0
 40
2.3812499999999996
  1
5/8"-11 UNC grado 8 o A194 2H: 3 por A1 (cabeza, nivelación, exterior), 4
  7
ESTANDAR
 41
0.885
 11
662.9413888888889
 21
317.7527777777778
 31
0.0
100
AcDbText
  0
TEXT
  5
CE
330
17
100
AcDbEntity
  8
LAMINA_TEXTO
 62
250
420
0
100
AcDbText
 10
662.9413888888889
 20
313.7840277777778
 30
0.0
 40
2.3812499999999996
  1
por A2 (2 de nivelación, 2 exteriores)
  7
ESTANDAR
 41
0.885
 11
662.9413888888889
 21
313.7840277777778
 31
0.0
100
AcDbText
  0
TEXT
  5
CF
330
17
100
AcDbEntity
  8
LAMINA_TEXTO
 62
250
420
0
100
AcDbText
 10
799.8684496527779
 20
315.7684027777778
 30
0.0
 40
2.3812499999999996
  1
-
  7
ESTANDAR
 41
0.885
 11
799.8684496527779
 21
315.7684027777778
 31
0.0
100
AcDbText
  0
TEXT
  5
D0
330
17
100
AcDbEntity
  8
LAMINA_TEXTO
 62
250
420
0
100
AcDbText
 10
817.0139930555557
 20
315.7684027777778
 30
0.0
 40
2.3812499999999996
  1
220
  7
ESTANDAR
 41
0.885
 11
817.0139930555557
 21
315.7684027777778
 31
0.0
100
AcDbText
  0
TEXT
  5
D1
330
17
100
AcDbEntity
  8
LAMINA_TEXTO
 62
250
420
0
100
AcDbText
 10
609.0394444444445
 20
308.49236111111117
 30
0.0
 40
2.3812499999999996
  1
W
  7
ESTANDAR
 41
0.885
 11
609.0394444444445
 21
308.49236111111117
 31
0.0
100
AcDbText
  0
TEXT
  5
D2
330
17
100
AcDbEntity
  8
LAMINA_TEXTO
 62
250
420
0
100
AcDbText
 10
626.2880666666666
 20
308.49236111111117
 30
0.0
 40
2.3812499999999996
  1
Arandela
  7
ESTANDAR
 41
0.885
 11
626.2880666666666
 21
308.49236111111117
 31
0.0
100
AcDbText
  0
TEXT
  5
D3
330
17
100
AcDbEntity
  8
LAMINA_TEXTO
 62
250
420
0
100
AcDbText
 10
662.9413888888889
 20
308.49236111111117
 30
0.0
 40
2.3812499999999996
  1
plana Ø30 x 3: 3 por A1, 4 por A2
  7
ESTANDAR
 41
0.885
 11
662.9413888888889
 21
308.49236111111117
 31
0.0
100
AcDbText
  0
TEXT
  5
D4
330
17
100
AcDbEntity
  8
LAMINA_TEXTO
 62
250
420
0
100
AcDbText
 10
799.8684496527779
 20
308.49236111111117
 30
0.0
 40
2.3812499999999996
  1
-
  7
ESTANDAR
 41
0.885
 11
799.8684496527779
 21
308.49236111111117
 31
0.0
100
AcDbText
  0
TEXT
  5
D5
330
17
100
AcDbEntity
  8
LAMINA_TEXTO
 62
250
420
0
100
AcDbText
 10
817.0139930555557
 20
308.49236111111117
 30
0.0
 40
2.3812499999999996
  1
220
  7
ESTANDAR
 41
0.885
 11
817.0139930555557
 21
308.49236111111117
 31
0.0
100
AcDbText
  0
TEXT
  5
D6
330
17
100
AcDbEntity
  8
LAMINA_TEXTO
 62
250
420
0
100
AcDbText
 10
609.0394444444445
 20
303.2006944444445
 30
0.0
 40
2.3812499999999996
  1
BA
  7
ESTANDAR
 41
0.885
 11
609.0394444444445
 21
303.2006944444445
 31
0.0
100
AcDbText
  0
TEXT
  5
D7
330
17
100
AcDbEntity
  8
LAMINA_TEXTO
 62
250
420
0
100
AcDbText
 10
626.2880666666666
 20
303.2006944444445
 30
0.0
 40
2.3812499999999996
  1
Bastón
  7
ESTANDAR
 41
0.885
 11
626.2880666666666
 21
303.2006944444445
 31
0.0
100
AcDbText
  0
TEXT
  5
D8
330
17
100
AcDbEntity
  8
LAMINA_TEXTO
 62
250
420
0
100
AcDbText
 10
662.9413888888889
 20
303.2006944444445
 30
0.0
 40
2.3812499999999996
  1
Ø12 fy 4200, L = 1420 (recto 1220 + pata 200 hacia abajo)
  7
ESTANDAR
 41
0.885
 11
662.9413888888889
 21
303.2006944444445
 31
0.0
100
AcDbText
  0
TEXT
  5
D9
330
17
100
AcDbEntity
  8
LAMINA_TEXTO
 62
250
420
0
100
AcDbText
 10
799.1309236111114
 20
303.2006944444445
 30
0.0
 40
2.3812499999999996
  1
2
  7
ESTANDAR
 41
0.885
 11
799.1309236111114
 21
303.2006944444445
 31
0.0
100
AcDbText
  0
TEXT
  5
DA
330
17
100
AcDbEntity
  8
LAMINA_TEXTO
 62
250
420
0
100
AcDbText
 10
818.8528472222224
 20
303.2006944444445
 30
0.0
 40
2.3812499999999996
  1
10
  7
ESTANDAR
 41
0.885
 11
818.8528472222224
 21
303.2006944444445
 31
0.0
100
AcDbText
  0
TEXT
  5
DB
330
17
100
AcDbEntity
  8
LAMINA_TEXTO
 62
250
420
0
100
AcDbText
 10
609.0394444444445
 20
297.9090277777778
 30
0.0
 40
2.3812499999999996
  1
VE
  7
ESTANDAR
 41
0.885
 11
609.0394444444445
 21
297.9090277777778
 31
0.0
100
AcDbText
  0
TEXT
  5
DC
330
17
100
AcDbEntity
  8
LAMINA_TEXTO
 62
250
420
0
100
AcDbText
 10
626.2880666666666
 20
297.9090277777778
 30
0.0
 40
2.3812499999999996
  1
Varilla extra VCS
  7
ESTANDAR
 41
0.885
 11
626.2880666666666
 21
297.9090277777778
 31
0.0
100
AcDbText
  0
TEXT
  5
DD
330
17
100
AcDbEntity
  8
LAMINA_TEXTO
 62
250
420
0
100
AcDbText
 10
662.9413888888889
 20
297.9090277777778
 30
0.0
 40
2.3812499999999996
  1
Ø12 fy 4200, L = 1500, recta, abajo, centrada en F y G (eje 4)
  7
ESTANDAR
 41
0.885
 11
662.9413888888889
 21
297.9090277777778
 31
0.0
100
AcDbText
  0
TEXT
  5
DE
330
17
100
AcDbEntity
  8
LAMINA_TEXTO
 62
250
420
0
100
AcDbText
 10
799.8684496527779
 20
297.9090277777778
 30
0.0
 40
2.3812499999999996
  1
-
  7
ESTANDAR
 41
0.885
 11
799.8684496527779
 21
297.9090277777778
 31
0.0
100
AcDbText
  0
TEXT
  5
DF
330
17
100
AcDbEntity
  8
LAMINA_TEXTO
 62
250
420
0
100
AcDbText
 10
820.6917013888889
 20
297.9090277777778
 30
0.0
 40
2.3812499999999996
  1
2
  7
ESTANDAR
 41
0.885
 11
820.6917013888889
 21
297.9090277777778
 31
0.0
100
AcDbText
  0
TEXT
  5
E0
330
17
100
AcDbEntity
  8
LAMINA_TEXTO
 62
250
420
0
100
AcDbText
 10
609.0394444444445
 20
292.61736111111117
 30
0.0
 40
2.3812499999999996
  1
E14
  7
ESTANDAR
 41
0.885
 11
609.0394444444445
 21
292.61736111111117
 31
0.0
100
AcDbText
  0
TEXT
  5
E1
330
17
100
AcDbEntity
  8
LAMINA_TEXTO
 62
250
420
0
100
AcDbText
 10
626.2880666666666
 20
292.61736111111117
 30
0.0
 40
2.3812499999999996
  1
Estribo columna
  7
ESTANDAR
 41
0.885
 11
626.2880666666666
 21
292.61736111111117
 31
0.0
100
AcDbText
  0
TEXT
  5
E2
330
17
100
AcDbEntity
  8
LAMINA_TEXTO
 62
250
420
0
100
AcDbText
 10
662.9413888888889
 20
292.61736111111117
 30
0.0
 40
2.3812499999999996
  1
Ø14 cerrado, ganchos 135°, L ≈ 1450; 2 por columna, las 16 columnas
  7
ESTANDAR
 41
0.885
 11
662.9413888888889
 21
292.61736111111117
 31
0.0
100
AcDbText
  0
TEXT
  5
E3
330
17
100
AcDbEntity
  8
LAMINA_TEXTO
 62
250
420
0
100
AcDbText
 10
799.1309236111114
 20
292.61736111111117
 30
0.0
 40
2.3812499999999996
  1
2
  7
ESTANDAR
 41
0.885
 11
799.1309236111114
 21
292.61736111111117
 31
0.0
100
AcDbText
  0
TEXT
  5
E4
330
17
100
AcDbEntity
  8
LAMINA_TEXTO
 62
250
420
0
100
AcDbText
 10
818.8528472222224
 20
292.61736111111117
 30
0.0
 40
2.3812499999999996
  1
32
  7
ESTANDAR
 41
0.885
 11
818.8528472222224
 21
292.61736111111117
 31
0.0
100
AcDbText
  0
TEXT
  5
E5
330
17
100
AcDbEntity
  8
LAMINA_TEXTO
 62
250
420
0
100
AcDbText
 10
609.0394444444445
 20
287.3256944444445
 30
0.0
 40
2.3812499999999996
  1
E10
  7
ESTANDAR
 41
0.885
 11
609.0394444444445
 21
287.3256944444445
 31
0.0
100
AcDbText
  0
TEXT
  5
E6
330
17
100
AcDbEntity
  8
LAMINA_TEXTO
 62
250
420
0
100
AcDbText
 10
626.2880666666666
 20
287.3256944444445
 30
0.0
 40
2.3812499999999996
  1
Estribo del nudo
  7
ESTANDAR
 41
0.885
 11
626.2880666666666
 21
287.3256944444445
 31
0.0
100
AcDbText
  0
TEXT
  5
E7
330
17
100
AcDbEntity
  8
LAMINA_TEXTO
 62
250
420
0
100
AcDbText
 10
662.9413888888889
 20
287.3256944444445
 30
0.0
 40
2.3812499999999996
  1
Ø10 cerrado (o 4 piezas), L ≈ 1400; 4 niveles, las 16 columnas
  7
ESTANDAR
 41
0.885
 11
662.9413888888889
 21
287.3256944444445
 31
0.0
100
AcDbText
  0
TEXT
  5
E8
330
17
100
AcDbEntity
  8
LAMINA_TEXTO
 62
250
420
0
100
AcDbText
 10
799.1309236111114
 20
287.3256944444445
 30
0.0
 40
2.3812499999999996
  1
4
  7
ESTANDAR
 41
0.885
 11
799.1309236111114
 21
287.3256944444445
 31
0.0
100
AcDbText
  0
TEXT
  5
E9
330
17
100
AcDbEntity
  8
LAMINA_TEXTO
 62
250
420
0
100
AcDbText
 10
818.8528472222224
 20
287.3256944444445
 30
0.0
 40
2.3812499999999996
  1
64
  7
ESTANDAR
 41
0.885
 11
818.8528472222224
 21
287.3256944444445
 31
0.0
100
AcDbText
  0
TEXT
  5
EA
330
17
100
AcDbEntity
  8
LAMINA_TEXTO
 62
250
420
0
100
AcDbText
 10
609.0394444444445
 20
280.0496527777778
 30
0.0
 40
2.3812499999999996
  1
G
  7
ESTANDAR
 41
0.885
 11
609.0394444444445
 21
280.0496527777778
 31
0.0
100
AcDbText
  0
TEXT
  5
EB
330
17
100
AcDbEntity
  8
LAMINA_TEXTO
 62
250
420
0
100
AcDbText
 10
626.2880666666666
 20
280.0496527777778
 30
0.0
 40
2.3812499999999996
  1
Grout
  7
ESTANDAR
 41
0.885
 11
626.2880666666666
 21
280.0496527777778
 31
0.0
100
AcDbText
  0
TEXT
  5
EC
330
17
100
AcDbEntity
  8
LAMINA_TEXTO
 62
250
420
0
100
AcDbText
 10
662.9413888888889
 20
282.0340277777778
 30
0.0
 40
2.3812499999999996
  1
sin contracción, similar a SikaGrout-212, espesor 25: bajo P2 (5) y bajo P3
  7
ESTANDAR
 41
0.885
 11
662.9413888888889
 21
282.0340277777778
 31
0.0
100
AcDbText
  0
TEXT
  5
ED
330
17
100
AcDbEntity
  8
LAMINA_TEXTO
 62
250
420
0
100
AcDbText
 10
662.9413888888889
 20
278.0652777777778
 30
0.0
 40
2.3812499999999996
  1
(20). Después de fundir
  7
ESTANDAR
 41
0.885
 11
662.9413888888889
 21
278.0652777777778
 31
0.0
100
AcDbText
  0
TEXT
  5
EE
330
17
100
AcDbEntity
  8
LAMINA_TEXTO
 62
250
420
0
100
AcDbText
 10
793.6143611111112
 20
280.0496527777778
 30
0.0
 40
2.3812499999999996
  1
1 o 2
  7
ESTANDAR
 41
0.885
 11
793.6143611111112
 21
280.0496527777778
 31
0.0
100
AcDbText
  0
TEXT
  5
EF
330
17
100
AcDbEntity
  8
LAMINA_TEXTO
 62
250
420
0
100
AcDbText
 10
818.8528472222224
 20
280.0496527777778
 30
0.0
 40
2.3812499999999996
  1
25
  7
ESTANDAR
 41
0.885
 11
818.8528472222224
 21
280.0496527777778
 31
0.0
100
AcDbText
  0
TEXT
  5
F0
330
17
100
AcDbEntity
  8
LAMINA_TEXTO
 62
250
420
0
100
AcDbText
 10
607.9811111111111
 20
271.58298611111115
 30
0.0
 40
2.6987499999999995
  1
Notas
  7
NEGRITA
 41
0.885
 11
607.9811111111111
 21
271.58298611111115
 31
0.0
100
AcDbText
  0
TEXT
  5
F1
330
17
100
AcDbEntity
  8
LAMINA_TEXTO
 62
250
420
0
100
AcDbText
 10
607.9811111111111
 20
266.1149305555556
 30
0.0
 40
2.3812499999999996
  1
1. Medidas en mm. Cotas desde la cara superior de las vigas (= cara superior de las IPE).
  7
ESTANDAR
 41
0.885
 11
607.9811111111111
 21
266.1149305555556
 31
0.0
100
AcDbText
  0
TEXT
  5
F2
330
17
100
AcDbEntity
  8
LAMINA_TEXTO
 62
250
420
0
100
AcDbText
 10
607.9811111111111
 20
261.2201388888889
 30
0.0
 40
2.3812499999999996
  1
2. Hormigón fc = 240 kg/cm2. Acero de refuerzo fy = 4200 kg/cm2.
  7
ESTANDAR
 41
0.885
 11
607.9811111111111
 21
261.2201388888889
 31
0.0
100
AcDbText
  0
TEXT
  5
F3
330
17
100
AcDbEntity
  8
LAMINA_TEXTO
 62
250
420
0
100
AcDbText
 10
607.9811111111111
 20
256.32534722222226
 30
0.0
 40
2.3812499999999996
  1
3.
  7
ESTANDAR
 41
0.885
 11
607.9811111111111
 21
256.32534722222226
 31
0.0
100
AcDbText
  0
TEXT
  5
F4
330
17
100
AcDbEntity
  8
LAMINA_TEXTO
 62
250
420
0
100
AcDbText
 10
611.6588194444445
 20
256.32534722222226
 30
0.0
 40
2.3812499999999996
  1
Anclajes A1 y A2: varilla roscada ASTM A193 B7 con certificado del proveedor.
  7
NEGRITA
 41
0.885
 11
611.6588194444445
 21
256.32534722222226
 31
0.0
100
AcDbText
  0
TEXT
  5
F5
330
17
100
AcDbEntity
  8
LAMINA_TEXTO
 62
250
420
0
100
AcDbText
 10
735.9104600694444
 20
256.32534722222226
 30
0.0
 40
2.3812499999999996
  1
 Tuercas grado 8 o A194 2H. Apretar a mano (sin torque).
  7
ESTANDAR
 41
0.885
 11
735.9104600694444
 21
256.32534722222226
 31
0.0
100
AcDbText
  0
TEXT
  5
F6
330
17
100
AcDbEntity
  8
LAMINA_TEXTO
 62
250
420
0
100
AcDbText
 10
607.9811111111111
 20
251.4305555555556
 30
0.0
 40
2.3812499999999996
  1
4.
  7
ESTANDAR
 41
0.885
 11
607.9811111111111
 21
251.4305555555556
 31
0.0
100
AcDbText
  0
TEXT
  5
F7
330
17
100
AcDbEntity
  8
LAMINA_TEXTO
 62
250
420
0
100
AcDbText
 10
611.6588194444445
 20
251.4305555555556
 30
0.0
 40
2.3812499999999996
  1
Colocar A1 y A2 antes de fundir, con una plantilla de acero perforada igual a la placa
  7
NEGRITA
 41
0.885
 11
611.6588194444445
 21
251.4305555555556
 31
0.0
100
AcDbText
  0
TEXT
  5
F8
330
17
100
AcDbEntity
  8
LAMINA_TEXTO
 62
250
420
0
100
AcDbText
 10
744.7310069444444
 20
251.4305555555556
 30
0.0
 40
2.3812499999999996
  1
 (agujeros Ø18). Proteger las roscas con cinta.
  7
ESTANDAR
 41
0.885
 11
744.7310069444444
 21
251.4305555555556
 31
0.0
100
AcDbText
  0
TEXT
  5
F9
330
17
100
AcDbEntity
  8
LAMINA_TEXTO
 62
250
420
0
100
AcDbText
 10
607.9811111111111
 20
246.53576388888894
 30
0.0
 40
2.3812499999999996
  1
5. A1: placa de cabeza P1 dentro de la jaula de estribos de la columna, punta a 345 de la cara. Si choca con una barra, inclinarla o correrla unos
  7
ESTANDAR
 41
0.885
 11
607.9811111111111
 21
246.53576388888894
 31
0.0
100
AcDbText
  0
TEXT
  5
FA
330
17
100
AcDbEntity
  8
LAMINA_TEXTO
 62
250
420
0
100
AcDbText
 10
607.9811111111111
 20
242.34652777777782
 30
0.0
 40
2.3812499999999996
  1
mm.
  7
ESTANDAR
 41
0.885
 11
607.9811111111111
 21
242.34652777777782
 31
0.0
100
AcDbText
  0
TEXT
  5
FB
330
17
100
AcDbEntity
  8
LAMINA_TEXTO
 62
250
420
0
100
AcDbText
 10
607.9811111111111
 20
237.45173611111116
 30
0.0
 40
2.3812499999999996
  1
6.
  7
ESTANDAR
 41
0.885
 11
607.9811111111111
 21
237.45173611111116
 31
0.0
100
AcDbText
  0
TEXT
  5
FC
330
17
100
AcDbEntity
  8
LAMINA_TEXTO
 62
250
420
0
100
AcDbText
 10
611.6588194444445
 20
237.45173611111116
 30
0.0
 40
2.3812499999999996
  1
Bastones Ø12 (2 por unión):
  7
NEGRITA
 41
0.885
 11
611.6588194444445
 21
237.45173611111116
 31
0.0
100
AcDbText
  0
TEXT
  5
FD
330
17
100
AcDbEntity
  8
LAMINA_TEXTO
 62
250
420
0
100
AcDbText
 10
655.9467621527778
 20
237.45173611111116
 30
0.0
 40
2.3812499999999996
  1
 pata de 200 hacia abajo a 66 de la cara del voladizo, tramo recto de 1220 hacia la viga en línea, junto al par de
  7
ESTANDAR
 41
0.885
 11
655.9467621527778
 21
237.45173611111116
 31
0.0
100
AcDbText
  0
TEXT
  5
FE
330
17
100
AcDbEntity
  8
LAMINA_TEXTO
 62
250
420
0
100
AcDbText
 10
607.9811111111111
 20
233.26250000000005
 30
0.0
 40
2.3812499999999996
  1
esquina.
  7
ESTANDAR
 41
0.885
 11
607.9811111111111
 21
233.26250000000005
 31
0.0
100
AcDbText
  0
TEXT
  5
FF
330
17
100
AcDbEntity
  8
LAMINA_TEXTO
 62
250
420
0
100
AcDbText
 10
607.9811111111111
 20
228.36770833333338
 30
0.0
 40
2.3812499999999996
  1
7.
  7
ESTANDAR
 41
0.885
 11
607.9811111111111
 21
228.36770833333338
 31
0.0
100
AcDbText
  0
TEXT
  5
100
330
17
100
AcDbEntity
  8
LAMINA_TEXTO
 62
250
420
0
100
AcDbText
 10
611.6588194444445
 20
228.36770833333338
 30
0.0
 40
2.3812499999999996
  1
D4: los A1 de D4X van a 62 y 173 (debajo de los de D4Y) y sus bastones a 98.
  7
NEGRITA
 41
0.885
 11
611.6588194444445
 21
228.36770833333338
 31
0.0
100
AcDbText
  0
TEXT
  5
101
330
17
100
AcDbEntity
  8
LAMINA_TEXTO
 62
250
420
0
100
AcDbText
 10
732.6097829861111
 20
228.36770833333338
 30
0.0
 40
2.3812499999999996
  1
 Correr los estribos del nudo lo necesario.
  7
ESTANDAR
 41
0.885
 11
732.6097829861111
 21
228.36770833333338
 31
0.0
100
AcDbText
  0
TEXT
  5
102
330
17
100
AcDbEntity
  8
LAMINA_TEXTO
 62
250
420
0
100
AcDbText
 10
607.9811111111111
 20
223.47291666666672
 30
0.0
 40
2.3812499999999996
  1
8. Estribos del nudo Ø10 en las 16 columnas, a 110, 155, 230 y 305; deben quedar a 13 o más de anclajes y bastones.
  7
ESTANDAR
 41
0.885
 11
607.9811111111111
 21
223.47291666666672
 31
0.0
100
AcDbText
  0
TEXT
  5
103
330
17
100
AcDbEntity
  8
LAMINA_TEXTO
 62
250
420
0
100
AcDbText
 10
607.9811111111111
 20
218.57812500000006
 30
0.0
 40
2.3812499999999996
  1
9. 2 estribos Ø14 juntos en los 105 de la columna sobre las vigas, en las 16 columnas. Ganchos Ø16 de la columna hacia el centro.
  7
ESTANDAR
 41
0.885
 11
607.9811111111111
 21
218.57812500000006
 31
0.0
100
AcDbText
  0
TEXT
  5
104
330
17
100
AcDbEntity
  8
LAMINA_TEXTO
 62
250
420
0
100
AcDbText
 10
607.9811111111111
 20
213.68333333333337
 30
0.0
 40
2.3812499999999996
  1
10. Sándwich: un estribo Ø10 a cada lado de los anclajes A2; los demás cada 110 desde ellos. A2 entre estribos, paralelos a sus ramas.
  7
ESTANDAR
 41
0.885
 11
607.9811111111111
 21
213.68333333333337
 31
0.0
100
AcDbText
  0
TEXT
  5
105
330
17
100
AcDbEntity
  8
LAMINA_TEXTO
 62
250
420
0
100
AcDbText
 10
607.9811111111111
 20
208.7885416666667
 30
0.0
 40
2.3812499999999996
  1
11. Viga D entre 3 y 4: estribos Ø10 cada 110 de 3 a 10 y de 11 a 4; cada 140 entre 10 y 11.
  7
ESTANDAR
 41
0.885
 11
607.9811111111111
 21
208.7885416666667
 31
0.0
100
AcDbText
  0
TEXT
  5
106
330
17
100
AcDbEntity
  8
LAMINA_TEXTO
 62
250
420
0
100
AcDbText
 10
607.9811111111111
 20
203.89375000000004
 30
0.0
 40
2.3812499999999996
  1
12.
  7
ESTANDAR
 41
0.885
 11
607.9811111111111
 21
203.89375000000004
 31
0.0
100
AcDbText
  0
TEXT
  5
107
330
17
100
AcDbEntity
  8
LAMINA_TEXTO
 62
250
420
0
100
AcDbText
 10
613.4976736111112
 20
203.89375000000004
 30
0.0
 40
2.3812499999999996
  1
Después de fundir:
  7
NEGRITA
 41
0.885
 11
613.4976736111112
 21
203.89375000000004
 31
0.0
100
AcDbText
  0
TEXT
  5
108
330
17
100
AcDbEntity
  8
LAMINA_TEXTO
 62
250
420
0
100
AcDbText
 10
643.4518142361111
 20
203.89375000000004
 30
0.0
 40
2.3812499999999996
  1
 placas P2 y P3, IPE, tuercas de nivelación y exteriores, grout sin contracción similar a SikaGrout-212, 25 bajo P2 y P3.
  7
ESTANDAR
 41
0.885
 11
643.4518142361111
 21
203.89375000000004
 31
0.0
100
AcDbText
  0
TEXT
  5
109
330
17
100
AcDbEntity
  8
LAMINA_TEXTO
 62
250
420
0
100
AcDbText
 10
607.9811111111111
 20
198.99895833333338
 30
0.0
 40
2.3812499999999996
  1
13. Soldadura E70XX: ala superior de penetración completa; ala inferior y alma, filete de 6.
  7
ESTANDAR
 41
0.885
 11
607.9811111111111
 21
198.99895833333338
 31
0.0
100
AcDbText
  0
TEXT
  5
10A
330
17
100
AcDbEntity
  8
LAMINA_TEXTO
 62
250
420
0
100
AcDbText
 10
607.9811111111111
 20
194.1041666666667
 30
0.0
 40
2.3812499999999996
  1
14. La columna se funde hasta el fondo de las vigas; nudo, vigas y cabeza de columna en una sola fundida.
  7
ESTANDAR
 41
0.885
 11
607.9811111111111
 21
194.1041666666667
 31
0.0
100
AcDbText
  0
ENDSEC
  0
SECTION
  2
OBJECTS
  0
DICTIONARY
  5
A
330
0
100
AcDbDictionary
281
1
  3
ACAD_COLOR
350
B
  3
ACAD_GROUP
350
C
  3
ACAD_LAYOUT
350
D
  3
ACAD_MATERIAL
350
E
  3
ACAD_MLEADERSTYLE
350
F
  3
ACAD_MLINESTYLE
350
10
  3
ACAD_PLOTSETTINGS
350
11
  3
ACAD_PLOTSTYLENAME
350
12
  3
ACAD_SCALELIST
350
14
  3
ACAD_TABLESTYLE
350
15
  3
ACAD_VISUALSTYLE
350
16
  3
EZDXF_META
350
2D
  0
DICTIONARY
  5
B
330
A
100
AcDbDictionary
281
1
  0
DICTIONARY
  5
C
330
A
100
AcDbDictionary
281
1
  0
DICTIONARY
  5
D
330
A
100
AcDbDictionary
281
1
  3
Model
350
1A
  3
Layout1
350
1E
  0
DICTIONARY
  5
E
330
A
100
AcDbDictionary
281
1
  3
ByBlock
350
1F
  3
ByLayer
350
20
  3
Global
350
21
  0
DICTIONARY
  5
F
330
A
100
AcDbDictionary
281
1
  3
Standard
350
2C
  0
DICTIONARY
  5
10
330
A
100
AcDbDictionary
281
1
  3
Standard
350
22
  0
DICTIONARY
  5
11
330
A
100
AcDbDictionary
281
1
  0
ACDBDICTIONARYWDFLT
  5
12
330
A
100
AcDbDictionary
281
1
  3
Normal
350
13
100
AcDbDictionaryWithDefault
340
13
  0
ACDBPLACEHOLDER
  5
13
330
12
  0
DICTIONARY
  5
14
330
A
100
AcDbDictionary
281
1
  0
DICTIONARY
  5
15
330
A
100
AcDbDictionary
281
1
  0
DICTIONARY
  5
16
330
A
100
AcDbDictionary
281
1
  0
LAYOUT
  5
1A
330
D
100
AcDbPlotSettings
  1

  4
A3
  6

 40
7.5
 41
20.0
 42
7.5
 43
20.0
 44
420.0
 45
297.0
 46
0.0
 47
0.0
 48
0.0
 49
0.0
140
0.0
141
0.0
142
1.0
143
1.0
 70
1024
 72
1
 73
0
 74
5
  7

 75
16
 76
0
 77
2
 78
300
147
1.0
148
0.0
149
0.0
100
AcDbLayout
  1
Model
 70
1
 71
0
 10
0.0
 20
0.0
 11
420.0
 21
297.0
 12
0.0
 22
0.0
 32
0.0
 14
1e+20
 24
1e+20
 34
1e+20
 15
-1e+20
 25
-1e+20
 35
-1e+20
146
0.0
 13
0.0
 23
0.0
 33
0.0
 16
1.0
 26
0.0
 36
0.0
 17
0.0
 27
1.0
 37
0.0
 76
1
330
17
  0
LAYOUT
  5
1E
330
D
100
AcDbPlotSettings
  1

  4
A3
  6

 40
7.5
 41
20.0
 42
7.5
 43
20.0
 44
420.0
 45
297.0
 46
0.0
 47
0.0
 48
0.0
 49
0.0
140
0.0
141
0.0
142
1.0
143
1.0
 70
0
 72
1
 73
0
 74
5
  7

 75
16
 76
0
 77
2
 78
300
147
1.0
148
0.0
149
0.0
100
AcDbLayout
  1
Layout1
 70
1
 71
1
 10
0.0
 20
0.0
 11
420.0
 21
297.0
 12
0.0
 22
0.0
 32
0.0
 14
1e+20
 24
1e+20
 34
1e+20
 15
-1e+20
 25
-1e+20
 35
-1e+20
146
0.0
 13
0.0
 23
0.0
 33
0.0
 16
1.0
 26
0.0
 36
0.0
 17
0.0
 27
1.0
 37
0.0
 76
1
330
1B
  0
MATERIAL
  5
1F
102
{ACAD_REACTORS
330
E
102
}
330
E
100
AcDbMaterial
  1
ByBlock
  2

 70
0
 40
1.0
 71
1
 41
1.0
 91
-1023410177
 42
1.0
 72
1
  3

 73
1
 74
1
 75
1
 44
0.5
 73
0
 45
1.0
 46
1.0
 77
1
  4

 78
1
 79
1
170
1
 48
1.0
171
1
  6

172
1
173
1
174
1
140
1.0
141
1.0
175
1
  7

176
1
177
1
178
1
143
1.0
179
1
  8

270
1
271
1
272
1
145
1.0
146
1.0
273
1
  9

274
1
275
1
276
1
 42
1.0
 72
1
  3

 73
1
 74
1
 75
1
 94
63
  0
MATERIAL
  5
20
102
{ACAD_REACTORS
330
E
102
}
330
E
100
AcDbMaterial
  1
ByLayer
  2

 70
0
 40
1.0
 71
1
 41
1.0
 91
-1023410177
 42
1.0
 72
1
  3

 73
1
 74
1
 75
1
 44
0.5
 73
0
 45
1.0
 46
1.0
 77
1
  4

 78
1
 79
1
170
1
 48
1.0
171
1
  6

172
1
173
1
174
1
140
1.0
141
1.0
175
1
  7

176
1
177
1
178
1
143
1.0
179
1
  8

270
1
271
1
272
1
145
1.0
146
1.0
273
1
  9

274
1
275
1
276
1
 42
1.0
 72
1
  3

 73
1
 74
1
 75
1
 94
63
  0
MATERIAL
  5
21
102
{ACAD_REACTORS
330
E
102
}
330
E
100
AcDbMaterial
  1
Global
  2

 70
0
 40
1.0
 71
1
 41
1.0
 91
-1023410177
 42
1.0
 72
1
  3

 73
1
 74
1
 75
1
 44
0.5
 73
0
 45
1.0
 46
1.0
 77
1
  4

 78
1
 79
1
170
1
 48
1.0
171
1
  6

172
1
173
1
174
1
140
1.0
141
1.0
175
1
  7

176
1
177
1
178
1
143
1.0
179
1
  8

270
1
271
1
272
1
145
1.0
146
1.0
273
1
  9

274
1
275
1
276
1
 42
1.0
 72
1
  3

 73
1
 74
1
 75
1
 94
63
  0
MLINESTYLE
  5
22
102
{ACAD_REACTORS
330
10
102
}
330
10
100
AcDbMlineStyle
  2
Standard
 70
0
  3

 62
256
 51
90.0
 52
90.0
 71
2
 49
0.5
 62
256
  6
BYLAYER
 49
-0.5
 62
256
  6
BYLAYER
  0
MLEADERSTYLE
  5
2C
102
{ACAD_REACTORS
330
F
102
}
330
F
100
AcDbMLeaderStyle
179
2
170
2
171
1
172
0
 90
2
 40
0.0
 41
0.0
173
1
 91
-1056964608
 92
-2
290
1
 42
2.0
291
1
 43
8.0
  3
Standard
 44
4.0
300

342
29
174
1
175
1
176
0
178
1
 93
-1056964608
 45
4.0
292
0
297
0
 46
4.0
 94
-1056964608
 47
1.0
 49
1.0
140
1.0
294
1
141
0.0
177
0
142
1.0
295
0
296
0
143
3.75
271
0
272
9
273
9
  0
DICTIONARY
  5
2D
330
A
100
AcDbDictionary
280
1
281
1
  3
CREATED_BY_EZDXF
350
2E
  3
WRITTEN_BY_EZDXF
350
10D
  0
DICTIONARYVAR
  5
2E
330
2D
100
DictionaryVariables
280
0
  1
1.4.4 @ 2026-10-09T22:16:32.554856+00:00
  0
DICTIONARYVAR
  5
10D
330
2D
100
DictionaryVariables
280
0
  1
1.4.4 @ 2026-10-09T22:16:32.586575+00:00
  0
ENDSEC
  0
EOF
