<svg xmlns="http://www.w3.org/2000/svg" viewBox="0 0 504 356" width="504" height="356" font-family="Helvetica, Arial, sans-serif">
<rect width="504" height="356" fill="#ffffff"/>
<rect x="200.0" y="272.0" width="160.0" height="68.0" fill="#cfc9bb" stroke="#6b6b6b" stroke-width="1"/>
<rect x="200.0" y="92.0" width="160.0" height="180.0" fill="#ece9e2" stroke="#6b6b6b" stroke-width="1"/>
<rect x="360.0" y="132.0" width="128.0" height="140.0" fill="#ece9e2" stroke="#6b6b6b" stroke-width="1"/>
<rect x="360.0" y="88.0" width="128.0" height="44.0" fill="#f6f4ee" stroke="#a5a5a5" stroke-width="0.7"/>
<rect x="220.0" y="132.0" width="120.0" height="140.0" fill="none" stroke="#8a8a8a" stroke-width="0.8" stroke-dasharray="6 4"/>
<polyline points="182.0,272.0 378.0,272.0 " fill="none" stroke="#111111" stroke-width="1.8" stroke-dasharray="10 5"/>
<polyline points="404.0,254.0 404.0,150.0 " fill="none" stroke="#aab3bc" stroke-width="1"/>
<polyline points="460.0,254.0 460.0,150.0 " fill="none" stroke="#aab3bc" stroke-width="1"/>
<polyline points="223.2,340.0 223.2,111.2 " fill="none" stroke="#9a6b00" stroke-opacity="1.00" stroke-width="6.4" stroke-linejoin="round"/>
<polyline points="336.8,340.0 336.8,111.2 " fill="none" stroke="#9a6b00" stroke-opacity="1.00" stroke-width="6.4" stroke-linejoin="round"/>
<polyline points="223.2,133.6 223.5,129.7 224.6,125.9 226.2,122.4 228.4,119.2 231.2,116.4 234.4,114.2 237.9,112.6 241.7,111.5 245.6,111.2 322.4,111.2 " fill="none" stroke="#9a6b00" stroke-opacity="0.55" stroke-width="6.4" stroke-linejoin="round"/>
<polyline points="336.8,133.6 336.5,129.7 335.4,125.9 333.8,122.4 331.6,119.2 328.8,116.4 325.6,114.2 322.1,112.6 318.3,111.5 314.4,111.2 237.6,111.2 " fill="none" stroke="#9a6b00" stroke-opacity="0.55" stroke-width="6.4" stroke-linejoin="round"/>
<polyline points="218.0,168.0 342.0,168.0 " fill="none" stroke="#7d3c98" stroke-width="3"/>
<circle cx="218.0" cy="168.0" r="2.0" fill="#7d3c98" stroke="none"/>
<circle cx="342.0" cy="168.0" r="2.0" fill="#7d3c98" stroke="none"/>
<polyline points="218.0,186.0 342.0,186.0 " fill="none" stroke="#7d3c98" stroke-width="3"/>
<circle cx="218.0" cy="186.0" r="2.0" fill="#7d3c98" stroke="none"/>
<circle cx="342.0" cy="186.0" r="2.0" fill="#7d3c98" stroke="none"/>
<polyline points="218.0,204.0 342.0,204.0 " fill="none" stroke="#7d3c98" stroke-width="3"/>
<circle cx="218.0" cy="204.0" r="2.0" fill="#7d3c98" stroke="none"/>
<circle cx="342.0" cy="204.0" r="2.0" fill="#7d3c98" stroke="none"/>
<polyline points="218.0,222.0 342.0,222.0 " fill="none" stroke="#7d3c98" stroke-width="3"/>
<circle cx="218.0" cy="222.0" r="2.0" fill="#7d3c98" stroke="none"/>
<circle cx="342.0" cy="222.0" r="2.0" fill="#7d3c98" stroke="none"/>
<polyline points="218.0,112.0 342.0,112.0 " fill="none" stroke="#7d3c98" stroke-width="3"/>
<circle cx="218.0" cy="112.0" r="2.0" fill="#7d3c98" stroke="none"/>
<circle cx="342.0" cy="112.0" r="2.0" fill="#7d3c98" stroke="none"/>
<polyline points="218.8,140.8 341.2,140.8 " fill="none" stroke="#7d3c98" stroke-opacity="1.00" stroke-width="5.6" stroke-linejoin="round"/>
<circle cx="218.8" cy="140.8" r="2.8" fill="#7d3c98" stroke="none"/>
<circle cx="341.2" cy="140.8" r="2.8" fill="#7d3c98" stroke="none"/>
<polyline points="218.8,129.6 341.2,129.6 " fill="none" stroke="#7d3c98" stroke-opacity="1.00" stroke-width="5.6" stroke-linejoin="round"/>
<circle cx="218.8" cy="129.6" r="2.8" fill="#7d3c98" stroke="none"/>
<circle cx="341.2" cy="129.6" r="2.8" fill="#7d3c98" stroke="none"/>
<polyline points="488.0,249.6 224.0,249.6 " fill="none" stroke="#5d6d7e" stroke-opacity="1.00" stroke-width="4.8" stroke-linejoin="round"/>
<polyline points="488.0,154.4 239.2,154.4 236.3,154.7 233.5,155.4 230.8,156.7 228.4,158.3 226.3,160.4 224.7,162.8 223.4,165.5 222.7,168.3 222.4,171.2 222.4,228.8 " fill="none" stroke="#5d6d7e" stroke-opacity="1.00" stroke-width="4.8" stroke-linejoin="round"/>
<polyline points="240.0,340.0 240.0,68.0 " fill="none" stroke="#117a65" stroke-opacity="0.55" stroke-width="4.8" stroke-linejoin="round"/>
<polyline points="320.0,340.0 320.0,68.0 " fill="none" stroke="#117a65" stroke-opacity="0.55" stroke-width="4.8" stroke-linejoin="round"/>
<circle cx="242.4" cy="159.2" r="2.4" fill="#5d6d7e" stroke="#ffffff" stroke-width="0.8"/>
<circle cx="242.4" cy="244.8" r="2.4" fill="#5d6d7e" stroke="#ffffff" stroke-width="0.8"/>
<circle cx="280.0" cy="159.2" r="2.4" fill="#5d6d7e" stroke="#ffffff" stroke-width="0.8"/>
<circle cx="280.0" cy="244.8" r="2.4" fill="#5d6d7e" stroke="#ffffff" stroke-width="0.8"/>
<circle cx="317.6" cy="159.2" r="2.4" fill="#5d6d7e" stroke="#ffffff" stroke-width="0.8"/>
<circle cx="317.6" cy="244.8" r="2.4" fill="#5d6d7e" stroke="#ffffff" stroke-width="0.8"/>
<rect x="200.0" y="106.0" width="4.8" height="134.0" fill="#34506b" stroke="#142433" stroke-width="0.8"/>
<polyline points="176.0,212.5 281.8,212.5 " fill="none" stroke="#c0392b" stroke-opacity="1.00" stroke-width="6.4" stroke-linejoin="round"/>
<rect x="204.8" y="207.1" width="6.4" height="10.8" fill="#7b241c" stroke="#ffffff" stroke-width="0.8"/>
<rect x="272.0" y="206.5" width="1.6" height="12.0" fill="#7b241c" stroke="#ffffff" stroke-width="0.8"/>
<rect x="273.6" y="207.1" width="6.4" height="10.8" fill="#7b241c" stroke="#ffffff" stroke-width="0.8"/>
<rect x="346.0" y="110.4" width="6.4" height="20.0" fill="#34506b" stroke="#142433" stroke-width="0.8"/>
<polyline points="176.0,120.4 362.2,120.4 " fill="none" stroke="#c0392b" stroke-opacity="1.00" stroke-width="6.4" stroke-linejoin="round"/>
<rect x="204.8" y="115.0" width="6.4" height="10.8" fill="#7b241c" stroke="#ffffff" stroke-width="0.8"/>
<rect x="339.6" y="115.0" width="6.4" height="10.8" fill="#7b241c" stroke="#ffffff" stroke-width="0.8"/>
<rect x="352.4" y="114.4" width="1.6" height="12.0" fill="#7b241c" stroke="#ffffff" stroke-width="0.8"/>
<rect x="354.0" y="115.0" width="6.4" height="10.8" fill="#7b241c" stroke="#ffffff" stroke-width="0.8"/>
<line x1="280.0" y1="12.0" x2="280.0" y2="75.0" stroke="#e3141e" stroke-width="2.4"/>
<polygon points="280.0,84.0 275.9,75.0 284.1,75.0" fill="#e3141e"/>
<text x="8.0" y="12.0" font-size="11.5" text-anchor="start" fill="#111111"><tspan font-weight="bold">4. Hooks bent, tie at +50 (edge), formwork, pour</tspan></text>
<text x="8.0" y="27.2" font-size="11.5" text-anchor="start" fill="#111111">threads taped; holes in the form for the rods</text>
</svg>
