  0
SECTION
  2
HEADER
  9
$ACADVER
  1
AC1024
  9
$ACADMAINTVER
 70
6
  9
$DWGCODEPAGE
  3
ANSI_1252
  9
$LASTSAVEDBY
  1
ezdxf
  9
$INSBASE
 10
0.0
 20
0.0
 30
0.0
  9
$EXTMIN
 10
1e+20
 20
1e+20
 30
1e+20
  9
$EXTMAX
 10
-1e+20
 20
-1e+20
 30
-1e+20
  9
$LIMMIN
 10
0.0
 20
0.0
  9
$LIMMAX
 10
420.0
 20
297.0
  9
$ORTHOMODE
 70
0
  9
$REGENMODE
 70
1
  9
$FILLMODE
 70
1
  9
$QTEXTMODE
 70
0
  9
$MIRRTEXT
 70
1
  9
$LTSCALE
 40
75.0
  9
$ATTMODE
 70
1
  9
$TEXTSIZE
 40
2.5
  9
$TRACEWID
 40
1.0
  9
$TEXTSTYLE
  7
Standard
  9
$CLAYER
  8
0
  9
$CELTYPE
  6
ByLayer
  9
$CECOLOR
 62
256
  9
$CELTSCALE
 40
1.0
  9
$DISPSILH
 70
0
  9
$DIMSCALE
 40
75.0
  9
$DIMASZ
 40
2.5
  9
$DIMEXO
 40
0.5291666666666666
  9
$DIMDLI
 40
3.75
  9
$DIMRND
 40
0.0
  9
$DIMDLE
 40
0.0
  9
$DIMEXE
 40
0.8819444444444444
  9
$DIMTP
 40
0.0
  9
$DIMTM
 40
0.0
  9
$DIMTXT
 40
1.8288
  9
$DIMCEN
 40
2.5
  9
$DIMTSZ
 40
1.0943166666666666
  9
$DIMTOL
 70
0
  9
$DIMLIM
 70
0
  9
$DIMTIH
 70
0
  9
$DIMTOH
 70
0
  9
$DIMSE1
 70
0
  9
$DIMSE2
 70
0
  9
$DIMTAD
 70
1
  9
$DIMZIN
 70
8
  9
$DIMBLK
  1

  9
$DIMASO
 70
1
  9
$DIMSHO
 70
1
  9
$DIMPOST
  1

  9
$DIMAPOST
  1

  9
$DIMALT
 70
0
  9
$DIMALTD
 70
3
  9
$DIMALTF
 40
0.03937007874
  9
$DIMLFAC
 40
1.0
  9
$DIMTOFL
 70
1
  9
$DIMTVP
 40
0.0
  9
$DIMTIX
 70
0
  9
$DIMSOXD
 70
0
  9
$DIMSAH
 70
0
  9
$DIMBLK1
  1

  9
$DIMBLK2
  1

  9
$DIMSTYLE
  2
COTAS_1-75
  9
$DIMCLRD
 70
0
  9
$DIMCLRE
 70
0
  9
$DIMCLRT
 70
0
  9
$DIMTFAC
 40
1.0
  9
$DIMGAP
 40
0.6
  9
$DIMJUST
 70
0
  9
$DIMSD1
 70
0
  9
$DIMSD2
 70
0
  9
$DIMTOLJ
 70
0
  9
$DIMTZIN
 70
8
  9
$DIMALTZ
 70
0
  9
$DIMALTTZ
 70
0
  9
$DIMUPT
 70
0
  9
$DIMDEC
 70
0
  9
$DIMTDEC
 70
2
  9
$DIMALTU
 70
2
  9
$DIMALTTD
 70
3
  9
$DIMTXSTY
  7
Standard
  9
$DIMAUNIT
 70
0
  9
$DIMADEC
 70
0
  9
$DIMALTRND
 40
0.0
  9
$DIMAZIN
 70
0
  9
$DIMDSEP
 70
44
  9
$DIMATFIT
 70
3
  9
$DIMFRAC
 70
0
  9
$DIMLDRBLK
  1

  9
$DIMLUNIT
 70
2
  9
$DIMLWD
 70
-2
  9
$DIMLWE
 70
-2
  9
$DIMTMOVE
 70
0
  9
$DIMFXL
 40
1.0
  9
$DIMFXLON
 70
0
  9
$DIMJOGANG
 40
0.785398163397
  9
$DIMTFILL
 70
0
  9
$DIMTFILLCLR
 70
0
  9
$DIMARCSYM
 70
0
  9
$DIMLTYPE
  6

  9
$DIMLTEX1
  6

  9
$DIMLTEX2
  6

  9
$DIMTXTDIRECTION
 70
0
  9
$LUNITS
 70
2
  9
$LUPREC
 70
4
  9
$SKETCHINC
 40
1.0
  9
$FILLETRAD
 40
10.0
  9
$AUNITS
 70
0
  9
$AUPREC
 70
2
  9
$MENU
  1
.
  9
$ELEVATION
 40
0.0
  9
$PELEVATION
 40
0.0
  9
$THICKNESS
 40
0.0
  9
$LIMCHECK
 70
0
  9
$CHAMFERA
 40
0.0
  9
$CHAMFERB
 40
0.0
  9
$CHAMFERC
 40
0.0
  9
$CHAMFERD
 40
0.0
  9
$SKPOLY
 70
0
  9
$TDCREATE
 40
2461323.928148148
  9
$TDUCREATE
 40
2458532.153996898
  9
$TDUPDATE
 40
2461323.928148148
  9
$TDUUPDATE
 40
2458532.1544311
  9
$TDINDWG
 40
0.0
  9
$TDUSRTIMER
 40
0.0
  9
$USRTIMER
 70
1
  9
$ANGBASE
 50
0.0
  9
$ANGDIR
 70
0
  9
$PDMODE
 70
0
  9
$PDSIZE
 40
0.0
  9
$PLINEWID
 40
0.0
  9
$SPLFRAME
 70
0
  9
$SPLINETYPE
 70
6
  9
$SPLINESEGS
 70
8
  9
$HANDSEED
  5
22B
  9
$SURFTAB1
 70
6
  9
$SURFTAB2
 70
6
  9
$SURFTYPE
 70
6
  9
$SURFU
 70
6
  9
$SURFV
 70
6
  9
$UCSBASE
  2

  9
$UCSNAME
  2

  9
$UCSORG
 10
0.0
 20
0.0
 30
0.0
  9
$UCSXDIR
 10
1.0
 20
0.0
 30
0.0
  9
$UCSYDIR
 10
0.0
 20
1.0
 30
0.0
  9
$UCSORTHOREF
  2

  9
$UCSORTHOVIEW
 70
0
  9
$UCSORGTOP
 10
0.0
 20
0.0
 30
0.0
  9
$UCSORGBOTTOM
 10
0.0
 20
0.0
 30
0.0
  9
$UCSORGLEFT
 10
0.0
 20
0.0
 30
0.0
  9
$UCSORGRIGHT
 10
0.0
 20
0.0
 30
0.0
  9
$UCSORGFRONT
 10
0.0
 20
0.0
 30
0.0
  9
$UCSORGBACK
 10
0.0
 20
0.0
 30
0.0
  9
$PUCSBASE
  2

  9
$PUCSNAME
  2

  9
$PUCSORG
 10
0.0
 20
0.0
 30
0.0
  9
$PUCSXDIR
 10
1.0
 20
0.0
 30
0.0
  9
$PUCSYDIR
 10
0.0
 20
1.0
 30
0.0
  9
$PUCSORTHOREF
  2

  9
$PUCSORTHOVIEW
 70
0
  9
$PUCSORGTOP
 10
0.0
 20
0.0
 30
0.0
  9
$PUCSORGBOTTOM
 10
0.0
 20
0.0
 30
0.0
  9
$PUCSORGLEFT
 10
0.0
 20
0.0
 30
0.0
  9
$PUCSORGRIGHT
 10
0.0
 20
0.0
 30
0.0
  9
$PUCSORGFRONT
 10
0.0
 20
0.0
 30
0.0
  9
$PUCSORGBACK
 10
0.0
 20
0.0
 30
0.0
  9
$USERI1
 70
0
  9
$USERI2
 70
0
  9
$USERI3
 70
0
  9
$USERI4
 70
0
  9
$USERI5
 70
0
  9
$USERR1
 40
0.0
  9
$USERR2
 40
0.0
  9
$USERR3
 40
0.0
  9
$USERR4
 40
0.0
  9
$USERR5
 40
0.0
  9
$WORLDVIEW
 70
1
  9
$SHADEDGE
 70
3
  9
$SHADEDIF
 70
70
  9
$TILEMODE
 70
1
  9
$MAXACTVP
 70
64
  9
$PINSBASE
 10
0.0
 20
0.0
 30
0.0
  9
$PLIMCHECK
 70
0
  9
$PEXTMIN
 10
1e+20
 20
1e+20
 30
1e+20
  9
$PEXTMAX
 10
-1e+20
 20
-1e+20
 30
-1e+20
  9
$PLIMMIN
 10
0.0
 20
0.0
  9
$PLIMMAX
 10
420.0
 20
297.0
  9
$UNITMODE
 70
0
  9
$VISRETAIN
 70
1
  9
$PLINEGEN
 70
0
  9
$PSLTSCALE
 70
1
  9
$TREEDEPTH
 70
3020
  9
$CMLSTYLE
  2
Standard
  9
$CMLJUST
 70
0
  9
$CMLSCALE
 40
20.0
  9
$PROXYGRAPHICS
 70
1
  9
$MEASUREMENT
 70
1
  9
$CELWEIGHT
370
-1
  9
$ENDCAPS
280
0
  9
$JOINSTYLE
280
0
  9
$LWDISPLAY
290
1
  9
$INSUNITS
 70
4
  9
$HYPERLINKBASE
  1

  9
$STYLESHEET
  1

  9
$XEDIT
290
1
  9
$CEPSNTYPE
380
0
  9
$PSTYLEMODE
290
1
  9
$FINGERPRINTGUID
  2
{9629FA7E-6874-4C53-BB12-92789B7A6159}
  9
$VERSIONGUID
  2
{906321F9-4995-4BBA-A02A-1BFA65440069}
  9
$EXTNAMES
290
1
  9
$PSVPSCALE
 40
0.0
  9
$OLESTARTUP
290
0
  9
$SORTENTS
280
127
  9
$INDEXCTL
280
0
  9
$HIDETEXT
280
1
  9
$XCLIPFRAME
280
1
  9
$HALOGAP
280
0
  9
$OBSCOLOR
 70
257
  9
$OBSLTYPE
280
0
  9
$INTERSECTIONDISPLAY
280
0
  9
$INTERSECTIONCOLOR
 70
257
  9
$DIMASSOC
280
2
  9
$PROJECTNAME
  1

  9
$CAMERADISPLAY
290
0
  9
$LENSLENGTH
 40
50.0
  9
$CAMERAHEIGHT
 40
0.0
  9
$STEPSPERSEC
 40
24.0
  9
$STEPSIZE
 40
100.0
  9
$3DDWFPREC
 40
2.0
  9
$PSOLWIDTH
 40
0.005
  9
$PSOLHEIGHT
 40
0.08
  9
$LOFTANG1
 40
1.570796326795
  9
$LOFTANG2
 40
1.570796326795
  9
$LOFTMAG1
 40
0.0
  9
$LOFTMAG2
 40
0.0
  9
$LOFTPARAM
 70
7
  9
$LOFTNORMALS
280
1
  9
$LATITUDE
 40
37.795
  9
$LONGITUDE
 40
-122.394
  9
$NORTHDIRECTION
 40
0.0
  9
$TIMEZONE
 70
-8000
  9
$LIGHTGLYPHDISPLAY
280
1
  9
$TILEMODELIGHTSYNCH
280
1
  9
$CMATERIAL
347
20
  9
$SOLIDHIST
280
0
  9
$SHOWHIST
280
1
  9
$DWFFRAME
280
2
  9
$DGNFRAME
280
2
  9
$REALWORLDSCALE
290
1
  9
$INTERFERECOLOR
 62
256
  9
$CSHADOW
280
0
  9
$SHADOWPLANELOCATION
 40
0.0
  0
ENDSEC
  0
SECTION
  2
CLASSES
  0
CLASS
  1
ACDBDICTIONARYWDFLT
  2
AcDbDictionaryWithDefault
  3
ObjectDBX Classes
 90
0
 91
0
280
0
281
0
  0
CLASS
  1
SUN
  2
AcDbSun
  3
SCENEOE
 90
1153
 91
0
280
0
281
0
  0
CLASS
  1
VISUALSTYLE
  2
AcDbVisualStyle
  3
ObjectDBX Classes
 90
4095
 91
0
280
0
281
0
  0
CLASS
  1
MATERIAL
  2
AcDbMaterial
  3
ObjectDBX Classes
 90
1153
 91
0
280
0
281
0
  0
CLASS
  1
SCALE
  2
AcDbScale
  3
ObjectDBX Classes
 90
1153
 91
0
280
0
281
0
  0
CLASS
  1
TABLESTYLE
  2
AcDbTableStyle
  3
ObjectDBX Classes
 90
4095
 91
0
280
0
281
0
  0
CLASS
  1
MLEADERSTYLE
  2
AcDbMLeaderStyle
  3
ACDB_MLEADERSTYLE_CLASS
 90
4095
 91
0
280
0
281
0
  0
CLASS
  1
DICTIONARYVAR
  2
AcDbDictionaryVar
  3
ObjectDBX Classes
 90
0
 91
0
280
0
281
0
  0
CLASS
  1
CELLSTYLEMAP
  2
AcDbCellStyleMap
  3
ObjectDBX Classes
 90
1152
 91
0
280
0
281
0
  0
CLASS
  1
MENTALRAYRENDERSETTINGS
  2
AcDbMentalRayRenderSettings
  3
SCENEOE
 90
1024
 91
0
280
0
281
0
  0
CLASS
  1
ACDBDETAILVIEWSTYLE
  2
AcDbDetailViewStyle
  3
ObjectDBX Classes
 90
1025
 91
0
280
0
281
0
  0
CLASS
  1
ACDBSECTIONVIEWSTYLE
  2
AcDbSectionViewStyle
  3
ObjectDBX Classes
 90
1025
 91
0
280
0
281
0
  0
CLASS
  1
RASTERVARIABLES
  2
AcDbRasterVariables
  3
ISM
 90
0
 91
0
280
0
281
0
  0
CLASS
  1
LAYOUT
  2
AcDbLayout
  3
ObjectDBX Classes
 90
0
 91
0
280
0
281
0
  0
CLASS
  1
ACDBPLACEHOLDER
  2
AcDbPlaceHolder
  3
ObjectDBX Classes
 90
0
 91
0
280
0
281
0
  0
ENDSEC
  0
SECTION
  2
TABLES
  0
TABLE
  2
VPORT
  5
8
330
0
100
AcDbSymbolTable
 70
1
  0
VPORT
  5
23
330
8
100
AcDbSymbolTableRecord
100
AcDbViewportTableRecord
  2
*Active
 70
0
 10
0.0
 20
0.0
 11
1.0
 21
1.0
 12
0.0
 22
0.0
 13
0.0
 23
0.0
 14
0.5
 24
0.5
 15
0.5
 25
0.5
 16
0.0
 26
0.0
 36
1.0
 17
0.0
 27
0.0
 37
0.0
 40
1000.0
 41
1.34
 42
50.0
 43
0.0
 44
0.0
 50
0.0
 51
0.0
 71
0
 72
1000
 73
1
 74
3
 75
0
 76
0
 77
0
 78
0
281
0
 65
0
146
0.0
  0
ENDTAB
  0
TABLE
  2
LTYPE
  5
2
330
0
100
AcDbSymbolTable
 70
5
  0
LTYPE
  5
24
330
2
100
AcDbSymbolTableRecord
100
AcDbLinetypeTableRecord
  2
ByBlock
 70
0
  3

 72
65
 73
0
 40
0.0
  0
LTYPE
  5
25
330
2
100
AcDbSymbolTableRecord
100
AcDbLinetypeTableRecord
  2
ByLayer
 70
0
  3

 72
65
 73
0
 40
0.0
  0
LTYPE
  5
26
330
2
100
AcDbSymbolTableRecord
100
AcDbLinetypeTableRecord
  2
Continuous
 70
0
  3

 72
65
 73
0
 40
0.0
  0
LTYPE
  5
32
330
2
100
AcDbSymbolTableRecord
100
AcDbLinetypeTableRecord
  2
TRAZO_10-3-2-3
 70
0
  3
trazo 10 3 2 3
 72
65
 73
4
 40
6.35
 49
3.5277777777777777
 74
0
 49
-1.0583333333333331
 74
0
 49
0.7055555555555555
 74
0
 49
-1.0583333333333331
 74
0
  0
LTYPE
  5
D6
330
2
100
AcDbSymbolTableRecord
100
AcDbLinetypeTableRecord
  2
TRAZO_8-3
 70
0
  3
trazo 8 3
 72
65
 73
2
 40
3.880555555555555
 49
2.822222222222222
 74
0
 49
-1.0583333333333331
 74
0
  0
ENDTAB
  0
TABLE
  2
LAYER
  5
1
330
0
100
AcDbSymbolTable
 70
23
  0
LAYER
  5
27
330
1
100
AcDbSymbolTableRecord
100
AcDbLayerTableRecord
  2
0
 70
0
 62
7
  6
Continuous
370
-3
390
13
347
21
  0
LAYER
  5
28
330
1
100
AcDbSymbolTableRecord
100
AcDbLayerTableRecord
  2
Defpoints
 70
0
 62
7
  6
Continuous
290
0
370
-3
390
13
347
21
  0
LAYER
  5
33
330
1
100
AcDbSymbolTableRecord
100
AcDbLayerTableRecord
  2
G-axis
 70
0
 62
253
420
10132122
  6
TRAZO_10-3-2-3
370
18
390
13
347
21
  0
LAYER
  5
35
330
1
100
AcDbSymbolTableRecord
100
AcDbLayerTableRecord
  2
G-bubble
 70
0
 62
27
420
3355443
  6
Continuous
370
30
390
13
347
21
  0
LAYER
  5
38
330
1
100
AcDbSymbolTableRecord
100
AcDbLayerTableRecord
  2
T-grid
 70
0
 62
27
420
3355443
  6
Continuous
370
18
390
13
347
21
  0
LAYER
  5
6E
330
1
100
AcDbSymbolTableRecord
100
AcDbLayerTableRecord
  2
G-beam
 70
0
 62
35
420
8018479
  6
Continuous
370
30
390
13
347
21
  0
LAYER
  5
7F
330
1
100
AcDbSymbolTableRecord
100
AcDbLayerTableRecord
  2
G-r_tieS
 70
0
 62
217
420
4858714
  6
Continuous
370
18
390
13
347
21
  0
LAYER
  5
A1
330
1
100
AcDbSymbolTableRecord
100
AcDbLayerTableRecord
  2
G-tab
 70
0
 62
42
420
11562752
  6
Continuous
370
30
390
13
347
21
  0
LAYER
  5
AA
330
1
100
AcDbSymbolTableRecord
100
AcDbLayerTableRecord
  2
G-column
 70
0
 62
27
420
3355443
  6
Continuous
370
35
390
13
347
21
  0
LAYER
  5
CB
330
1
100
AcDbSymbolTableRecord
100
AcDbLayerTableRecord
  2
G-plate
 70
0
 62
147
420
2054806
  6
Continuous
370
50
390
13
347
21
  0
LAYER
  5
D7
330
1
100
AcDbSymbolTableRecord
100
AcDbLayerTableRecord
  2
G-edge
 70
0
 62
251
420
5592405
  6
TRAZO_8-3
370
30
390
13
347
21
  0
LAYER
  5
DA
330
1
100
AcDbSymbolTableRecord
100
AcDbLayerTableRecord
  2
G-r_bm2
 70
0
 62
147
420
1789810
  6
Continuous
370
18
390
13
347
21
  0
LAYER
  5
DD
330
1
100
AcDbSymbolTableRecord
100
AcDbLayerTableRecord
  2
T-bsm
 70
0
 62
156
420
929604
  6
Continuous
370
18
390
13
347
21
  0
LAYER
  5
E2
330
1
100
AcDbSymbolTableRecord
100
AcDbLayerTableRecord
  2
G-r_bas
 70
0
 62
34
420
8272390
  6
Continuous
370
18
390
13
347
21
  0
LAYER
  5
10B
330
1
100
AcDbSymbolTableRecord
100
AcDbLayerTableRecord
  2
G-r_oval_l
 70
0
 62
23
420
15228988
  6
Continuous
370
20
390
13
347
21
  0
LAYER
  5
10D
330
1
100
AcDbSymbolTableRecord
100
AcDbLayerTableRecord
  2
G-r_anc
 70
0
 62
24
420
8070172
  6
Continuous
370
18
390
13
347
21
  0
LAYER
  5
13F
330
1
100
AcDbSymbolTableRecord
100
AcDbLayerTableRecord
  2
T-label
 70
0
 62
49
420
2236962
  6
Continuous
370
18
390
13
347
21
  0
LAYER
  5
143
330
1
100
AcDbSymbolTableRecord
100
AcDbLayerTableRecord
  2
T-code
 70
0
 62
19
420
1118481
  6
Continuous
370
18
390
13
347
21
  0
LAYER
  5
14F
330
1
100
AcDbSymbolTableRecord
100
AcDbLayerTableRecord
  2
T-small
 70
0
 62
47
420
4473924
  6
Continuous
370
18
390
13
347
21
  0
LAYER
  5
158
330
1
100
AcDbSymbolTableRecord
100
AcDbLayerTableRecord
  2
T-red
 70
0
 62
242
420
13632027
  6
Continuous
370
18
390
13
347
21
  0
LAYER
  5
15E
330
1
100
AcDbSymbolTableRecord
100
AcDbLayerTableRecord
  2
T-tie
 70
0
 62
195
420
5975151
  6
Continuous
370
18
390
13
347
21
  0
LAYER
  5
162
330
1
100
AcDbSymbolTableRecord
100
AcDbLayerTableRecord
  2
G-lead
 70
0
 62
49
420
2236962
  6
Continuous
370
35
390
13
347
21
  0
LAYER
  5
16F
330
1
100
AcDbSymbolTableRecord
100
AcDbLayerTableRecord
  2
COTAS
 70
0
 62
27
420
3355443
  6
Continuous
370
15
390
13
347
21
  0
ENDTAB
  0
TABLE
  2
STYLE
  5
5
330
0
100
AcDbSymbolTable
 70
3
  0
STYLE
  5
29
330
5
100
AcDbSymbolTableRecord
100
AcDbTextStyleTableRecord
  2
Standard
 70
0
 40
0.0
 41
1.0
 50
0.0
 71
0
 42
2.5
  3
txt
  4

  0
STYLE
  5
2F
330
5
100
AcDbSymbolTableRecord
100
AcDbTextStyleTableRecord
  2
ESTANDAR
 70
0
 40
0.0
 41
1.0
 50
0.0
 71
0
 42
2.5
  3
arial.ttf
  4

  0
STYLE
  5
30
330
5
100
AcDbSymbolTableRecord
100
AcDbTextStyleTableRecord
  2
NEGRITA
 70
0
 40
0.0
 41
1.0
 50
0.0
 71
0
 42
2.5
  3
arialbd.ttf
  4

  0
ENDTAB
  0
TABLE
  2
VIEW
  5
7
330
0
100
AcDbSymbolTable
 70
0
  0
ENDTAB
  0
TABLE
  2
UCS
  5
6
330
0
100
AcDbSymbolTable
 70
0
  0
ENDTAB
  0
TABLE
  2
APPID
  5
3
330
0
100
AcDbSymbolTable
 70
3
  0
APPID
  5
2A
330
3
100
AcDbSymbolTableRecord
100
AcDbRegAppTableRecord
  2
ACAD
 70
0
  0
APPID
  5
228
330
3
100
AcDbSymbolTableRecord
100
AcDbRegAppTableRecord
  2
HATCHBACKGROUNDCOLOR
 70
0
  0
APPID
  5
229
330
3
100
AcDbSymbolTableRecord
100
AcDbRegAppTableRecord
  2
EZDXF
 70
0
  0
ENDTAB
  0
TABLE
  2
DIMSTYLE
  5
4
330
0
100
AcDbSymbolTable
 70
2
100
AcDbDimStyleTable
  0
DIMSTYLE
105
2B
330
4
100
AcDbSymbolTableRecord
100
AcDbDimStyleTableRecord
  2
Standard
 70
0
 40
1.0
 41
2.5
 42
0.625
 43
3.75
 44
1.25
 45
0.0
 46
0.0
 47
0.0
 48
0.0
 49
2.5
140
2.5
141
2.5
142
0.0
143
0.03937007874
144
1.0
145
0.0
146
1.0
147
0.625
148
0.0
 69
0
 70
0
 71
0
 72
0
 73
0
 74
0
 75
0
 76
0
 77
1
 78
8
 79
3
170
0
171
3
172
1
173
0
174
0
175
0
176
0
177
0
178
0
179
2
271
2
272
2
273
2
274
3
275
0
276
0
277
2
278
44
279
0
280
0
281
0
282
0
283
0
284
8
285
0
286
0
288
0
289
3
290
0
371
-2
372
-2
  0
DIMSTYLE
105
31
330
4
100
AcDbSymbolTableRecord
100
AcDbDimStyleTableRecord
  2
COTAS_1-75
 70
0
 40
75.0
 41
2.0
 42
0.5291666666666666
 43
3.75
 44
0.8819444444444444
 45
0.0
 46
0.0
 47
0.0
 48
0.0
 49
2.5
140
1.8288
141
2.5
142
1.0943166666666666
143
0.03937007874
144
1.0
145
0.0
146
1.0
147
0.6
148
0.0
 69
0
 70
0
 71
0
 72
0
 73
0
 74
0
 75
0
 76
0
 77
1
 78
8
 79
3
170
0
171
3
172
1
173
0
174
0
175
0
176
8
177
8
178
250
179
2
271
0
272
2
273
2
274
3
275
0
276
0
277
2
278
44
279
0
280
0
281
0
282
0
283
0
284
8
285
0
286
0
288
0
289
3
290
0
340
2F
371
15
372
13
  0
ENDTAB
  0
TABLE
  2
BLOCK_RECORD
  5
9
330
0
100
AcDbSymbolTable
 70
15
  0
BLOCK_RECORD
  5
17
330
9
100
AcDbSymbolTableRecord
100
AcDbBlockTableRecord
  2
*Model_Space
340
1A
 70
0
280
1
281
0
  0
BLOCK_RECORD
  5
1B
330
9
100
AcDbSymbolTableRecord
100
AcDbBlockTableRecord
  2
*Paper_Space
340
1E
 70
0
280
1
281
0
  0
BLOCK_RECORD
  5
171
330
9
100
AcDbSymbolTableRecord
100
AcDbBlockTableRecord
  2
*D1
340
0
 70
0
280
1
281
0
  0
BLOCK_RECORD
  5
176
330
9
100
AcDbSymbolTableRecord
100
AcDbBlockTableRecord
  2
_OBLIQUE
340
0
 70
0
280
1
281
0
  0
BLOCK_RECORD
  5
184
330
9
100
AcDbSymbolTableRecord
100
AcDbBlockTableRecord
  2
*D2
340
0
 70
0
280
1
281
0
  0
BLOCK_RECORD
  5
193
330
9
100
AcDbSymbolTableRecord
100
AcDbBlockTableRecord
  2
*D3
340
0
 70
0
280
1
281
0
  0
BLOCK_RECORD
  5
1A2
330
9
100
AcDbSymbolTableRecord
100
AcDbBlockTableRecord
  2
*D4
340
0
 70
0
280
1
281
0
  0
BLOCK_RECORD
  5
1B1
330
9
100
AcDbSymbolTableRecord
100
AcDbBlockTableRecord
  2
*D5
340
0
 70
0
280
1
281
0
  0
BLOCK_RECORD
  5
1C0
330
9
100
AcDbSymbolTableRecord
100
AcDbBlockTableRecord
  2
*D6
340
0
 70
0
280
1
281
0
  0
BLOCK_RECORD
  5
1CF
330
9
100
AcDbSymbolTableRecord
100
AcDbBlockTableRecord
  2
*D7
340
0
 70
0
280
1
281
0
  0
BLOCK_RECORD
  5
1DE
330
9
100
AcDbSymbolTableRecord
100
AcDbBlockTableRecord
  2
*D8
340
0
 70
0
280
1
281
0
  0
BLOCK_RECORD
  5
1ED
330
9
100
AcDbSymbolTableRecord
100
AcDbBlockTableRecord
  2
*D9
340
0
 70
0
280
1
281
0
  0
BLOCK_RECORD
  5
1FC
330
9
100
AcDbSymbolTableRecord
100
AcDbBlockTableRecord
  2
*D10
340
0
 70
0
280
1
281
0
  0
BLOCK_RECORD
  5
20B
330
9
100
AcDbSymbolTableRecord
100
AcDbBlockTableRecord
  2
*D11
340
0
 70
0
280
1
281
0
  0
BLOCK_RECORD
  5
21A
330
9
100
AcDbSymbolTableRecord
100
AcDbBlockTableRecord
  2
*D12
340
0
 70
0
280
1
281
0
  0
ENDTAB
  0
ENDSEC
  0
SECTION
  2
BLOCKS
  0
BLOCK
  5
18
330
17
100
AcDbEntity
  8
0
100
AcDbBlockBegin
  2
*Model_Space
 70
0
 10
0.0
 20
0.0
 30
0.0
  3
*Model_Space
  1

  0
ENDBLK
  5
19
330
17
100
AcDbEntity
  8
0
100
AcDbBlockEnd
  0
BLOCK
  5
1C
330
1B
100
AcDbEntity
  8
0
100
AcDbBlockBegin
  2
*Paper_Space
 70
0
 10
0.0
 20
0.0
 30
0.0
  3
*Paper_Space
  1

  0
ENDBLK
  5
1D
330
1B
100
AcDbEntity
  8
0
100
AcDbBlockEnd
  0
BLOCK
  5
172
330
171
100
AcDbEntity
  8
0
100
AcDbBlockBegin
  2
*D1
 70
1
 10
0.0
 20
0.0
 30
0.0
  3
*D1
  1

  0
LINE
  5
174
330
171
100
AcDbEntity
  8
0
 62
8
370
13
100
AcDbLine
 10
-1780.0
 20
-39.68749999999999
 30
0.0
 11
-1780.0
 21
-3396.1458333333335
 31
0.0
  0
LINE
  5
175
330
171
100
AcDbEntity
  8
0
 62
8
370
13
100
AcDbLine
 10
0.0
 20
-39.68749999999999
 30
0.0
 11
0.0
 21
-3396.1458333333335
 31
0.0
  0
INSERT
  5
17A
330
171
100
AcDbEntity
  8
COTAS
 62
8
100
AcDbBlockReference
  2
_OBLIQUE
 10
-1780.0
 20
-3330.0
 30
0.0
 41
164.14749999999998
 42
164.14749999999998
  0
INSERT
  5
17C
330
171
100
AcDbEntity
  8
COTAS
 62
8
100
AcDbBlockReference
  2
_OBLIQUE
 10
0.0
 20
-3330.0
 30
0.0
 41
164.14749999999998
 42
164.14749999999998
  0
LINE
  5
17E
330
171
100
AcDbEntity
  8
0
 62
8
370
15
100
AcDbLine
 10
-1780.0
 20
-3330.0
 30
0.0
 11
0.0
 21
-3330.0
 31
0.0
  0
MTEXT
  5
17F
330
171
100
AcDbEntity
  8
COTAS
 62
250
100
AcDbMText
 10
-890.0
 20
-3216.42
 30
0.0
 40
137.16
 71
5
  1
1780
  7
ESTANDAR
  0
POINT
  5
180
330
171
100
AcDbEntity
  8
Defpoints
100
AcDbPoint
 10
-1780.0
 20
-3330.0
 30
0.0
  0
POINT
  5
181
330
171
100
AcDbEntity
  8
Defpoints
100
AcDbPoint
 10
-1780.0
 20
0.0
 30
0.0
  0
POINT
  5
182
330
171
100
AcDbEntity
  8
Defpoints
100
AcDbPoint
 10
0.0
 20
0.0
 30
0.0
  0
ENDBLK
  5
173
330
171
100
AcDbEntity
  8
0
100
AcDbBlockEnd
  0
BLOCK
  5
177
330
176
100
AcDbEntity
  8
0
100
AcDbBlockBegin
  2
_OBLIQUE
 70
0
 10
0.0
 20
0.0
 30
0.0
  3
_OBLIQUE
  1

  0
LINE
  5
179
330
176
100
AcDbEntity
  8
0
  6
BYBLOCK
 62
0
100
AcDbLine
 10
-0.5
 20
-0.5
 30
0.0
 11
0.5
 21
0.5
 31
0.0
  0
ENDBLK
  5
178
330
176
100
AcDbEntity
  8
0
100
AcDbBlockEnd
  0
BLOCK
  5
185
330
184
100
AcDbEntity
  8
0
100
AcDbBlockBegin
  2
*D2
 70
1
 10
0.0
 20
0.0
 30
0.0
  3
*D2
  1

  0
LINE
  5
187
330
184
100
AcDbEntity
  8
0
 62
8
370
13
100
AcDbLine
 10
2.4301584920580288e-15
 20
-3290.3125
 30
0.0
 11
4.050264153430048e-15
 21
-3263.8541666666665
 31
0.0
  0
LINE
  5
188
330
184
100
AcDbEntity
  8
0
 62
8
370
13
100
AcDbLine
 10
2390.0
 20
-3290.3125
 30
0.0
 11
2390.0
 21
-3263.8541666666665
 31
0.0
  0
INSERT
  5
189
330
184
100
AcDbEntity
  8
COTAS
 62
8
100
AcDbBlockReference
  2
_OBLIQUE
 10
0.0
 20
-3330.0
 30
0.0
 41
164.14749999999998
 42
164.14749999999998
  0
INSERT
  5
18B
330
184
100
AcDbEntity
  8
COTAS
 62
8
100
AcDbBlockReference
  2
_OBLIQUE
 10
2390.0
 20
-3330.0
 30
0.0
 41
164.14749999999998
 42
164.14749999999998
  0
LINE
  5
18D
330
184
100
AcDbEntity
  8
0
 62
8
370
15
100
AcDbLine
 10
0.0
 20
-3330.0
 30
0.0
 11
2390.0
 21
-3330.0
 31
0.0
  0
MTEXT
  5
18E
330
184
100
AcDbEntity
  8
COTAS
 62
250
100
AcDbMText
 10
1195.0
 20
-3216.42
 30
0.0
 40
137.16
 71
5
  1
2390
  7
ESTANDAR
  0
POINT
  5
18F
330
184
100
AcDbEntity
  8
Defpoints
100
AcDbPoint
 10
0.0
 20
-3330.0
 30
0.0
  0
POINT
  5
190
330
184
100
AcDbEntity
  8
Defpoints
100
AcDbPoint
 10
0.0
 20
-3330.0
 30
0.0
  0
POINT
  5
191
330
184
100
AcDbEntity
  8
Defpoints
100
AcDbPoint
 10
2390.0
 20
-3330.0
 30
0.0
  0
ENDBLK
  5
186
330
184
100
AcDbEntity
  8
0
100
AcDbBlockEnd
  0
BLOCK
  5
194
330
193
100
AcDbEntity
  8
0
100
AcDbBlockBegin
  2
*D3
 70
1
 10
0.0
 20
0.0
 30
0.0
  3
*D3
  1

  0
LINE
  5
196
330
193
100
AcDbEntity
  8
0
 62
8
370
13
100
AcDbLine
 10
2390.0
 20
-3290.3125
 30
0.0
 11
2390.0
 21
-3263.8541666666665
 31
0.0
  0
LINE
  5
197
330
193
100
AcDbEntity
  8
0
 62
8
370
13
100
AcDbLine
 10
4780.0
 20
-3290.3125
 30
0.0
 11
4780.0
 21
-3263.8541666666665
 31
0.0
  0
INSERT
  5
198
330
193
100
AcDbEntity
  8
COTAS
 62
8
100
AcDbBlockReference
  2
_OBLIQUE
 10
2390.0
 20
-3330.0
 30
0.0
 41
164.14749999999998
 42
164.14749999999998
  0
INSERT
  5
19A
330
193
100
AcDbEntity
  8
COTAS
 62
8
100
AcDbBlockReference
  2
_OBLIQUE
 10
4780.0
 20
-3330.0
 30
0.0
 41
164.14749999999998
 42
164.14749999999998
  0
LINE
  5
19C
330
193
100
AcDbEntity
  8
0
 62
8
370
15
100
AcDbLine
 10
2390.0
 20
-3330.0
 30
0.0
 11
4780.0
 21
-3330.0
 31
0.0
  0
MTEXT
  5
19D
330
193
100
AcDbEntity
  8
COTAS
 62
250
100
AcDbMText
 10
3585.0
 20
-3216.42
 30
0.0
 40
137.16
 71
5
  1
2390
  7
ESTANDAR
  0
POINT
  5
19E
330
193
100
AcDbEntity
  8
Defpoints
100
AcDbPoint
 10
2390.0
 20
-3330.0
 30
0.0
  0
POINT
  5
19F
330
193
100
AcDbEntity
  8
Defpoints
100
AcDbPoint
 10
2390.0
 20
-3330.0
 30
0.0
  0
POINT
  5
1A0
330
193
100
AcDbEntity
  8
Defpoints
100
AcDbPoint
 10
4780.0
 20
-3330.0
 30
0.0
  0
ENDBLK
  5
195
330
193
100
AcDbEntity
  8
0
100
AcDbBlockEnd
  0
BLOCK
  5
1A3
330
1A2
100
AcDbEntity
  8
0
100
AcDbBlockBegin
  2
*D4
 70
1
 10
0.0
 20
0.0
 30
0.0
  3
*D4
  1

  0
LINE
  5
1A5
330
1A2
100
AcDbEntity
  8
0
 62
8
370
13
100
AcDbLine
 10
4780.0
 20
-3290.3125
 30
0.0
 11
4780.0
 21
-3263.8541666666665
 31
0.0
  0
LINE
  5
1A6
330
1A2
100
AcDbEntity
  8
0
 62
8
370
13
100
AcDbLine
 10
7170.0
 20
-3290.3125
 30
0.0
 11
7170.0
 21
-3263.8541666666665
 31
0.0
  0
INSERT
  5
1A7
330
1A2
100
AcDbEntity
  8
COTAS
 62
8
100
AcDbBlockReference
  2
_OBLIQUE
 10
4780.0
 20
-3330.0
 30
0.0
 41
164.14749999999998
 42
164.14749999999998
  0
INSERT
  5
1A9
330
1A2
100
AcDbEntity
  8
COTAS
 62
8
100
AcDbBlockReference
  2
_OBLIQUE
 10
7170.0
 20
-3330.0
 30
0.0
 41
164.14749999999998
 42
164.14749999999998
  0
LINE
  5
1AB
330
1A2
100
AcDbEntity
  8
0
 62
8
370
15
100
AcDbLine
 10
4780.0
 20
-3330.0
 30
0.0
 11
7170.0
 21
-3330.0
 31
0.0
  0
MTEXT
  5
1AC
330
1A2
100
AcDbEntity
  8
COTAS
 62
250
100
AcDbMText
 10
5975.0
 20
-3216.42
 30
0.0
 40
137.16
 71
5
  1
2390
  7
ESTANDAR
  0
POINT
  5
1AD
330
1A2
100
AcDbEntity
  8
Defpoints
100
AcDbPoint
 10
4780.0
 20
-3330.0
 30
0.0
  0
POINT
  5
1AE
330
1A2
100
AcDbEntity
  8
Defpoints
100
AcDbPoint
 10
4780.0
 20
-3330.0
 30
0.0
  0
POINT
  5
1AF
330
1A2
100
AcDbEntity
  8
Defpoints
100
AcDbPoint
 10
7170.0
 20
-3330.0
 30
0.0
  0
ENDBLK
  5
1A4
330
1A2
100
AcDbEntity
  8
0
100
AcDbBlockEnd
  0
BLOCK
  5
1B2
330
1B1
100
AcDbEntity
  8
0
100
AcDbBlockBegin
  2
*D5
 70
1
 10
0.0
 20
0.0
 30
0.0
  3
*D5
  1

  0
LINE
  5
1B4
330
1B1
100
AcDbEntity
  8
0
 62
8
370
13
100
AcDbLine
 10
7170.0
 20
-3290.3125
 30
0.0
 11
7170.0
 21
-3263.8541666666665
 31
0.0
  0
LINE
  5
1B5
330
1B1
100
AcDbEntity
  8
0
 62
8
370
13
100
AcDbLine
 10
9560.0
 20
-3290.3125
 30
0.0
 11
9560.0
 21
-3263.8541666666665
 31
0.0
  0
INSERT
  5
1B6
330
1B1
100
AcDbEntity
  8
COTAS
 62
8
100
AcDbBlockReference
  2
_OBLIQUE
 10
7170.0
 20
-3330.0
 30
0.0
 41
164.14749999999998
 42
164.14749999999998
  0
INSERT
  5
1B8
330
1B1
100
AcDbEntity
  8
COTAS
 62
8
100
AcDbBlockReference
  2
_OBLIQUE
 10
9560.0
 20
-3330.0
 30
0.0
 41
164.14749999999998
 42
164.14749999999998
  0
LINE
  5
1BA
330
1B1
100
AcDbEntity
  8
0
 62
8
370
15
100
AcDbLine
 10
7170.0
 20
-3330.0
 30
0.0
 11
9560.0
 21
-3330.0
 31
0.0
  0
MTEXT
  5
1BB
330
1B1
100
AcDbEntity
  8
COTAS
 62
250
100
AcDbMText
 10
8365.0
 20
-3216.42
 30
0.0
 40
137.16
 71
5
  1
2390
  7
ESTANDAR
  0
POINT
  5
1BC
330
1B1
100
AcDbEntity
  8
Defpoints
100
AcDbPoint
 10
7170.0
 20
-3330.0
 30
0.0
  0
POINT
  5
1BD
330
1B1
100
AcDbEntity
  8
Defpoints
100
AcDbPoint
 10
7170.0
 20
-3330.0
 30
0.0
  0
POINT
  5
1BE
330
1B1
100
AcDbEntity
  8
Defpoints
100
AcDbPoint
 10
9560.0
 20
-3330.0
 30
0.0
  0
ENDBLK
  5
1B3
330
1B1
100
AcDbEntity
  8
0
100
AcDbBlockEnd
  0
BLOCK
  5
1C1
330
1C0
100
AcDbEntity
  8
0
100
AcDbBlockBegin
  2
*D6
 70
1
 10
0.0
 20
0.0
 30
0.0
  3
*D6
  1

  0
LINE
  5
1C3
330
1C0
100
AcDbEntity
  8
0
 62
8
370
13
100
AcDbLine
 10
9560.0
 20
-3290.3125
 30
0.0
 11
9560.0
 21
-3263.8541666666665
 31
0.0
  0
LINE
  5
1C4
330
1C0
100
AcDbEntity
  8
0
 62
8
370
13
100
AcDbLine
 10
10830.0
 20
-3290.3125
 30
0.0
 11
10830.0
 21
-3263.8541666666665
 31
0.0
  0
INSERT
  5
1C5
330
1C0
100
AcDbEntity
  8
COTAS
 62
8
100
AcDbBlockReference
  2
_OBLIQUE
 10
9560.0
 20
-3330.0
 30
0.0
 41
164.14749999999998
 42
164.14749999999998
  0
INSERT
  5
1C7
330
1C0
100
AcDbEntity
  8
COTAS
 62
8
100
AcDbBlockReference
  2
_OBLIQUE
 10
10830.0
 20
-3330.0
 30
0.0
 41
164.14749999999998
 42
164.14749999999998
  0
LINE
  5
1C9
330
1C0
100
AcDbEntity
  8
0
 62
8
370
15
100
AcDbLine
 10
9560.0
 20
-3330.0
 30
0.0
 11
10830.0
 21
-3330.0
 31
0.0
  0
MTEXT
  5
1CA
330
1C0
100
AcDbEntity
  8
COTAS
 62
250
100
AcDbMText
 10
10195.0
 20
-3216.42
 30
0.0
 40
137.16
 71
5
  1
1270
  7
ESTANDAR
  0
POINT
  5
1CB
330
1C0
100
AcDbEntity
  8
Defpoints
100
AcDbPoint
 10
9560.0
 20
-3330.0
 30
0.0
  0
POINT
  5
1CC
330
1C0
100
AcDbEntity
  8
Defpoints
100
AcDbPoint
 10
9560.0
 20
-3330.0
 30
0.0
  0
POINT
  5
1CD
330
1C0
100
AcDbEntity
  8
Defpoints
100
AcDbPoint
 10
10830.0
 20
-3330.0
 30
0.0
  0
ENDBLK
  5
1C2
330
1C0
100
AcDbEntity
  8
0
100
AcDbBlockEnd
  0
BLOCK
  5
1D0
330
1CF
100
AcDbEntity
  8
0
100
AcDbBlockBegin
  2
*D7
 70
1
 10
0.0
 20
0.0
 30
0.0
  3
*D7
  1

  0
LINE
  5
1D2
330
1CF
100
AcDbEntity
  8
0
 62
8
370
13
100
AcDbLine
 10
12800.3125
 20
-1270.0
 30
0.0
 11
12773.854166666666
 21
-1270.0
 31
0.0
  0
LINE
  5
1D3
330
1CF
100
AcDbEntity
  8
0
 62
8
370
13
100
AcDbLine
 10
12800.3125
 20
4.8603169841160575e-15
 30
0.0
 11
12773.854166666666
 21
8.100528306860096e-15
 31
0.0
  0
INSERT
  5
1D4
330
1CF
100
AcDbEntity
  8
COTAS
 62
8
100
AcDbBlockReference
  2
_OBLIQUE
 10
12840.0
 20
-1270.0
 30
0.0
 41
164.14749999999998
 42
164.14749999999998
 50
90.0
  0
INSERT
  5
1D6
330
1CF
100
AcDbEntity
  8
COTAS
 62
8
100
AcDbBlockReference
  2
_OBLIQUE
 10
12840.0
 20
0.0
 30
0.0
 41
164.14749999999998
 42
164.14749999999998
 50
90.0
  0
LINE
  5
1D8
330
1CF
100
AcDbEntity
  8
0
 62
8
370
15
100
AcDbLine
 10
12840.0
 20
-1270.0
 30
0.0
 11
12840.0
 21
0.0
 31
0.0
  0
MTEXT
  5
1D9
330
1CF
100
AcDbEntity
  8
COTAS
 62
250
100
AcDbMText
 10
12726.42
 20
-635.0
 30
0.0
 40
137.16
 71
5
  1
1270
  7
ESTANDAR
 50
90.0
  0
POINT
  5
1DA
330
1CF
100
AcDbEntity
  8
Defpoints
100
AcDbPoint
 10
12840.0
 20
-1270.0
 30
0.0
  0
POINT
  5
1DB
330
1CF
100
AcDbEntity
  8
Defpoints
100
AcDbPoint
 10
12840.0
 20
-1270.0
 30
0.0
  0
POINT
  5
1DC
330
1CF
100
AcDbEntity
  8
Defpoints
100
AcDbPoint
 10
12840.0
 20
0.0
 30
0.0
  0
ENDBLK
  5
1D1
330
1CF
100
AcDbEntity
  8
0
100
AcDbBlockEnd
  0
BLOCK
  5
1DF
330
1DE
100
AcDbEntity
  8
0
100
AcDbBlockBegin
  2
*D8
 70
1
 10
0.0
 20
0.0
 30
0.0
  3
*D8
  1

  0
LINE
  5
1E1
330
1DE
100
AcDbEntity
  8
0
 62
8
370
13
100
AcDbLine
 10
12800.3125
 20
4.8603169841160575e-15
 30
0.0
 11
12773.854166666666
 21
8.100528306860096e-15
 31
0.0
  0
LINE
  5
1E2
330
1DE
100
AcDbEntity
  8
0
 62
8
370
13
100
AcDbLine
 10
12800.3125
 20
1443.0
 30
0.0
 11
12773.854166666666
 21
1443.0
 31
0.0
  0
INSERT
  5
1E3
330
1DE
100
AcDbEntity
  8
COTAS
 62
8
100
AcDbBlockReference
  2
_OBLIQUE
 10
12840.0
 20
0.0
 30
0.0
 41
164.14749999999998
 42
164.14749999999998
 50
90.0
  0
INSERT
  5
1E5
330
1DE
100
AcDbEntity
  8
COTAS
 62
8
100
AcDbBlockReference
  2
_OBLIQUE
 10
12840.0
 20
1443.0
 30
0.0
 41
164.14749999999998
 42
164.14749999999998
 50
90.0
  0
LINE
  5
1E7
330
1DE
100
AcDbEntity
  8
0
 62
8
370
15
100
AcDbLine
 10
12840.0
 20
0.0
 30
0.0
 11
12840.0
 21
1443.0
 31
0.0
  0
MTEXT
  5
1E8
330
1DE
100
AcDbEntity
  8
COTAS
 62
250
100
AcDbMText
 10
12726.42
 20
721.5
 30
0.0
 40
137.16
 71
5
  1
1443
  7
ESTANDAR
 50
90.0
  0
POINT
  5
1E9
330
1DE
100
AcDbEntity
  8
Defpoints
100
AcDbPoint
 10
12840.0
 20
0.0
 30
0.0
  0
POINT
  5
1EA
330
1DE
100
AcDbEntity
  8
Defpoints
100
AcDbPoint
 10
12840.0
 20
0.0
 30
0.0
  0
POINT
  5
1EB
330
1DE
100
AcDbEntity
  8
Defpoints
100
AcDbPoint
 10
12840.0
 20
1443.0
 30
0.0
  0
ENDBLK
  5
1E0
330
1DE
100
AcDbEntity
  8
0
100
AcDbBlockEnd
  0
BLOCK
  5
1EE
330
1ED
100
AcDbEntity
  8
0
100
AcDbBlockBegin
  2
*D9
 70
1
 10
0.0
 20
0.0
 30
0.0
  3
*D9
  1

  0
LINE
  5
1F0
330
1ED
100
AcDbEntity
  8
0
 62
8
370
13
100
AcDbLine
 10
12800.3125
 20
1443.0
 30
0.0
 11
12773.854166666666
 21
1443.0
 31
0.0
  0
LINE
  5
1F1
330
1ED
100
AcDbEntity
  8
0
 62
8
370
13
100
AcDbLine
 10
12800.3125
 20
2887.0
 30
0.0
 11
12773.854166666666
 21
2887.0
 31
0.0
  0
INSERT
  5
1F2
330
1ED
100
AcDbEntity
  8
COTAS
 62
8
100
AcDbBlockReference
  2
_OBLIQUE
 10
12840.0
 20
1443.0
 30
0.0
 41
164.14749999999998
 42
164.14749999999998
 50
90.0
  0
INSERT
  5
1F4
330
1ED
100
AcDbEntity
  8
COTAS
 62
8
100
AcDbBlockReference
  2
_OBLIQUE
 10
12840.0
 20
2887.0
 30
0.0
 41
164.14749999999998
 42
164.14749999999998
 50
90.0
  0
LINE
  5
1F6
330
1ED
100
AcDbEntity
  8
0
 62
8
370
15
100
AcDbLine
 10
12840.0
 20
1443.0
 30
0.0
 11
12840.0
 21
2887.0
 31
0.0
  0
MTEXT
  5
1F7
330
1ED
100
AcDbEntity
  8
COTAS
 62
250
100
AcDbMText
 10
12726.42
 20
2165.0
 30
0.0
 40
137.16
 71
5
  1
1444
  7
ESTANDAR
 50
90.0
  0
POINT
  5
1F8
330
1ED
100
AcDbEntity
  8
Defpoints
100
AcDbPoint
 10
12840.0
 20
1443.0
 30
0.0
  0
POINT
  5
1F9
330
1ED
100
AcDbEntity
  8
Defpoints
100
AcDbPoint
 10
12840.0
 20
1443.0
 30
0.0
  0
POINT
  5
1FA
330
1ED
100
AcDbEntity
  8
Defpoints
100
AcDbPoint
 10
12840.0
 20
2887.0
 30
0.0
  0
ENDBLK
  5
1EF
330
1ED
100
AcDbEntity
  8
0
100
AcDbBlockEnd
  0
BLOCK
  5
1FD
330
1FC
100
AcDbEntity
  8
0
100
AcDbBlockBegin
  2
*D10
 70
1
 10
0.0
 20
0.0
 30
0.0
  3
*D10
  1

  0
LINE
  5
1FF
330
1FC
100
AcDbEntity
  8
0
 62
8
370
13
100
AcDbLine
 10
12800.3125
 20
2887.0
 30
0.0
 11
12773.854166666666
 21
2887.0
 31
0.0
  0
LINE
  5
200
330
1FC
100
AcDbEntity
  8
0
 62
8
370
13
100
AcDbLine
 10
12800.3125
 20
4330.0
 30
0.0
 11
12773.854166666666
 21
4330.0
 31
0.0
  0
INSERT
  5
201
330
1FC
100
AcDbEntity
  8
COTAS
 62
8
100
AcDbBlockReference
  2
_OBLIQUE
 10
12840.0
 20
2887.0
 30
0.0
 41
164.14749999999998
 42
164.14749999999998
 50
90.0
  0
INSERT
  5
203
330
1FC
100
AcDbEntity
  8
COTAS
 62
8
100
AcDbBlockReference
  2
_OBLIQUE
 10
12840.0
 20
4330.0
 30
0.0
 41
164.14749999999998
 42
164.14749999999998
 50
90.0
  0
LINE
  5
205
330
1FC
100
AcDbEntity
  8
0
 62
8
370
15
100
AcDbLine
 10
12840.0
 20
2887.0
 30
0.0
 11
12840.0
 21
4330.0
 31
0.0
  0
MTEXT
  5
206
330
1FC
100
AcDbEntity
  8
COTAS
 62
250
100
AcDbMText
 10
12726.42
 20
3608.5
 30
0.0
 40
137.16
 71
5
  1
1443
  7
ESTANDAR
 50
90.0
  0
POINT
  5
207
330
1FC
100
AcDbEntity
  8
Defpoints
100
AcDbPoint
 10
12840.0
 20
2887.0
 30
0.0
  0
POINT
  5
208
330
1FC
100
AcDbEntity
  8
Defpoints
100
AcDbPoint
 10
12840.0
 20
2887.0
 30
0.0
  0
POINT
  5
209
330
1FC
100
AcDbEntity
  8
Defpoints
100
AcDbPoint
 10
12840.0
 20
4330.0
 30
0.0
  0
ENDBLK
  5
1FE
330
1FC
100
AcDbEntity
  8
0
100
AcDbBlockEnd
  0
BLOCK
  5
20C
330
20B
100
AcDbEntity
  8
0
100
AcDbBlockBegin
  2
*D11
 70
1
 10
0.0
 20
0.0
 30
0.0
  3
*D11
  1

  0
LINE
  5
20E
330
20B
100
AcDbEntity
  8
0
 62
8
370
13
100
AcDbLine
 10
12800.3125
 20
4330.0
 30
0.0
 11
12773.854166666666
 21
4330.0
 31
0.0
  0
LINE
  5
20F
330
20B
100
AcDbEntity
  8
0
 62
8
370
13
100
AcDbLine
 10
12800.3125
 20
5730.0
 30
0.0
 11
12773.854166666666
 21
5730.0
 31
0.0
  0
INSERT
  5
210
330
20B
100
AcDbEntity
  8
COTAS
 62
8
100
AcDbBlockReference
  2
_OBLIQUE
 10
12840.0
 20
4330.0
 30
0.0
 41
164.14749999999998
 42
164.14749999999998
 50
90.0
  0
INSERT
  5
212
330
20B
100
AcDbEntity
  8
COTAS
 62
8
100
AcDbBlockReference
  2
_OBLIQUE
 10
12840.0
 20
5730.0
 30
0.0
 41
164.14749999999998
 42
164.14749999999998
 50
90.0
  0
LINE
  5
214
330
20B
100
AcDbEntity
  8
0
 62
8
370
15
100
AcDbLine
 10
12840.0
 20
4330.0
 30
0.0
 11
12840.0
 21
5730.0
 31
0.0
  0
MTEXT
  5
215
330
20B
100
AcDbEntity
  8
COTAS
 62
250
100
AcDbMText
 10
12726.42
 20
5030.0
 30
0.0
 40
137.16
 71
5
  1
1400
  7
ESTANDAR
 50
90.0
  0
POINT
  5
216
330
20B
100
AcDbEntity
  8
Defpoints
100
AcDbPoint
 10
12840.0
 20
4330.0
 30
0.0
  0
POINT
  5
217
330
20B
100
AcDbEntity
  8
Defpoints
100
AcDbPoint
 10
12840.0
 20
4330.0
 30
0.0
  0
POINT
  5
218
330
20B
100
AcDbEntity
  8
Defpoints
100
AcDbPoint
 10
12840.0
 20
5730.0
 30
0.0
  0
ENDBLK
  5
20D
330
20B
100
AcDbEntity
  8
0
100
AcDbBlockEnd
  0
BLOCK
  5
21B
330
21A
100
AcDbEntity
  8
0
100
AcDbBlockBegin
  2
*D12
 70
1
 10
0.0
 20
0.0
 30
0.0
  3
*D12
  1

  0
LINE
  5
21D
330
21A
100
AcDbEntity
  8
0
 62
8
370
13
100
AcDbLine
 10
12800.3125
 20
5730.0
 30
0.0
 11
12773.854166666666
 21
5730.0
 31
0.0
  0
LINE
  5
21E
330
21A
100
AcDbEntity
  8
0
 62
8
370
13
100
AcDbLine
 10
12800.3125
 20
9750.0
 30
0.0
 11
12773.854166666666
 21
9750.0
 31
0.0
  0
INSERT
  5
21F
330
21A
100
AcDbEntity
  8
COTAS
 62
8
100
AcDbBlockReference
  2
_OBLIQUE
 10
12840.0
 20
5730.0
 30
0.0
 41
164.14749999999998
 42
164.14749999999998
 50
90.0
  0
INSERT
  5
221
330
21A
100
AcDbEntity
  8
COTAS
 62
8
100
AcDbBlockReference
  2
_OBLIQUE
 10
12840.0
 20
9750.0
 30
0.0
 41
164.14749999999998
 42
164.14749999999998
 50
90.0
  0
LINE
  5
223
330
21A
100
AcDbEntity
  8
0
 62
8
370
15
100
AcDbLine
 10
12840.0
 20
5730.0
 30
0.0
 11
12840.0
 21
9750.0
 31
0.0
  0
MTEXT
  5
224
330
21A
100
AcDbEntity
  8
COTAS
 62
250
100
AcDbMText
 10
12726.42
 20
7740.0
 30
0.0
 40
137.16
 71
5
  1
4020
  7
ESTANDAR
 50
90.0
  0
POINT
  5
225
330
21A
100
AcDbEntity
  8
Defpoints
100
AcDbPoint
 10
12840.0
 20
5730.0
 30
0.0
  0
POINT
  5
226
330
21A
100
AcDbEntity
  8
Defpoints
100
AcDbPoint
 10
12840.0
 20
5730.0
 30
0.0
  0
POINT
  5
227
330
21A
100
AcDbEntity
  8
Defpoints
100
AcDbPoint
 10
12840.0
 20
9750.0
 30
0.0
  0
ENDBLK
  5
21C
330
21A
100
AcDbEntity
  8
0
100
AcDbBlockEnd
  0
ENDSEC
  0
SECTION
  2
ENTITIES
  0
LINE
  5
34
330
17
100
AcDbEntity
  8
G-axis
100
AcDbLine
 10
-1642.0102564102565
 20
-2170.0
 30
0.0
 11
-2457.2307692307695
 21
10650.0
 31
0.0
  0
HATCH
  5
36
330
17
100
AcDbEntity
  8
G-bubble
 62
7
420
16777215
100
AcDbHatch
 10
0.0
 20
0.0
 30
0.0
210
0.0
220
0.0
230
1.0
  2
SOLID
 70
1
 71
0
 91
1
 92
1
 93
1
 72
2
 10
-1642.0102564102565
 20
-2500.0
 40
330
 50
0
 51
360
 73
1
 97
0
 75
0
 76
1
 98
0
  0
CIRCLE
  5
37
330
17
100
AcDbEntity
  8
G-bubble
100
AcDbCircle
 10
-1642.0102564102565
 20
-2500.0
 30
0.0
 40
330.0
  0
TEXT
  5
39
330
17
100
AcDbEntity
  8
T-grid
 62
27
420
3355443
100
AcDbText
 10
-1642.0102564102565
 20
-2590.0
 30
0.0
 40
190.49999999999997
  1
A
  7
NEGRITA
 41
0.885
 72
1
 11
-1642.0102564102565
 21
-2590.0
 31
0.0
100
AcDbText
  0
LINE
  5
3A
330
17
100
AcDbEntity
  8
G-axis
100
AcDbLine
 10
0.0
 20
-2170.0
 30
0.0
 11
0.0
 21
10650.0
 31
0.0
  0
HATCH
  5
3B
330
17
100
AcDbEntity
  8
G-bubble
 62
7
420
16777215
100
AcDbHatch
 10
0.0
 20
0.0
 30
0.0
210
0.0
220
0.0
230
1.0
  2
SOLID
 70
1
 71
0
 91
1
 92
1
 93
1
 72
2
 10
0.0
 20
-2500.0
 40
330
 50
0
 51
360
 73
1
 97
0
 75
0
 76
1
 98
0
  0
CIRCLE
  5
3C
330
17
100
AcDbEntity
  8
G-bubble
100
AcDbCircle
 10
0.0
 20
-2500.0
 30
0.0
 40
330.0
  0
TEXT
  5
3D
330
17
100
AcDbEntity
  8
T-grid
 62
27
420
3355443
100
AcDbText
 10
0.0
 20
-2590.0
 30
0.0
 40
190.49999999999997
  1
B
  7
NEGRITA
 41
0.885
 72
1
 11
0.0
 21
-2590.0
 31
0.0
100
AcDbText
  0
LINE
  5
3E
330
17
100
AcDbEntity
  8
G-axis
100
AcDbLine
 10
2390.0
 20
-2170.0
 30
0.0
 11
2390.0
 21
10650.0
 31
0.0
  0
HATCH
  5
3F
330
17
100
AcDbEntity
  8
G-bubble
 62
7
420
16777215
100
AcDbHatch
 10
0.0
 20
0.0
 30
0.0
210
0.0
220
0.0
230
1.0
  2
SOLID
 70
1
 71
0
 91
1
 92
1
 93
1
 72
2
 10
2390.0
 20
-2500.0
 40
330
 50
0
 51
360
 73
1
 97
0
 75
0
 76
1
 98
0
  0
CIRCLE
  5
40
330
17
100
AcDbEntity
  8
G-bubble
100
AcDbCircle
 10
2390.0
 20
-2500.0
 30
0.0
 40
330.0
  0
TEXT
  5
41
330
17
100
AcDbEntity
  8
T-grid
 62
27
420
3355443
100
AcDbText
 10
2390.0
 20
-2590.0
 30
0.0
 40
190.49999999999997
  1
F
  7
NEGRITA
 41
0.885
 72
1
 11
2390.0
 21
-2590.0
 31
0.0
100
AcDbText
  0
LINE
  5
42
330
17
100
AcDbEntity
  8
G-axis
100
AcDbLine
 10
4780.0
 20
-2170.0
 30
0.0
 11
4780.0
 21
10650.0
 31
0.0
  0
HATCH
  5
43
330
17
100
AcDbEntity
  8
G-bubble
 62
7
420
16777215
100
AcDbHatch
 10
0.0
 20
0.0
 30
0.0
210
0.0
220
0.0
230
1.0
  2
SOLID
 70
1
 71
0
 91
1
 92
1
 93
1
 72
2
 10
4780.0
 20
-2500.0
 40
330
 50
0
 51
360
 73
1
 97
0
 75
0
 76
1
 98
0
  0
CIRCLE
  5
44
330
17
100
AcDbEntity
  8
G-bubble
100
AcDbCircle
 10
4780.0
 20
-2500.0
 30
0.0
 40
330.0
  0
TEXT
  5
45
330
17
100
AcDbEntity
  8
T-grid
 62
27
420
3355443
100
AcDbText
 10
4780.0
 20
-2590.0
 30
0.0
 40
190.49999999999997
  1
C
  7
NEGRITA
 41
0.885
 72
1
 11
4780.0
 21
-2590.0
 31
0.0
100
AcDbText
  0
LINE
  5
46
330
17
100
AcDbEntity
  8
G-axis
100
AcDbLine
 10
7170.0
 20
-2170.0
 30
0.0
 11
7170.0
 21
10650.0
 31
0.0
  0
HATCH
  5
47
330
17
100
AcDbEntity
  8
G-bubble
 62
7
420
16777215
100
AcDbHatch
 10
0.0
 20
0.0
 30
0.0
210
0.0
220
0.0
230
1.0
  2
SOLID
 70
1
 71
0
 91
1
 92
1
 93
1
 72
2
 10
7170.0
 20
-2500.0
 40
330
 50
0
 51
360
 73
1
 97
0
 75
0
 76
1
 98
0
  0
CIRCLE
  5
48
330
17
100
AcDbEntity
  8
G-bubble
100
AcDbCircle
 10
7170.0
 20
-2500.0
 30
0.0
 40
330.0
  0
TEXT
  5
49
330
17
100
AcDbEntity
  8
T-grid
 62
27
420
3355443
100
AcDbText
 10
7170.0
 20
-2590.0
 30
0.0
 40
190.49999999999997
  1
G
  7
NEGRITA
 41
0.885
 72
1
 11
7170.0
 21
-2590.0
 31
0.0
100
AcDbText
  0
LINE
  5
4A
330
17
100
AcDbEntity
  8
G-axis
100
AcDbLine
 10
9560.0
 20
-2170.0
 30
0.0
 11
9560.0
 21
10650.0
 31
0.0
  0
HATCH
  5
4B
330
17
100
AcDbEntity
  8
G-bubble
 62
7
420
16777215
100
AcDbHatch
 10
0.0
 20
0.0
 30
0.0
210
0.0
220
0.0
230
1.0
  2
SOLID
 70
1
 71
0
 91
1
 92
1
 93
1
 72
2
 10
9560.0
 20
-2500.0
 40
330
 50
0
 51
360
 73
1
 97
0
 75
0
 76
1
 98
0
  0
CIRCLE
  5
4C
330
17
100
AcDbEntity
  8
G-bubble
100
AcDbCircle
 10
9560.0
 20
-2500.0
 30
0.0
 40
330.0
  0
TEXT
  5
4D
330
17
100
AcDbEntity
  8
T-grid
 62
27
420
3355443
100
AcDbText
 10
9560.0
 20
-2590.0
 30
0.0
 40
190.49999999999997
  1
D
  7
NEGRITA
 41
0.885
 72
1
 11
9560.0
 21
-2590.0
 31
0.0
100
AcDbText
  0
LINE
  5
4E
330
17
100
AcDbEntity
  8
G-axis
100
AcDbLine
 10
10830.0
 20
-2170.0
 30
0.0
 11
10830.0
 21
10650.0
 31
0.0
  0
HATCH
  5
4F
330
17
100
AcDbEntity
  8
G-bubble
 62
7
420
16777215
100
AcDbHatch
 10
0.0
 20
0.0
 30
0.0
210
0.0
220
0.0
230
1.0
  2
SOLID
 70
1
 71
0
 91
1
 92
1
 93
1
 72
2
 10
10830.0
 20
-2500.0
 40
330
 50
0
 51
360
 73
1
 97
0
 75
0
 76
1
 98
0
  0
CIRCLE
  5
50
330
17
100
AcDbEntity
  8
G-bubble
100
AcDbCircle
 10
10830.0
 20
-2500.0
 30
0.0
 40
330.0
  0
TEXT
  5
51
330
17
100
AcDbEntity
  8
T-grid
 62
27
420
3355443
100
AcDbText
 10
10830.0
 20
-2590.0
 30
0.0
 40
190.49999999999997
  1
E
  7
NEGRITA
 41
0.885
 72
1
 11
10830.0
 21
-2590.0
 31
0.0
100
AcDbText
  0
LINE
  5
52
330
17
100
AcDbEntity
  8
G-axis
100
AcDbLine
 10
-3300.0
 20
-1270.0
 30
0.0
 11
11730.0
 21
-1270.0
 31
0.0
  0
HATCH
  5
53
330
17
100
AcDbEntity
  8
G-bubble
 62
7
420
16777215
100
AcDbHatch
 10
0.0
 20
0.0
 30
0.0
210
0.0
220
0.0
230
1.0
  2
SOLID
 70
1
 71
0
 91
1
 92
1
 93
1
 72
2
 10
12060.0
 20
-1270.0
 40
330
 50
0
 51
360
 73
1
 97
0
 75
0
 76
1
 98
0
  0
CIRCLE
  5
54
330
17
100
AcDbEntity
  8
G-bubble
100
AcDbCircle
 10
12060.0
 20
-1270.0
 30
0.0
 40
330.0
  0
TEXT
  5
55
330
17
100
AcDbEntity
  8
T-grid
 62
27
420
3355443
100
AcDbText
 10
12060.0
 20
-1360.0
 30
0.0
 40
190.49999999999997
  1
9
  7
NEGRITA
 41
0.885
 72
1
 11
12060.0
 21
-1360.0
 31
0.0
100
AcDbText
  0
LINE
  5
56
330
17
100
AcDbEntity
  8
G-axis
100
AcDbLine
 10
-3300.0
 20
0.0
 30
0.0
 11
11730.0
 21
0.0
 31
0.0
  0
HATCH
  5
57
330
17
100
AcDbEntity
  8
G-bubble
 62
7
420
16777215
100
AcDbHatch
 10
0.0
 20
0.0
 30
0.0
210
0.0
220
0.0
230
1.0
  2
SOLID
 70
1
 71
0
 91
1
 92
1
 93
1
 72
2
 10
12060.0
 20
0.0
 40
330
 50
0
 51
360
 73
1
 97
0
 75
0
 76
1
 98
0
  0
CIRCLE
  5
58
330
17
100
AcDbEntity
  8
G-bubble
100
AcDbCircle
 10
12060.0
 20
0.0
 30
0.0
 40
330.0
  0
TEXT
  5
59
330
17
100
AcDbEntity
  8
T-grid
 62
27
420
3355443
100
AcDbText
 10
12060.0
 20
-90.0
 30
0.0
 40
190.49999999999997
  1
4
  7
NEGRITA
 41
0.885
 72
1
 11
12060.0
 21
-90.0
 31
0.0
100
AcDbText
  0
LINE
  5
5A
330
17
100
AcDbEntity
  8
G-axis
100
AcDbLine
 10
-3300.0
 20
1443.0
 30
0.0
 11
11730.0
 21
1443.0
 31
0.0
  0
HATCH
  5
5B
330
17
100
AcDbEntity
  8
G-bubble
 62
7
420
16777215
100
AcDbHatch
 10
0.0
 20
0.0
 30
0.0
210
0.0
220
0.0
230
1.0
  2
SOLID
 70
1
 71
0
 91
1
 92
1
 93
1
 72
2
 10
12060.0
 20
1443.0
 40
330
 50
0
 51
360
 73
1
 97
0
 75
0
 76
1
 98
0
  0
CIRCLE
  5
5C
330
17
100
AcDbEntity
  8
G-bubble
100
AcDbCircle
 10
12060.0
 20
1443.0
 30
0.0
 40
330.0
  0
TEXT
  5
5D
330
17
100
AcDbEntity
  8
T-grid
 62
27
420
3355443
100
AcDbText
 10
12060.0
 20
1353.0
 30
0.0
 40
190.49999999999997
  1
11
  7
NEGRITA
 41
0.885
 72
1
 11
12060.0
 21
1353.0
 31
0.0
100
AcDbText
  0
LINE
  5
5E
330
17
100
AcDbEntity
  8
G-axis
100
AcDbLine
 10
-3300.0
 20
2887.0
 30
0.0
 11
11730.0
 21
2887.0
 31
0.0
  0
HATCH
  5
5F
330
17
100
AcDbEntity
  8
G-bubble
 62
7
420
16777215
100
AcDbHatch
 10
0.0
 20
0.0
 30
0.0
210
0.0
220
0.0
230
1.0
  2
SOLID
 70
1
 71
0
 91
1
 92
1
 93
1
 72
2
 10
12060.0
 20
2887.0
 40
330
 50
0
 51
360
 73
1
 97
0
 75
0
 76
1
 98
0
  0
CIRCLE
  5
60
330
17
100
AcDbEntity
  8
G-bubble
100
AcDbCircle
 10
12060.0
 20
2887.0
 30
0.0
 40
330.0
  0
TEXT
  5
61
330
17
100
AcDbEntity
  8
T-grid
 62
27
420
3355443
100
AcDbText
 10
12060.0
 20
2797.0
 30
0.0
 40
190.49999999999997
  1
10
  7
NEGRITA
 41
0.885
 72
1
 11
12060.0
 21
2797.0
 31
0.0
100
AcDbText
  0
LINE
  5
62
330
17
100
AcDbEntity
  8
G-axis
100
AcDbLine
 10
-3300.0
 20
4330.0
 30
0.0
 11
11730.0
 21
4330.0
 31
0.0
  0
HATCH
  5
63
330
17
100
AcDbEntity
  8
G-bubble
 62
7
420
16777215
100
AcDbHatch
 10
0.0
 20
0.0
 30
0.0
210
0.0
220
0.0
230
1.0
  2
SOLID
 70
1
 71
0
 91
1
 92
1
 93
1
 72
2
 10
12060.0
 20
4330.0
 40
330
 50
0
 51
360
 73
1
 97
0
 75
0
 76
1
 98
0
  0
CIRCLE
  5
64
330
17
100
AcDbEntity
  8
G-bubble
100
AcDbCircle
 10
12060.0
 20
4330.0
 30
0.0
 40
330.0
  0
TEXT
  5
65
330
17
100
AcDbEntity
  8
T-grid
 62
27
420
3355443
100
AcDbText
 10
12060.0
 20
4240.0
 30
0.0
 40
190.49999999999997
  1
3
  7
NEGRITA
 41
0.885
 72
1
 11
12060.0
 21
4240.0
 31
0.0
100
AcDbText
  0
LINE
  5
66
330
17
100
AcDbEntity
  8
G-axis
100
AcDbLine
 10
-3300.0
 20
5730.0
 30
0.0
 11
11730.0
 21
5730.0
 31
0.0
  0
HATCH
  5
67
330
17
100
AcDbEntity
  8
G-bubble
 62
7
420
16777215
100
AcDbHatch
 10
0.0
 20
0.0
 30
0.0
210
0.0
220
0.0
230
1.0
  2
SOLID
 70
1
 71
0
 91
1
 92
1
 93
1
 72
2
 10
12060.0
 20
5730.0
 40
330
 50
0
 51
360
 73
1
 97
0
 75
0
 76
1
 98
0
  0
CIRCLE
  5
68
330
17
100
AcDbEntity
  8
G-bubble
100
AcDbCircle
 10
12060.0
 20
5730.0
 30
0.0
 40
330.0
  0
TEXT
  5
69
330
17
100
AcDbEntity
  8
T-grid
 62
27
420
3355443
100
AcDbText
 10
12060.0
 20
5640.0
 30
0.0
 40
190.49999999999997
  1
2
  7
NEGRITA
 41
0.885
 72
1
 11
12060.0
 21
5640.0
 31
0.0
100
AcDbText
  0
LINE
  5
6A
330
17
100
AcDbEntity
  8
G-axis
100
AcDbLine
 10
-3300.0
 20
9750.0
 30
0.0
 11
11730.0
 21
9750.0
 31
0.0
  0
HATCH
  5
6B
330
17
100
AcDbEntity
  8
G-bubble
 62
7
420
16777215
100
AcDbHatch
 10
0.0
 20
0.0
 30
0.0
210
0.0
220
0.0
230
1.0
  2
SOLID
 70
1
 71
0
 91
1
 92
1
 93
1
 72
2
 10
12060.0
 20
9750.0
 40
330
 50
0
 51
360
 73
1
 97
0
 75
0
 76
1
 98
0
  0
CIRCLE
  5
6C
330
17
100
AcDbEntity
  8
G-bubble
100
AcDbCircle
 10
12060.0
 20
9750.0
 30
0.0
 40
330.0
  0
TEXT
  5
6D
330
17
100
AcDbEntity
  8
T-grid
 62
27
420
3355443
100
AcDbText
 10
12060.0
 20
9660.0
 30
0.0
 40
190.49999999999997
  1
1
  7
NEGRITA
 41
0.885
 72
1
 11
12060.0
 21
9660.0
 31
0.0
100
AcDbText
  0
HATCH
  5
6F
330
17
100
AcDbEntity
  8
G-beam
 62
7
420
15984595
100
AcDbHatch
 10
0.0
 20
0.0
 30
0.0
210
0.0
220
0.0
230
1.0
  2
SOLID
 70
1
 71
0
 91
1
 92
3
 72
0
 73
1
 93
4
 10
-1780.0
 20
-150.0
 10
9560.0
 20
-150.0
 10
9560.0
 20
150.0
 10
-1780.0
 20
150.0
 97
0
 75
0
 76
1
 98
0
  0
LWPOLYLINE
  5
70
330
17
100
AcDbEntity
  8
G-beam
100
AcDbPolyline
 90
4
 70
1
 10
-1780.0
 20
-150.0
 10
9560.0
 20
-150.0
 10
9560.0
 20
150.0
 10
-1780.0
 20
150.0
  0
HATCH
  5
71
330
17
100
AcDbEntity
  8
G-beam
 62
7
420
15984595
100
AcDbHatch
 10
0.0
 20
0.0
 30
0.0
210
0.0
220
0.0
230
1.0
  2
SOLID
 70
1
 71
0
 91
1
 92
3
 72
0
 73
1
 93
4
 10
-2055.3435897435897
 20
4180.0
 10
9560.0
 20
4180.0
 10
9560.0
 20
4480.0
 10
-2055.3435897435897
 20
4480.0
 97
0
 75
0
 76
1
 98
0
  0
LWPOLYLINE
  5
72
330
17
100
AcDbEntity
  8
G-beam
100
AcDbPolyline
 90
4
 70
1
 10
-2055.3435897435897
 20
4180.0
 10
9560.0
 20
4180.0
 10
9560.0
 20
4480.0
 10
-2055.3435897435897
 20
4480.0
  0
HATCH
  5
73
330
17
100
AcDbEntity
  8
G-beam
 62
7
420
15984595
100
AcDbHatch
 10
0.0
 20
0.0
 30
0.0
210
0.0
220
0.0
230
1.0
  2
SOLID
 70
1
 71
0
 91
1
 92
3
 72
0
 73
1
 93
4
 10
-2144.369230769231
 20
5580.0
 10
9560.0
 20
5580.0
 10
9560.0
 20
5880.0
 10
-2144.369230769231
 20
5880.0
 97
0
 75
0
 76
1
 98
0
  0
LWPOLYLINE
  5
74
330
17
100
AcDbEntity
  8
G-beam
100
AcDbPolyline
 90
4
 70
1
 10
-2144.369230769231
 20
5580.0
 10
9560.0
 20
5580.0
 10
9560.0
 20
5880.0
 10
-2144.369230769231
 20
5880.0
  0
HATCH
  5
75
330
17
100
AcDbEntity
  8
G-beam
 62
7
420
15984595
100
AcDbHatch
 10
0.0
 20
0.0
 30
0.0
210
0.0
220
0.0
230
1.0
  2
SOLID
 70
1
 71
0
 91
1
 92
3
 72
0
 73
1
 93
4
 10
-2400.0
 20
9600.0
 10
9560.0
 20
9600.0
 10
9560.0
 20
9900.0
 10
-2400.0
 20
9900.0
 97
0
 75
0
 76
1
 98
0
  0
LWPOLYLINE
  5
76
330
17
100
AcDbEntity
  8
G-beam
100
AcDbPolyline
 90
4
 70
1
 10
-2400.0
 20
9600.0
 10
9560.0
 20
9600.0
 10
9560.0
 20
9900.0
 10
-2400.0
 20
9900.0
  0
HATCH
  5
77
330
17
100
AcDbEntity
  8
G-beam
 62
7
420
15984595
100
AcDbHatch
 10
0.0
 20
0.0
 30
0.0
210
0.0
220
0.0
230
1.0
  2
SOLID
 70
1
 71
0
 91
1
 92
3
 72
0
 73
1
 93
4
 10
-1930.0
 20
0.0
 10
-2550.0
 20
9750.0
 10
-2250.0
 20
9750.0
 10
-1630.0
 20
0.0
 97
0
 75
0
 76
1
 98
0
  0
LWPOLYLINE
  5
78
330
17
100
AcDbEntity
  8
G-beam
100
AcDbPolyline
 90
4
 70
1
 10
-1930.0
 20
0.0
 10
-2550.0
 20
9750.0
 10
-2250.0
 20
9750.0
 10
-1630.0
 20
0.0
  0
HATCH
  5
79
330
17
100
AcDbEntity
  8
G-beam
 62
7
420
15984595
100
AcDbHatch
 10
0.0
 20
0.0
 30
0.0
210
0.0
220
0.0
230
1.0
  2
SOLID
 70
1
 71
0
 91
1
 92
3
 72
0
 73
1
 93
4
 10
-150.0
 20
0.0
 10
150.0
 20
0.0
 10
150.0
 20
9750.0
 10
-150.0
 20
9750.0
 97
0
 75
0
 76
1
 98
0
  0
LWPOLYLINE
  5
7A
330
17
100
AcDbEntity
  8
G-beam
100
AcDbPolyline
 90
4
 70
1
 10
-150.0
 20
0.0
 10
150.0
 20
0.0
 10
150.0
 20
9750.0
 10
-150.0
 20
9750.0
  0
HATCH
  5
7B
330
17
100
AcDbEntity
  8
G-beam
 62
7
420
15984595
100
AcDbHatch
 10
0.0
 20
0.0
 30
0.0
210
0.0
220
0.0
230
1.0
  2
SOLID
 70
1
 71
0
 91
1
 92
3
 72
0
 73
1
 93
4
 10
4630.0
 20
0.0
 10
4930.0
 20
0.0
 10
4930.0
 20
9750.0
 10
4630.0
 20
9750.0
 97
0
 75
0
 76
1
 98
0
  0
LWPOLYLINE
  5
7C
330
17
100
AcDbEntity
  8
G-beam
100
AcDbPolyline
 90
4
 70
1
 10
4630.0
 20
0.0
 10
4930.0
 20
0.0
 10
4930.0
 20
9750.0
 10
4630.0
 20
9750.0
  0
HATCH
  5
7D
330
17
100
AcDbEntity
  8
G-beam
 62
7
420
15984595
100
AcDbHatch
 10
0.0
 20
0.0
 30
0.0
210
0.0
220
0.0
230
1.0
  2
SOLID
 70
1
 71
0
 91
1
 92
3
 72
0
 73
1
 93
4
 10
9410.0
 20
0.0
 10
9710.0
 20
0.0
 10
9710.0
 20
9750.0
 10
9410.0
 20
9750.0
 97
0
 75
0
 76
1
 98
0
  0
LWPOLYLINE
  5
7E
330
17
100
AcDbEntity
  8
G-beam
100
AcDbPolyline
 90
4
 70
1
 10
9410.0
 20
0.0
 10
9710.0
 20
0.0
 10
9710.0
 20
9750.0
 10
9410.0
 20
9750.0
  0
LINE
  5
80
330
17
100
AcDbEntity
  8
G-r_tieS
100
AcDbLine
 10
9440.0
 20
343.0
 30
0.0
 11
9680.0
 21
343.0
 31
0.0
  0
LINE
  5
81
330
17
100
AcDbEntity
  8
G-r_tieS
100
AcDbLine
 10
9440.0
 20
453.0
 30
0.0
 11
9680.0
 21
453.0
 31
0.0
  0
LINE
  5
82
330
17
100
AcDbEntity
  8
G-r_tieS
100
AcDbLine
 10
9440.0
 20
563.0
 30
0.0
 11
9680.0
 21
563.0
 31
0.0
  0
LINE
  5
83
330
17
100
AcDbEntity
  8
G-r_tieS
100
AcDbLine
 10
9440.0
 20
673.0
 30
0.0
 11
9680.0
 21
673.0
 31
0.0
  0
LINE
  5
84
330
17
100
AcDbEntity
  8
G-r_tieS
100
AcDbLine
 10
9440.0
 20
783.0
 30
0.0
 11
9680.0
 21
783.0
 31
0.0
  0
LINE
  5
85
330
17
100
AcDbEntity
  8
G-r_tieS
100
AcDbLine
 10
9440.0
 20
893.0
 30
0.0
 11
9680.0
 21
893.0
 31
0.0
  0
LINE
  5
86
330
17
100
AcDbEntity
  8
G-r_tieS
100
AcDbLine
 10
9440.0
 20
1003.0
 30
0.0
 11
9680.0
 21
1003.0
 31
0.0
  0
LINE
  5
87
330
17
100
AcDbEntity
  8
G-r_tieS
100
AcDbLine
 10
9440.0
 20
1113.0
 30
0.0
 11
9680.0
 21
1113.0
 31
0.0
  0
LINE
  5
88
330
17
100
AcDbEntity
  8
G-r_tieS
100
AcDbLine
 10
9440.0
 20
1223.0
 30
0.0
 11
9680.0
 21
1223.0
 31
0.0
  0
LINE
  5
89
330
17
100
AcDbEntity
  8
G-r_tieS
100
AcDbLine
 10
9440.0
 20
1333.0
 30
0.0
 11
9680.0
 21
1333.0
 31
0.0
  0
LINE
  5
8A
330
17
100
AcDbEntity
  8
G-r_tieS
100
AcDbLine
 10
9440.0
 20
1443.0
 30
0.0
 11
9680.0
 21
1443.0
 31
0.0
  0
LINE
  5
8B
330
17
100
AcDbEntity
  8
G-r_tieS
100
AcDbLine
 10
9440.0
 20
1487.0
 30
0.0
 11
9680.0
 21
1487.0
 31
0.0
  0
LINE
  5
8C
330
17
100
AcDbEntity
  8
G-r_tieS
100
AcDbLine
 10
9440.0
 20
1627.0
 30
0.0
 11
9680.0
 21
1627.0
 31
0.0
  0
LINE
  5
8D
330
17
100
AcDbEntity
  8
G-r_tieS
100
AcDbLine
 10
9440.0
 20
1767.0
 30
0.0
 11
9680.0
 21
1767.0
 31
0.0
  0
LINE
  5
8E
330
17
100
AcDbEntity
  8
G-r_tieS
100
AcDbLine
 10
9440.0
 20
1907.0
 30
0.0
 11
9680.0
 21
1907.0
 31
0.0
  0
LINE
  5
8F
330
17
100
AcDbEntity
  8
G-r_tieS
100
AcDbLine
 10
9440.0
 20
2047.0
 30
0.0
 11
9680.0
 21
2047.0
 31
0.0
  0
LINE
  5
90
330
17
100
AcDbEntity
  8
G-r_tieS
100
AcDbLine
 10
9440.0
 20
2187.0
 30
0.0
 11
9680.0
 21
2187.0
 31
0.0
  0
LINE
  5
91
330
17
100
AcDbEntity
  8
G-r_tieS
100
AcDbLine
 10
9440.0
 20
2327.0
 30
0.0
 11
9680.0
 21
2327.0
 31
0.0
  0
LINE
  5
92
330
17
100
AcDbEntity
  8
G-r_tieS
100
AcDbLine
 10
9440.0
 20
2467.0
 30
0.0
 11
9680.0
 21
2467.0
 31
0.0
  0
LINE
  5
93
330
17
100
AcDbEntity
  8
G-r_tieS
100
AcDbLine
 10
9440.0
 20
2607.0
 30
0.0
 11
9680.0
 21
2607.0
 31
0.0
  0
LINE
  5
94
330
17
100
AcDbEntity
  8
G-r_tieS
100
AcDbLine
 10
9440.0
 20
2747.0
 30
0.0
 11
9680.0
 21
2747.0
 31
0.0
  0
LINE
  5
95
330
17
100
AcDbEntity
  8
G-r_tieS
100
AcDbLine
 10
9440.0
 20
2887.0
 30
0.0
 11
9680.0
 21
2887.0
 31
0.0
  0
LINE
  5
96
330
17
100
AcDbEntity
  8
G-r_tieS
100
AcDbLine
 10
9440.0
 20
2980.0
 30
0.0
 11
9680.0
 21
2980.0
 31
0.0
  0
LINE
  5
97
330
17
100
AcDbEntity
  8
G-r_tieS
100
AcDbLine
 10
9440.0
 20
3090.0
 30
0.0
 11
9680.0
 21
3090.0
 31
0.0
  0
LINE
  5
98
330
17
100
AcDbEntity
  8
G-r_tieS
100
AcDbLine
 10
9440.0
 20
3200.0
 30
0.0
 11
9680.0
 21
3200.0
 31
0.0
  0
LINE
  5
99
330
17
100
AcDbEntity
  8
G-r_tieS
100
AcDbLine
 10
9440.0
 20
3310.0
 30
0.0
 11
9680.0
 21
3310.0
 31
0.0
  0
LINE
  5
9A
330
17
100
AcDbEntity
  8
G-r_tieS
100
AcDbLine
 10
9440.0
 20
3420.0
 30
0.0
 11
9680.0
 21
3420.0
 31
0.0
  0
LINE
  5
9B
330
17
100
AcDbEntity
  8
G-r_tieS
100
AcDbLine
 10
9440.0
 20
3530.0
 30
0.0
 11
9680.0
 21
3530.0
 31
0.0
  0
LINE
  5
9C
330
17
100
AcDbEntity
  8
G-r_tieS
100
AcDbLine
 10
9440.0
 20
3640.0
 30
0.0
 11
9680.0
 21
3640.0
 31
0.0
  0
LINE
  5
9D
330
17
100
AcDbEntity
  8
G-r_tieS
100
AcDbLine
 10
9440.0
 20
3750.0
 30
0.0
 11
9680.0
 21
3750.0
 31
0.0
  0
LINE
  5
9E
330
17
100
AcDbEntity
  8
G-r_tieS
100
AcDbLine
 10
9440.0
 20
3860.0
 30
0.0
 11
9680.0
 21
3860.0
 31
0.0
  0
LINE
  5
9F
330
17
100
AcDbEntity
  8
G-r_tieS
100
AcDbLine
 10
9440.0
 20
3970.0
 30
0.0
 11
9680.0
 21
3970.0
 31
0.0
  0
LINE
  5
A0
330
17
100
AcDbEntity
  8
G-r_tieS
100
AcDbLine
 10
9440.0
 20
4080.0
 30
0.0
 11
9680.0
 21
4080.0
 31
0.0
  0
HATCH
  5
A2
330
17
100
AcDbEntity
  8
G-tab
 62
7
420
16107115
100
AcDbHatch
 10
0.0
 20
0.0
 30
0.0
210
0.0
220
0.0
230
1.0
  2
SOLID
 70
1
 71
0
 91
1
 92
3
 72
0
 73
1
 93
4
 10
-1871.76
 20
1393.0
 10
10830.0
 20
1393.0
 10
10830.0
 20
1493.0
 10
-1871.76
 20
1493.0
 97
0
 75
0
 76
1
 98
0
  0
LWPOLYLINE
  5
A3
330
17
100
AcDbEntity
  8
G-tab
100
AcDbPolyline
 90
4
 70
1
 10
-1871.76
 20
1393.0
 10
10830.0
 20
1393.0
 10
10830.0
 20
1493.0
 10
-1871.76
 20
1493.0
  0
HATCH
  5
A4
330
17
100
AcDbEntity
  8
G-tab
 62
7
420
16107115
100
AcDbHatch
 10
0.0
 20
0.0
 30
0.0
210
0.0
220
0.0
230
1.0
  2
SOLID
 70
1
 71
0
 91
1
 92
3
 72
0
 73
1
 93
4
 10
-1963.5835897435898
 20
2837.0
 10
10830.0
 20
2837.0
 10
10830.0
 20
2937.0
 10
-1963.5835897435898
 20
2937.0
 97
0
 75
0
 76
1
 98
0
  0
LWPOLYLINE
  5
A5
330
17
100
AcDbEntity
  8
G-tab
100
AcDbPolyline
 90
4
 70
1
 10
-1963.5835897435898
 20
2837.0
 10
10830.0
 20
2837.0
 10
10830.0
 20
2937.0
 10
-1963.5835897435898
 20
2937.0
  0
HATCH
  5
A6
330
17
100
AcDbEntity
  8
G-tab
 62
7
420
16107115
100
AcDbHatch
 10
0.0
 20
0.0
 30
0.0
210
0.0
220
0.0
230
1.0
  2
SOLID
 70
1
 71
0
 91
1
 92
3
 72
0
 73
1
 93
4
 10
2340.0
 20
-1270.0
 10
2440.0
 20
-1270.0
 10
2440.0
 20
1443.0
 10
2340.0
 20
1443.0
 97
0
 75
0
 76
1
 98
0
  0
LWPOLYLINE
  5
A7
330
17
100
AcDbEntity
  8
G-tab
100
AcDbPolyline
 90
4
 70
1
 10
2340.0
 20
-1270.0
 10
2440.0
 20
-1270.0
 10
2440.0
 20
1443.0
 10
2340.0
 20
1443.0
  0
HATCH
  5
A8
330
17
100
AcDbEntity
  8
G-tab
 62
7
420
16107115
100
AcDbHatch
 10
0.0
 20
0.0
 30
0.0
210
0.0
220
0.0
230
1.0
  2
SOLID
 70
1
 71
0
 91
1
 92
3
 72
0
 73
1
 93
4
 10
7120.0
 20
-1270.0
 10
7220.0
 20
-1270.0
 10
7220.0
 20
1443.0
 10
7120.0
 20
1443.0
 97
0
 75
0
 76
1
 98
0
  0
LWPOLYLINE
  5
A9
330
17
100
AcDbEntity
  8
G-tab
100
AcDbPolyline
 90
4
 70
1
 10
7120.0
 20
-1270.0
 10
7220.0
 20
-1270.0
 10
7220.0
 20
1443.0
 10
7120.0
 20
1443.0
  0
HATCH
  5
AB
330
17
100
AcDbEntity
  8
G-column
 62
7
420
12434877
100
AcDbHatch
 10
0.0
 20
0.0
 30
0.0
210
0.0
220
0.0
230
1.0
  2
SOLID
 70
1
 71
0
 91
1
 92
3
 72
0
 73
1
 93
4
 10
-1980.0
 20
-200.0
 10
-1580.0
 20
-200.0
 10
-1580.0
 20
200.0
 10
-1980.0
 20
200.0
 97
0
 75
0
 76
1
 98
0
  0
LWPOLYLINE
  5
AC
330
17
100
AcDbEntity
  8
G-column
100
AcDbPolyline
 90
4
 70
1
 10
-1980.0
 20
-200.0
 10
-1580.0
 20
-200.0
 10
-1580.0
 20
200.0
 10
-1980.0
 20
200.0
  0
HATCH
  5
AD
330
17
100
AcDbEntity
  8
G-column
 62
7
420
12434877
100
AcDbHatch
 10
0.0
 20
0.0
 30
0.0
210
0.0
220
0.0
230
1.0
  2
SOLID
 70
1
 71
0
 91
1
 92
3
 72
0
 73
1
 93
4
 10
-200.0
 20
-200.0
 10
200.0
 20
-200.0
 10
200.0
 20
200.0
 10
-200.0
 20
200.0
 97
0
 75
0
 76
1
 98
0
  0
LWPOLYLINE
  5
AE
330
17
100
AcDbEntity
  8
G-column
100
AcDbPolyline
 90
4
 70
1
 10
-200.0
 20
-200.0
 10
200.0
 20
-200.0
 10
200.0
 20
200.0
 10
-200.0
 20
200.0
  0
HATCH
  5
AF
330
17
100
AcDbEntity
  8
G-column
 62
7
420
12434877
100
AcDbHatch
 10
0.0
 20
0.0
 30
0.0
210
0.0
220
0.0
230
1.0
  2
SOLID
 70
1
 71
0
 91
1
 92
3
 72
0
 73
1
 93
4
 10
4580.0
 20
-200.0
 10
4980.0
 20
-200.0
 10
4980.0
 20
200.0
 10
4580.0
 20
200.0
 97
0
 75
0
 76
1
 98
0
  0
LWPOLYLINE
  5
B0
330
17
100
AcDbEntity
  8
G-column
100
AcDbPolyline
 90
4
 70
1
 10
4580.0
 20
-200.0
 10
4980.0
 20
-200.0
 10
4980.0
 20
200.0
 10
4580.0
 20
200.0
  0
HATCH
  5
B1
330
17
100
AcDbEntity
  8
G-column
 62
7
420
12434877
100
AcDbHatch
 10
0.0
 20
0.0
 30
0.0
210
0.0
220
0.0
230
1.0
  2
SOLID
 70
1
 71
0
 91
1
 92
3
 72
0
 73
1
 93
4
 10
9360.0
 20
-200.0
 10
9760.0
 20
-200.0
 10
9760.0
 20
200.0
 10
9360.0
 20
200.0
 97
0
 75
0
 76
1
 98
0
  0
LWPOLYLINE
  5
B2
330
17
100
AcDbEntity
  8
G-column
100
AcDbPolyline
 90
4
 70
1
 10
9360.0
 20
-200.0
 10
9760.0
 20
-200.0
 10
9760.0
 20
200.0
 10
9360.0
 20
200.0
  0
HATCH
  5
B3
330
17
100
AcDbEntity
  8
G-column
 62
7
420
12434877
100
AcDbHatch
 10
0.0
 20
0.0
 30
0.0
210
0.0
220
0.0
230
1.0
  2
SOLID
 70
1
 71
0
 91
1
 92
3
 72
0
 73
1
 93
4
 10
-2255.3435897435897
 20
4130.0
 10
-1855.3435897435897
 20
4130.0
 10
-1855.3435897435897
 20
4530.0
 10
-2255.3435897435897
 20
4530.0
 97
0
 75
0
 76
1
 98
0
  0
LWPOLYLINE
  5
B4
330
17
100
AcDbEntity
  8
G-column
100
AcDbPolyline
 90
4
 70
1
 10
-2255.3435897435897
 20
4130.0
 10
-1855.3435897435897
 20
4130.0
 10
-1855.3435897435897
 20
4530.0
 10
-2255.3435897435897
 20
4530.0
  0
HATCH
  5
B5
330
17
100
AcDbEntity
  8
G-column
 62
7
420
12434877
100
AcDbHatch
 10
0.0
 20
0.0
 30
0.0
210
0.0
220
0.0
230
1.0
  2
SOLID
 70
1
 71
0
 91
1
 92
3
 72
0
 73
1
 93
4
 10
-200.0
 20
4130.0
 10
200.0
 20
4130.0
 10
200.0
 20
4530.0
 10
-200.0
 20
4530.0
 97
0
 75
0
 76
1
 98
0
  0
LWPOLYLINE
  5
B6
330
17
100
AcDbEntity
  8
G-column
100
AcDbPolyline
 90
4
 70
1
 10
-200.0
 20
4130.0
 10
200.0
 20
4130.0
 10
200.0
 20
4530.0
 10
-200.0
 20
4530.0
  0
HATCH
  5
B7
330
17
100
AcDbEntity
  8
G-column
 62
7
420
12434877
100
AcDbHatch
 10
0.0
 20
0.0
 30
0.0
210
0.0
220
0.0
230
1.0
  2
SOLID
 70
1
 71
0
 91
1
 92
3
 72
0
 73
1
 93
4
 10
4580.0
 20
4130.0
 10
4980.0
 20
4130.0
 10
4980.0
 20
4530.0
 10
4580.0
 20
4530.0
 97
0
 75
0
 76
1
 98
0
  0
LWPOLYLINE
  5
B8
330
17
100
AcDbEntity
  8
G-column
100
AcDbPolyline
 90
4
 70
1
 10
4580.0
 20
4130.0
 10
4980.0
 20
4130.0
 10
4980.0
 20
4530.0
 10
4580.0
 20
4530.0
  0
HATCH
  5
B9
330
17
100
AcDbEntity
  8
G-column
 62
7
420
12434877
100
AcDbHatch
 10
0.0
 20
0.0
 30
0.0
210
0.0
220
0.0
230
1.0
  2
SOLID
 70
1
 71
0
 91
1
 92
3
 72
0
 73
1
 93
4
 10
9360.0
 20
4130.0
 10
9760.0
 20
4130.0
 10
9760.0
 20
4530.0
 10
9360.0
 20
4530.0
 97
0
 75
0
 76
1
 98
0
  0
LWPOLYLINE
  5
BA
330
17
100
AcDbEntity
  8
G-column
100
AcDbPolyline
 90
4
 70
1
 10
9360.0
 20
4130.0
 10
9760.0
 20
4130.0
 10
9760.0
 20
4530.0
 10
9360.0
 20
4530.0
  0
HATCH
  5
BB
330
17
100
AcDbEntity
  8
G-column
 62
7
420
12434877
100
AcDbHatch
 10
0.0
 20
0.0
 30
0.0
210
0.0
220
0.0
230
1.0
  2
SOLID
 70
1
 71
0
 91
1
 92
3
 72
0
 73
1
 93
4
 10
-2344.369230769231
 20
5530.0
 10
-1944.3692307692309
 20
5530.0
 10
-1944.3692307692309
 20
5930.0
 10
-2344.369230769231
 20
5930.0
 97
0
 75
0
 76
1
 98
0
  0
LWPOLYLINE
  5
BC
330
17
100
AcDbEntity
  8
G-column
100
AcDbPolyline
 90
4
 70
1
 10
-2344.369230769231
 20
5530.0
 10
-1944.3692307692309
 20
5530.0
 10
-1944.3692307692309
 20
5930.0
 10
-2344.369230769231
 20
5930.0
  0
HATCH
  5
BD
330
17
100
AcDbEntity
  8
G-column
 62
7
420
12434877
100
AcDbHatch
 10
0.0
 20
0.0
 30
0.0
210
0.0
220
0.0
230
1.0
  2
SOLID
 70
1
 71
0
 91
1
 92
3
 72
0
 73
1
 93
4
 10
-200.0
 20
5530.0
 10
200.0
 20
5530.0
 10
200.0
 20
5930.0
 10
-200.0
 20
5930.0
 97
0
 75
0
 76
1
 98
0
  0
LWPOLYLINE
  5
BE
330
17
100
AcDbEntity
  8
G-column
100
AcDbPolyline
 90
4
 70
1
 10
-200.0
 20
5530.0
 10
200.0
 20
5530.0
 10
200.0
 20
5930.0
 10
-200.0
 20
5930.0
  0
HATCH
  5
BF
330
17
100
AcDbEntity
  8
G-column
 62
7
420
12434877
100
AcDbHatch
 10
0.0
 20
0.0
 30
0.0
210
0.0
220
0.0
230
1.0
  2
SOLID
 70
1
 71
0
 91
1
 92
3
 72
0
 73
1
 93
4
 10
4580.0
 20
5530.0
 10
4980.0
 20
5530.0
 10
4980.0
 20
5930.0
 10
4580.0
 20
5930.0
 97
0
 75
0
 76
1
 98
0
  0
LWPOLYLINE
  5
C0
330
17
100
AcDbEntity
  8
G-column
100
AcDbPolyline
 90
4
 70
1
 10
4580.0
 20
5530.0
 10
4980.0
 20
5530.0
 10
4980.0
 20
5930.0
 10
4580.0
 20
5930.0
  0
HATCH
  5
C1
330
17
100
AcDbEntity
  8
G-column
 62
7
420
12434877
100
AcDbHatch
 10
0.0
 20
0.0
 30
0.0
210
0.0
220
0.0
230
1.0
  2
SOLID
 70
1
 71
0
 91
1
 92
3
 72
0
 73
1
 93
4
 10
9360.0
 20
5530.0
 10
9760.0
 20
5530.0
 10
9760.0
 20
5930.0
 10
9360.0
 20
5930.0
 97
0
 75
0
 76
1
 98
0
  0
LWPOLYLINE
  5
C2
330
17
100
AcDbEntity
  8
G-column
100
AcDbPolyline
 90
4
 70
1
 10
9360.0
 20
5530.0
 10
9760.0
 20
5530.0
 10
9760.0
 20
5930.0
 10
9360.0
 20
5930.0
  0
HATCH
  5
C3
330
17
100
AcDbEntity
  8
G-column
 62
7
420
12434877
100
AcDbHatch
 10
0.0
 20
0.0
 30
0.0
210
0.0
220
0.0
230
1.0
  2
SOLID
 70
1
 71
0
 91
1
 92
3
 72
0
 73
1
 93
4
 10
-2600.0
 20
9550.0
 10
-2200.0
 20
9550.0
 10
-2200.0
 20
9950.0
 10
-2600.0
 20
9950.0
 97
0
 75
0
 76
1
 98
0
  0
LWPOLYLINE
  5
C4
330
17
100
AcDbEntity
  8
G-column
100
AcDbPolyline
 90
4
 70
1
 10
-2600.0
 20
9550.0
 10
-2200.0
 20
9550.0
 10
-2200.0
 20
9950.0
 10
-2600.0
 20
9950.0
  0
HATCH
  5
C5
330
17
100
AcDbEntity
  8
G-column
 62
7
420
12434877
100
AcDbHatch
 10
0.0
 20
0.0
 30
0.0
210
0.0
220
0.0
230
1.0
  2
SOLID
 70
1
 71
0
 91
1
 92
3
 72
0
 73
1
 93
4
 10
-200.0
 20
9550.0
 10
200.0
 20
9550.0
 10
200.0
 20
9950.0
 10
-200.0
 20
9950.0
 97
0
 75
0
 76
1
 98
0
  0
LWPOLYLINE
  5
C6
330
17
100
AcDbEntity
  8
G-column
100
AcDbPolyline
 90
4
 70
1
 10
-200.0
 20
9550.0
 10
200.0
 20
9550.0
 10
200.0
 20
9950.0
 10
-200.0
 20
9950.0
  0
HATCH
  5
C7
330
17
100
AcDbEntity
  8
G-column
 62
7
420
12434877
100
AcDbHatch
 10
0.0
 20
0.0
 30
0.0
210
0.0
220
0.0
230
1.0
  2
SOLID
 70
1
 71
0
 91
1
 92
3
 72
0
 73
1
 93
4
 10
4580.0
 20
9550.0
 10
4980.0
 20
9550.0
 10
4980.0
 20
9950.0
 10
4580.0
 20
9950.0
 97
0
 75
0
 76
1
 98
0
  0
LWPOLYLINE
  5
C8
330
17
100
AcDbEntity
  8
G-column
100
AcDbPolyline
 90
4
 70
1
 10
4580.0
 20
9550.0
 10
4980.0
 20
9550.0
 10
4980.0
 20
9950.0
 10
4580.0
 20
9950.0
  0
HATCH
  5
C9
330
17
100
AcDbEntity
  8
G-column
 62
7
420
12434877
100
AcDbHatch
 10
0.0
 20
0.0
 30
0.0
210
0.0
220
0.0
230
1.0
  2
SOLID
 70
1
 71
0
 91
1
 92
3
 72
0
 73
1
 93
4
 10
9360.0
 20
9550.0
 10
9760.0
 20
9550.0
 10
9760.0
 20
9950.0
 10
9360.0
 20
9950.0
 97
0
 75
0
 76
1
 98
0
  0
LWPOLYLINE
  5
CA
330
17
100
AcDbEntity
  8
G-column
100
AcDbPolyline
 90
4
 70
1
 10
9360.0
 20
9550.0
 10
9760.0
 20
9550.0
 10
9760.0
 20
9950.0
 10
9360.0
 20
9950.0
  0
HATCH
  5
CC
330
17
100
AcDbEntity
  8
G-plate
 62
7
420
13229554
100
AcDbHatch
 10
0.0
 20
0.0
 30
0.0
210
0.0
220
0.0
230
1.0
  2
SOLID
 70
1
 71
0
 91
1
 92
3
 72
0
 73
1
 93
4
 10
-60.0
 20
-1270.0
 10
60.0
 20
-1270.0
 10
60.0
 20
-200.0
 10
-60.0
 20
-200.0
 97
0
 75
0
 76
1
 98
0
  0
LWPOLYLINE
  5
CD
330
17
100
AcDbEntity
  8
G-plate
100
AcDbPolyline
 90
4
 70
1
 10
-60.0
 20
-1270.0
 10
60.0
 20
-1270.0
 10
60.0
 20
-200.0
 10
-60.0
 20
-200.0
  0
HATCH
  5
CE
330
17
100
AcDbEntity
  8
G-plate
 62
7
420
13229554
100
AcDbHatch
 10
0.0
 20
0.0
 30
0.0
210
0.0
220
0.0
230
1.0
  2
SOLID
 70
1
 71
0
 91
1
 92
3
 72
0
 73
1
 93
4
 10
4720.0
 20
-1270.0
 10
4840.0
 20
-1270.0
 10
4840.0
 20
-200.0
 10
4720.0
 20
-200.0
 97
0
 75
0
 76
1
 98
0
  0
LWPOLYLINE
  5
CF
330
17
100
AcDbEntity
  8
G-plate
100
AcDbPolyline
 90
4
 70
1
 10
4720.0
 20
-1270.0
 10
4840.0
 20
-1270.0
 10
4840.0
 20
-200.0
 10
4720.0
 20
-200.0
  0
HATCH
  5
D0
330
17
100
AcDbEntity
  8
G-plate
 62
7
420
13229554
100
AcDbHatch
 10
0.0
 20
0.0
 30
0.0
210
0.0
220
0.0
230
1.0
  2
SOLID
 70
1
 71
0
 91
1
 92
3
 72
0
 73
1
 93
4
 10
9500.0
 20
-1270.0
 10
9620.0
 20
-1270.0
 10
9620.0
 20
-200.0
 10
9500.0
 20
-200.0
 97
0
 75
0
 76
1
 98
0
  0
LWPOLYLINE
  5
D1
330
17
100
AcDbEntity
  8
G-plate
100
AcDbPolyline
 90
4
 70
1
 10
9500.0
 20
-1270.0
 10
9620.0
 20
-1270.0
 10
9620.0
 20
-200.0
 10
9500.0
 20
-200.0
  0
HATCH
  5
D2
330
17
100
AcDbEntity
  8
G-plate
 62
7
420
13229554
100
AcDbHatch
 10
0.0
 20
0.0
 30
0.0
210
0.0
220
0.0
230
1.0
  2
SOLID
 70
1
 71
0
 91
1
 92
3
 72
0
 73
1
 93
4
 10
9760.0
 20
-60.0
 10
10830.0
 20
-60.0
 10
10830.0
 20
60.0
 10
9760.0
 20
60.0
 97
0
 75
0
 76
1
 98
0
  0
LWPOLYLINE
  5
D3
330
17
100
AcDbEntity
  8
G-plate
100
AcDbPolyline
 90
4
 70
1
 10
9760.0
 20
-60.0
 10
10830.0
 20
-60.0
 10
10830.0
 20
60.0
 10
9760.0
 20
60.0
  0
HATCH
  5
D4
330
17
100
AcDbEntity
  8
G-plate
 62
7
420
13229554
100
AcDbHatch
 10
0.0
 20
0.0
 30
0.0
210
0.0
220
0.0
230
1.0
  2
SOLID
 70
1
 71
0
 91
1
 92
3
 72
0
 73
1
 93
4
 10
9760.0
 20
4270.0
 10
10830.0
 20
4270.0
 10
10830.0
 20
4390.0
 10
9760.0
 20
4390.0
 97
0
 75
0
 76
1
 98
0
  0
LWPOLYLINE
  5
D5
330
17
100
AcDbEntity
  8
G-plate
100
AcDbPolyline
 90
4
 70
1
 10
9760.0
 20
4270.0
 10
10830.0
 20
4270.0
 10
10830.0
 20
4390.0
 10
9760.0
 20
4390.0
  0
LINE
  5
D8
330
17
100
AcDbEntity
  8
G-edge
100
AcDbLine
 10
-150.0
 20
-1270.0
 30
0.0
 11
10830.0
 21
-1270.0
 31
0.0
  0
LINE
  5
D9
330
17
100
AcDbEntity
  8
G-edge
100
AcDbLine
 10
10830.0
 20
-1270.0
 30
0.0
 11
10830.0
 21
4390.0
 31
0.0
  0
HATCH
  5
DB
330
17
100
AcDbEntity
  8
G-r_bm2
 62
7
420
6139362
100
AcDbHatch
 10
0.0
 20
0.0
 30
0.0
210
0.0
220
0.0
230
1.0
  2
SOLID
 70
1
 71
0
 91
1
 92
3
 72
0
 73
1
 93
4
 10
1640.0
 20
-217.5
 10
3140.0
 20
-217.5
 10
3140.0
 20
-262.5
 10
1640.0
 20
-262.5
 97
0
 75
0
 76
1
 98
0
  0
LWPOLYLINE
  5
DC
330
17
100
AcDbEntity
  8
G-r_bm2
100
AcDbPolyline
 90
4
 70
1
 10
1640.0
 20
-217.5
 10
3140.0
 20
-217.5
 10
3140.0
 20
-262.5
 10
1640.0
 20
-262.5
  0
TEXT
  5
DE
330
17
100
AcDbEntity
  8
T-bsm
 62
156
420
929604
100
AcDbText
 10
2390.0
 20
-480.0
 30
0.0
 40
171.45
  1
+1Ø12, L = 1500 (abajo)
  7
NEGRITA
 41
0.885
 72
1
 11
2390.0
 21
-480.0
 31
0.0
100
AcDbText
  0
HATCH
  5
DF
330
17
100
AcDbEntity
  8
G-r_bm2
 62
7
420
6139362
100
AcDbHatch
 10
0.0
 20
0.0
 30
0.0
210
0.0
220
0.0
230
1.0
  2
SOLID
 70
1
 71
0
 91
1
 92
3
 72
0
 73
1
 93
4
 10
6420.0
 20
-217.5
 10
7920.0
 20
-217.5
 10
7920.0
 20
-262.5
 10
6420.0
 20
-262.5
 97
0
 75
0
 76
1
 98
0
  0
LWPOLYLINE
  5
E0
330
17
100
AcDbEntity
  8
G-r_bm2
100
AcDbPolyline
 90
4
 70
1
 10
6420.0
 20
-217.5
 10
7920.0
 20
-217.5
 10
7920.0
 20
-262.5
 10
6420.0
 20
-262.5
  0
TEXT
  5
E1
330
17
100
AcDbEntity
  8
T-bsm
 62
156
420
929604
100
AcDbText
 10
7170.0
 20
-480.0
 30
0.0
 40
171.45
  1
+1Ø12, L = 1500 (abajo)
  7
NEGRITA
 41
0.885
 72
1
 11
7170.0
 21
-480.0
 31
0.0
100
AcDbText
  0
HATCH
  5
E3
330
17
100
AcDbEntity
  8
G-r_bas
 62
7
420
15105570
100
AcDbHatch
 10
0.0
 20
0.0
 30
0.0
210
0.0
220
0.0
230
1.0
  2
SOLID
 70
1
 71
0
 91
1
 92
3
 72
0
 73
1
 93
4
 10
62.0
 20
-134.0
 10
62.0
 20
1086.0
 10
102.0
 20
1086.0
 10
102.0
 20
-134.0
 97
0
 75
0
 76
1
 98
0
  0
LWPOLYLINE
  5
E4
330
17
100
AcDbEntity
  8
G-r_bas
100
AcDbPolyline
 90
4
 70
1
 10
62.0
 20
-134.0
 10
62.0
 20
1086.0
 10
102.0
 20
1086.0
 10
102.0
 20
-134.0
  0
HATCH
  5
E5
330
17
100
AcDbEntity
  8
G-r_bas
 62
7
420
15105570
100
AcDbHatch
 10
0.0
 20
0.0
 30
0.0
210
0.0
220
0.0
230
1.0
  2
SOLID
 70
1
 71
0
 91
1
 92
1
 93
1
 72
2
 10
82.0
 20
-134.0
 40
45
 50
0
 51
360
 73
1
 97
0
 75
0
 76
1
 98
0
  0
CIRCLE
  5
E6
330
17
100
AcDbEntity
  8
G-r_bas
100
AcDbCircle
 10
82.0
 20
-134.0
 30
0.0
 40
45.0
  0
HATCH
  5
E7
330
17
100
AcDbEntity
  8
G-r_bas
 62
7
420
15105570
100
AcDbHatch
 10
0.0
 20
0.0
 30
0.0
210
0.0
220
0.0
230
1.0
  2
SOLID
 70
1
 71
0
 91
1
 92
3
 72
0
 73
1
 93
4
 10
-102.0
 20
-134.0
 10
-102.0
 20
1086.0
 10
-62.0
 20
1086.0
 10
-62.0
 20
-134.0
 97
0
 75
0
 76
1
 98
0
  0
LWPOLYLINE
  5
E8
330
17
100
AcDbEntity
  8
G-r_bas
100
AcDbPolyline
 90
4
 70
1
 10
-102.0
 20
-134.0
 10
-102.0
 20
1086.0
 10
-62.0
 20
1086.0
 10
-62.0
 20
-134.0
  0
HATCH
  5
E9
330
17
100
AcDbEntity
  8
G-r_bas
 62
7
420
15105570
100
AcDbHatch
 10
0.0
 20
0.0
 30
0.0
210
0.0
220
0.0
230
1.0
  2
SOLID
 70
1
 71
0
 91
1
 92
1
 93
1
 72
2
 10
-82.0
 20
-134.0
 40
45
 50
0
 51
360
 73
1
 97
0
 75
0
 76
1
 98
0
  0
CIRCLE
  5
EA
330
17
100
AcDbEntity
  8
G-r_bas
100
AcDbCircle
 10
-82.0
 20
-134.0
 30
0.0
 40
45.0
  0
HATCH
  5
EB
330
17
100
AcDbEntity
  8
G-r_bas
 62
7
420
15105570
100
AcDbHatch
 10
0.0
 20
0.0
 30
0.0
210
0.0
220
0.0
230
1.0
  2
SOLID
 70
1
 71
0
 91
1
 92
3
 72
0
 73
1
 93
4
 10
4842.0
 20
-134.0
 10
4842.0
 20
1086.0
 10
4882.0
 20
1086.0
 10
4882.0
 20
-134.0
 97
0
 75
0
 76
1
 98
0
  0
LWPOLYLINE
  5
EC
330
17
100
AcDbEntity
  8
G-r_bas
100
AcDbPolyline
 90
4
 70
1
 10
4842.0
 20
-134.0
 10
4842.0
 20
1086.0
 10
4882.0
 20
1086.0
 10
4882.0
 20
-134.0
  0
HATCH
  5
ED
330
17
100
AcDbEntity
  8
G-r_bas
 62
7
420
15105570
100
AcDbHatch
 10
0.0
 20
0.0
 30
0.0
210
0.0
220
0.0
230
1.0
  2
SOLID
 70
1
 71
0
 91
1
 92
1
 93
1
 72
2
 10
4862.0
 20
-134.0
 40
45
 50
0
 51
360
 73
1
 97
0
 75
0
 76
1
 98
0
  0
CIRCLE
  5
EE
330
17
100
AcDbEntity
  8
G-r_bas
100
AcDbCircle
 10
4862.0
 20
-134.0
 30
0.0
 40
45.0
  0
HATCH
  5
EF
330
17
100
AcDbEntity
  8
G-r_bas
 62
7
420
15105570
100
AcDbHatch
 10
0.0
 20
0.0
 30
0.0
210
0.0
220
0.0
230
1.0
  2
SOLID
 70
1
 71
0
 91
1
 92
3
 72
0
 73
1
 93
4
 10
4678.0
 20
-134.0
 10
4678.0
 20
1086.0
 10
4718.0
 20
1086.0
 10
4718.0
 20
-134.0
 97
0
 75
0
 76
1
 98
0
  0
LWPOLYLINE
  5
F0
330
17
100
AcDbEntity
  8
G-r_bas
100
AcDbPolyline
 90
4
 70
1
 10
4678.0
 20
-134.0
 10
4678.0
 20
1086.0
 10
4718.0
 20
1086.0
 10
4718.0
 20
-134.0
  0
HATCH
  5
F1
330
17
100
AcDbEntity
  8
G-r_bas
 62
7
420
15105570
100
AcDbHatch
 10
0.0
 20
0.0
 30
0.0
210
0.0
220
0.0
230
1.0
  2
SOLID
 70
1
 71
0
 91
1
 92
1
 93
1
 72
2
 10
4698.0
 20
-134.0
 40
45
 50
0
 51
360
 73
1
 97
0
 75
0
 76
1
 98
0
  0
CIRCLE
  5
F2
330
17
100
AcDbEntity
  8
G-r_bas
100
AcDbCircle
 10
4698.0
 20
-134.0
 30
0.0
 40
45.0
  0
HATCH
  5
F3
330
17
100
AcDbEntity
  8
G-r_bas
 62
7
420
15105570
100
AcDbHatch
 10
0.0
 20
0.0
 30
0.0
210
0.0
220
0.0
230
1.0
  2
SOLID
 70
1
 71
0
 91
1
 92
3
 72
0
 73
1
 93
4
 10
9622.0
 20
-134.0
 10
9622.0
 20
1086.0
 10
9662.0
 20
1086.0
 10
9662.0
 20
-134.0
 97
0
 75
0
 76
1
 98
0
  0
LWPOLYLINE
  5
F4
330
17
100
AcDbEntity
  8
G-r_bas
100
AcDbPolyline
 90
4
 70
1
 10
9622.0
 20
-134.0
 10
9622.0
 20
1086.0
 10
9662.0
 20
1086.0
 10
9662.0
 20
-134.0
  0
HATCH
  5
F5
330
17
100
AcDbEntity
  8
G-r_bas
 62
7
420
15105570
100
AcDbHatch
 10
0.0
 20
0.0
 30
0.0
210
0.0
220
0.0
230
1.0
  2
SOLID
 70
1
 71
0
 91
1
 92
1
 93
1
 72
2
 10
9642.0
 20
-134.0
 40
45
 50
0
 51
360
 73
1
 97
0
 75
0
 76
1
 98
0
  0
CIRCLE
  5
F6
330
17
100
AcDbEntity
  8
G-r_bas
100
AcDbCircle
 10
9642.0
 20
-134.0
 30
0.0
 40
45.0
  0
HATCH
  5
F7
330
17
100
AcDbEntity
  8
G-r_bas
 62
7
420
15105570
100
AcDbHatch
 10
0.0
 20
0.0
 30
0.0
210
0.0
220
0.0
230
1.0
  2
SOLID
 70
1
 71
0
 91
1
 92
3
 72
0
 73
1
 93
4
 10
9458.0
 20
-134.0
 10
9458.0
 20
1086.0
 10
9498.0
 20
1086.0
 10
9498.0
 20
-134.0
 97
0
 75
0
 76
1
 98
0
  0
LWPOLYLINE
  5
F8
330
17
100
AcDbEntity
  8
G-r_bas
100
AcDbPolyline
 90
4
 70
1
 10
9458.0
 20
-134.0
 10
9458.0
 20
1086.0
 10
9498.0
 20
1086.0
 10
9498.0
 20
-134.0
  0
HATCH
  5
F9
330
17
100
AcDbEntity
  8
G-r_bas
 62
7
420
15105570
100
AcDbHatch
 10
0.0
 20
0.0
 30
0.0
210
0.0
220
0.0
230
1.0
  2
SOLID
 70
1
 71
0
 91
1
 92
1
 93
1
 72
2
 10
9478.0
 20
-134.0
 40
45
 50
0
 51
360
 73
1
 97
0
 75
0
 76
1
 98
0
  0
CIRCLE
  5
FA
330
17
100
AcDbEntity
  8
G-r_bas
100
AcDbCircle
 10
9478.0
 20
-134.0
 30
0.0
 40
45.0
  0
HATCH
  5
FB
330
17
100
AcDbEntity
  8
G-r_bas
 62
7
420
15105570
100
AcDbHatch
 10
0.0
 20
0.0
 30
0.0
210
0.0
220
0.0
230
1.0
  2
SOLID
 70
1
 71
0
 91
1
 92
3
 72
0
 73
1
 93
4
 10
9694.0
 20
62.0
 10
8474.0
 20
62.0
 10
8474.0
 20
102.0
 10
9694.0
 20
102.0
 97
0
 75
0
 76
1
 98
0
  0
LWPOLYLINE
  5
FC
330
17
100
AcDbEntity
  8
G-r_bas
100
AcDbPolyline
 90
4
 70
1
 10
9694.0
 20
62.0
 10
8474.0
 20
62.0
 10
8474.0
 20
102.0
 10
9694.0
 20
102.0
  0
HATCH
  5
FD
330
17
100
AcDbEntity
  8
G-r_bas
 62
7
420
15105570
100
AcDbHatch
 10
0.0
 20
0.0
 30
0.0
210
0.0
220
0.0
230
1.0
  2
SOLID
 70
1
 71
0
 91
1
 92
1
 93
1
 72
2
 10
9694.0
 20
82.0
 40
45
 50
0
 51
360
 73
1
 97
0
 75
0
 76
1
 98
0
  0
CIRCLE
  5
FE
330
17
100
AcDbEntity
  8
G-r_bas
100
AcDbCircle
 10
9694.0
 20
82.0
 30
0.0
 40
45.0
  0
HATCH
  5
FF
330
17
100
AcDbEntity
  8
G-r_bas
 62
7
420
15105570
100
AcDbHatch
 10
0.0
 20
0.0
 30
0.0
210
0.0
220
0.0
230
1.0
  2
SOLID
 70
1
 71
0
 91
1
 92
3
 72
0
 73
1
 93
4
 10
9694.0
 20
-102.0
 10
8474.0
 20
-102.0
 10
8474.0
 20
-62.0
 10
9694.0
 20
-62.0
 97
0
 75
0
 76
1
 98
0
  0
LWPOLYLINE
  5
100
330
17
100
AcDbEntity
  8
G-r_bas
100
AcDbPolyline
 90
4
 70
1
 10
9694.0
 20
-102.0
 10
8474.0
 20
-102.0
 10
8474.0
 20
-62.0
 10
9694.0
 20
-62.0
  0
HATCH
  5
101
330
17
100
AcDbEntity
  8
G-r_bas
 62
7
420
15105570
100
AcDbHatch
 10
0.0
 20
0.0
 30
0.0
210
0.0
220
0.0
230
1.0
  2
SOLID
 70
1
 71
0
 91
1
 92
1
 93
1
 72
2
 10
9694.0
 20
-82.0
 40
45
 50
0
 51
360
 73
1
 97
0
 75
0
 76
1
 98
0
  0
CIRCLE
  5
102
330
17
100
AcDbEntity
  8
G-r_bas
100
AcDbCircle
 10
9694.0
 20
-82.0
 30
0.0
 40
45.0
  0
HATCH
  5
103
330
17
100
AcDbEntity
  8
G-r_bas
 62
7
420
15105570
100
AcDbHatch
 10
0.0
 20
0.0
 30
0.0
210
0.0
220
0.0
230
1.0
  2
SOLID
 70
1
 71
0
 91
1
 92
3
 72
0
 73
1
 93
4
 10
9694.0
 20
4392.0
 10
8474.0
 20
4392.0
 10
8474.0
 20
4432.0
 10
9694.0
 20
4432.0
 97
0
 75
0
 76
1
 98
0
  0
LWPOLYLINE
  5
104
330
17
100
AcDbEntity
  8
G-r_bas
100
AcDbPolyline
 90
4
 70
1
 10
9694.0
 20
4392.0
 10
8474.0
 20
4392.0
 10
8474.0
 20
4432.0
 10
9694.0
 20
4432.0
  0
HATCH
  5
105
330
17
100
AcDbEntity
  8
G-r_bas
 62
7
420
15105570
100
AcDbHatch
 10
0.0
 20
0.0
 30
0.0
210
0.0
220
0.0
230
1.0
  2
SOLID
 70
1
 71
0
 91
1
 92
1
 93
1
 72
2
 10
9694.0
 20
4412.0
 40
45
 50
0
 51
360
 73
1
 97
0
 75
0
 76
1
 98
0
  0
CIRCLE
  5
106
330
17
100
AcDbEntity
  8
G-r_bas
100
AcDbCircle
 10
9694.0
 20
4412.0
 30
0.0
 40
45.0
  0
HATCH
  5
107
330
17
100
AcDbEntity
  8
G-r_bas
 62
7
420
15105570
100
AcDbHatch
 10
0.0
 20
0.0
 30
0.0
210
0.0
220
0.0
230
1.0
  2
SOLID
 70
1
 71
0
 91
1
 92
3
 72
0
 73
1
 93
4
 10
9694.0
 20
4228.0
 10
8474.0
 20
4228.0
 10
8474.0
 20
4268.0
 10
9694.0
 20
4268.0
 97
0
 75
0
 76
1
 98
0
  0
LWPOLYLINE
  5
108
330
17
100
AcDbEntity
  8
G-r_bas
100
AcDbPolyline
 90
4
 70
1
 10
9694.0
 20
4228.0
 10
8474.0
 20
4228.0
 10
8474.0
 20
4268.0
 10
9694.0
 20
4268.0
  0
HATCH
  5
109
330
17
100
AcDbEntity
  8
G-r_bas
 62
7
420
15105570
100
AcDbHatch
 10
0.0
 20
0.0
 30
0.0
210
0.0
220
0.0
230
1.0
  2
SOLID
 70
1
 71
0
 91
1
 92
1
 93
1
 72
2
 10
9694.0
 20
4248.0
 40
45
 50
0
 51
360
 73
1
 97
0
 75
0
 76
1
 98
0
  0
CIRCLE
  5
10A
330
17
100
AcDbEntity
  8
G-r_bas
100
AcDbCircle
 10
9694.0
 20
4248.0
 30
0.0
 40
45.0
  0
CIRCLE
  5
10C
330
17
100
AcDbEntity
  8
G-r_oval_l
100
AcDbCircle
 10
-1871.76
 20
1443.0
 30
0.0
 40
380.0
  0
HATCH
  5
10E
330
17
100
AcDbEntity
  8
G-r_anc
 62
7
420
12597547
100
AcDbHatch
 10
0.0
 20
0.0
 30
0.0
210
0.0
220
0.0
230
1.0
  2
SOLID
 70
1
 71
0
 91
1
 92
3
 72
0
 73
1
 93
4
 10
-2071.76
 20
1403.0
 10
-1671.76
 20
1403.0
 10
-1671.76
 20
1363.0
 10
-2071.76
 20
1363.0
 97
0
 75
0
 76
1
 98
0
  0
LWPOLYLINE
  5
10F
330
17
100
AcDbEntity
  8
G-r_anc
100
AcDbPolyline
 90
4
 70
1
 10
-2071.76
 20
1403.0
 10
-1671.76
 20
1403.0
 10
-1671.76
 20
1363.0
 10
-2071.76
 20
1363.0
  0
HATCH
  5
110
330
17
100
AcDbEntity
  8
G-r_anc
 62
7
420
12597547
100
AcDbHatch
 10
0.0
 20
0.0
 30
0.0
210
0.0
220
0.0
230
1.0
  2
SOLID
 70
1
 71
0
 91
1
 92
3
 72
0
 73
1
 93
4
 10
-2071.76
 20
1523.0
 10
-1671.76
 20
1523.0
 10
-1671.76
 20
1483.0
 10
-2071.76
 20
1483.0
 97
0
 75
0
 76
1
 98
0
  0
LWPOLYLINE
  5
111
330
17
100
AcDbEntity
  8
G-r_anc
100
AcDbPolyline
 90
4
 70
1
 10
-2071.76
 20
1523.0
 10
-1671.76
 20
1523.0
 10
-1671.76
 20
1483.0
 10
-2071.76
 20
1483.0
  0
CIRCLE
  5
112
330
17
100
AcDbEntity
  8
G-r_oval_l
100
AcDbCircle
 10
0.0
 20
1443.0
 30
0.0
 40
380.0
  0
HATCH
  5
113
330
17
100
AcDbEntity
  8
G-r_anc
 62
7
420
12597547
100
AcDbHatch
 10
0.0
 20
0.0
 30
0.0
210
0.0
220
0.0
230
1.0
  2
SOLID
 70
1
 71
0
 91
1
 92
3
 72
0
 73
1
 93
4
 10
-200.0
 20
1403.0
 10
200.0
 20
1403.0
 10
200.0
 20
1363.0
 10
-200.0
 20
1363.0
 97
0
 75
0
 76
1
 98
0
  0
LWPOLYLINE
  5
114
330
17
100
AcDbEntity
  8
G-r_anc
100
AcDbPolyline
 90
4
 70
1
 10
-200.0
 20
1403.0
 10
200.0
 20
1403.0
 10
200.0
 20
1363.0
 10
-200.0
 20
1363.0
  0
HATCH
  5
115
330
17
100
AcDbEntity
  8
G-r_anc
 62
7
420
12597547
100
AcDbHatch
 10
0.0
 20
0.0
 30
0.0
210
0.0
220
0.0
230
1.0
  2
SOLID
 70
1
 71
0
 91
1
 92
3
 72
0
 73
1
 93
4
 10
-200.0
 20
1523.0
 10
200.0
 20
1523.0
 10
200.0
 20
1483.0
 10
-200.0
 20
1483.0
 97
0
 75
0
 76
1
 98
0
  0
LWPOLYLINE
  5
116
330
17
100
AcDbEntity
  8
G-r_anc
100
AcDbPolyline
 90
4
 70
1
 10
-200.0
 20
1523.0
 10
200.0
 20
1523.0
 10
200.0
 20
1483.0
 10
-200.0
 20
1483.0
  0
CIRCLE
  5
117
330
17
100
AcDbEntity
  8
G-r_oval_l
100
AcDbCircle
 10
4780.0
 20
1443.0
 30
0.0
 40
380.0
  0
HATCH
  5
118
330
17
100
AcDbEntity
  8
G-r_anc
 62
7
420
12597547
100
AcDbHatch
 10
0.0
 20
0.0
 30
0.0
210
0.0
220
0.0
230
1.0
  2
SOLID
 70
1
 71
0
 91
1
 92
3
 72
0
 73
1
 93
4
 10
4580.0
 20
1403.0
 10
4980.0
 20
1403.0
 10
4980.0
 20
1363.0
 10
4580.0
 20
1363.0
 97
0
 75
0
 76
1
 98
0
  0
LWPOLYLINE
  5
119
330
17
100
AcDbEntity
  8
G-r_anc
100
AcDbPolyline
 90
4
 70
1
 10
4580.0
 20
1403.0
 10
4980.0
 20
1403.0
 10
4980.0
 20
1363.0
 10
4580.0
 20
1363.0
  0
HATCH
  5
11A
330
17
100
AcDbEntity
  8
G-r_anc
 62
7
420
12597547
100
AcDbHatch
 10
0.0
 20
0.0
 30
0.0
210
0.0
220
0.0
230
1.0
  2
SOLID
 70
1
 71
0
 91
1
 92
3
 72
0
 73
1
 93
4
 10
4580.0
 20
1523.0
 10
4980.0
 20
1523.0
 10
4980.0
 20
1483.0
 10
4580.0
 20
1483.0
 97
0
 75
0
 76
1
 98
0
  0
LWPOLYLINE
  5
11B
330
17
100
AcDbEntity
  8
G-r_anc
100
AcDbPolyline
 90
4
 70
1
 10
4580.0
 20
1523.0
 10
4980.0
 20
1523.0
 10
4980.0
 20
1483.0
 10
4580.0
 20
1483.0
  0
CIRCLE
  5
11C
330
17
100
AcDbEntity
  8
G-r_oval_l
100
AcDbCircle
 10
9560.0
 20
1443.0
 30
0.0
 40
380.0
  0
HATCH
  5
11D
330
17
100
AcDbEntity
  8
G-r_anc
 62
7
420
12597547
100
AcDbHatch
 10
0.0
 20
0.0
 30
0.0
210
0.0
220
0.0
230
1.0
  2
SOLID
 70
1
 71
0
 91
1
 92
3
 72
0
 73
1
 93
4
 10
9360.0
 20
1403.0
 10
9760.0
 20
1403.0
 10
9760.0
 20
1363.0
 10
9360.0
 20
1363.0
 97
0
 75
0
 76
1
 98
0
  0
LWPOLYLINE
  5
11E
330
17
100
AcDbEntity
  8
G-r_anc
100
AcDbPolyline
 90
4
 70
1
 10
9360.0
 20
1403.0
 10
9760.0
 20
1403.0
 10
9760.0
 20
1363.0
 10
9360.0
 20
1363.0
  0
HATCH
  5
11F
330
17
100
AcDbEntity
  8
G-r_anc
 62
7
420
12597547
100
AcDbHatch
 10
0.0
 20
0.0
 30
0.0
210
0.0
220
0.0
230
1.0
  2
SOLID
 70
1
 71
0
 91
1
 92
3
 72
0
 73
1
 93
4
 10
9360.0
 20
1523.0
 10
9760.0
 20
1523.0
 10
9760.0
 20
1483.0
 10
9360.0
 20
1483.0
 97
0
 75
0
 76
1
 98
0
  0
LWPOLYLINE
  5
120
330
17
100
AcDbEntity
  8
G-r_anc
100
AcDbPolyline
 90
4
 70
1
 10
9360.0
 20
1523.0
 10
9760.0
 20
1523.0
 10
9760.0
 20
1483.0
 10
9360.0
 20
1483.0
  0
CIRCLE
  5
121
330
17
100
AcDbEntity
  8
G-r_oval_l
100
AcDbCircle
 10
-1963.5835897435898
 20
2887.0
 30
0.0
 40
380.0
  0
HATCH
  5
122
330
17
100
AcDbEntity
  8
G-r_anc
 62
7
420
12597547
100
AcDbHatch
 10
0.0
 20
0.0
 30
0.0
210
0.0
220
0.0
230
1.0
  2
SOLID
 70
1
 71
0
 91
1
 92
3
 72
0
 73
1
 93
4
 10
-2163.58358974359
 20
2847.0
 10
-1763.5835897435898
 20
2847.0
 10
-1763.5835897435898
 20
2807.0
 10
-2163.58358974359
 20
2807.0
 97
0
 75
0
 76
1
 98
0
  0
LWPOLYLINE
  5
123
330
17
100
AcDbEntity
  8
G-r_anc
100
AcDbPolyline
 90
4
 70
1
 10
-2163.58358974359
 20
2847.0
 10
-1763.5835897435898
 20
2847.0
 10
-1763.5835897435898
 20
2807.0
 10
-2163.58358974359
 20
2807.0
  0
HATCH
  5
124
330
17
100
AcDbEntity
  8
G-r_anc
 62
7
420
12597547
100
AcDbHatch
 10
0.0
 20
0.0
 30
0.0
210
0.0
220
0.0
230
1.0
  2
SOLID
 70
1
 71
0
 91
1
 92
3
 72
0
 73
1
 93
4
 10
-2163.58358974359
 20
2967.0
 10
-1763.5835897435898
 20
2967.0
 10
-1763.5835897435898
 20
2927.0
 10
-2163.58358974359
 20
2927.0
 97
0
 75
0
 76
1
 98
0
  0
LWPOLYLINE
  5
125
330
17
100
AcDbEntity
  8
G-r_anc
100
AcDbPolyline
 90
4
 70
1
 10
-2163.58358974359
 20
2967.0
 10
-1763.5835897435898
 20
2967.0
 10
-1763.5835897435898
 20
2927.0
 10
-2163.58358974359
 20
2927.0
  0
CIRCLE
  5
126
330
17
100
AcDbEntity
  8
G-r_oval_l
100
AcDbCircle
 10
0.0
 20
2887.0
 30
0.0
 40
380.0
  0
HATCH
  5
127
330
17
100
AcDbEntity
  8
G-r_anc
 62
7
420
12597547
100
AcDbHatch
 10
0.0
 20
0.0
 30
0.0
210
0.0
220
0.0
230
1.0
  2
SOLID
 70
1
 71
0
 91
1
 92
3
 72
0
 73
1
 93
4
 10
-200.0
 20
2847.0
 10
200.0
 20
2847.0
 10
200.0
 20
2807.0
 10
-200.0
 20
2807.0
 97
0
 75
0
 76
1
 98
0
  0
LWPOLYLINE
  5
128
330
17
100
AcDbEntity
  8
G-r_anc
100
AcDbPolyline
 90
4
 70
1
 10
-200.0
 20
2847.0
 10
200.0
 20
2847.0
 10
200.0
 20
2807.0
 10
-200.0
 20
2807.0
  0
HATCH
  5
129
330
17
100
AcDbEntity
  8
G-r_anc
 62
7
420
12597547
100
AcDbHatch
 10
0.0
 20
0.0
 30
0.0
210
0.0
220
0.0
230
1.0
  2
SOLID
 70
1
 71
0
 91
1
 92
3
 72
0
 73
1
 93
4
 10
-200.0
 20
2967.0
 10
200.0
 20
2967.0
 10
200.0
 20
2927.0
 10
-200.0
 20
2927.0
 97
0
 75
0
 76
1
 98
0
  0
LWPOLYLINE
  5
12A
330
17
100
AcDbEntity
  8
G-r_anc
100
AcDbPolyline
 90
4
 70
1
 10
-200.0
 20
2967.0
 10
200.0
 20
2967.0
 10
200.0
 20
2927.0
 10
-200.0
 20
2927.0
  0
CIRCLE
  5
12B
330
17
100
AcDbEntity
  8
G-r_oval_l
100
AcDbCircle
 10
4780.0
 20
2887.0
 30
0.0
 40
380.0
  0
HATCH
  5
12C
330
17
100
AcDbEntity
  8
G-r_anc
 62
7
420
12597547
100
AcDbHatch
 10
0.0
 20
0.0
 30
0.0
210
0.0
220
0.0
230
1.0
  2
SOLID
 70
1
 71
0
 91
1
 92
3
 72
0
 73
1
 93
4
 10
4580.0
 20
2847.0
 10
4980.0
 20
2847.0
 10
4980.0
 20
2807.0
 10
4580.0
 20
2807.0
 97
0
 75
0
 76
1
 98
0
  0
LWPOLYLINE
  5
12D
330
17
100
AcDbEntity
  8
G-r_anc
100
AcDbPolyline
 90
4
 70
1
 10
4580.0
 20
2847.0
 10
4980.0
 20
2847.0
 10
4980.0
 20
2807.0
 10
4580.0
 20
2807.0
  0
HATCH
  5
12E
330
17
100
AcDbEntity
  8
G-r_anc
 62
7
420
12597547
100
AcDbHatch
 10
0.0
 20
0.0
 30
0.0
210
0.0
220
0.0
230
1.0
  2
SOLID
 70
1
 71
0
 91
1
 92
3
 72
0
 73
1
 93
4
 10
4580.0
 20
2967.0
 10
4980.0
 20
2967.0
 10
4980.0
 20
2927.0
 10
4580.0
 20
2927.0
 97
0
 75
0
 76
1
 98
0
  0
LWPOLYLINE
  5
12F
330
17
100
AcDbEntity
  8
G-r_anc
100
AcDbPolyline
 90
4
 70
1
 10
4580.0
 20
2967.0
 10
4980.0
 20
2967.0
 10
4980.0
 20
2927.0
 10
4580.0
 20
2927.0
  0
CIRCLE
  5
130
330
17
100
AcDbEntity
  8
G-r_oval_l
100
AcDbCircle
 10
9560.0
 20
2887.0
 30
0.0
 40
380.0
  0
HATCH
  5
131
330
17
100
AcDbEntity
  8
G-r_anc
 62
7
420
12597547
100
AcDbHatch
 10
0.0
 20
0.0
 30
0.0
210
0.0
220
0.0
230
1.0
  2
SOLID
 70
1
 71
0
 91
1
 92
3
 72
0
 73
1
 93
4
 10
9360.0
 20
2847.0
 10
9760.0
 20
2847.0
 10
9760.0
 20
2807.0
 10
9360.0
 20
2807.0
 97
0
 75
0
 76
1
 98
0
  0
LWPOLYLINE
  5
132
330
17
100
AcDbEntity
  8
G-r_anc
100
AcDbPolyline
 90
4
 70
1
 10
9360.0
 20
2847.0
 10
9760.0
 20
2847.0
 10
9760.0
 20
2807.0
 10
9360.0
 20
2807.0
  0
HATCH
  5
133
330
17
100
AcDbEntity
  8
G-r_anc
 62
7
420
12597547
100
AcDbHatch
 10
0.0
 20
0.0
 30
0.0
210
0.0
220
0.0
230
1.0
  2
SOLID
 70
1
 71
0
 91
1
 92
3
 72
0
 73
1
 93
4
 10
9360.0
 20
2967.0
 10
9760.0
 20
2967.0
 10
9760.0
 20
2927.0
 10
9360.0
 20
2927.0
 97
0
 75
0
 76
1
 98
0
  0
LWPOLYLINE
  5
134
330
17
100
AcDbEntity
  8
G-r_anc
100
AcDbPolyline
 90
4
 70
1
 10
9360.0
 20
2967.0
 10
9760.0
 20
2967.0
 10
9760.0
 20
2927.0
 10
9360.0
 20
2927.0
  0
CIRCLE
  5
135
330
17
100
AcDbEntity
  8
G-r_oval_l
100
AcDbCircle
 10
2390.0
 20
0.0
 30
0.0
 40
380.0
  0
HATCH
  5
136
330
17
100
AcDbEntity
  8
G-r_anc
 62
7
420
12597547
100
AcDbHatch
 10
0.0
 20
0.0
 30
0.0
210
0.0
220
0.0
230
1.0
  2
SOLID
 70
1
 71
0
 91
1
 92
3
 72
0
 73
1
 93
4
 10
2310.0
 20
-200.0
 10
2310.0
 20
200.0
 10
2350.0
 20
200.0
 10
2350.0
 20
-200.0
 97
0
 75
0
 76
1
 98
0
  0
LWPOLYLINE
  5
137
330
17
100
AcDbEntity
  8
G-r_anc
100
AcDbPolyline
 90
4
 70
1
 10
2310.0
 20
-200.0
 10
2310.0
 20
200.0
 10
2350.0
 20
200.0
 10
2350.0
 20
-200.0
  0
HATCH
  5
138
330
17
100
AcDbEntity
  8
G-r_anc
 62
7
420
12597547
100
AcDbHatch
 10
0.0
 20
0.0
 30
0.0
210
0.0
220
0.0
230
1.0
  2
SOLID
 70
1
 71
0
 91
1
 92
3
 72
0
 73
1
 93
4
 10
2430.0
 20
-200.0
 10
2430.0
 20
200.0
 10
2470.0
 20
200.0
 10
2470.0
 20
-200.0
 97
0
 75
0
 76
1
 98
0
  0
LWPOLYLINE
  5
139
330
17
100
AcDbEntity
  8
G-r_anc
100
AcDbPolyline
 90
4
 70
1
 10
2430.0
 20
-200.0
 10
2430.0
 20
200.0
 10
2470.0
 20
200.0
 10
2470.0
 20
-200.0
  0
CIRCLE
  5
13A
330
17
100
AcDbEntity
  8
G-r_oval_l
100
AcDbCircle
 10
7170.0
 20
0.0
 30
0.0
 40
380.0
  0
HATCH
  5
13B
330
17
100
AcDbEntity
  8
G-r_anc
 62
7
420
12597547
100
AcDbHatch
 10
0.0
 20
0.0
 30
0.0
210
0.0
220
0.0
230
1.0
  2
SOLID
 70
1
 71
0
 91
1
 92
3
 72
0
 73
1
 93
4
 10
7090.0
 20
-200.0
 10
7090.0
 20
200.0
 10
7130.0
 20
200.0
 10
7130.0
 20
-200.0
 97
0
 75
0
 76
1
 98
0
  0
LWPOLYLINE
  5
13C
330
17
100
AcDbEntity
  8
G-r_anc
100
AcDbPolyline
 90
4
 70
1
 10
7090.0
 20
-200.0
 10
7090.0
 20
200.0
 10
7130.0
 20
200.0
 10
7130.0
 20
-200.0
  0
HATCH
  5
13D
330
17
100
AcDbEntity
  8
G-r_anc
 62
7
420
12597547
100
AcDbHatch
 10
0.0
 20
0.0
 30
0.0
210
0.0
220
0.0
230
1.0
  2
SOLID
 70
1
 71
0
 91
1
 92
3
 72
0
 73
1
 93
4
 10
7210.0
 20
-200.0
 10
7210.0
 20
200.0
 10
7250.0
 20
200.0
 10
7250.0
 20
-200.0
 97
0
 75
0
 76
1
 98
0
  0
LWPOLYLINE
  5
13E
330
17
100
AcDbEntity
  8
G-r_anc
100
AcDbPolyline
 90
4
 70
1
 10
7210.0
 20
-200.0
 10
7210.0
 20
200.0
 10
7250.0
 20
200.0
 10
7250.0
 20
-200.0
  0
TEXT
  5
140
330
17
100
AcDbEntity
  8
T-label
 62
49
420
2236962
100
AcDbText
 10
3290.0
 20
4560.0
 30
0.0
 40
171.45
  1
VCS 30x35
  7
ESTANDAR
 41
0.885
 72
1
 11
3290.0
 21
4560.0
 31
0.0
100
AcDbText
  0
TEXT
  5
141
330
17
100
AcDbEntity
  8
T-label
 62
49
420
2236962
100
AcDbText
 10
3290.0
 20
5960.0
 30
0.0
 40
171.45
  1
VCS 30x35
  7
ESTANDAR
 41
0.885
 72
1
 11
3290.0
 21
5960.0
 31
0.0
100
AcDbText
  0
TEXT
  5
142
330
17
100
AcDbEntity
  8
T-label
 62
49
420
2236962
100
AcDbText
 10
3290.0
 20
9980.0
 30
0.0
 40
171.45
  1
VCS 30x35
  7
ESTANDAR
 41
0.885
 72
1
 11
3290.0
 21
9980.0
 31
0.0
100
AcDbText
  0
TEXT
  5
144
330
17
100
AcDbEntity
  8
T-code
 62
19
420
1118481
100
AcDbText
 10
3540.0
 20
230.0
 30
0.0
 40
171.45
  1
VCS+1Ø12
  7
NEGRITA
 41
0.885
 72
1
 11
3540.0
 21
230.0
 31
0.0
100
AcDbText
  0
TEXT
  5
145
330
17
100
AcDbEntity
  8
T-label
 62
49
420
2236962
100
AcDbText
 10
8070.0
 20
4560.0
 30
0.0
 40
171.45
  1
VCS 30x35
  7
ESTANDAR
 41
0.885
 72
1
 11
8070.0
 21
4560.0
 31
0.0
100
AcDbText
  0
TEXT
  5
146
330
17
100
AcDbEntity
  8
T-label
 62
49
420
2236962
100
AcDbText
 10
8070.0
 20
5960.0
 30
0.0
 40
171.45
  1
VCS 30x35
  7
ESTANDAR
 41
0.885
 72
1
 11
8070.0
 21
5960.0
 31
0.0
100
AcDbText
  0
TEXT
  5
147
330
17
100
AcDbEntity
  8
T-label
 62
49
420
2236962
100
AcDbText
 10
8070.0
 20
9980.0
 30
0.0
 40
171.45
  1
VCS 30x35
  7
ESTANDAR
 41
0.885
 72
1
 11
8070.0
 21
9980.0
 31
0.0
100
AcDbText
  0
TEXT
  5
148
330
17
100
AcDbEntity
  8
T-code
 62
19
420
1118481
100
AcDbText
 10
8320.0
 20
230.0
 30
0.0
 40
171.45
  1
VCS+1Ø12
  7
NEGRITA
 41
0.885
 72
1
 11
8320.0
 21
230.0
 31
0.0
100
AcDbText
  0
TEXT
  5
149
330
17
100
AcDbEntity
  8
T-label
 62
49
420
2236962
100
AcDbText
 10
-260.0
 20
3608.5
 30
0.0
 40
171.45
  1
VCM 30x35
 50
90.0
  7
ESTANDAR
 41
0.885
 72
1
 11
-260.0
 21
3608.5
 31
0.0
100
AcDbText
  0
TEXT
  5
14A
330
17
100
AcDbEntity
  8
T-label
 62
49
420
2236962
100
AcDbText
 10
-260.0
 20
7740.0
 30
0.0
 40
171.45
  1
VCS 30x35
 50
90.0
  7
ESTANDAR
 41
0.885
 72
1
 11
-260.0
 21
7740.0
 31
0.0
100
AcDbText
  0
TEXT
  5
14B
330
17
100
AcDbEntity
  8
T-label
 62
49
420
2236962
100
AcDbText
 10
4520.0
 20
3608.5
 30
0.0
 40
171.45
  1
VCM 30x35
 50
90.0
  7
ESTANDAR
 41
0.885
 72
1
 11
4520.0
 21
3608.5
 31
0.0
100
AcDbText
  0
TEXT
  5
14C
330
17
100
AcDbEntity
  8
T-label
 62
49
420
2236962
100
AcDbText
 10
4520.0
 20
7740.0
 30
0.0
 40
171.45
  1
VCS 30x35
 50
90.0
  7
ESTANDAR
 41
0.885
 72
1
 11
4520.0
 21
7740.0
 31
0.0
100
AcDbText
  0
TEXT
  5
14D
330
17
100
AcDbEntity
  8
T-label
 62
49
420
2236962
100
AcDbText
 10
9300.0
 20
3608.5
 30
0.0
 40
171.45
  1
VCM 30x35
 50
90.0
  7
ESTANDAR
 41
0.885
 72
1
 11
9300.0
 21
3608.5
 31
0.0
100
AcDbText
  0
TEXT
  5
14E
330
17
100
AcDbEntity
  8
T-label
 62
49
420
2236962
100
AcDbText
 10
9300.0
 20
7740.0
 30
0.0
 40
171.45
  1
VCS 30x35
 50
90.0
  7
ESTANDAR
 41
0.885
 72
1
 11
9300.0
 21
7740.0
 31
0.0
100
AcDbText
  0
TEXT
  5
150
330
17
100
AcDbEntity
  8
T-small
 62
47
420
4473924
100
AcDbText
 10
5975.0
 20
1563.0
 30
0.0
 40
171.45
  1
IPE 200
  7
ESTANDAR
 41
0.885
 72
1
 11
5975.0
 21
1563.0
 31
0.0
100
AcDbText
  0
TEXT
  5
151
330
17
100
AcDbEntity
  8
T-small
 62
47
420
4473924
100
AcDbText
 10
5975.0
 20
3007.0
 30
0.0
 40
171.45
  1
IPE 200
  7
ESTANDAR
 41
0.885
 72
1
 11
5975.0
 21
3007.0
 31
0.0
100
AcDbText
  0
TEXT
  5
152
330
17
100
AcDbEntity
  8
T-small
 62
47
420
4473924
100
AcDbText
 10
2560.0
 20
721.5
 30
0.0
 40
171.45
  1
IPE 200
 50
90.0
  7
ESTANDAR
 41
0.885
 72
1
 11
2560.0
 21
721.5
 31
0.0
100
AcDbText
  0
TEXT
  5
153
330
17
100
AcDbEntity
  8
T-small
 62
47
420
4473924
100
AcDbText
 10
7340.0
 20
721.5
 30
0.0
 40
171.45
  1
IPE 200
 50
90.0
  7
ESTANDAR
 41
0.885
 72
1
 11
7340.0
 21
721.5
 31
0.0
100
AcDbText
  0
TEXT
  5
154
330
17
100
AcDbEntity
  8
T-code
 62
19
420
1118481
100
AcDbText
 10
200.0
 20
-785.0
 30
0.0
 40
171.45
  1
IPE 240
 50
90.0
  7
NEGRITA
 41
0.885
 72
1
 11
200.0
 21
-785.0
 31
0.0
100
AcDbText
  0
TEXT
  5
155
330
17
100
AcDbEntity
  8
T-code
 62
19
420
1118481
100
AcDbText
 10
4980.0
 20
-785.0
 30
0.0
 40
171.45
  1
IPE 240
 50
90.0
  7
NEGRITA
 41
0.885
 72
1
 11
4980.0
 21
-785.0
 31
0.0
100
AcDbText
  0
TEXT
  5
156
330
17
100
AcDbEntity
  8
T-code
 62
19
420
1118481
100
AcDbText
 10
10295.0
 20
4030.0
 30
0.0
 40
171.45
  1
IPE 240
  7
NEGRITA
 41
0.885
 72
1
 11
10295.0
 21
4030.0
 31
0.0
100
AcDbText
  0
TEXT
  5
157
330
17
100
AcDbEntity
  8
T-small
 62
47
420
4473924
100
AcDbText
 10
2390.0
 20
-1550.0
 30
0.0
 40
171.45
  1
borde de losa
  7
ESTANDAR
 41
0.885
 72
1
 11
2390.0
 21
-1550.0
 31
0.0
100
AcDbText
  0
TEXT
  5
159
330
17
100
AcDbEntity
  8
T-red
 62
242
420
13632027
100
AcDbText
 10
-260.0
 20
-700.0
 30
0.0
 40
171.45
  1
B4
  7
NEGRITA
 41
0.885
 72
2
 11
-260.0
 21
-700.0
 31
0.0
100
AcDbText
  0
TEXT
  5
15A
330
17
100
AcDbEntity
  8
T-red
 62
242
420
13632027
100
AcDbText
 10
4520.0
 20
-700.0
 30
0.0
 40
171.45
  1
C4
  7
NEGRITA
 41
0.885
 72
2
 11
4520.0
 21
-700.0
 31
0.0
100
AcDbText
  0
TEXT
  5
15B
330
17
100
AcDbEntity
  8
T-red
 62
242
420
13632027
100
AcDbText
 10
9300.0
 20
-700.0
 30
0.0
 40
171.45
  1
D4Y
  7
NEGRITA
 41
0.885
 72
2
 11
9300.0
 21
-700.0
 31
0.0
100
AcDbText
  0
TEXT
  5
15C
330
17
100
AcDbEntity
  8
T-red
 62
242
420
13632027
100
AcDbText
 10
9880.0
 20
-320.0
 30
0.0
 40
171.45
  1
D4X
  7
NEGRITA
 41
0.885
 11
9880.0
 21
-320.0
 31
0.0
100
AcDbText
  0
TEXT
  5
15D
330
17
100
AcDbEntity
  8
T-red
 62
242
420
13632027
100
AcDbText
 10
9880.0
 20
4530.0
 30
0.0
 40
171.45
  1
D3
  7
NEGRITA
 41
0.885
 11
9880.0
 21
4530.0
 31
0.0
100
AcDbText
  0
TEXT
  5
15F
330
17
100
AcDbEntity
  8
T-tie
 62
195
420
5975151
100
AcDbText
 10
10010.0
 20
721.5
 30
0.0
 40
171.45
  1
Ø10 c/110
  7
NEGRITA
 41
0.885
 11
10010.0
 21
721.5
 31
0.0
100
AcDbText
  0
TEXT
  5
160
330
17
100
AcDbEntity
  8
T-tie
 62
195
420
5975151
100
AcDbText
 10
10010.0
 20
2165.0
 30
0.0
 40
171.45
  1
Ø10 c/140
  7
NEGRITA
 41
0.885
 11
10010.0
 21
2165.0
 31
0.0
100
AcDbText
  0
TEXT
  5
161
330
17
100
AcDbEntity
  8
T-tie
 62
195
420
5975151
100
AcDbText
 10
10010.0
 20
3608.5
 30
0.0
 40
171.45
  1
Ø10 c/110
  7
NEGRITA
 41
0.885
 11
10010.0
 21
3608.5
 31
0.0
100
AcDbText
  0
LINE
  5
163
330
17
100
AcDbEntity
  8
G-lead
100
AcDbLine
 10
3490.0
 20
-260.0
 30
0.0
 11
3490.0
 21
-480.0
 31
0.0
  0
TEXT
  5
164
330
17
100
AcDbEntity
  8
T-code
 62
19
420
1118481
100
AcDbText
 10
3550.0
 20
-660.0
 30
0.0
 40
171.45
  1
A
  7
NEGRITA
 41
0.885
 72
1
 11
3550.0
 21
-660.0
 31
0.0
100
AcDbText
  0
LINE
  5
165
330
17
100
AcDbEntity
  8
G-lead
100
AcDbLine
 10
3490.0
 20
260.0
 30
0.0
 11
3490.0
 21
480.0
 31
0.0
  0
TEXT
  5
166
330
17
100
AcDbEntity
  8
T-code
 62
19
420
1118481
100
AcDbText
 10
3550.0
 20
540.0
 30
0.0
 40
171.45
  1
A
  7
NEGRITA
 41
0.885
 72
1
 11
3550.0
 21
540.0
 31
0.0
100
AcDbText
  0
LINE
  5
167
330
17
100
AcDbEntity
  8
G-lead
100
AcDbLine
 10
5040.0
 20
700.0
 30
0.0
 11
5260.0
 21
700.0
 31
0.0
  0
TEXT
  5
168
330
17
100
AcDbEntity
  8
T-code
 62
19
420
1118481
100
AcDbText
 10
5380.0
 20
640.0
 30
0.0
 40
171.45
  1
B
  7
NEGRITA
 41
0.885
 72
1
 11
5380.0
 21
640.0
 31
0.0
100
AcDbText
  0
LINE
  5
169
330
17
100
AcDbEntity
  8
G-lead
100
AcDbLine
 10
4520.0
 20
700.0
 30
0.0
 11
4300.0
 21
700.0
 31
0.0
  0
TEXT
  5
16A
330
17
100
AcDbEntity
  8
T-code
 62
19
420
1118481
100
AcDbText
 10
4180.0
 20
640.0
 30
0.0
 40
171.45
  1
B
  7
NEGRITA
 41
0.885
 72
1
 11
4180.0
 21
640.0
 31
0.0
100
AcDbText
  0
LINE
  5
16B
330
17
100
AcDbEntity
  8
G-lead
100
AcDbLine
 10
8910.0
 20
4070.0
 30
0.0
 11
8910.0
 21
3850.0
 31
0.0
  0
TEXT
  5
16C
330
17
100
AcDbEntity
  8
T-code
 62
19
420
1118481
100
AcDbText
 10
8970.0
 20
3670.0
 30
0.0
 40
171.45
  1
C
  7
NEGRITA
 41
0.885
 72
1
 11
8970.0
 21
3670.0
 31
0.0
100
AcDbText
  0
LINE
  5
16D
330
17
100
AcDbEntity
  8
G-lead
100
AcDbLine
 10
8910.0
 20
4590.0
 30
0.0
 11
8910.0
 21
4810.0
 31
0.0
  0
TEXT
  5
16E
330
17
100
AcDbEntity
  8
T-code
 62
19
420
1118481
100
AcDbText
 10
8970.0
 20
4870.0
 30
0.0
 40
171.45
  1
C
  7
NEGRITA
 41
0.885
 72
1
 11
8970.0
 21
4870.0
 31
0.0
100
AcDbText
  0
DIMENSION
  5
170
330
17
100
AcDbEntity
  8
COTAS
100
AcDbDimension
280
0
  2
*D1
  3
COTAS_1-75
 10
-1780.0
 20
-3330.0
 30
0.0
 11
-890.0
 21
-3216.42
 31
0.0
 70
32
 71
5
  1
<>
100
AcDbAlignedDimension
 13
-1780.0
 23
0.0
 33
0.0
 14
0.0
 24
0.0
 34
0.0
 50
0.0
100
AcDbRotatedDimension
  0
DIMENSION
  5
183
330
17
100
AcDbEntity
  8
COTAS
100
AcDbDimension
280
0
  2
*D2
  3
COTAS_1-75
 10
0.0
 20
-3330.0
 30
0.0
 11
1195.0
 21
-3216.42
 31
0.0
 70
32
 71
5
  1
<>
100
AcDbAlignedDimension
 13
0.0
 23
-3330.0
 33
0.0
 14
2390.0
 24
-3330.0
 34
0.0
 50
0.0
100
AcDbRotatedDimension
  0
DIMENSION
  5
192
330
17
100
AcDbEntity
  8
COTAS
100
AcDbDimension
280
0
  2
*D3
  3
COTAS_1-75
 10
2390.0
 20
-3330.0
 30
0.0
 11
3585.0
 21
-3216.42
 31
0.0
 70
32
 71
5
  1
<>
100
AcDbAlignedDimension
 13
2390.0
 23
-3330.0
 33
0.0
 14
4780.0
 24
-3330.0
 34
0.0
 50
0.0
100
AcDbRotatedDimension
  0
DIMENSION
  5
1A1
330
17
100
AcDbEntity
  8
COTAS
100
AcDbDimension
280
0
  2
*D4
  3
COTAS_1-75
 10
4780.0
 20
-3330.0
 30
0.0
 11
5975.0
 21
-3216.42
 31
0.0
 70
32
 71
5
  1
<>
100
AcDbAlignedDimension
 13
4780.0
 23
-3330.0
 33
0.0
 14
7170.0
 24
-3330.0
 34
0.0
 50
0.0
100
AcDbRotatedDimension
  0
DIMENSION
  5
1B0
330
17
100
AcDbEntity
  8
COTAS
100
AcDbDimension
280
0
  2
*D5
  3
COTAS_1-75
 10
7170.0
 20
-3330.0
 30
0.0
 11
8365.0
 21
-3216.42
 31
0.0
 70
32
 71
5
  1
<>
100
AcDbAlignedDimension
 13
7170.0
 23
-3330.0
 33
0.0
 14
9560.0
 24
-3330.0
 34
0.0
 50
0.0
100
AcDbRotatedDimension
  0
DIMENSION
  5
1BF
330
17
100
AcDbEntity
  8
COTAS
100
AcDbDimension
280
0
  2
*D6
  3
COTAS_1-75
 10
9560.0
 20
-3330.0
 30
0.0
 11
10195.0
 21
-3216.42
 31
0.0
 70
32
 71
5
  1
<>
100
AcDbAlignedDimension
 13
9560.0
 23
-3330.0
 33
0.0
 14
10830.0
 24
-3330.0
 34
0.0
 50
0.0
100
AcDbRotatedDimension
  0
DIMENSION
  5
1CE
330
17
100
AcDbEntity
  8
COTAS
100
AcDbDimension
280
0
  2
*D7
  3
COTAS_1-75
 10
12840.0
 20
-1270.0
 30
0.0
 11
12726.42
 21
-635.0
 31
0.0
 70
32
 71
5
  1
<>
100
AcDbAlignedDimension
 13
12840.0
 23
-1270.0
 33
0.0
 14
12840.0
 24
0.0
 34
0.0
 50
90.0
100
AcDbRotatedDimension
  0
DIMENSION
  5
1DD
330
17
100
AcDbEntity
  8
COTAS
100
AcDbDimension
280
0
  2
*D8
  3
COTAS_1-75
 10
12840.0
 20
0.0
 30
0.0
 11
12726.42
 21
721.5
 31
0.0
 70
32
 71
5
  1
<>
100
AcDbAlignedDimension
 13
12840.0
 23
0.0
 33
0.0
 14
12840.0
 24
1443.0
 34
0.0
 50
90.0
100
AcDbRotatedDimension
  0
DIMENSION
  5
1EC
330
17
100
AcDbEntity
  8
COTAS
100
AcDbDimension
280
0
  2
*D9
  3
COTAS_1-75
 10
12840.0
 20
1443.0
 30
0.0
 11
12726.42
 21
2165.0
 31
0.0
 70
32
 71
5
  1
<>
100
AcDbAlignedDimension
 13
12840.0
 23
1443.0
 33
0.0
 14
12840.0
 24
2887.0
 34
0.0
 50
90.0
100
AcDbRotatedDimension
  0
DIMENSION
  5
1FB
330
17
100
AcDbEntity
  8
COTAS
100
AcDbDimension
280
0
  2
*D10
  3
COTAS_1-75
 10
12840.0
 20
2887.0
 30
0.0
 11
12726.42
 21
3608.5
 31
0.0
 70
32
 71
5
  1
<>
100
AcDbAlignedDimension
 13
12840.0
 23
2887.0
 33
0.0
 14
12840.0
 24
4330.0
 34
0.0
 50
90.0
100
AcDbRotatedDimension
  0
DIMENSION
  5
20A
330
17
100
AcDbEntity
  8
COTAS
100
AcDbDimension
280
0
  2
*D11
  3
COTAS_1-75
 10
12840.0
 20
4330.0
 30
0.0
 11
12726.42
 21
5030.0
 31
0.0
 70
32
 71
5
  1
<>
100
AcDbAlignedDimension
 13
12840.0
 23
4330.0
 33
0.0
 14
12840.0
 24
5730.0
 34
0.0
 50
90.0
100
AcDbRotatedDimension
  0
DIMENSION
  5
219
330
17
100
AcDbEntity
  8
COTAS
100
AcDbDimension
280
0
  2
*D12
  3
COTAS_1-75
 10
12840.0
 20
5730.0
 30
0.0
 11
12726.42
 21
7740.0
 31
0.0
 70
32
 71
5
  1
<>
100
AcDbAlignedDimension
 13
12840.0
 23
5730.0
 33
0.0
 14
12840.0
 24
9750.0
 34
0.0
 50
90.0
100
AcDbRotatedDimension
  0
ENDSEC
  0
SECTION
  2
OBJECTS
  0
DICTIONARY
  5
A
330
0
100
AcDbDictionary
281
1
  3
ACAD_COLOR
350
B
  3
ACAD_GROUP
350
C
  3
ACAD_LAYOUT
350
D
  3
ACAD_MATERIAL
350
E
  3
ACAD_MLEADERSTYLE
350
F
  3
ACAD_MLINESTYLE
350
10
  3
ACAD_PLOTSETTINGS
350
11
  3
ACAD_PLOTSTYLENAME
350
12
  3
ACAD_SCALELIST
350
14
  3
ACAD_TABLESTYLE
350
15
  3
ACAD_VISUALSTYLE
350
16
  3
EZDXF_META
350
2D
  0
DICTIONARY
  5
B
330
A
100
AcDbDictionary
281
1
  0
DICTIONARY
  5
C
330
A
100
AcDbDictionary
281
1
  0
DICTIONARY
  5
D
330
A
100
AcDbDictionary
281
1
  3
Model
350
1A
  3
Layout1
350
1E
  0
DICTIONARY
  5
E
330
A
100
AcDbDictionary
281
1
  3
ByBlock
350
1F
  3
ByLayer
350
20
  3
Global
350
21
  0
DICTIONARY
  5
F
330
A
100
AcDbDictionary
281
1
  3
Standard
350
2C
  0
DICTIONARY
  5
10
330
A
100
AcDbDictionary
281
1
  3
Standard
350
22
  0
DICTIONARY
  5
11
330
A
100
AcDbDictionary
281
1
  0
ACDBDICTIONARYWDFLT
  5
12
330
A
100
AcDbDictionary
281
1
  3
Normal
350
13
100
AcDbDictionaryWithDefault
340
13
  0
ACDBPLACEHOLDER
  5
13
330
12
  0
DICTIONARY
  5
14
330
A
100
AcDbDictionary
281
1
  0
DICTIONARY
  5
15
330
A
100
AcDbDictionary
281
1
  0
DICTIONARY
  5
16
330
A
100
AcDbDictionary
281
1
  0
LAYOUT
  5
1A
330
D
100
AcDbPlotSettings
  1

  4
A3
  6

 40
7.5
 41
20.0
 42
7.5
 43
20.0
 44
420.0
 45
297.0
 46
0.0
 47
0.0
 48
0.0
 49
0.0
140
0.0
141
0.0
142
1.0
143
1.0
 70
1024
 72
1
 73
0
 74
5
  7

 75
16
 76
0
 77
2
 78
300
147
1.0
148
0.0
149
0.0
100
AcDbLayout
  1
Model
 70
1
 71
0
 10
0.0
 20
0.0
 11
420.0
 21
297.0
 12
0.0
 22
0.0
 32
0.0
 14
1e+20
 24
1e+20
 34
1e+20
 15
-1e+20
 25
-1e+20
 35
-1e+20
146
0.0
 13
0.0
 23
0.0
 33
0.0
 16
1.0
 26
0.0
 36
0.0
 17
0.0
 27
1.0
 37
0.0
 76
1
330
17
  0
LAYOUT
  5
1E
330
D
100
AcDbPlotSettings
  1

  4
A3
  6

 40
7.5
 41
20.0
 42
7.5
 43
20.0
 44
420.0
 45
297.0
 46
0.0
 47
0.0
 48
0.0
 49
0.0
140
0.0
141
0.0
142
1.0
143
1.0
 70
0
 72
1
 73
0
 74
5
  7

 75
16
 76
0
 77
2
 78
300
147
1.0
148
0.0
149
0.0
100
AcDbLayout
  1
Layout1
 70
1
 71
1
 10
0.0
 20
0.0
 11
420.0
 21
297.0
 12
0.0
 22
0.0
 32
0.0
 14
1e+20
 24
1e+20
 34
1e+20
 15
-1e+20
 25
-1e+20
 35
-1e+20
146
0.0
 13
0.0
 23
0.0
 33
0.0
 16
1.0
 26
0.0
 36
0.0
 17
0.0
 27
1.0
 37
0.0
 76
1
330
1B
  0
MATERIAL
  5
1F
102
{ACAD_REACTORS
330
E
102
}
330
E
100
AcDbMaterial
  1
ByBlock
  2

 70
0
 40
1.0
 71
1
 41
1.0
 91
-1023410177
 42
1.0
 72
1
  3

 73
1
 74
1
 75
1
 44
0.5
 73
0
 45
1.0
 46
1.0
 77
1
  4

 78
1
 79
1
170
1
 48
1.0
171
1
  6

172
1
173
1
174
1
140
1.0
141
1.0
175
1
  7

176
1
177
1
178
1
143
1.0
179
1
  8

270
1
271
1
272
1
145
1.0
146
1.0
273
1
  9

274
1
275
1
276
1
 42
1.0
 72
1
  3

 73
1
 74
1
 75
1
 94
63
  0
MATERIAL
  5
20
102
{ACAD_REACTORS
330
E
102
}
330
E
100
AcDbMaterial
  1
ByLayer
  2

 70
0
 40
1.0
 71
1
 41
1.0
 91
-1023410177
 42
1.0
 72
1
  3

 73
1
 74
1
 75
1
 44
0.5
 73
0
 45
1.0
 46
1.0
 77
1
  4

 78
1
 79
1
170
1
 48
1.0
171
1
  6

172
1
173
1
174
1
140
1.0
141
1.0
175
1
  7

176
1
177
1
178
1
143
1.0
179
1
  8

270
1
271
1
272
1
145
1.0
146
1.0
273
1
  9

274
1
275
1
276
1
 42
1.0
 72
1
  3

 73
1
 74
1
 75
1
 94
63
  0
MATERIAL
  5
21
102
{ACAD_REACTORS
330
E
102
}
330
E
100
AcDbMaterial
  1
Global
  2

 70
0
 40
1.0
 71
1
 41
1.0
 91
-1023410177
 42
1.0
 72
1
  3

 73
1
 74
1
 75
1
 44
0.5
 73
0
 45
1.0
 46
1.0
 77
1
  4

 78
1
 79
1
170
1
 48
1.0
171
1
  6

172
1
173
1
174
1
140
1.0
141
1.0
175
1
  7

176
1
177
1
178
1
143
1.0
179
1
  8

270
1
271
1
272
1
145
1.0
146
1.0
273
1
  9

274
1
275
1
276
1
 42
1.0
 72
1
  3

 73
1
 74
1
 75
1
 94
63
  0
MLINESTYLE
  5
22
102
{ACAD_REACTORS
330
10
102
}
330
10
100
AcDbMlineStyle
  2
Standard
 70
0
  3

 62
256
 51
90.0
 52
90.0
 71
2
 49
0.5
 62
256
  6
BYLAYER
 49
-0.5
 62
256
  6
BYLAYER
  0
MLEADERSTYLE
  5
2C
102
{ACAD_REACTORS
330
F
102
}
330
F
100
AcDbMLeaderStyle
179
2
170
2
171
1
172
0
 90
2
 40
0.0
 41
0.0
173
1
 91
-1056964608
 92
-2
290
1
 42
2.0
291
1
 43
8.0
  3
Standard
 44
4.0
300

342
29
174
1
175
1
176
0
178
1
 93
-1056964608
 45
4.0
292
0
297
0
 46
4.0
 94
-1056964608
 47
1.0
 49
1.0
140
1.0
294
1
141
0.0
177
0
142
1.0
295
0
296
0
143
3.75
271
0
272
9
273
9
  0
DICTIONARY
  5
2D
330
A
100
AcDbDictionary
280
1
281
1
  3
CREATED_BY_EZDXF
350
2E
  3
WRITTEN_BY_EZDXF
350
22A
  0
DICTIONARYVAR
  5
2E
330
2D
100
DictionaryVariables
280
0
  1
1.4.4 @ 2026-10-09T22:16:32.600902+00:00
  0
DICTIONARYVAR
  5
22A
330
2D
100
DictionaryVariables
280
0
  1
1.4.4 @ 2026-10-09T22:16:32.640667+00:00
  0
ENDSEC
  0
EOF
