  0
SECTION
  2
HEADER
  9
$ACADVER
  1
AC1024
  9
$ACADMAINTVER
 70
6
  9
$DWGCODEPAGE
  3
ANSI_1252
  9
$LASTSAVEDBY
  1
ezdxf
  9
$INSBASE
 10
0.0
 20
0.0
 30
0.0
  9
$EXTMIN
 10
1e+20
 20
1e+20
 30
1e+20
  9
$EXTMAX
 10
-1e+20
 20
-1e+20
 30
-1e+20
  9
$LIMMIN
 10
0.0
 20
0.0
  9
$LIMMAX
 10
420.0
 20
297.0
  9
$ORTHOMODE
 70
0
  9
$REGENMODE
 70
1
  9
$FILLMODE
 70
1
  9
$QTEXTMODE
 70
0
  9
$MIRRTEXT
 70
1
  9
$LTSCALE
 40
10.0
  9
$ATTMODE
 70
1
  9
$TEXTSIZE
 40
2.5
  9
$TRACEWID
 40
1.0
  9
$TEXTSTYLE
  7
Standard
  9
$CLAYER
  8
0
  9
$CELTYPE
  6
ByLayer
  9
$CECOLOR
 62
256
  9
$CELTSCALE
 40
1.0
  9
$DISPSILH
 70
0
  9
$DIMSCALE
 40
10.0
  9
$DIMASZ
 40
2.5
  9
$DIMEXO
 40
0.5291666666666666
  9
$DIMDLI
 40
3.75
  9
$DIMRND
 40
0.0
  9
$DIMDLE
 40
0.0
  9
$DIMEXE
 40
0.8819444444444444
  9
$DIMTP
 40
0.0
  9
$DIMTM
 40
0.0
  9
$DIMTXT
 40
1.8288
  9
$DIMCEN
 40
2.5
  9
$DIMTSZ
 40
1.0943166666666666
  9
$DIMTOL
 70
0
  9
$DIMLIM
 70
0
  9
$DIMTIH
 70
0
  9
$DIMTOH
 70
0
  9
$DIMSE1
 70
0
  9
$DIMSE2
 70
0
  9
$DIMTAD
 70
1
  9
$DIMZIN
 70
8
  9
$DIMBLK
  1

  9
$DIMASO
 70
1
  9
$DIMSHO
 70
1
  9
$DIMPOST
  1

  9
$DIMAPOST
  1

  9
$DIMALT
 70
0
  9
$DIMALTD
 70
3
  9
$DIMALTF
 40
0.03937007874
  9
$DIMLFAC
 40
1.0
  9
$DIMTOFL
 70
1
  9
$DIMTVP
 40
0.0
  9
$DIMTIX
 70
0
  9
$DIMSOXD
 70
0
  9
$DIMSAH
 70
0
  9
$DIMBLK1
  1

  9
$DIMBLK2
  1

  9
$DIMSTYLE
  2
COTAS_1-10
  9
$DIMCLRD
 70
0
  9
$DIMCLRE
 70
0
  9
$DIMCLRT
 70
0
  9
$DIMTFAC
 40
1.0
  9
$DIMGAP
 40
0.6
  9
$DIMJUST
 70
0
  9
$DIMSD1
 70
0
  9
$DIMSD2
 70
0
  9
$DIMTOLJ
 70
0
  9
$DIMTZIN
 70
8
  9
$DIMALTZ
 70
0
  9
$DIMALTTZ
 70
0
  9
$DIMUPT
 70
0
  9
$DIMDEC
 70
0
  9
$DIMTDEC
 70
2
  9
$DIMALTU
 70
2
  9
$DIMALTTD
 70
3
  9
$DIMTXSTY
  7
Standard
  9
$DIMAUNIT
 70
0
  9
$DIMADEC
 70
0
  9
$DIMALTRND
 40
0.0
  9
$DIMAZIN
 70
0
  9
$DIMDSEP
 70
44
  9
$DIMATFIT
 70
3
  9
$DIMFRAC
 70
0
  9
$DIMLDRBLK
  1

  9
$DIMLUNIT
 70
2
  9
$DIMLWD
 70
-2
  9
$DIMLWE
 70
-2
  9
$DIMTMOVE
 70
0
  9
$DIMFXL
 40
1.0
  9
$DIMFXLON
 70
0
  9
$DIMJOGANG
 40
0.785398163397
  9
$DIMTFILL
 70
0
  9
$DIMTFILLCLR
 70
0
  9
$DIMARCSYM
 70
0
  9
$DIMLTYPE
  6

  9
$DIMLTEX1
  6

  9
$DIMLTEX2
  6

  9
$DIMTXTDIRECTION
 70
0
  9
$LUNITS
 70
2
  9
$LUPREC
 70
4
  9
$SKETCHINC
 40
1.0
  9
$FILLETRAD
 40
10.0
  9
$AUNITS
 70
0
  9
$AUPREC
 70
2
  9
$MENU
  1
.
  9
$ELEVATION
 40
0.0
  9
$PELEVATION
 40
0.0
  9
$THICKNESS
 40
0.0
  9
$LIMCHECK
 70
0
  9
$CHAMFERA
 40
0.0
  9
$CHAMFERB
 40
0.0
  9
$CHAMFERC
 40
0.0
  9
$CHAMFERD
 40
0.0
  9
$SKPOLY
 70
0
  9
$TDCREATE
 40
2461323.928148148
  9
$TDUCREATE
 40
2458532.153996898
  9
$TDUPDATE
 40
2461323.928148148
  9
$TDUUPDATE
 40
2458532.1544311
  9
$TDINDWG
 40
0.0
  9
$TDUSRTIMER
 40
0.0
  9
$USRTIMER
 70
1
  9
$ANGBASE
 50
0.0
  9
$ANGDIR
 70
0
  9
$PDMODE
 70
0
  9
$PDSIZE
 40
0.0
  9
$PLINEWID
 40
0.0
  9
$SPLFRAME
 70
0
  9
$SPLINETYPE
 70
6
  9
$SPLINESEGS
 70
8
  9
$HANDSEED
  5
93
  9
$SURFTAB1
 70
6
  9
$SURFTAB2
 70
6
  9
$SURFTYPE
 70
6
  9
$SURFU
 70
6
  9
$SURFV
 70
6
  9
$UCSBASE
  2

  9
$UCSNAME
  2

  9
$UCSORG
 10
0.0
 20
0.0
 30
0.0
  9
$UCSXDIR
 10
1.0
 20
0.0
 30
0.0
  9
$UCSYDIR
 10
0.0
 20
1.0
 30
0.0
  9
$UCSORTHOREF
  2

  9
$UCSORTHOVIEW
 70
0
  9
$UCSORGTOP
 10
0.0
 20
0.0
 30
0.0
  9
$UCSORGBOTTOM
 10
0.0
 20
0.0
 30
0.0
  9
$UCSORGLEFT
 10
0.0
 20
0.0
 30
0.0
  9
$UCSORGRIGHT
 10
0.0
 20
0.0
 30
0.0
  9
$UCSORGFRONT
 10
0.0
 20
0.0
 30
0.0
  9
$UCSORGBACK
 10
0.0
 20
0.0
 30
0.0
  9
$PUCSBASE
  2

  9
$PUCSNAME
  2

  9
$PUCSORG
 10
0.0
 20
0.0
 30
0.0
  9
$PUCSXDIR
 10
1.0
 20
0.0
 30
0.0
  9
$PUCSYDIR
 10
0.0
 20
1.0
 30
0.0
  9
$PUCSORTHOREF
  2

  9
$PUCSORTHOVIEW
 70
0
  9
$PUCSORGTOP
 10
0.0
 20
0.0
 30
0.0
  9
$PUCSORGBOTTOM
 10
0.0
 20
0.0
 30
0.0
  9
$PUCSORGLEFT
 10
0.0
 20
0.0
 30
0.0
  9
$PUCSORGRIGHT
 10
0.0
 20
0.0
 30
0.0
  9
$PUCSORGFRONT
 10
0.0
 20
0.0
 30
0.0
  9
$PUCSORGBACK
 10
0.0
 20
0.0
 30
0.0
  9
$USERI1
 70
0
  9
$USERI2
 70
0
  9
$USERI3
 70
0
  9
$USERI4
 70
0
  9
$USERI5
 70
0
  9
$USERR1
 40
0.0
  9
$USERR2
 40
0.0
  9
$USERR3
 40
0.0
  9
$USERR4
 40
0.0
  9
$USERR5
 40
0.0
  9
$WORLDVIEW
 70
1
  9
$SHADEDGE
 70
3
  9
$SHADEDIF
 70
70
  9
$TILEMODE
 70
1
  9
$MAXACTVP
 70
64
  9
$PINSBASE
 10
0.0
 20
0.0
 30
0.0
  9
$PLIMCHECK
 70
0
  9
$PEXTMIN
 10
1e+20
 20
1e+20
 30
1e+20
  9
$PEXTMAX
 10
-1e+20
 20
-1e+20
 30
-1e+20
  9
$PLIMMIN
 10
0.0
 20
0.0
  9
$PLIMMAX
 10
420.0
 20
297.0
  9
$UNITMODE
 70
0
  9
$VISRETAIN
 70
1
  9
$PLINEGEN
 70
0
  9
$PSLTSCALE
 70
1
  9
$TREEDEPTH
 70
3020
  9
$CMLSTYLE
  2
Standard
  9
$CMLJUST
 70
0
  9
$CMLSCALE
 40
20.0
  9
$PROXYGRAPHICS
 70
1
  9
$MEASUREMENT
 70
1
  9
$CELWEIGHT
370
-1
  9
$ENDCAPS
280
0
  9
$JOINSTYLE
280
0
  9
$LWDISPLAY
290
1
  9
$INSUNITS
 70
4
  9
$HYPERLINKBASE
  1

  9
$STYLESHEET
  1

  9
$XEDIT
290
1
  9
$CEPSNTYPE
380
0
  9
$PSTYLEMODE
290
1
  9
$FINGERPRINTGUID
  2
{5C57C5B7-E6F2-4B20-B91A-3882EDF051CF}
  9
$VERSIONGUID
  2
{DF12C633-79E2-4C36-A3DA-175C346BA100}
  9
$EXTNAMES
290
1
  9
$PSVPSCALE
 40
0.0
  9
$OLESTARTUP
290
0
  9
$SORTENTS
280
127
  9
$INDEXCTL
280
0
  9
$HIDETEXT
280
1
  9
$XCLIPFRAME
280
1
  9
$HALOGAP
280
0
  9
$OBSCOLOR
 70
257
  9
$OBSLTYPE
280
0
  9
$INTERSECTIONDISPLAY
280
0
  9
$INTERSECTIONCOLOR
 70
257
  9
$DIMASSOC
280
2
  9
$PROJECTNAME
  1

  9
$CAMERADISPLAY
290
0
  9
$LENSLENGTH
 40
50.0
  9
$CAMERAHEIGHT
 40
0.0
  9
$STEPSPERSEC
 40
24.0
  9
$STEPSIZE
 40
100.0
  9
$3DDWFPREC
 40
2.0
  9
$PSOLWIDTH
 40
0.005
  9
$PSOLHEIGHT
 40
0.08
  9
$LOFTANG1
 40
1.570796326795
  9
$LOFTANG2
 40
1.570796326795
  9
$LOFTMAG1
 40
0.0
  9
$LOFTMAG2
 40
0.0
  9
$LOFTPARAM
 70
7
  9
$LOFTNORMALS
280
1
  9
$LATITUDE
 40
37.795
  9
$LONGITUDE
 40
-122.394
  9
$NORTHDIRECTION
 40
0.0
  9
$TIMEZONE
 70
-8000
  9
$LIGHTGLYPHDISPLAY
280
1
  9
$TILEMODELIGHTSYNCH
280
1
  9
$CMATERIAL
347
20
  9
$SOLIDHIST
280
0
  9
$SHOWHIST
280
1
  9
$DWFFRAME
280
2
  9
$DGNFRAME
280
2
  9
$REALWORLDSCALE
290
1
  9
$INTERFERECOLOR
 62
256
  9
$CSHADOW
280
0
  9
$SHADOWPLANELOCATION
 40
0.0
  0
ENDSEC
  0
SECTION
  2
CLASSES
  0
CLASS
  1
ACDBDICTIONARYWDFLT
  2
AcDbDictionaryWithDefault
  3
ObjectDBX Classes
 90
0
 91
0
280
0
281
0
  0
CLASS
  1
SUN
  2
AcDbSun
  3
SCENEOE
 90
1153
 91
0
280
0
281
0
  0
CLASS
  1
VISUALSTYLE
  2
AcDbVisualStyle
  3
ObjectDBX Classes
 90
4095
 91
0
280
0
281
0
  0
CLASS
  1
MATERIAL
  2
AcDbMaterial
  3
ObjectDBX Classes
 90
1153
 91
0
280
0
281
0
  0
CLASS
  1
SCALE
  2
AcDbScale
  3
ObjectDBX Classes
 90
1153
 91
0
280
0
281
0
  0
CLASS
  1
TABLESTYLE
  2
AcDbTableStyle
  3
ObjectDBX Classes
 90
4095
 91
0
280
0
281
0
  0
CLASS
  1
MLEADERSTYLE
  2
AcDbMLeaderStyle
  3
ACDB_MLEADERSTYLE_CLASS
 90
4095
 91
0
280
0
281
0
  0
CLASS
  1
DICTIONARYVAR
  2
AcDbDictionaryVar
  3
ObjectDBX Classes
 90
0
 91
0
280
0
281
0
  0
CLASS
  1
CELLSTYLEMAP
  2
AcDbCellStyleMap
  3
ObjectDBX Classes
 90
1152
 91
0
280
0
281
0
  0
CLASS
  1
MENTALRAYRENDERSETTINGS
  2
AcDbMentalRayRenderSettings
  3
SCENEOE
 90
1024
 91
0
280
0
281
0
  0
CLASS
  1
ACDBDETAILVIEWSTYLE
  2
AcDbDetailViewStyle
  3
ObjectDBX Classes
 90
1025
 91
0
280
0
281
0
  0
CLASS
  1
ACDBSECTIONVIEWSTYLE
  2
AcDbSectionViewStyle
  3
ObjectDBX Classes
 90
1025
 91
0
280
0
281
0
  0
CLASS
  1
RASTERVARIABLES
  2
AcDbRasterVariables
  3
ISM
 90
0
 91
0
280
0
281
0
  0
CLASS
  1
LAYOUT
  2
AcDbLayout
  3
ObjectDBX Classes
 90
0
 91
0
280
0
281
0
  0
CLASS
  1
ACDBPLACEHOLDER
  2
AcDbPlaceHolder
  3
ObjectDBX Classes
 90
0
 91
0
280
0
281
0
  0
ENDSEC
  0
SECTION
  2
TABLES
  0
TABLE
  2
VPORT
  5
8
330
0
100
AcDbSymbolTable
 70
1
  0
VPORT
  5
23
330
8
100
AcDbSymbolTableRecord
100
AcDbViewportTableRecord
  2
*Active
 70
0
 10
0.0
 20
0.0
 11
1.0
 21
1.0
 12
0.0
 22
0.0
 13
0.0
 23
0.0
 14
0.5
 24
0.5
 15
0.5
 25
0.5
 16
0.0
 26
0.0
 36
1.0
 17
0.0
 27
0.0
 37
0.0
 40
1000.0
 41
1.34
 42
50.0
 43
0.0
 44
0.0
 50
0.0
 51
0.0
 71
0
 72
1000
 73
1
 74
3
 75
0
 76
0
 77
0
 78
0
281
0
 65
0
146
0.0
  0
ENDTAB
  0
TABLE
  2
LTYPE
  5
2
330
0
100
AcDbSymbolTable
 70
3
  0
LTYPE
  5
24
330
2
100
AcDbSymbolTableRecord
100
AcDbLinetypeTableRecord
  2
ByBlock
 70
0
  3

 72
65
 73
0
 40
0.0
  0
LTYPE
  5
25
330
2
100
AcDbSymbolTableRecord
100
AcDbLinetypeTableRecord
  2
ByLayer
 70
0
  3

 72
65
 73
0
 40
0.0
  0
LTYPE
  5
26
330
2
100
AcDbSymbolTableRecord
100
AcDbLinetypeTableRecord
  2
Continuous
 70
0
  3

 72
65
 73
0
 40
0.0
  0
ENDTAB
  0
TABLE
  2
LAYER
  5
1
330
0
100
AcDbSymbolTable
 70
8
  0
LAYER
  5
27
330
1
100
AcDbSymbolTableRecord
100
AcDbLayerTableRecord
  2
0
 70
0
 62
7
  6
Continuous
370
-3
390
13
347
21
  0
LAYER
  5
28
330
1
100
AcDbSymbolTableRecord
100
AcDbLayerTableRecord
  2
Defpoints
 70
0
 62
7
  6
Continuous
290
0
370
-3
390
13
347
21
  0
LAYER
  5
32
330
1
100
AcDbSymbolTableRecord
100
AcDbLayerTableRecord
  2
G-r_conc
 70
0
 62
252
420
7039851
  6
Continuous
370
30
390
13
347
21
  0
LAYER
  5
35
330
1
100
AcDbSymbolTableRecord
100
AcDbLayerTableRecord
  2
G-r_tieS
 70
0
 62
217
420
4858714
  6
Continuous
370
18
390
13
347
21
  0
LAYER
  5
3A
330
1
100
AcDbSymbolTableRecord
100
AcDbLayerTableRecord
  2
G-r_bm1
 70
0
 62
156
420
929604
  6
Continuous
370
18
390
13
347
21
  0
LAYER
  5
47
330
1
100
AcDbSymbolTableRecord
100
AcDbLayerTableRecord
  2
G-r_bas
 70
0
 62
34
420
8272390
  6
Continuous
370
18
390
13
347
21
  0
LAYER
  5
4C
330
1
100
AcDbSymbolTableRecord
100
AcDbLayerTableRecord
  2
T-bsm
 70
0
 62
156
420
929604
  6
Continuous
370
18
390
13
347
21
  0
LAYER
  5
4F
330
1
100
AcDbSymbolTableRecord
100
AcDbLayerTableRecord
  2
COTAS
 70
0
 62
27
420
3355443
  6
Continuous
370
15
390
13
347
21
  0
ENDTAB
  0
TABLE
  2
STYLE
  5
5
330
0
100
AcDbSymbolTable
 70
3
  0
STYLE
  5
29
330
5
100
AcDbSymbolTableRecord
100
AcDbTextStyleTableRecord
  2
Standard
 70
0
 40
0.0
 41
1.0
 50
0.0
 71
0
 42
2.5
  3
txt
  4

  0
STYLE
  5
2F
330
5
100
AcDbSymbolTableRecord
100
AcDbTextStyleTableRecord
  2
ESTANDAR
 70
0
 40
0.0
 41
1.0
 50
0.0
 71
0
 42
2.5
  3
arial.ttf
  4

  0
STYLE
  5
30
330
5
100
AcDbSymbolTableRecord
100
AcDbTextStyleTableRecord
  2
NEGRITA
 70
0
 40
0.0
 41
1.0
 50
0.0
 71
0
 42
2.5
  3
arialbd.ttf
  4

  0
ENDTAB
  0
TABLE
  2
VIEW
  5
7
330
0
100
AcDbSymbolTable
 70
0
  0
ENDTAB
  0
TABLE
  2
UCS
  5
6
330
0
100
AcDbSymbolTable
 70
0
  0
ENDTAB
  0
TABLE
  2
APPID
  5
3
330
0
100
AcDbSymbolTable
 70
3
  0
APPID
  5
2A
330
3
100
AcDbSymbolTableRecord
100
AcDbRegAppTableRecord
  2
ACAD
 70
0
  0
APPID
  5
90
330
3
100
AcDbSymbolTableRecord
100
AcDbRegAppTableRecord
  2
HATCHBACKGROUNDCOLOR
 70
0
  0
APPID
  5
91
330
3
100
AcDbSymbolTableRecord
100
AcDbRegAppTableRecord
  2
EZDXF
 70
0
  0
ENDTAB
  0
TABLE
  2
DIMSTYLE
  5
4
330
0
100
AcDbSymbolTable
 70
2
100
AcDbDimStyleTable
  0
DIMSTYLE
105
2B
330
4
100
AcDbSymbolTableRecord
100
AcDbDimStyleTableRecord
  2
Standard
 70
0
 40
1.0
 41
2.5
 42
0.625
 43
3.75
 44
1.25
 45
0.0
 46
0.0
 47
0.0
 48
0.0
 49
2.5
140
2.5
141
2.5
142
0.0
143
0.03937007874
144
1.0
145
0.0
146
1.0
147
0.625
148
0.0
 69
0
 70
0
 71
0
 72
0
 73
0
 74
0
 75
0
 76
0
 77
1
 78
8
 79
3
170
0
171
3
172
1
173
0
174
0
175
0
176
0
177
0
178
0
179
2
271
2
272
2
273
2
274
3
275
0
276
0
277
2
278
44
279
0
280
0
281
0
282
0
283
0
284
8
285
0
286
0
288
0
289
3
290
0
371
-2
372
-2
  0
DIMSTYLE
105
31
330
4
100
AcDbSymbolTableRecord
100
AcDbDimStyleTableRecord
  2
COTAS_1-10
 70
0
 40
10.0
 41
2.0
 42
0.5291666666666666
 43
3.75
 44
0.8819444444444444
 45
0.0
 46
0.0
 47
0.0
 48
0.0
 49
2.5
140
1.8288
141
2.5
142
1.0943166666666666
143
0.03937007874
144
1.0
145
0.0
146
1.0
147
0.6
148
0.0
 69
0
 70
0
 71
0
 72
0
 73
0
 74
0
 75
0
 76
0
 77
1
 78
8
 79
3
170
0
171
3
172
1
173
0
174
0
175
0
176
8
177
8
178
250
179
2
271
0
272
2
273
2
274
3
275
0
276
0
277
2
278
44
279
0
280
0
281
0
282
0
283
0
284
8
285
0
286
0
288
0
289
3
290
0
340
2F
371
15
372
13
  0
ENDTAB
  0
TABLE
  2
BLOCK_RECORD
  5
9
330
0
100
AcDbSymbolTable
 70
7
  0
BLOCK_RECORD
  5
17
330
9
100
AcDbSymbolTableRecord
100
AcDbBlockTableRecord
  2
*Model_Space
340
1A
 70
0
280
1
281
0
  0
BLOCK_RECORD
  5
1B
330
9
100
AcDbSymbolTableRecord
100
AcDbBlockTableRecord
  2
*Paper_Space
340
1E
 70
0
280
1
281
0
  0
BLOCK_RECORD
  5
51
330
9
100
AcDbSymbolTableRecord
100
AcDbBlockTableRecord
  2
*D1
340
0
 70
0
280
1
281
0
  0
BLOCK_RECORD
  5
56
330
9
100
AcDbSymbolTableRecord
100
AcDbBlockTableRecord
  2
_OBLIQUE
340
0
 70
0
280
1
281
0
  0
BLOCK_RECORD
  5
64
330
9
100
AcDbSymbolTableRecord
100
AcDbBlockTableRecord
  2
*D2
340
0
 70
0
280
1
281
0
  0
BLOCK_RECORD
  5
73
330
9
100
AcDbSymbolTableRecord
100
AcDbBlockTableRecord
  2
*D3
340
0
 70
0
280
1
281
0
  0
BLOCK_RECORD
  5
82
330
9
100
AcDbSymbolTableRecord
100
AcDbBlockTableRecord
  2
*D4
340
0
 70
0
280
1
281
0
  0
ENDTAB
  0
ENDSEC
  0
SECTION
  2
BLOCKS
  0
BLOCK
  5
18
330
17
100
AcDbEntity
  8
0
100
AcDbBlockBegin
  2
*Model_Space
 70
0
 10
0.0
 20
0.0
 30
0.0
  3
*Model_Space
  1

  0
ENDBLK
  5
19
330
17
100
AcDbEntity
  8
0
100
AcDbBlockEnd
  0
BLOCK
  5
1C
330
1B
100
AcDbEntity
  8
0
100
AcDbBlockBegin
  2
*Paper_Space
 70
0
 10
0.0
 20
0.0
 30
0.0
  3
*Paper_Space
  1

  0
ENDBLK
  5
1D
330
1B
100
AcDbEntity
  8
0
100
AcDbBlockEnd
  0
BLOCK
  5
52
330
51
100
AcDbEntity
  8
0
100
AcDbBlockBegin
  2
*D1
 70
1
 10
0.0
 20
0.0
 30
0.0
  3
*D1
  1

  0
LINE
  5
54
330
51
100
AcDbEntity
  8
0
 62
8
370
13
100
AcDbLine
 10
-94.0
 20
264.7083333333333
 30
0.0
 11
-94.0
 21
201.18055555555554
 31
0.0
  0
LINE
  5
55
330
51
100
AcDbEntity
  8
0
 62
8
370
13
100
AcDbLine
 10
94.0
 20
264.7083333333333
 30
0.0
 11
94.0
 21
201.18055555555554
 31
0.0
  0
INSERT
  5
5A
330
51
100
AcDbEntity
  8
COTAS
 62
8
100
AcDbBlockReference
  2
_OBLIQUE
 10
-94.0
 20
210.0
 30
0.0
 41
21.886333333333333
 42
21.886333333333333
  0
INSERT
  5
5C
330
51
100
AcDbEntity
  8
COTAS
 62
8
100
AcDbBlockReference
  2
_OBLIQUE
 10
94.0
 20
210.0
 30
0.0
 41
21.886333333333333
 42
21.886333333333333
  0
LINE
  5
5E
330
51
100
AcDbEntity
  8
0
 62
8
370
15
100
AcDbLine
 10
-94.0
 20
210.0
 30
0.0
 11
94.0
 21
210.0
 31
0.0
  0
MTEXT
  5
5F
330
51
100
AcDbEntity
  8
COTAS
 62
250
100
AcDbMText
 10
0.0
 20
225.144
 30
0.0
 40
18.288
 71
5
  1
188
  7
ESTANDAR
  0
POINT
  5
60
330
51
100
AcDbEntity
  8
Defpoints
100
AcDbPoint
 10
-94.0
 20
210.0
 30
0.0
  0
POINT
  5
61
330
51
100
AcDbEntity
  8
Defpoints
100
AcDbPoint
 10
-94.0
 20
270.0
 30
0.0
  0
POINT
  5
62
330
51
100
AcDbEntity
  8
Defpoints
100
AcDbPoint
 10
94.0
 20
270.0
 30
0.0
  0
ENDBLK
  5
53
330
51
100
AcDbEntity
  8
0
100
AcDbBlockEnd
  0
BLOCK
  5
57
330
56
100
AcDbEntity
  8
0
100
AcDbBlockBegin
  2
_OBLIQUE
 70
0
 10
0.0
 20
0.0
 30
0.0
  3
_OBLIQUE
  1

  0
LINE
  5
59
330
56
100
AcDbEntity
  8
0
  6
BYBLOCK
 62
0
100
AcDbLine
 10
-0.5
 20
-0.5
 30
0.0
 11
0.5
 21
0.5
 31
0.0
  0
ENDBLK
  5
58
330
56
100
AcDbEntity
  8
0
100
AcDbBlockEnd
  0
BLOCK
  5
65
330
64
100
AcDbEntity
  8
0
100
AcDbBlockBegin
  2
*D2
 70
1
 10
0.0
 20
0.0
 30
0.0
  3
*D2
  1

  0
LINE
  5
67
330
64
100
AcDbEntity
  8
0
 62
8
370
13
100
AcDbLine
 10
144.70833333333334
 20
350.0
 30
0.0
 11
101.18055555555556
 21
350.0
 31
0.0
  0
LINE
  5
68
330
64
100
AcDbEntity
  8
0
 62
8
370
13
100
AcDbLine
 10
144.70833333333334
 20
270.0
 30
0.0
 11
101.18055555555556
 21
270.0
 31
0.0
  0
INSERT
  5
69
330
64
100
AcDbEntity
  8
COTAS
 62
8
100
AcDbBlockReference
  2
_OBLIQUE
 10
110.0
 20
350.0
 30
0.0
 41
21.886333333333333
 42
21.886333333333333
 50
-90.0
  0
INSERT
  5
6B
330
64
100
AcDbEntity
  8
COTAS
 62
8
100
AcDbBlockReference
  2
_OBLIQUE
 10
110.0
 20
270.0
 30
0.0
 41
21.886333333333333
 42
21.886333333333333
 50
-90.0
  0
LINE
  5
6D
330
64
100
AcDbEntity
  8
0
 62
8
370
15
100
AcDbLine
 10
110.0
 20
350.0
 30
0.0
 11
110.0
 21
270.0
 31
0.0
  0
MTEXT
  5
6E
330
64
100
AcDbEntity
  8
COTAS
 62
250
100
AcDbMText
 10
125.144
 20
310.0
 30
0.0
 40
18.288
 71
5
  1
80
  7
ESTANDAR
 50
-90.0
  0
POINT
  5
6F
330
64
100
AcDbEntity
  8
Defpoints
100
AcDbPoint
 10
110.0
 20
350.0
 30
0.0
  0
POINT
  5
70
330
64
100
AcDbEntity
  8
Defpoints
100
AcDbPoint
 10
150.0
 20
350.0
 30
0.0
  0
POINT
  5
71
330
64
100
AcDbEntity
  8
Defpoints
100
AcDbPoint
 10
150.0
 20
270.0
 30
0.0
  0
ENDBLK
  5
66
330
64
100
AcDbEntity
  8
0
100
AcDbBlockEnd
  0
BLOCK
  5
74
330
73
100
AcDbEntity
  8
0
100
AcDbBlockBegin
  2
*D3
 70
1
 10
0.0
 20
0.0
 30
0.0
  3
*D3
  1

  0
LINE
  5
76
330
73
100
AcDbEntity
  8
0
 62
8
370
13
100
AcDbLine
 10
-150.0
 20
-5.291666666666666
 30
0.0
 11
-150.0
 21
-108.81944444444444
 31
0.0
  0
LINE
  5
77
330
73
100
AcDbEntity
  8
0
 62
8
370
13
100
AcDbLine
 10
150.0
 20
-5.291666666666666
 30
0.0
 11
150.0
 21
-108.81944444444444
 31
0.0
  0
INSERT
  5
78
330
73
100
AcDbEntity
  8
COTAS
 62
8
100
AcDbBlockReference
  2
_OBLIQUE
 10
-150.0
 20
-100.0
 30
0.0
 41
21.886333333333333
 42
21.886333333333333
  0
INSERT
  5
7A
330
73
100
AcDbEntity
  8
COTAS
 62
8
100
AcDbBlockReference
  2
_OBLIQUE
 10
150.0
 20
-100.0
 30
0.0
 41
21.886333333333333
 42
21.886333333333333
  0
LINE
  5
7C
330
73
100
AcDbEntity
  8
0
 62
8
370
15
100
AcDbLine
 10
-150.0
 20
-100.0
 30
0.0
 11
150.0
 21
-100.0
 31
0.0
  0
MTEXT
  5
7D
330
73
100
AcDbEntity
  8
COTAS
 62
250
100
AcDbMText
 10
0.0
 20
-84.856
 30
0.0
 40
18.288
 71
5
  1
300
  7
ESTANDAR
  0
POINT
  5
7E
330
73
100
AcDbEntity
  8
Defpoints
100
AcDbPoint
 10
-150.0
 20
-100.0
 30
0.0
  0
POINT
  5
7F
330
73
100
AcDbEntity
  8
Defpoints
100
AcDbPoint
 10
-150.0
 20
0.0
 30
0.0
  0
POINT
  5
80
330
73
100
AcDbEntity
  8
Defpoints
100
AcDbPoint
 10
150.0
 20
0.0
 30
0.0
  0
ENDBLK
  5
75
330
73
100
AcDbEntity
  8
0
100
AcDbBlockEnd
  0
BLOCK
  5
83
330
82
100
AcDbEntity
  8
0
100
AcDbBlockBegin
  2
*D4
 70
1
 10
0.0
 20
0.0
 30
0.0
  3
*D4
  1

  0
LINE
  5
85
330
82
100
AcDbEntity
  8
0
 62
8
370
13
100
AcDbLine
 10
-155.29166666666666
 20
0.0
 30
0.0
 11
-218.81944444444446
 21
0.0
 31
0.0
  0
LINE
  5
86
330
82
100
AcDbEntity
  8
0
 62
8
370
13
100
AcDbLine
 10
-155.29166666666666
 20
350.0
 30
0.0
 11
-218.81944444444446
 21
350.0
 31
0.0
  0
INSERT
  5
87
330
82
100
AcDbEntity
  8
COTAS
 62
8
100
AcDbBlockReference
  2
_OBLIQUE
 10
-210.0
 20
0.0
 30
0.0
 41
21.886333333333333
 42
21.886333333333333
 50
90.0
  0
INSERT
  5
89
330
82
100
AcDbEntity
  8
COTAS
 62
8
100
AcDbBlockReference
  2
_OBLIQUE
 10
-210.0
 20
350.0
 30
0.0
 41
21.886333333333333
 42
21.886333333333333
 50
90.0
  0
LINE
  5
8B
330
82
100
AcDbEntity
  8
0
 62
8
370
15
100
AcDbLine
 10
-210.0
 20
0.0
 30
0.0
 11
-210.0
 21
350.0
 31
0.0
  0
MTEXT
  5
8C
330
82
100
AcDbEntity
  8
COTAS
 62
250
100
AcDbMText
 10
-225.144
 20
175.0
 30
0.0
 40
18.288
 71
5
  1
350
  7
ESTANDAR
 50
90.0
  0
POINT
  5
8D
330
82
100
AcDbEntity
  8
Defpoints
100
AcDbPoint
 10
-210.0
 20
0.0
 30
0.0
  0
POINT
  5
8E
330
82
100
AcDbEntity
  8
Defpoints
100
AcDbPoint
 10
-150.0
 20
0.0
 30
0.0
  0
POINT
  5
8F
330
82
100
AcDbEntity
  8
Defpoints
100
AcDbPoint
 10
-150.0
 20
350.0
 30
0.0
  0
ENDBLK
  5
84
330
82
100
AcDbEntity
  8
0
100
AcDbBlockEnd
  0
ENDSEC
  0
SECTION
  2
ENTITIES
  0
HATCH
  5
33
330
17
100
AcDbEntity
  8
G-r_conc
 62
7
420
16118767
100
AcDbHatch
 10
0.0
 20
0.0
 30
0.0
210
0.0
220
0.0
230
1.0
  2
SOLID
 70
1
 71
0
 91
1
 92
3
 72
0
 73
1
 93
4
 10
-150.0
 20
0.0
 10
150.0
 20
0.0
 10
150.0
 20
350.0
 10
-150.0
 20
350.0
 97
0
 75
0
 76
1
 98
0
  0
LWPOLYLINE
  5
34
330
17
100
AcDbEntity
  8
G-r_conc
100
AcDbPolyline
 90
4
 70
1
 10
-150.0
 20
0.0
 10
150.0
 20
0.0
 10
150.0
 20
350.0
 10
-150.0
 20
350.0
  0
HATCH
  5
36
330
17
100
AcDbEntity
  8
G-r_tieS
 62
7
420
9460135
100
AcDbHatch
 10
0.0
 20
0.0
 30
0.0
210
0.0
220
0.0
230
1.0
  2
SOLID
 70
1
 71
0
 91
1
 92
3
 72
0
 73
1
 93
114
 10
-44.10912703473989
 20
259.0380592228744
 10
-84.19086686877233
 20
299.11979905690686
 10
-84.36786979013873
 20
299.2782844079775
 10
-84.552620295948
 20
299.423929963015
 10
-84.7482284961502
 20
299.5546311837919
 10
-84.95348840114487
 20
299.6695822538198
 10
-85.16713451536178
 20
299.7680744615266
 10
-85.3878496394623
 20
299.8495005697
 10
-85.61427299131103
 20
299.9133585593061
 10
-85.84500859565073
 20
299.9592547246041
 10
-86.07863389075278
 20
299.9869061004728
 10
-86.32461459861942
 20
299.9965707088067
 10
-96.95874719559664
 20
300.0
 10
-97.4668847630434
 20
299.9477943798439
 10
-97.92227327371904
 20
299.8384652713016
 10
-98.35495235554612
 20
299.6592437274537
 10
-98.75426801355056
 20
299.41454277751194
 10
-99.11038777097968
 20
299.1103877709798
 10
-99.41454277751191
 20
298.75426801355053
 10
-99.65924372745371
 20
298.354952355546
 10
-99.8384652713016
 20
297.922273273719
 10
-99.94779437984396
 20
297.46688476304337
 10
-99.98469752472728
 20
296.9979858487471
 10
-100.0
 20
53.00200800576122
 10
-99.94779437984396
 20
52.5331152369566
 10
-99.83846527130162
 20
52.07772672628103
 10
-99.65924372745368
 20
51.64504764445391
 10
-99.41454277751191
 20
51.24573198644941
 10
-99.11038777097976
 20
50.889612229020265
 10
-98.7542680135506
 20
50.58545722248809
 10
-98.35495235554608
 20
50.34075627254631
 10
-97.92227327371899
 20
50.16153472869839
 10
-97.46688476304341
 20
50.05220562015605
 10
-96.99747008534868
 20
50.01526188381295
 10
96.99747778410187
 20
50.0
 10
97.4668847630434
 20
50.052205620156045
 10
97.92227327371897
 20
50.161534728698385
 10
98.35495235554609
 20
50.340756272546315
 10
98.7542680135506
 20
50.58545722248809
 10
99.11038777097974
 20
50.88961222902025
 10
99.4145427775119
 20
51.24573198644941
 10
99.6592437274537
 20
51.64504764445393
 10
99.83846527130162
 20
52.07772672628103
 10
99.94779437984396
 20
52.5331152369566
 10
99.98469752472728
 20
53.00201415125292
 10
100.0
 20
296.99799199423876
 10
99.94779437984396
 20
297.46688476304337
 10
99.83846527130162
 20
297.922273273719
 10
99.65924372745371
 20
298.354952355546
 10
99.41454277751191
 20
298.75426801355053
 10
99.11038777097968
 20
299.1103877709798
 10
98.75426801355056
 20
299.41454277751194
 10
98.35495235554612
 20
299.6592437274537
 10
97.92227327371904
 20
299.8384652713016
 10
97.4668847630434
 20
299.9477943798439
 10
96.99497259246277
 20
299.98493467313995
 10
0.0
 20
300.0
 10
0.0
 20
310.0
 10
97.00502740753723
 20
310.01506532686005
 10
99.0360666776003
 20
309.85521906967824
 10
101.0219986362801
 20
309.3784389894209
 10
102.90889564028663
 20
308.5968606595602
 10
104.65029602312902
 20
307.52972913248726
 10
106.20332072800508
 20
306.20332072800494
 10
107.52972913248723
 20
304.650296023129
 10
108.59686065956018
 20
302.90889564028674
 10
109.37843898942084
 20
301.0219986362802
 10
109.85521906967826
 20
299.0360666776003
 10
110.0
 20
297.00200800576124
 10
110.01530247527272
 20
52.99798584874708
 10
109.85521906967826
 20
50.963933322399704
 10
109.37843898942084
 20
48.97800136371981
 10
108.59686065956019
 20
47.09110435971332
 10
107.52972913248725
 20
45.34970397687102
 10
106.20332072800502
 20
43.79667927199498
 10
104.65029602312897
 20
42.47027086751275
 10
102.90889564028666
 20
41.40313934043979
 10
101.02199863628017
 20
40.62156101057916
 10
99.0360666776003
 20
40.144780930321744
 10
97.00252221589813
 20
40.0
 10
-97.00252991465132
 20
39.98473811618705
 10
-99.03606667760029
 20
40.14478093032175
 10
-101.02199863628019
 20
40.62156101057915
 10
-102.90889564028667
 20
41.4031393404398
 10
-104.65029602312897
 20
42.47027086751275
 10
-106.20332072800501
 20
43.79667927199497
 10
-107.52972913248726
 20
45.34970397687102
 10
-108.5968606595602
 20
47.09110435971334
 10
-109.37843898942084
 20
48.97800136371981
 10
-109.85521906967826
 20
50.963933322399704
 10
-110.0
 20
52.99799199423878
 10
-110.01530247527272
 20
297.0020141512529
 10
-109.85521906967826
 20
299.0360666776003
 10
-109.37843898942086
 20
301.0219986362802
 10
-108.59686065956018
 20
302.90889564028674
 10
-107.52972913248723
 20
304.650296023129
 10
-106.20332072800508
 20
306.20332072800494
 10
-104.65029602312902
 20
307.52972913248726
 10
-102.90889564028663
 20
308.5968606595602
 10
-101.0219986362801
 20
309.3784389894209
 10
-99.0360666776003
 20
309.85521906967824
 10
-97.04125280440336
 20
310.0
 10
-86.30280239935011
 20
310.0034292911933
 10
-85.29343757557122
 20
309.96377123925726
 10
-84.27945696167511
 20
309.8437587249181
 10
-83.27801818496403
 20
309.6445601670567
 10
-82.29529544850806
 20
309.36740369102245
 10
-81.33734756476632
 20
309.01399805865395
 10
-80.41008060099192
 20
308.58652213319414
 10
-79.51921146636414
 20
308.08761144587356
 10
-78.67023266534196
 20
307.5203419469842
 10
-77.86837843454786
 20
306.888211041623
 10
-77.12284163021243
 20
306.1939094420779
 10
-37.038059222874416
 20
266.1091270347399
 97
0
 75
0
 76
1
 98
0
  0
LWPOLYLINE
  5
37
330
17
100
AcDbEntity
  8
G-r_tieS
100
AcDbPolyline
 90
114
 70
1
 10
-44.10912703473989
 20
259.0380592228744
 10
-84.19086686877233
 20
299.11979905690686
 10
-84.36786979013873
 20
299.2782844079775
 10
-84.552620295948
 20
299.423929963015
 10
-84.7482284961502
 20
299.5546311837919
 10
-84.95348840114487
 20
299.6695822538198
 10
-85.16713451536178
 20
299.7680744615266
 10
-85.3878496394623
 20
299.8495005697
 10
-85.61427299131103
 20
299.9133585593061
 10
-85.84500859565073
 20
299.9592547246041
 10
-86.07863389075278
 20
299.9869061004728
 10
-86.32461459861942
 20
299.9965707088067
 10
-96.95874719559664
 20
300.0
 10
-97.4668847630434
 20
299.9477943798439
 10
-97.92227327371904
 20
299.8384652713016
 10
-98.35495235554612
 20
299.6592437274537
 10
-98.75426801355056
 20
299.41454277751194
 10
-99.11038777097968
 20
299.1103877709798
 10
-99.41454277751191
 20
298.75426801355053
 10
-99.65924372745371
 20
298.354952355546
 10
-99.8384652713016
 20
297.922273273719
 10
-99.94779437984396
 20
297.46688476304337
 10
-99.98469752472728
 20
296.9979858487471
 10
-100.0
 20
53.00200800576122
 10
-99.94779437984396
 20
52.5331152369566
 10
-99.83846527130162
 20
52.07772672628103
 10
-99.65924372745368
 20
51.64504764445391
 10
-99.41454277751191
 20
51.24573198644941
 10
-99.11038777097976
 20
50.889612229020265
 10
-98.7542680135506
 20
50.58545722248809
 10
-98.35495235554608
 20
50.34075627254631
 10
-97.92227327371899
 20
50.16153472869839
 10
-97.46688476304341
 20
50.05220562015605
 10
-96.99747008534868
 20
50.01526188381295
 10
96.99747778410187
 20
50.0
 10
97.4668847630434
 20
50.052205620156045
 10
97.92227327371897
 20
50.161534728698385
 10
98.35495235554609
 20
50.340756272546315
 10
98.7542680135506
 20
50.58545722248809
 10
99.11038777097974
 20
50.88961222902025
 10
99.4145427775119
 20
51.24573198644941
 10
99.6592437274537
 20
51.64504764445393
 10
99.83846527130162
 20
52.07772672628103
 10
99.94779437984396
 20
52.5331152369566
 10
99.98469752472728
 20
53.00201415125292
 10
100.0
 20
296.99799199423876
 10
99.94779437984396
 20
297.46688476304337
 10
99.83846527130162
 20
297.922273273719
 10
99.65924372745371
 20
298.354952355546
 10
99.41454277751191
 20
298.75426801355053
 10
99.11038777097968
 20
299.1103877709798
 10
98.75426801355056
 20
299.41454277751194
 10
98.35495235554612
 20
299.6592437274537
 10
97.92227327371904
 20
299.8384652713016
 10
97.4668847630434
 20
299.9477943798439
 10
96.99497259246277
 20
299.98493467313995
 10
0.0
 20
300.0
 10
0.0
 20
310.0
 10
97.00502740753723
 20
310.01506532686005
 10
99.0360666776003
 20
309.85521906967824
 10
101.0219986362801
 20
309.3784389894209
 10
102.90889564028663
 20
308.5968606595602
 10
104.65029602312902
 20
307.52972913248726
 10
106.20332072800508
 20
306.20332072800494
 10
107.52972913248723
 20
304.650296023129
 10
108.59686065956018
 20
302.90889564028674
 10
109.37843898942084
 20
301.0219986362802
 10
109.85521906967826
 20
299.0360666776003
 10
110.0
 20
297.00200800576124
 10
110.01530247527272
 20
52.99798584874708
 10
109.85521906967826
 20
50.963933322399704
 10
109.37843898942084
 20
48.97800136371981
 10
108.59686065956019
 20
47.09110435971332
 10
107.52972913248725
 20
45.34970397687102
 10
106.20332072800502
 20
43.79667927199498
 10
104.65029602312897
 20
42.47027086751275
 10
102.90889564028666
 20
41.40313934043979
 10
101.02199863628017
 20
40.62156101057916
 10
99.0360666776003
 20
40.144780930321744
 10
97.00252221589813
 20
40.0
 10
-97.00252991465132
 20
39.98473811618705
 10
-99.03606667760029
 20
40.14478093032175
 10
-101.02199863628019
 20
40.62156101057915
 10
-102.90889564028667
 20
41.4031393404398
 10
-104.65029602312897
 20
42.47027086751275
 10
-106.20332072800501
 20
43.79667927199497
 10
-107.52972913248726
 20
45.34970397687102
 10
-108.5968606595602
 20
47.09110435971334
 10
-109.37843898942084
 20
48.97800136371981
 10
-109.85521906967826
 20
50.963933322399704
 10
-110.0
 20
52.99799199423878
 10
-110.01530247527272
 20
297.0020141512529
 10
-109.85521906967826
 20
299.0360666776003
 10
-109.37843898942086
 20
301.0219986362802
 10
-108.59686065956018
 20
302.90889564028674
 10
-107.52972913248723
 20
304.650296023129
 10
-106.20332072800508
 20
306.20332072800494
 10
-104.65029602312902
 20
307.52972913248726
 10
-102.90889564028663
 20
308.5968606595602
 10
-101.0219986362801
 20
309.3784389894209
 10
-99.0360666776003
 20
309.85521906967824
 10
-97.04125280440336
 20
310.0
 10
-86.30280239935011
 20
310.0034292911933
 10
-85.29343757557122
 20
309.96377123925726
 10
-84.27945696167511
 20
309.8437587249181
 10
-83.27801818496403
 20
309.6445601670567
 10
-82.29529544850806
 20
309.36740369102245
 10
-81.33734756476632
 20
309.01399805865395
 10
-80.41008060099192
 20
308.58652213319414
 10
-79.51921146636414
 20
308.08761144587356
 10
-78.67023266534196
 20
307.5203419469842
 10
-77.86837843454786
 20
306.888211041623
 10
-77.12284163021243
 20
306.1939094420779
 10
-37.038059222874416
 20
266.1091270347399
  0
HATCH
  5
38
330
17
100
AcDbEntity
  8
G-r_tieS
 62
7
420
9460135
100
AcDbHatch
 10
0.0
 20
0.0
 30
0.0
210
0.0
220
0.0
230
1.0
  2
SOLID
 70
1
 71
0
 91
1
 92
3
 72
0
 73
1
 93
48
 10
0.0
 20
300.0
 10
-96.99498769486581
 20
300.0
 10
-97.4668847630434
 20
299.9477943798439
 10
-97.92227327371904
 20
299.8384652713016
 10
-98.35495235554612
 20
299.6592437274537
 10
-98.75426801355056
 20
299.41454277751194
 10
-99.11038777097968
 20
299.1103877709798
 10
-99.41454277751191
 20
298.75426801355053
 10
-99.65924372745371
 20
298.354952355546
 10
-99.8384652713016
 20
297.922273273719
 10
-99.94779437984396
 20
297.46688476304337
 10
-99.98779359972495
 20
296.95864648594807
 10
-100.0
 20
286.32460712370784
 10
-99.98690610047278
 20
286.07863389075266
 10
-99.95925472460408
 20
285.8450085956506
 10
-99.91335855930612
 20
285.61427299131105
 10
-99.84950056970004
 20
285.38784963946233
 10
-99.76807446152665
 20
285.1671345153618
 10
-99.6695822538198
 20
284.9534884011449
 10
-99.55463118379195
 20
284.74822849615026
 10
-99.42392996301487
 20
284.55262029594786
 10
-99.27828440797744
 20
284.3678697901386
 10
-99.11712985390328
 20
284.19353377572867
 10
-59.038059222874416
 20
244.10912703473988
 10
-66.10912703473988
 20
237.0380592228744
 10
-106.19657864508149
 20
277.12017472325607
 10
-106.88821104162308
 20
277.8683784345479
 10
-107.5203419469843
 20
278.6702326653421
 10
-108.08761144587352
 20
279.5192114663641
 10
-108.5865221331941
 20
280.4100806009918
 10
-109.01399805865393
 20
281.3373475647662
 10
-109.36740369102242
 20
282.29529544850794
 10
-109.64456016705671
 20
283.2780181849639
 10
-109.84375872491813
 20
284.27945696167524
 10
-109.96377123925727
 20
285.2934375755713
 10
-110.0
 20
286.30280987426164
 10
-110.01220640027505
 20
297.04135351405193
 10
-109.85521906967826
 20
299.0360666776003
 10
-109.37843898942086
 20
301.0219986362802
 10
-108.59686065956018
 20
302.90889564028674
 10
-107.52972913248723
 20
304.650296023129
 10
-106.20332072800508
 20
306.20332072800494
 10
-104.65029602312902
 20
307.52972913248726
 10
-102.90889564028663
 20
308.5968606595602
 10
-101.0219986362801
 20
309.3784389894209
 10
-99.0360666776003
 20
309.85521906967824
 10
-97.00501230513419
 20
310.0
 10
0.0
 20
310.0
 97
0
 75
0
 76
1
 98
0
  0
LWPOLYLINE
  5
39
330
17
100
AcDbEntity
  8
G-r_tieS
100
AcDbPolyline
 90
48
 70
1
 10
0.0
 20
300.0
 10
-96.99498769486581
 20
300.0
 10
-97.4668847630434
 20
299.9477943798439
 10
-97.92227327371904
 20
299.8384652713016
 10
-98.35495235554612
 20
299.6592437274537
 10
-98.75426801355056
 20
299.41454277751194
 10
-99.11038777097968
 20
299.1103877709798
 10
-99.41454277751191
 20
298.75426801355053
 10
-99.65924372745371
 20
298.354952355546
 10
-99.8384652713016
 20
297.922273273719
 10
-99.94779437984396
 20
297.46688476304337
 10
-99.98779359972495
 20
296.95864648594807
 10
-100.0
 20
286.32460712370784
 10
-99.98690610047278
 20
286.07863389075266
 10
-99.95925472460408
 20
285.8450085956506
 10
-99.91335855930612
 20
285.61427299131105
 10
-99.84950056970004
 20
285.38784963946233
 10
-99.76807446152665
 20
285.1671345153618
 10
-99.6695822538198
 20
284.9534884011449
 10
-99.55463118379195
 20
284.74822849615026
 10
-99.42392996301487
 20
284.55262029594786
 10
-99.27828440797744
 20
284.3678697901386
 10
-99.11712985390328
 20
284.19353377572867
 10
-59.038059222874416
 20
244.10912703473988
 10
-66.10912703473988
 20
237.0380592228744
 10
-106.19657864508149
 20
277.12017472325607
 10
-106.88821104162308
 20
277.8683784345479
 10
-107.5203419469843
 20
278.6702326653421
 10
-108.08761144587352
 20
279.5192114663641
 10
-108.5865221331941
 20
280.4100806009918
 10
-109.01399805865393
 20
281.3373475647662
 10
-109.36740369102242
 20
282.29529544850794
 10
-109.64456016705671
 20
283.2780181849639
 10
-109.84375872491813
 20
284.27945696167524
 10
-109.96377123925727
 20
285.2934375755713
 10
-110.0
 20
286.30280987426164
 10
-110.01220640027505
 20
297.04135351405193
 10
-109.85521906967826
 20
299.0360666776003
 10
-109.37843898942086
 20
301.0219986362802
 10
-108.59686065956018
 20
302.90889564028674
 10
-107.52972913248723
 20
304.650296023129
 10
-106.20332072800508
 20
306.20332072800494
 10
-104.65029602312902
 20
307.52972913248726
 10
-102.90889564028663
 20
308.5968606595602
 10
-101.0219986362801
 20
309.3784389894209
 10
-99.0360666776003
 20
309.85521906967824
 10
-97.00501230513419
 20
310.0
 10
0.0
 20
310.0
  0
HATCH
  5
3B
330
17
100
AcDbEntity
  8
G-r_bm1
 62
7
420
1725046
100
AcDbHatch
 10
0.0
 20
0.0
 30
0.0
210
0.0
220
0.0
230
1.0
  2
SOLID
 70
1
 71
0
 91
1
 92
1
 93
1
 72
2
 10
-94.0
 20
294.0
 40
6
 50
0
 51
360
 73
1
 97
0
 75
0
 76
1
 98
0
  0
CIRCLE
  5
3C
330
17
100
AcDbEntity
  8
G-r_bm1
100
AcDbCircle
 10
-94.0
 20
294.0
 30
0.0
 40
6.0
  0
HATCH
  5
3D
330
17
100
AcDbEntity
  8
G-r_bm1
 62
7
420
1725046
100
AcDbHatch
 10
0.0
 20
0.0
 30
0.0
210
0.0
220
0.0
230
1.0
  2
SOLID
 70
1
 71
0
 91
1
 92
1
 93
1
 72
2
 10
-94.0
 20
56.0
 40
6
 50
0
 51
360
 73
1
 97
0
 75
0
 76
1
 98
0
  0
CIRCLE
  5
3E
330
17
100
AcDbEntity
  8
G-r_bm1
100
AcDbCircle
 10
-94.0
 20
56.0
 30
0.0
 40
6.0
  0
HATCH
  5
3F
330
17
100
AcDbEntity
  8
G-r_bm1
 62
7
420
1725046
100
AcDbHatch
 10
0.0
 20
0.0
 30
0.0
210
0.0
220
0.0
230
1.0
  2
SOLID
 70
1
 71
0
 91
1
 92
1
 93
1
 72
2
 10
0.0
 20
294.0
 40
6
 50
0
 51
360
 73
1
 97
0
 75
0
 76
1
 98
0
  0
CIRCLE
  5
40
330
17
100
AcDbEntity
  8
G-r_bm1
100
AcDbCircle
 10
0.0
 20
294.0
 30
0.0
 40
6.0
  0
HATCH
  5
41
330
17
100
AcDbEntity
  8
G-r_bm1
 62
7
420
1725046
100
AcDbHatch
 10
0.0
 20
0.0
 30
0.0
210
0.0
220
0.0
230
1.0
  2
SOLID
 70
1
 71
0
 91
1
 92
1
 93
1
 72
2
 10
0.0
 20
56.0
 40
6
 50
0
 51
360
 73
1
 97
0
 75
0
 76
1
 98
0
  0
CIRCLE
  5
42
330
17
100
AcDbEntity
  8
G-r_bm1
100
AcDbCircle
 10
0.0
 20
56.0
 30
0.0
 40
6.0
  0
HATCH
  5
43
330
17
100
AcDbEntity
  8
G-r_bm1
 62
7
420
1725046
100
AcDbHatch
 10
0.0
 20
0.0
 30
0.0
210
0.0
220
0.0
230
1.0
  2
SOLID
 70
1
 71
0
 91
1
 92
1
 93
1
 72
2
 10
94.0
 20
294.0
 40
6
 50
0
 51
360
 73
1
 97
0
 75
0
 76
1
 98
0
  0
CIRCLE
  5
44
330
17
100
AcDbEntity
  8
G-r_bm1
100
AcDbCircle
 10
94.0
 20
294.0
 30
0.0
 40
6.0
  0
HATCH
  5
45
330
17
100
AcDbEntity
  8
G-r_bm1
 62
7
420
1725046
100
AcDbHatch
 10
0.0
 20
0.0
 30
0.0
210
0.0
220
0.0
230
1.0
  2
SOLID
 70
1
 71
0
 91
1
 92
1
 93
1
 72
2
 10
94.0
 20
56.0
 40
6
 50
0
 51
360
 73
1
 97
0
 75
0
 76
1
 98
0
  0
CIRCLE
  5
46
330
17
100
AcDbEntity
  8
G-r_bm1
100
AcDbCircle
 10
94.0
 20
56.0
 30
0.0
 40
6.0
  0
HATCH
  5
48
330
17
100
AcDbEntity
  8
G-r_bas
 62
7
420
15105570
100
AcDbHatch
 10
0.0
 20
0.0
 30
0.0
210
0.0
220
0.0
230
1.0
  2
SOLID
 70
1
 71
0
 91
1
 92
1
 93
1
 72
2
 10
-94.0
 20
270.0
 40
6
 50
0
 51
360
 73
1
 97
0
 75
0
 76
1
 98
0
  0
CIRCLE
  5
49
330
17
100
AcDbEntity
  8
G-r_bas
100
AcDbCircle
 10
-94.0
 20
270.0
 30
0.0
 40
6.0
  0
HATCH
  5
4A
330
17
100
AcDbEntity
  8
G-r_bas
 62
7
420
15105570
100
AcDbHatch
 10
0.0
 20
0.0
 30
0.0
210
0.0
220
0.0
230
1.0
  2
SOLID
 70
1
 71
0
 91
1
 92
1
 93
1
 72
2
 10
94.0
 20
270.0
 40
6
 50
0
 51
360
 73
1
 97
0
 75
0
 76
1
 98
0
  0
CIRCLE
  5
4B
330
17
100
AcDbEntity
  8
G-r_bas
100
AcDbCircle
 10
94.0
 20
270.0
 30
0.0
 40
6.0
  0
TEXT
  5
4D
330
17
100
AcDbEntity
  8
T-bsm
 62
156
420
929604
100
AcDbText
 10
0.0
 20
380.0
 30
0.0
 40
22.86
  1
3Ø12 + 2 bastones Ø12
  7
NEGRITA
 41
0.885
 72
1
 11
0.0
 21
380.0
 31
0.0
100
AcDbText
  0
TEXT
  5
4E
330
17
100
AcDbEntity
  8
T-bsm
 62
156
420
929604
100
AcDbText
 10
0.0
 20
-60.0
 30
0.0
 40
22.86
  1
3Ø12
  7
NEGRITA
 41
0.885
 72
1
 11
0.0
 21
-60.0
 31
0.0
100
AcDbText
  0
DIMENSION
  5
50
330
17
100
AcDbEntity
  8
COTAS
100
AcDbDimension
280
0
  2
*D1
  3
COTAS_1-10
 10
-94.0
 20
210.0
 30
0.0
 11
0.0
 21
225.144
 31
0.0
 70
32
 71
5
  1
<>
100
AcDbAlignedDimension
 13
-94.0
 23
270.0
 33
0.0
 14
94.0
 24
270.0
 34
0.0
 50
0.0
100
AcDbRotatedDimension
  0
DIMENSION
  5
63
330
17
100
AcDbEntity
  8
COTAS
100
AcDbDimension
280
0
  2
*D2
  3
COTAS_1-10
 10
110.0
 20
350.0
 30
0.0
 11
125.144
 21
310.0
 31
0.0
 70
32
 71
5
  1
<>
100
AcDbAlignedDimension
 13
150.0
 23
350.0
 33
0.0
 14
150.0
 24
270.0
 34
0.0
 50
-90.0
100
AcDbRotatedDimension
  0
DIMENSION
  5
72
330
17
100
AcDbEntity
  8
COTAS
100
AcDbDimension
280
0
  2
*D3
  3
COTAS_1-10
 10
-150.0
 20
-100.0
 30
0.0
 11
0.0
 21
-84.856
 31
0.0
 70
32
 71
5
  1
<>
100
AcDbAlignedDimension
 13
-150.0
 23
0.0
 33
0.0
 14
150.0
 24
0.0
 34
0.0
 50
0.0
100
AcDbRotatedDimension
  0
DIMENSION
  5
81
330
17
100
AcDbEntity
  8
COTAS
100
AcDbDimension
280
0
  2
*D4
  3
COTAS_1-10
 10
-210.0
 20
0.0
 30
0.0
 11
-225.144
 21
175.0
 31
0.0
 70
32
 71
5
  1
<>
100
AcDbAlignedDimension
 13
-150.0
 23
0.0
 33
0.0
 14
-150.0
 24
350.0
 34
0.0
 50
90.0
100
AcDbRotatedDimension
  0
ENDSEC
  0
SECTION
  2
OBJECTS
  0
DICTIONARY
  5
A
330
0
100
AcDbDictionary
281
1
  3
ACAD_COLOR
350
B
  3
ACAD_GROUP
350
C
  3
ACAD_LAYOUT
350
D
  3
ACAD_MATERIAL
350
E
  3
ACAD_MLEADERSTYLE
350
F
  3
ACAD_MLINESTYLE
350
10
  3
ACAD_PLOTSETTINGS
350
11
  3
ACAD_PLOTSTYLENAME
350
12
  3
ACAD_SCALELIST
350
14
  3
ACAD_TABLESTYLE
350
15
  3
ACAD_VISUALSTYLE
350
16
  3
EZDXF_META
350
2D
  0
DICTIONARY
  5
B
330
A
100
AcDbDictionary
281
1
  0
DICTIONARY
  5
C
330
A
100
AcDbDictionary
281
1
  0
DICTIONARY
  5
D
330
A
100
AcDbDictionary
281
1
  3
Model
350
1A
  3
Layout1
350
1E
  0
DICTIONARY
  5
E
330
A
100
AcDbDictionary
281
1
  3
ByBlock
350
1F
  3
ByLayer
350
20
  3
Global
350
21
  0
DICTIONARY
  5
F
330
A
100
AcDbDictionary
281
1
  3
Standard
350
2C
  0
DICTIONARY
  5
10
330
A
100
AcDbDictionary
281
1
  3
Standard
350
22
  0
DICTIONARY
  5
11
330
A
100
AcDbDictionary
281
1
  0
ACDBDICTIONARYWDFLT
  5
12
330
A
100
AcDbDictionary
281
1
  3
Normal
350
13
100
AcDbDictionaryWithDefault
340
13
  0
ACDBPLACEHOLDER
  5
13
330
12
  0
DICTIONARY
  5
14
330
A
100
AcDbDictionary
281
1
  0
DICTIONARY
  5
15
330
A
100
AcDbDictionary
281
1
  0
DICTIONARY
  5
16
330
A
100
AcDbDictionary
281
1
  0
LAYOUT
  5
1A
330
D
100
AcDbPlotSettings
  1

  4
A3
  6

 40
7.5
 41
20.0
 42
7.5
 43
20.0
 44
420.0
 45
297.0
 46
0.0
 47
0.0
 48
0.0
 49
0.0
140
0.0
141
0.0
142
1.0
143
1.0
 70
1024
 72
1
 73
0
 74
5
  7

 75
16
 76
0
 77
2
 78
300
147
1.0
148
0.0
149
0.0
100
AcDbLayout
  1
Model
 70
1
 71
0
 10
0.0
 20
0.0
 11
420.0
 21
297.0
 12
0.0
 22
0.0
 32
0.0
 14
1e+20
 24
1e+20
 34
1e+20
 15
-1e+20
 25
-1e+20
 35
-1e+20
146
0.0
 13
0.0
 23
0.0
 33
0.0
 16
1.0
 26
0.0
 36
0.0
 17
0.0
 27
1.0
 37
0.0
 76
1
330
17
  0
LAYOUT
  5
1E
330
D
100
AcDbPlotSettings
  1

  4
A3
  6

 40
7.5
 41
20.0
 42
7.5
 43
20.0
 44
420.0
 45
297.0
 46
0.0
 47
0.0
 48
0.0
 49
0.0
140
0.0
141
0.0
142
1.0
143
1.0
 70
0
 72
1
 73
0
 74
5
  7

 75
16
 76
0
 77
2
 78
300
147
1.0
148
0.0
149
0.0
100
AcDbLayout
  1
Layout1
 70
1
 71
1
 10
0.0
 20
0.0
 11
420.0
 21
297.0
 12
0.0
 22
0.0
 32
0.0
 14
1e+20
 24
1e+20
 34
1e+20
 15
-1e+20
 25
-1e+20
 35
-1e+20
146
0.0
 13
0.0
 23
0.0
 33
0.0
 16
1.0
 26
0.0
 36
0.0
 17
0.0
 27
1.0
 37
0.0
 76
1
330
1B
  0
MATERIAL
  5
1F
102
{ACAD_REACTORS
330
E
102
}
330
E
100
AcDbMaterial
  1
ByBlock
  2

 70
0
 40
1.0
 71
1
 41
1.0
 91
-1023410177
 42
1.0
 72
1
  3

 73
1
 74
1
 75
1
 44
0.5
 73
0
 45
1.0
 46
1.0
 77
1
  4

 78
1
 79
1
170
1
 48
1.0
171
1
  6

172
1
173
1
174
1
140
1.0
141
1.0
175
1
  7

176
1
177
1
178
1
143
1.0
179
1
  8

270
1
271
1
272
1
145
1.0
146
1.0
273
1
  9

274
1
275
1
276
1
 42
1.0
 72
1
  3

 73
1
 74
1
 75
1
 94
63
  0
MATERIAL
  5
20
102
{ACAD_REACTORS
330
E
102
}
330
E
100
AcDbMaterial
  1
ByLayer
  2

 70
0
 40
1.0
 71
1
 41
1.0
 91
-1023410177
 42
1.0
 72
1
  3

 73
1
 74
1
 75
1
 44
0.5
 73
0
 45
1.0
 46
1.0
 77
1
  4

 78
1
 79
1
170
1
 48
1.0
171
1
  6

172
1
173
1
174
1
140
1.0
141
1.0
175
1
  7

176
1
177
1
178
1
143
1.0
179
1
  8

270
1
271
1
272
1
145
1.0
146
1.0
273
1
  9

274
1
275
1
276
1
 42
1.0
 72
1
  3

 73
1
 74
1
 75
1
 94
63
  0
MATERIAL
  5
21
102
{ACAD_REACTORS
330
E
102
}
330
E
100
AcDbMaterial
  1
Global
  2

 70
0
 40
1.0
 71
1
 41
1.0
 91
-1023410177
 42
1.0
 72
1
  3

 73
1
 74
1
 75
1
 44
0.5
 73
0
 45
1.0
 46
1.0
 77
1
  4

 78
1
 79
1
170
1
 48
1.0
171
1
  6

172
1
173
1
174
1
140
1.0
141
1.0
175
1
  7

176
1
177
1
178
1
143
1.0
179
1
  8

270
1
271
1
272
1
145
1.0
146
1.0
273
1
  9

274
1
275
1
276
1
 42
1.0
 72
1
  3

 73
1
 74
1
 75
1
 94
63
  0
MLINESTYLE
  5
22
102
{ACAD_REACTORS
330
10
102
}
330
10
100
AcDbMlineStyle
  2
Standard
 70
0
  3

 62
256
 51
90.0
 52
90.0
 71
2
 49
0.5
 62
256
  6
BYLAYER
 49
-0.5
 62
256
  6
BYLAYER
  0
MLEADERSTYLE
  5
2C
102
{ACAD_REACTORS
330
F
102
}
330
F
100
AcDbMLeaderStyle
179
2
170
2
171
1
172
0
 90
2
 40
0.0
 41
0.0
173
1
 91
-1056964608
 92
-2
290
1
 42
2.0
291
1
 43
8.0
  3
Standard
 44
4.0
300

342
29
174
1
175
1
176
0
178
1
 93
-1056964608
 45
4.0
292
0
297
0
 46
4.0
 94
-1056964608
 47
1.0
 49
1.0
140
1.0
294
1
141
0.0
177
0
142
1.0
295
0
296
0
143
3.75
271
0
272
9
273
9
  0
DICTIONARY
  5
2D
330
A
100
AcDbDictionary
280
1
281
1
  3
CREATED_BY_EZDXF
350
2E
  3
WRITTEN_BY_EZDXF
350
92
  0
DICTIONARYVAR
  5
2E
330
2D
100
DictionaryVariables
280
0
  1
1.4.4 @ 2026-10-09T22:16:32.688941+00:00
  0
DICTIONARYVAR
  5
92
330
2D
100
DictionaryVariables
280
0
  1
1.4.4 @ 2026-10-09T22:16:32.695911+00:00
  0
ENDSEC
  0
EOF
