  0
SECTION
  2
HEADER
  9
$ACADVER
  1
AC1024
  9
$ACADMAINTVER
 70
6
  9
$DWGCODEPAGE
  3
ANSI_1252
  9
$LASTSAVEDBY
  1
ezdxf
  9
$INSBASE
 10
0.0
 20
0.0
 30
0.0
  9
$EXTMIN
 10
1e+20
 20
1e+20
 30
1e+20
  9
$EXTMAX
 10
-1e+20
 20
-1e+20
 30
-1e+20
  9
$LIMMIN
 10
0.0
 20
0.0
  9
$LIMMAX
 10
420.0
 20
297.0
  9
$ORTHOMODE
 70
0
  9
$REGENMODE
 70
1
  9
$FILLMODE
 70
1
  9
$QTEXTMODE
 70
0
  9
$MIRRTEXT
 70
1
  9
$LTSCALE
 40
10.0
  9
$ATTMODE
 70
1
  9
$TEXTSIZE
 40
2.5
  9
$TRACEWID
 40
1.0
  9
$TEXTSTYLE
  7
Standard
  9
$CLAYER
  8
0
  9
$CELTYPE
  6
ByLayer
  9
$CECOLOR
 62
256
  9
$CELTSCALE
 40
1.0
  9
$DISPSILH
 70
0
  9
$DIMSCALE
 40
10.0
  9
$DIMASZ
 40
2.5
  9
$DIMEXO
 40
0.5291666666666666
  9
$DIMDLI
 40
3.75
  9
$DIMRND
 40
0.0
  9
$DIMDLE
 40
0.0
  9
$DIMEXE
 40
0.8819444444444444
  9
$DIMTP
 40
0.0
  9
$DIMTM
 40
0.0
  9
$DIMTXT
 40
1.8288
  9
$DIMCEN
 40
2.5
  9
$DIMTSZ
 40
1.0943166666666666
  9
$DIMTOL
 70
0
  9
$DIMLIM
 70
0
  9
$DIMTIH
 70
0
  9
$DIMTOH
 70
0
  9
$DIMSE1
 70
0
  9
$DIMSE2
 70
0
  9
$DIMTAD
 70
1
  9
$DIMZIN
 70
8
  9
$DIMBLK
  1

  9
$DIMASO
 70
1
  9
$DIMSHO
 70
1
  9
$DIMPOST
  1

  9
$DIMAPOST
  1

  9
$DIMALT
 70
0
  9
$DIMALTD
 70
3
  9
$DIMALTF
 40
0.03937007874
  9
$DIMLFAC
 40
1.0
  9
$DIMTOFL
 70
1
  9
$DIMTVP
 40
0.0
  9
$DIMTIX
 70
0
  9
$DIMSOXD
 70
0
  9
$DIMSAH
 70
0
  9
$DIMBLK1
  1

  9
$DIMBLK2
  1

  9
$DIMSTYLE
  2
COTAS_1-10
  9
$DIMCLRD
 70
0
  9
$DIMCLRE
 70
0
  9
$DIMCLRT
 70
0
  9
$DIMTFAC
 40
1.0
  9
$DIMGAP
 40
0.6
  9
$DIMJUST
 70
0
  9
$DIMSD1
 70
0
  9
$DIMSD2
 70
0
  9
$DIMTOLJ
 70
0
  9
$DIMTZIN
 70
8
  9
$DIMALTZ
 70
0
  9
$DIMALTTZ
 70
0
  9
$DIMUPT
 70
0
  9
$DIMDEC
 70
0
  9
$DIMTDEC
 70
2
  9
$DIMALTU
 70
2
  9
$DIMALTTD
 70
3
  9
$DIMTXSTY
  7
Standard
  9
$DIMAUNIT
 70
0
  9
$DIMADEC
 70
0
  9
$DIMALTRND
 40
0.0
  9
$DIMAZIN
 70
0
  9
$DIMDSEP
 70
44
  9
$DIMATFIT
 70
3
  9
$DIMFRAC
 70
0
  9
$DIMLDRBLK
  1

  9
$DIMLUNIT
 70
2
  9
$DIMLWD
 70
-2
  9
$DIMLWE
 70
-2
  9
$DIMTMOVE
 70
0
  9
$DIMFXL
 40
1.0
  9
$DIMFXLON
 70
0
  9
$DIMJOGANG
 40
0.785398163397
  9
$DIMTFILL
 70
0
  9
$DIMTFILLCLR
 70
0
  9
$DIMARCSYM
 70
0
  9
$DIMLTYPE
  6

  9
$DIMLTEX1
  6

  9
$DIMLTEX2
  6

  9
$DIMTXTDIRECTION
 70
0
  9
$LUNITS
 70
2
  9
$LUPREC
 70
4
  9
$SKETCHINC
 40
1.0
  9
$FILLETRAD
 40
10.0
  9
$AUNITS
 70
0
  9
$AUPREC
 70
2
  9
$MENU
  1
.
  9
$ELEVATION
 40
0.0
  9
$PELEVATION
 40
0.0
  9
$THICKNESS
 40
0.0
  9
$LIMCHECK
 70
0
  9
$CHAMFERA
 40
0.0
  9
$CHAMFERB
 40
0.0
  9
$CHAMFERC
 40
0.0
  9
$CHAMFERD
 40
0.0
  9
$SKPOLY
 70
0
  9
$TDCREATE
 40
2461323.928148148
  9
$TDUCREATE
 40
2458532.153996898
  9
$TDUPDATE
 40
2461323.928148148
  9
$TDUUPDATE
 40
2458532.1544311
  9
$TDINDWG
 40
0.0
  9
$TDUSRTIMER
 40
0.0
  9
$USRTIMER
 70
1
  9
$ANGBASE
 50
0.0
  9
$ANGDIR
 70
0
  9
$PDMODE
 70
0
  9
$PDSIZE
 40
0.0
  9
$PLINEWID
 40
0.0
  9
$SPLFRAME
 70
0
  9
$SPLINETYPE
 70
6
  9
$SPLINESEGS
 70
8
  9
$HANDSEED
  5
136
  9
$SURFTAB1
 70
6
  9
$SURFTAB2
 70
6
  9
$SURFTYPE
 70
6
  9
$SURFU
 70
6
  9
$SURFV
 70
6
  9
$UCSBASE
  2

  9
$UCSNAME
  2

  9
$UCSORG
 10
0.0
 20
0.0
 30
0.0
  9
$UCSXDIR
 10
1.0
 20
0.0
 30
0.0
  9
$UCSYDIR
 10
0.0
 20
1.0
 30
0.0
  9
$UCSORTHOREF
  2

  9
$UCSORTHOVIEW
 70
0
  9
$UCSORGTOP
 10
0.0
 20
0.0
 30
0.0
  9
$UCSORGBOTTOM
 10
0.0
 20
0.0
 30
0.0
  9
$UCSORGLEFT
 10
0.0
 20
0.0
 30
0.0
  9
$UCSORGRIGHT
 10
0.0
 20
0.0
 30
0.0
  9
$UCSORGFRONT
 10
0.0
 20
0.0
 30
0.0
  9
$UCSORGBACK
 10
0.0
 20
0.0
 30
0.0
  9
$PUCSBASE
  2

  9
$PUCSNAME
  2

  9
$PUCSORG
 10
0.0
 20
0.0
 30
0.0
  9
$PUCSXDIR
 10
1.0
 20
0.0
 30
0.0
  9
$PUCSYDIR
 10
0.0
 20
1.0
 30
0.0
  9
$PUCSORTHOREF
  2

  9
$PUCSORTHOVIEW
 70
0
  9
$PUCSORGTOP
 10
0.0
 20
0.0
 30
0.0
  9
$PUCSORGBOTTOM
 10
0.0
 20
0.0
 30
0.0
  9
$PUCSORGLEFT
 10
0.0
 20
0.0
 30
0.0
  9
$PUCSORGRIGHT
 10
0.0
 20
0.0
 30
0.0
  9
$PUCSORGFRONT
 10
0.0
 20
0.0
 30
0.0
  9
$PUCSORGBACK
 10
0.0
 20
0.0
 30
0.0
  9
$USERI1
 70
0
  9
$USERI2
 70
0
  9
$USERI3
 70
0
  9
$USERI4
 70
0
  9
$USERI5
 70
0
  9
$USERR1
 40
0.0
  9
$USERR2
 40
0.0
  9
$USERR3
 40
0.0
  9
$USERR4
 40
0.0
  9
$USERR5
 40
0.0
  9
$WORLDVIEW
 70
1
  9
$SHADEDGE
 70
3
  9
$SHADEDIF
 70
70
  9
$TILEMODE
 70
1
  9
$MAXACTVP
 70
64
  9
$PINSBASE
 10
0.0
 20
0.0
 30
0.0
  9
$PLIMCHECK
 70
0
  9
$PEXTMIN
 10
1e+20
 20
1e+20
 30
1e+20
  9
$PEXTMAX
 10
-1e+20
 20
-1e+20
 30
-1e+20
  9
$PLIMMIN
 10
0.0
 20
0.0
  9
$PLIMMAX
 10
420.0
 20
297.0
  9
$UNITMODE
 70
0
  9
$VISRETAIN
 70
1
  9
$PLINEGEN
 70
0
  9
$PSLTSCALE
 70
1
  9
$TREEDEPTH
 70
3020
  9
$CMLSTYLE
  2
Standard
  9
$CMLJUST
 70
0
  9
$CMLSCALE
 40
20.0
  9
$PROXYGRAPHICS
 70
1
  9
$MEASUREMENT
 70
1
  9
$CELWEIGHT
370
-1
  9
$ENDCAPS
280
0
  9
$JOINSTYLE
280
0
  9
$LWDISPLAY
290
1
  9
$INSUNITS
 70
4
  9
$HYPERLINKBASE
  1

  9
$STYLESHEET
  1

  9
$XEDIT
290
1
  9
$CEPSNTYPE
380
0
  9
$PSTYLEMODE
290
1
  9
$FINGERPRINTGUID
  2
{96C4F7B1-BB5B-490F-BB00-A8D42E4AA5BD}
  9
$VERSIONGUID
  2
{C4194588-A77F-4E50-B91E-4D9EE599AB08}
  9
$EXTNAMES
290
1
  9
$PSVPSCALE
 40
0.0
  9
$OLESTARTUP
290
0
  9
$SORTENTS
280
127
  9
$INDEXCTL
280
0
  9
$HIDETEXT
280
1
  9
$XCLIPFRAME
280
1
  9
$HALOGAP
280
0
  9
$OBSCOLOR
 70
257
  9
$OBSLTYPE
280
0
  9
$INTERSECTIONDISPLAY
280
0
  9
$INTERSECTIONCOLOR
 70
257
  9
$DIMASSOC
280
2
  9
$PROJECTNAME
  1

  9
$CAMERADISPLAY
290
0
  9
$LENSLENGTH
 40
50.0
  9
$CAMERAHEIGHT
 40
0.0
  9
$STEPSPERSEC
 40
24.0
  9
$STEPSIZE
 40
100.0
  9
$3DDWFPREC
 40
2.0
  9
$PSOLWIDTH
 40
0.005
  9
$PSOLHEIGHT
 40
0.08
  9
$LOFTANG1
 40
1.570796326795
  9
$LOFTANG2
 40
1.570796326795
  9
$LOFTMAG1
 40
0.0
  9
$LOFTMAG2
 40
0.0
  9
$LOFTPARAM
 70
7
  9
$LOFTNORMALS
280
1
  9
$LATITUDE
 40
37.795
  9
$LONGITUDE
 40
-122.394
  9
$NORTHDIRECTION
 40
0.0
  9
$TIMEZONE
 70
-8000
  9
$LIGHTGLYPHDISPLAY
280
1
  9
$TILEMODELIGHTSYNCH
280
1
  9
$CMATERIAL
347
20
  9
$SOLIDHIST
280
0
  9
$SHOWHIST
280
1
  9
$DWFFRAME
280
2
  9
$DGNFRAME
280
2
  9
$REALWORLDSCALE
290
1
  9
$INTERFERECOLOR
 62
256
  9
$CSHADOW
280
0
  9
$SHADOWPLANELOCATION
 40
0.0
  0
ENDSEC
  0
SECTION
  2
CLASSES
  0
CLASS
  1
ACDBDICTIONARYWDFLT
  2
AcDbDictionaryWithDefault
  3
ObjectDBX Classes
 90
0
 91
0
280
0
281
0
  0
CLASS
  1
SUN
  2
AcDbSun
  3
SCENEOE
 90
1153
 91
0
280
0
281
0
  0
CLASS
  1
VISUALSTYLE
  2
AcDbVisualStyle
  3
ObjectDBX Classes
 90
4095
 91
0
280
0
281
0
  0
CLASS
  1
MATERIAL
  2
AcDbMaterial
  3
ObjectDBX Classes
 90
1153
 91
0
280
0
281
0
  0
CLASS
  1
SCALE
  2
AcDbScale
  3
ObjectDBX Classes
 90
1153
 91
0
280
0
281
0
  0
CLASS
  1
TABLESTYLE
  2
AcDbTableStyle
  3
ObjectDBX Classes
 90
4095
 91
0
280
0
281
0
  0
CLASS
  1
MLEADERSTYLE
  2
AcDbMLeaderStyle
  3
ACDB_MLEADERSTYLE_CLASS
 90
4095
 91
0
280
0
281
0
  0
CLASS
  1
DICTIONARYVAR
  2
AcDbDictionaryVar
  3
ObjectDBX Classes
 90
0
 91
0
280
0
281
0
  0
CLASS
  1
CELLSTYLEMAP
  2
AcDbCellStyleMap
  3
ObjectDBX Classes
 90
1152
 91
0
280
0
281
0
  0
CLASS
  1
MENTALRAYRENDERSETTINGS
  2
AcDbMentalRayRenderSettings
  3
SCENEOE
 90
1024
 91
0
280
0
281
0
  0
CLASS
  1
ACDBDETAILVIEWSTYLE
  2
AcDbDetailViewStyle
  3
ObjectDBX Classes
 90
1025
 91
0
280
0
281
0
  0
CLASS
  1
ACDBSECTIONVIEWSTYLE
  2
AcDbSectionViewStyle
  3
ObjectDBX Classes
 90
1025
 91
0
280
0
281
0
  0
CLASS
  1
RASTERVARIABLES
  2
AcDbRasterVariables
  3
ISM
 90
0
 91
0
280
0
281
0
  0
CLASS
  1
LAYOUT
  2
AcDbLayout
  3
ObjectDBX Classes
 90
0
 91
0
280
0
281
0
  0
CLASS
  1
ACDBPLACEHOLDER
  2
AcDbPlaceHolder
  3
ObjectDBX Classes
 90
0
 91
0
280
0
281
0
  0
ENDSEC
  0
SECTION
  2
TABLES
  0
TABLE
  2
VPORT
  5
8
330
0
100
AcDbSymbolTable
 70
1
  0
VPORT
  5
23
330
8
100
AcDbSymbolTableRecord
100
AcDbViewportTableRecord
  2
*Active
 70
0
 10
0.0
 20
0.0
 11
1.0
 21
1.0
 12
0.0
 22
0.0
 13
0.0
 23
0.0
 14
0.5
 24
0.5
 15
0.5
 25
0.5
 16
0.0
 26
0.0
 36
1.0
 17
0.0
 27
0.0
 37
0.0
 40
1000.0
 41
1.34
 42
50.0
 43
0.0
 44
0.0
 50
0.0
 51
0.0
 71
0
 72
1000
 73
1
 74
3
 75
0
 76
0
 77
0
 78
0
281
0
 65
0
146
0.0
  0
ENDTAB
  0
TABLE
  2
LTYPE
  5
2
330
0
100
AcDbSymbolTable
 70
5
  0
LTYPE
  5
24
330
2
100
AcDbSymbolTableRecord
100
AcDbLinetypeTableRecord
  2
ByBlock
 70
0
  3

 72
65
 73
0
 40
0.0
  0
LTYPE
  5
25
330
2
100
AcDbSymbolTableRecord
100
AcDbLinetypeTableRecord
  2
ByLayer
 70
0
  3

 72
65
 73
0
 40
0.0
  0
LTYPE
  5
26
330
2
100
AcDbSymbolTableRecord
100
AcDbLinetypeTableRecord
  2
Continuous
 70
0
  3

 72
65
 73
0
 40
0.0
  0
LTYPE
  5
3A
330
2
100
AcDbSymbolTableRecord
100
AcDbLinetypeTableRecord
  2
TRAZO_8-3
 70
0
  3
trazo 8 3
 72
65
 73
2
 40
3.880555555555555
 49
2.822222222222222
 74
0
 49
-1.0583333333333331
 74
0
  0
LTYPE
  5
BF
330
2
100
AcDbSymbolTableRecord
100
AcDbLinetypeTableRecord
  2
TRAZO_2-2
 70
0
  3
trazo 2 2
 72
65
 73
2
 40
1.411111111111111
 49
0.7055555555555555
 74
0
 49
-0.7055555555555555
 74
0
  0
ENDTAB
  0
TABLE
  2
LAYER
  5
1
330
0
100
AcDbSymbolTable
 70
25
  0
LAYER
  5
27
330
1
100
AcDbSymbolTableRecord
100
AcDbLayerTableRecord
  2
0
 70
0
 62
7
  6
Continuous
370
-3
390
13
347
21
  0
LAYER
  5
28
330
1
100
AcDbSymbolTableRecord
100
AcDbLayerTableRecord
  2
Defpoints
 70
0
 62
7
  6
Continuous
290
0
370
-3
390
13
347
21
  0
LAYER
  5
32
330
1
100
AcDbSymbolTableRecord
100
AcDbLayerTableRecord
  2
G-r_conc
 70
0
 62
252
420
7039851
  6
Continuous
370
30
390
13
347
21
  0
LAYER
  5
35
330
1
100
AcDbSymbolTableRecord
100
AcDbLayerTableRecord
  2
G-r_old
 70
0
 62
252
420
7039851
  6
Continuous
370
30
390
13
347
21
  0
LAYER
  5
3B
330
1
100
AcDbSymbolTableRecord
100
AcDbLayerTableRecord
  2
G-edge
 70
0
 62
251
420
5592405
  6
TRAZO_8-3
370
30
390
13
347
21
  0
LAYER
  5
3D
330
1
100
AcDbSymbolTableRecord
100
AcDbLayerTableRecord
  2
G-r_col
 70
0
 62
31
420
13810828
  6
Continuous
370
15
390
13
347
21
  0
LAYER
  5
44
330
1
100
AcDbSymbolTableRecord
100
AcDbLayerTableRecord
  2
G-r_rodS
 70
0
 62
136
420
742213
  6
Continuous
370
18
390
13
347
21
  0
LAYER
  5
49
330
1
100
AcDbSymbolTableRecord
100
AcDbLayerTableRecord
  2
G-r_tieS
 70
0
 62
217
420
4858714
  6
Continuous
370
18
390
13
347
21
  0
LAYER
  5
52
330
1
100
AcDbSymbolTableRecord
100
AcDbLayerTableRecord
  2
G-r_new
 70
0
 62
119
420
1333810
  6
Continuous
370
18
390
13
347
21
  0
LAYER
  5
57
330
1
100
AcDbSymbolTableRecord
100
AcDbLayerTableRecord
  2
G-r_bm3
 70
0
 62
138
420
1845299
  6
Continuous
370
18
390
13
347
21
  0
LAYER
  5
5C
330
1
100
AcDbSymbolTableRecord
100
AcDbLayerTableRecord
  2
G-r_bm1
 70
0
 62
156
420
929604
  6
Continuous
370
18
390
13
347
21
  0
LAYER
  5
85
330
1
100
AcDbSymbolTableRecord
100
AcDbLayerTableRecord
  2
G-r_bas
 70
0
 62
34
420
8272390
  6
Continuous
370
18
390
13
347
21
  0
LAYER
  5
90
330
1
100
AcDbSymbolTableRecord
100
AcDbLayerTableRecord
  2
G-r_anc
 70
0
 62
24
420
8070172
  6
Continuous
370
18
390
13
347
21
  0
LAYER
  5
93
330
1
100
AcDbSymbolTableRecord
100
AcDbLayerTableRecord
  2
G-r_bp
 70
0
 62
138
420
1319987
  6
Continuous
370
20
390
13
347
21
  0
LAYER
  5
A2
330
1
100
AcDbSymbolTableRecord
100
AcDbLayerTableRecord
  2
G-r_eplate
 70
0
 62
253
420
8687514
  6
Continuous
370
20
390
13
347
21
  0
LAYER
  5
A5
330
1
100
AcDbSymbolTableRecord
100
AcDbLayerTableRecord
  2
G-r_ipe
 70
0
 62
127
420
2044743
  6
Continuous
370
18
390
13
347
21
  0
LAYER
  5
A8
330
1
100
AcDbSymbolTableRecord
100
AcDbLayerTableRecord
  2
G-r_grout
 70
0
 62
9
420
11908533
  6
Continuous
370
18
390
13
347
21
  0
LAYER
  5
AF
330
1
100
AcDbSymbolTableRecord
100
AcDbLayerTableRecord
  2
G-r_ipef
 70
0
 62
127
420
2044743
  6
Continuous
370
20
390
13
347
21
  0
LAYER
  5
B4
330
1
100
AcDbSymbolTableRecord
100
AcDbLayerTableRecord
  2
T-small
 70
0
 62
47
420
4473924
  6
Continuous
370
18
390
13
347
21
  0
LAYER
  5
B6
330
1
100
AcDbSymbolTableRecord
100
AcDbLayerTableRecord
  2
T-label
 70
0
 62
49
420
2236962
  6
Continuous
370
18
390
13
347
21
  0
LAYER
  5
B8
330
1
100
AcDbSymbolTableRecord
100
AcDbLayerTableRecord
  2
T-bsm
 70
0
 62
156
420
929604
  6
Continuous
370
18
390
13
347
21
  0
LAYER
  5
BA
330
1
100
AcDbSymbolTableRecord
100
AcDbLayerTableRecord
  2
T-hk
 70
0
 62
44
420
8017152
  6
Continuous
370
18
390
13
347
21
  0
LAYER
  5
BC
330
1
100
AcDbSymbolTableRecord
100
AcDbLayerTableRecord
  2
T-anc
 70
0
 62
22
420
11088422
  6
Continuous
370
18
390
13
347
21
  0
LAYER
  5
C0
330
1
100
AcDbSymbolTableRecord
100
AcDbLayerTableRecord
  2
G-cut
 70
0
 62
251
420
5592405
  6
TRAZO_2-2
370
20
390
13
347
21
  0
LAYER
  5
C5
330
1
100
AcDbSymbolTableRecord
100
AcDbLayerTableRecord
  2
COTAS
 70
0
 62
27
420
3355443
  6
Continuous
370
15
390
13
347
21
  0
ENDTAB
  0
TABLE
  2
STYLE
  5
5
330
0
100
AcDbSymbolTable
 70
3
  0
STYLE
  5
29
330
5
100
AcDbSymbolTableRecord
100
AcDbTextStyleTableRecord
  2
Standard
 70
0
 40
0.0
 41
1.0
 50
0.0
 71
0
 42
2.5
  3
txt
  4

  0
STYLE
  5
2F
330
5
100
AcDbSymbolTableRecord
100
AcDbTextStyleTableRecord
  2
ESTANDAR
 70
0
 40
0.0
 41
1.0
 50
0.0
 71
0
 42
2.5
  3
arial.ttf
  4

  0
STYLE
  5
30
330
5
100
AcDbSymbolTableRecord
100
AcDbTextStyleTableRecord
  2
NEGRITA
 70
0
 40
0.0
 41
1.0
 50
0.0
 71
0
 42
2.5
  3
arialbd.ttf
  4

  0
ENDTAB
  0
TABLE
  2
VIEW
  5
7
330
0
100
AcDbSymbolTable
 70
0
  0
ENDTAB
  0
TABLE
  2
UCS
  5
6
330
0
100
AcDbSymbolTable
 70
0
  0
ENDTAB
  0
TABLE
  2
APPID
  5
3
330
0
100
AcDbSymbolTable
 70
3
  0
APPID
  5
2A
330
3
100
AcDbSymbolTableRecord
100
AcDbRegAppTableRecord
  2
ACAD
 70
0
  0
APPID
  5
133
330
3
100
AcDbSymbolTableRecord
100
AcDbRegAppTableRecord
  2
HATCHBACKGROUNDCOLOR
 70
0
  0
APPID
  5
134
330
3
100
AcDbSymbolTableRecord
100
AcDbRegAppTableRecord
  2
EZDXF
 70
0
  0
ENDTAB
  0
TABLE
  2
DIMSTYLE
  5
4
330
0
100
AcDbSymbolTable
 70
2
100
AcDbDimStyleTable
  0
DIMSTYLE
105
2B
330
4
100
AcDbSymbolTableRecord
100
AcDbDimStyleTableRecord
  2
Standard
 70
0
 40
1.0
 41
2.5
 42
0.625
 43
3.75
 44
1.25
 45
0.0
 46
0.0
 47
0.0
 48
0.0
 49
2.5
140
2.5
141
2.5
142
0.0
143
0.03937007874
144
1.0
145
0.0
146
1.0
147
0.625
148
0.0
 69
0
 70
0
 71
0
 72
0
 73
0
 74
0
 75
0
 76
0
 77
1
 78
8
 79
3
170
0
171
3
172
1
173
0
174
0
175
0
176
0
177
0
178
0
179
2
271
2
272
2
273
2
274
3
275
0
276
0
277
2
278
44
279
0
280
0
281
0
282
0
283
0
284
8
285
0
286
0
288
0
289
3
290
0
371
-2
372
-2
  0
DIMSTYLE
105
31
330
4
100
AcDbSymbolTableRecord
100
AcDbDimStyleTableRecord
  2
COTAS_1-10
 70
0
 40
10.0
 41
2.0
 42
0.5291666666666666
 43
3.75
 44
0.8819444444444444
 45
0.0
 46
0.0
 47
0.0
 48
0.0
 49
2.5
140
1.8288
141
2.5
142
1.0943166666666666
143
0.03937007874
144
1.0
145
0.0
146
1.0
147
0.6
148
0.0
 69
0
 70
0
 71
0
 72
0
 73
0
 74
0
 75
0
 76
0
 77
1
 78
8
 79
3
170
0
171
3
172
1
173
0
174
0
175
0
176
8
177
8
178
250
179
2
271
0
272
2
273
2
274
3
275
0
276
0
277
2
278
44
279
0
280
0
281
0
282
0
283
0
284
8
285
0
286
0
288
0
289
3
290
0
340
2F
371
15
372
13
  0
ENDTAB
  0
TABLE
  2
BLOCK_RECORD
  5
9
330
0
100
AcDbSymbolTable
 70
10
  0
BLOCK_RECORD
  5
17
330
9
100
AcDbSymbolTableRecord
100
AcDbBlockTableRecord
  2
*Model_Space
340
1A
 70
0
280
1
281
0
  0
BLOCK_RECORD
  5
1B
330
9
100
AcDbSymbolTableRecord
100
AcDbBlockTableRecord
  2
*Paper_Space
340
1E
 70
0
280
1
281
0
  0
BLOCK_RECORD
  5
C7
330
9
100
AcDbSymbolTableRecord
100
AcDbBlockTableRecord
  2
*D1
340
0
 70
0
280
1
281
0
  0
BLOCK_RECORD
  5
CC
330
9
100
AcDbSymbolTableRecord
100
AcDbBlockTableRecord
  2
_OBLIQUE
340
0
 70
0
280
1
281
0
  0
BLOCK_RECORD
  5
DA
330
9
100
AcDbSymbolTableRecord
100
AcDbBlockTableRecord
  2
*D2
340
0
 70
0
280
1
281
0
  0
BLOCK_RECORD
  5
E9
330
9
100
AcDbSymbolTableRecord
100
AcDbBlockTableRecord
  2
*D3
340
0
 70
0
280
1
281
0
  0
BLOCK_RECORD
  5
F8
330
9
100
AcDbSymbolTableRecord
100
AcDbBlockTableRecord
  2
*D4
340
0
 70
0
280
1
281
0
  0
BLOCK_RECORD
  5
107
330
9
100
AcDbSymbolTableRecord
100
AcDbBlockTableRecord
  2
*D5
340
0
 70
0
280
1
281
0
  0
BLOCK_RECORD
  5
116
330
9
100
AcDbSymbolTableRecord
100
AcDbBlockTableRecord
  2
*D6
340
0
 70
0
280
1
281
0
  0
BLOCK_RECORD
  5
125
330
9
100
AcDbSymbolTableRecord
100
AcDbBlockTableRecord
  2
*D7
340
0
 70
0
280
1
281
0
  0
ENDTAB
  0
ENDSEC
  0
SECTION
  2
BLOCKS
  0
BLOCK
  5
18
330
17
100
AcDbEntity
  8
0
100
AcDbBlockBegin
  2
*Model_Space
 70
0
 10
0.0
 20
0.0
 30
0.0
  3
*Model_Space
  1

  0
ENDBLK
  5
19
330
17
100
AcDbEntity
  8
0
100
AcDbBlockEnd
  0
BLOCK
  5
1C
330
1B
100
AcDbEntity
  8
0
100
AcDbBlockBegin
  2
*Paper_Space
 70
0
 10
0.0
 20
0.0
 30
0.0
  3
*Paper_Space
  1

  0
ENDBLK
  5
1D
330
1B
100
AcDbEntity
  8
0
100
AcDbBlockEnd
  0
BLOCK
  5
C8
330
C7
100
AcDbEntity
  8
0
100
AcDbBlockBegin
  2
*D1
 70
1
 10
0.0
 20
0.0
 30
0.0
  3
*D1
  1

  0
LINE
  5
CA
330
C7
100
AcDbEntity
  8
0
 62
8
370
13
100
AcDbLine
 10
651.7083333333334
 20
0.0
 30
0.0
 11
608.1805555555555
 21
0.0
 31
0.0
  0
LINE
  5
CB
330
C7
100
AcDbEntity
  8
0
 62
8
370
13
100
AcDbLine
 10
651.7083333333334
 20
-62.0
 30
0.0
 11
608.1805555555555
 21
-62.0
 31
0.0
  0
INSERT
  5
D0
330
C7
100
AcDbEntity
  8
COTAS
 62
8
100
AcDbBlockReference
  2
_OBLIQUE
 10
617.0
 20
0.0
 30
0.0
 41
21.886333333333333
 42
21.886333333333333
 50
-90.0
  0
INSERT
  5
D2
330
C7
100
AcDbEntity
  8
COTAS
 62
8
100
AcDbBlockReference
  2
_OBLIQUE
 10
617.0
 20
-62.0
 30
0.0
 41
21.886333333333333
 42
21.886333333333333
 50
-90.0
  0
LINE
  5
D4
330
C7
100
AcDbEntity
  8
0
 62
8
370
15
100
AcDbLine
 10
617.0
 20
0.0
 30
0.0
 11
617.0
 21
-62.0
 31
0.0
  0
MTEXT
  5
D5
330
C7
100
AcDbEntity
  8
COTAS
 62
250
100
AcDbMText
 10
632.144
 20
-31.0
 30
0.0
 40
18.288
 71
5
  1
62
  7
ESTANDAR
 50
-90.0
  0
POINT
  5
D6
330
C7
100
AcDbEntity
  8
Defpoints
100
AcDbPoint
 10
617.0
 20
0.0
 30
0.0
  0
POINT
  5
D7
330
C7
100
AcDbEntity
  8
Defpoints
100
AcDbPoint
 10
657.0
 20
0.0
 30
0.0
  0
POINT
  5
D8
330
C7
100
AcDbEntity
  8
Defpoints
100
AcDbPoint
 10
657.0
 20
-62.0
 30
0.0
  0
ENDBLK
  5
C9
330
C7
100
AcDbEntity
  8
0
100
AcDbBlockEnd
  0
BLOCK
  5
CD
330
CC
100
AcDbEntity
  8
0
100
AcDbBlockBegin
  2
_OBLIQUE
 70
0
 10
0.0
 20
0.0
 30
0.0
  3
_OBLIQUE
  1

  0
LINE
  5
CF
330
CC
100
AcDbEntity
  8
0
  6
BYBLOCK
 62
0
100
AcDbLine
 10
-0.5
 20
-0.5
 30
0.0
 11
0.5
 21
0.5
 31
0.0
  0
ENDBLK
  5
CE
330
CC
100
AcDbEntity
  8
0
100
AcDbBlockEnd
  0
BLOCK
  5
DB
330
DA
100
AcDbEntity
  8
0
100
AcDbBlockBegin
  2
*D2
 70
1
 10
0.0
 20
0.0
 30
0.0
  3
*D2
  1

  0
LINE
  5
DD
330
DA
100
AcDbEntity
  8
0
 62
8
370
13
100
AcDbLine
 10
651.7083333333334
 20
-62.0
 30
0.0
 11
608.1805555555555
 21
-62.0
 31
0.0
  0
LINE
  5
DE
330
DA
100
AcDbEntity
  8
0
 62
8
370
13
100
AcDbLine
 10
651.7083333333334
 20
-173.0
 30
0.0
 11
608.1805555555555
 21
-173.0
 31
0.0
  0
INSERT
  5
DF
330
DA
100
AcDbEntity
  8
COTAS
 62
8
100
AcDbBlockReference
  2
_OBLIQUE
 10
617.0
 20
-62.0
 30
0.0
 41
21.886333333333333
 42
21.886333333333333
 50
-90.0
  0
INSERT
  5
E1
330
DA
100
AcDbEntity
  8
COTAS
 62
8
100
AcDbBlockReference
  2
_OBLIQUE
 10
617.0
 20
-173.0
 30
0.0
 41
21.886333333333333
 42
21.886333333333333
 50
-90.0
  0
LINE
  5
E3
330
DA
100
AcDbEntity
  8
0
 62
8
370
15
100
AcDbLine
 10
617.0
 20
-62.0
 30
0.0
 11
617.0
 21
-173.0
 31
0.0
  0
MTEXT
  5
E4
330
DA
100
AcDbEntity
  8
COTAS
 62
250
100
AcDbMText
 10
632.144
 20
-117.5
 30
0.0
 40
18.288
 71
5
  1
111
  7
ESTANDAR
 50
-90.0
  0
POINT
  5
E5
330
DA
100
AcDbEntity
  8
Defpoints
100
AcDbPoint
 10
617.0
 20
-62.0
 30
0.0
  0
POINT
  5
E6
330
DA
100
AcDbEntity
  8
Defpoints
100
AcDbPoint
 10
657.0
 20
-62.0
 30
0.0
  0
POINT
  5
E7
330
DA
100
AcDbEntity
  8
Defpoints
100
AcDbPoint
 10
657.0
 20
-173.0
 30
0.0
  0
ENDBLK
  5
DC
330
DA
100
AcDbEntity
  8
0
100
AcDbBlockEnd
  0
BLOCK
  5
EA
330
E9
100
AcDbEntity
  8
0
100
AcDbBlockBegin
  2
*D3
 70
1
 10
0.0
 20
0.0
 30
0.0
  3
*D3
  1

  0
LINE
  5
EC
330
E9
100
AcDbEntity
  8
0
 62
8
370
13
100
AcDbLine
 10
-40.0
 20
-594.7083333333334
 30
0.0
 11
-40.0
 21
-591.1805555555555
 31
0.0
  0
LINE
  5
ED
330
E9
100
AcDbEntity
  8
0
 62
8
370
13
100
AcDbLine
 10
40.0
 20
-594.7083333333334
 30
0.0
 11
40.0
 21
-591.1805555555555
 31
0.0
  0
INSERT
  5
EE
330
E9
100
AcDbEntity
  8
COTAS
 62
8
100
AcDbBlockReference
  2
_OBLIQUE
 10
-40.0
 20
-600.0
 30
0.0
 41
21.886333333333333
 42
21.886333333333333
  0
INSERT
  5
F0
330
E9
100
AcDbEntity
  8
COTAS
 62
8
100
AcDbBlockReference
  2
_OBLIQUE
 10
40.0
 20
-600.0
 30
0.0
 41
21.886333333333333
 42
21.886333333333333
  0
LINE
  5
F2
330
E9
100
AcDbEntity
  8
0
 62
8
370
15
100
AcDbLine
 10
-40.0
 20
-600.0
 30
0.0
 11
40.0
 21
-600.0
 31
0.0
  0
MTEXT
  5
F3
330
E9
100
AcDbEntity
  8
COTAS
 62
250
100
AcDbMText
 10
0.0
 20
-576.0365555555555
 30
0.0
 40
18.288
 71
5
  1
80 (A1 de D4Y)
  7
ESTANDAR
  0
POINT
  5
F4
330
E9
100
AcDbEntity
  8
Defpoints
100
AcDbPoint
 10
-40.0
 20
-600.0
 30
0.0
  0
POINT
  5
F5
330
E9
100
AcDbEntity
  8
Defpoints
100
AcDbPoint
 10
-40.0
 20
-600.0
 30
0.0
  0
POINT
  5
F6
330
E9
100
AcDbEntity
  8
Defpoints
100
AcDbPoint
 10
40.0
 20
-600.0
 30
0.0
  0
ENDBLK
  5
EB
330
E9
100
AcDbEntity
  8
0
100
AcDbBlockEnd
  0
BLOCK
  5
F9
330
F8
100
AcDbEntity
  8
0
100
AcDbBlockBegin
  2
*D4
 70
1
 10
0.0
 20
0.0
 30
0.0
  3
*D4
  1

  0
LINE
  5
FB
330
F8
100
AcDbEntity
  8
0
 62
8
370
13
100
AcDbLine
 10
-1194.7083333333333
 20
0.0
 30
0.0
 11
-1131.1805555555557
 21
0.0
 31
0.0
  0
LINE
  5
FC
330
F8
100
AcDbEntity
  8
0
 62
8
370
13
100
AcDbLine
 10
-1194.7083333333333
 20
-80.0
 30
0.0
 11
-1131.1805555555557
 21
-80.0
 31
0.0
  0
INSERT
  5
FD
330
F8
100
AcDbEntity
  8
COTAS
 62
8
100
AcDbBlockReference
  2
_OBLIQUE
 10
-1140.0
 20
0.0
 30
0.0
 41
21.886333333333333
 42
21.886333333333333
 50
-90.0
  0
INSERT
  5
FF
330
F8
100
AcDbEntity
  8
COTAS
 62
8
100
AcDbBlockReference
  2
_OBLIQUE
 10
-1140.0
 20
-80.0
 30
0.0
 41
21.886333333333333
 42
21.886333333333333
 50
-90.0
  0
LINE
  5
101
330
F8
100
AcDbEntity
  8
0
 62
8
370
15
100
AcDbLine
 10
-1140.0
 20
0.0
 30
0.0
 11
-1140.0
 21
-80.0
 31
0.0
  0
MTEXT
  5
102
330
F8
100
AcDbEntity
  8
COTAS
 62
250
100
AcDbMText
 10
-1124.856
 20
-40.0
 30
0.0
 40
18.288
 71
5
  1
80
  7
ESTANDAR
 50
-90.0
  0
POINT
  5
103
330
F8
100
AcDbEntity
  8
Defpoints
100
AcDbPoint
 10
-1140.0
 20
0.0
 30
0.0
  0
POINT
  5
104
330
F8
100
AcDbEntity
  8
Defpoints
100
AcDbPoint
 10
-1200.0
 20
0.0
 30
0.0
  0
POINT
  5
105
330
F8
100
AcDbEntity
  8
Defpoints
100
AcDbPoint
 10
-1200.0
 20
-80.0
 30
0.0
  0
ENDBLK
  5
FA
330
F8
100
AcDbEntity
  8
0
100
AcDbBlockEnd
  0
BLOCK
  5
108
330
107
100
AcDbEntity
  8
0
100
AcDbBlockBegin
  2
*D5
 70
1
 10
0.0
 20
0.0
 30
0.0
  3
*D5
  1

  0
LINE
  5
10A
330
107
100
AcDbEntity
  8
0
 62
8
370
13
100
AcDbLine
 10
-1194.7083333333333
 20
-80.0
 30
0.0
 11
-1131.1805555555557
 21
-80.0
 31
0.0
  0
LINE
  5
10B
330
107
100
AcDbEntity
  8
0
 62
8
370
13
100
AcDbLine
 10
-1194.7083333333333
 20
-98.0
 30
0.0
 11
-1131.1805555555557
 21
-98.0
 31
0.0
  0
INSERT
  5
10C
330
107
100
AcDbEntity
  8
COTAS
 62
8
100
AcDbBlockReference
  2
_OBLIQUE
 10
-1140.0
 20
-80.0
 30
0.0
 41
21.886333333333333
 42
21.886333333333333
 50
-90.0
  0
INSERT
  5
10E
330
107
100
AcDbEntity
  8
COTAS
 62
8
100
AcDbBlockReference
  2
_OBLIQUE
 10
-1140.0
 20
-98.0
 30
0.0
 41
21.886333333333333
 42
21.886333333333333
 50
-90.0
  0
LINE
  5
110
330
107
100
AcDbEntity
  8
0
 62
8
370
15
100
AcDbLine
 10
-1140.0
 20
-80.0
 30
0.0
 11
-1140.0
 21
-98.0
 31
0.0
  0
MTEXT
  5
111
330
107
100
AcDbEntity
  8
COTAS
 62
250
100
AcDbMText
 10
-1116.0365555555557
 20
-89.0
 30
0.0
 40
18.288
 71
5
  1
18
  7
ESTANDAR
 50
-90.0
  0
POINT
  5
112
330
107
100
AcDbEntity
  8
Defpoints
100
AcDbPoint
 10
-1140.0
 20
-80.0
 30
0.0
  0
POINT
  5
113
330
107
100
AcDbEntity
  8
Defpoints
100
AcDbPoint
 10
-1200.0
 20
-80.0
 30
0.0
  0
POINT
  5
114
330
107
100
AcDbEntity
  8
Defpoints
100
AcDbPoint
 10
-1200.0
 20
-98.0
 30
0.0
  0
ENDBLK
  5
109
330
107
100
AcDbEntity
  8
0
100
AcDbBlockEnd
  0
BLOCK
  5
117
330
116
100
AcDbEntity
  8
0
100
AcDbBlockBegin
  2
*D6
 70
1
 10
0.0
 20
0.0
 30
0.0
  3
*D6
  1

  0
LINE
  5
119
330
116
100
AcDbEntity
  8
0
 62
8
370
13
100
AcDbLine
 10
-194.70833333333334
 20
0.0
 30
0.0
 11
-131.18055555555554
 21
0.0
 31
0.0
  0
LINE
  5
11A
330
116
100
AcDbEntity
  8
0
 62
8
370
13
100
AcDbLine
 10
-194.70833333333334
 20
-42.0
 30
0.0
 11
-131.18055555555554
 21
-42.0
 31
0.0
  0
INSERT
  5
11B
330
116
100
AcDbEntity
  8
COTAS
 62
8
100
AcDbBlockReference
  2
_OBLIQUE
 10
-140.0
 20
0.0
 30
0.0
 41
21.886333333333333
 42
21.886333333333333
 50
-90.0
  0
INSERT
  5
11D
330
116
100
AcDbEntity
  8
COTAS
 62
8
100
AcDbBlockReference
  2
_OBLIQUE
 10
-140.0
 20
-42.0
 30
0.0
 41
21.886333333333333
 42
21.886333333333333
 50
-90.0
  0
LINE
  5
11F
330
116
100
AcDbEntity
  8
0
 62
8
370
15
100
AcDbLine
 10
-140.0
 20
0.0
 30
0.0
 11
-140.0
 21
-42.0
 31
0.0
  0
MTEXT
  5
120
330
116
100
AcDbEntity
  8
COTAS
 62
250
100
AcDbMText
 10
-124.856
 20
-21.0
 30
0.0
 40
18.288
 71
5
  1
42
  7
ESTANDAR
 50
-90.0
  0
POINT
  5
121
330
116
100
AcDbEntity
  8
Defpoints
100
AcDbPoint
 10
-140.0
 20
0.0
 30
0.0
  0
POINT
  5
122
330
116
100
AcDbEntity
  8
Defpoints
100
AcDbPoint
 10
-200.0
 20
0.0
 30
0.0
  0
POINT
  5
123
330
116
100
AcDbEntity
  8
Defpoints
100
AcDbPoint
 10
-200.0
 20
-42.0
 30
0.0
  0
ENDBLK
  5
118
330
116
100
AcDbEntity
  8
0
100
AcDbBlockEnd
  0
BLOCK
  5
126
330
125
100
AcDbEntity
  8
0
100
AcDbBlockBegin
  2
*D7
 70
1
 10
0.0
 20
0.0
 30
0.0
  3
*D7
  1

  0
LINE
  5
128
330
125
100
AcDbEntity
  8
0
 62
8
370
13
100
AcDbLine
 10
-194.70833333333334
 20
-42.0
 30
0.0
 11
-131.18055555555554
 21
-42.0
 31
0.0
  0
LINE
  5
129
330
125
100
AcDbEntity
  8
0
 62
8
370
13
100
AcDbLine
 10
-194.70833333333334
 20
-198.0
 30
0.0
 11
-131.18055555555554
 21
-198.0
 31
0.0
  0
INSERT
  5
12A
330
125
100
AcDbEntity
  8
COTAS
 62
8
100
AcDbBlockReference
  2
_OBLIQUE
 10
-140.0
 20
-42.0
 30
0.0
 41
21.886333333333333
 42
21.886333333333333
 50
-90.0
  0
INSERT
  5
12C
330
125
100
AcDbEntity
  8
COTAS
 62
8
100
AcDbBlockReference
  2
_OBLIQUE
 10
-140.0
 20
-198.0
 30
0.0
 41
21.886333333333333
 42
21.886333333333333
 50
-90.0
  0
LINE
  5
12E
330
125
100
AcDbEntity
  8
0
 62
8
370
15
100
AcDbLine
 10
-140.0
 20
-42.0
 30
0.0
 11
-140.0
 21
-198.0
 31
0.0
  0
MTEXT
  5
12F
330
125
100
AcDbEntity
  8
COTAS
 62
250
100
AcDbMText
 10
-124.856
 20
-120.0
 30
0.0
 40
18.288
 71
5
  1
156
  7
ESTANDAR
 50
-90.0
  0
POINT
  5
130
330
125
100
AcDbEntity
  8
Defpoints
100
AcDbPoint
 10
-140.0
 20
-42.0
 30
0.0
  0
POINT
  5
131
330
125
100
AcDbEntity
  8
Defpoints
100
AcDbPoint
 10
-200.0
 20
-42.0
 30
0.0
  0
POINT
  5
132
330
125
100
AcDbEntity
  8
Defpoints
100
AcDbPoint
 10
-200.0
 20
-198.0
 30
0.0
  0
ENDBLK
  5
127
330
125
100
AcDbEntity
  8
0
100
AcDbBlockEnd
  0
ENDSEC
  0
SECTION
  2
ENTITIES
  0
HATCH
  5
33
330
17
100
AcDbEntity
  8
G-r_conc
 62
7
420
16118767
100
AcDbHatch
 10
0.0
 20
0.0
 30
0.0
210
0.0
220
0.0
230
1.0
  2
SOLID
 70
1
 71
0
 91
1
 92
3
 72
0
 73
1
 93
4
 10
-200.0
 20
-350.0
 10
200.0
 20
-350.0
 10
200.0
 20
105.0
 10
-200.0
 20
105.0
 97
0
 75
0
 76
1
 98
0
  0
LWPOLYLINE
  5
34
330
17
100
AcDbEntity
  8
G-r_conc
100
AcDbPolyline
 90
4
 70
1
 10
-200.0
 20
-350.0
 10
200.0
 20
-350.0
 10
200.0
 20
105.0
 10
-200.0
 20
105.0
  0
HATCH
  5
36
330
17
100
AcDbEntity
  8
G-r_old
 62
7
420
15065562
100
AcDbHatch
 10
0.0
 20
0.0
 30
0.0
210
0.0
220
0.0
230
1.0
  2
SOLID
 70
1
 71
0
 91
1
 92
3
 72
0
 73
1
 93
4
 10
-200.0
 20
-480.0
 10
200.0
 20
-480.0
 10
200.0
 20
-350.0
 10
-200.0
 20
-350.0
 97
0
 75
0
 76
1
 98
0
  0
LWPOLYLINE
  5
37
330
17
100
AcDbEntity
  8
G-r_old
100
AcDbPolyline
 90
4
 70
1
 10
-200.0
 20
-480.0
 10
200.0
 20
-480.0
 10
200.0
 20
-350.0
 10
-200.0
 20
-350.0
  0
HATCH
  5
38
330
17
100
AcDbEntity
  8
G-r_conc
 62
7
420
16118767
100
AcDbHatch
 10
0.0
 20
0.0
 30
0.0
210
0.0
220
0.0
230
1.0
  2
SOLID
 70
1
 71
0
 91
1
 92
3
 72
0
 73
1
 93
4
 10
-1200.0
 20
-350.0
 10
-200.0
 20
-350.0
 10
-200.0
 20
0.0
 10
-1200.0
 20
0.0
 97
0
 75
0
 76
1
 98
0
  0
LWPOLYLINE
  5
39
330
17
100
AcDbEntity
  8
G-r_conc
100
AcDbPolyline
 90
4
 70
1
 10
-1200.0
 20
-350.0
 10
-200.0
 20
-350.0
 10
-200.0
 20
0.0
 10
-1200.0
 20
0.0
  0
LINE
  5
3C
330
17
100
AcDbEntity
  8
G-edge
100
AcDbLine
 10
-1200.0
 20
0.0
 30
0.0
 11
-1200.0
 21
-350.0
 31
0.0
  0
HATCH
  5
3E
330
17
100
AcDbEntity
  8
G-r_col
 62
7
420
15326919
100
AcDbHatch
 10
0.0
 20
0.0
 30
0.0
210
0.0
220
0.0
230
1.0
  2
SOLID
 70
1
 71
0
 91
1
 92
3
 72
0
 73
1
 93
4
 10
-150.0
 20
-480.0
 10
-150.0
 20
57.0
 10
-134.0
 20
57.0
 10
-134.0
 20
-480.0
 97
0
 75
0
 76
1
 98
0
  0
LWPOLYLINE
  5
3F
330
17
100
AcDbEntity
  8
G-r_col
100
AcDbPolyline
 90
4
 70
1
 10
-150.0
 20
-480.0
 10
-150.0
 20
57.0
 10
-134.0
 20
57.0
 10
-134.0
 20
-480.0
  0
HATCH
  5
40
330
17
100
AcDbEntity
  8
G-r_col
 62
7
420
15326919
100
AcDbHatch
 10
0.0
 20
0.0
 30
0.0
210
0.0
220
0.0
230
1.0
  2
SOLID
 70
1
 71
0
 91
1
 92
3
 72
0
 73
1
 93
4
 10
-8.0
 20
-480.0
 10
-8.0
 20
57.0
 10
8.0
 20
57.0
 10
8.0
 20
-480.0
 97
0
 75
0
 76
1
 98
0
  0
LWPOLYLINE
  5
41
330
17
100
AcDbEntity
  8
G-r_col
100
AcDbPolyline
 90
4
 70
1
 10
-8.0
 20
-480.0
 10
-8.0
 20
57.0
 10
8.0
 20
57.0
 10
8.0
 20
-480.0
  0
HATCH
  5
42
330
17
100
AcDbEntity
  8
G-r_col
 62
7
420
15326919
100
AcDbHatch
 10
0.0
 20
0.0
 30
0.0
210
0.0
220
0.0
230
1.0
  2
SOLID
 70
1
 71
0
 91
1
 92
3
 72
0
 73
1
 93
4
 10
134.0
 20
-480.0
 10
134.0
 20
57.0
 10
150.0
 20
57.0
 10
150.0
 20
-480.0
 97
0
 75
0
 76
1
 98
0
  0
LWPOLYLINE
  5
43
330
17
100
AcDbEntity
  8
G-r_col
100
AcDbPolyline
 90
4
 70
1
 10
134.0
 20
-480.0
 10
134.0
 20
57.0
 10
150.0
 20
57.0
 10
150.0
 20
-480.0
  0
HATCH
  5
45
330
17
100
AcDbEntity
  8
G-r_rodS
 62
7
420
6405804
100
AcDbHatch
 10
0.0
 20
0.0
 30
0.0
210
0.0
220
0.0
230
1.0
  2
SOLID
 70
1
 71
0
 91
1
 92
3
 72
0
 73
1
 93
4
 10
-94.0
 20
165.0
 10
-94.0
 20
-300.0
 10
-106.0
 20
-300.0
 10
-106.0
 20
165.0
 97
0
 75
0
 76
1
 98
0
  0
LWPOLYLINE
  5
46
330
17
100
AcDbEntity
  8
G-r_rodS
100
AcDbPolyline
 90
4
 70
1
 10
-94.0
 20
165.0
 10
-94.0
 20
-300.0
 10
-106.0
 20
-300.0
 10
-106.0
 20
165.0
  0
HATCH
  5
47
330
17
100
AcDbEntity
  8
G-r_rodS
 62
7
420
6405804
100
AcDbHatch
 10
0.0
 20
0.0
 30
0.0
210
0.0
220
0.0
230
1.0
  2
SOLID
 70
1
 71
0
 91
1
 92
3
 72
0
 73
1
 93
4
 10
106.0
 20
165.0
 10
106.0
 20
-300.0
 10
94.0
 20
-300.0
 10
94.0
 20
165.0
 97
0
 75
0
 76
1
 98
0
  0
LWPOLYLINE
  5
48
330
17
100
AcDbEntity
  8
G-r_rodS
100
AcDbPolyline
 90
4
 70
1
 10
106.0
 20
165.0
 10
106.0
 20
-300.0
 10
94.0
 20
-300.0
 10
94.0
 20
165.0
  0
HATCH
  5
4A
330
17
100
AcDbEntity
  8
G-r_tieS
 62
7
420
9460135
100
AcDbHatch
 10
0.0
 20
0.0
 30
0.0
210
0.0
220
0.0
230
1.0
  2
SOLID
 70
1
 71
0
 91
1
 92
3
 72
0
 73
1
 93
4
 10
-155.0
 20
-105.0
 10
155.0
 20
-105.0
 10
155.0
 20
-115.0
 10
-155.0
 20
-115.0
 97
0
 75
0
 76
1
 98
0
  0
LWPOLYLINE
  5
4B
330
17
100
AcDbEntity
  8
G-r_tieS
100
AcDbPolyline
 90
4
 70
1
 10
-155.0
 20
-105.0
 10
155.0
 20
-105.0
 10
155.0
 20
-115.0
 10
-155.0
 20
-115.0
  0
HATCH
  5
4C
330
17
100
AcDbEntity
  8
G-r_tieS
 62
7
420
9460135
100
AcDbHatch
 10
0.0
 20
0.0
 30
0.0
210
0.0
220
0.0
230
1.0
  2
SOLID
 70
1
 71
0
 91
1
 92
3
 72
0
 73
1
 93
4
 10
-155.0
 20
-150.0
 10
155.0
 20
-150.0
 10
155.0
 20
-160.0
 10
-155.0
 20
-160.0
 97
0
 75
0
 76
1
 98
0
  0
LWPOLYLINE
  5
4D
330
17
100
AcDbEntity
  8
G-r_tieS
100
AcDbPolyline
 90
4
 70
1
 10
-155.0
 20
-150.0
 10
155.0
 20
-150.0
 10
155.0
 20
-160.0
 10
-155.0
 20
-160.0
  0
HATCH
  5
4E
330
17
100
AcDbEntity
  8
G-r_tieS
 62
7
420
9460135
100
AcDbHatch
 10
0.0
 20
0.0
 30
0.0
210
0.0
220
0.0
230
1.0
  2
SOLID
 70
1
 71
0
 91
1
 92
3
 72
0
 73
1
 93
4
 10
-155.0
 20
-225.0
 10
155.0
 20
-225.0
 10
155.0
 20
-235.0
 10
-155.0
 20
-235.0
 97
0
 75
0
 76
1
 98
0
  0
LWPOLYLINE
  5
4F
330
17
100
AcDbEntity
  8
G-r_tieS
100
AcDbPolyline
 90
4
 70
1
 10
-155.0
 20
-225.0
 10
155.0
 20
-225.0
 10
155.0
 20
-235.0
 10
-155.0
 20
-235.0
  0
HATCH
  5
50
330
17
100
AcDbEntity
  8
G-r_tieS
 62
7
420
9460135
100
AcDbHatch
 10
0.0
 20
0.0
 30
0.0
210
0.0
220
0.0
230
1.0
  2
SOLID
 70
1
 71
0
 91
1
 92
3
 72
0
 73
1
 93
4
 10
-155.0
 20
-300.0
 10
155.0
 20
-300.0
 10
155.0
 20
-310.0
 10
-155.0
 20
-310.0
 97
0
 75
0
 76
1
 98
0
  0
LWPOLYLINE
  5
51
330
17
100
AcDbEntity
  8
G-r_tieS
100
AcDbPolyline
 90
4
 70
1
 10
-155.0
 20
-300.0
 10
155.0
 20
-300.0
 10
155.0
 20
-310.0
 10
-155.0
 20
-310.0
  0
HATCH
  5
53
330
17
100
AcDbEntity
  8
G-r_new
 62
7
420
3444827
100
AcDbHatch
 10
0.0
 20
0.0
 30
0.0
210
0.0
220
0.0
230
1.0
  2
SOLID
 70
1
 71
0
 91
1
 92
3
 72
0
 73
1
 93
4
 10
-157.0
 20
35.0
 10
157.0
 20
35.0
 10
157.0
 20
21.0
 10
-157.0
 20
21.0
 97
0
 75
0
 76
1
 98
0
  0
LWPOLYLINE
  5
54
330
17
100
AcDbEntity
  8
G-r_new
100
AcDbPolyline
 90
4
 70
1
 10
-157.0
 20
35.0
 10
157.0
 20
35.0
 10
157.0
 20
21.0
 10
-157.0
 20
21.0
  0
HATCH
  5
55
330
17
100
AcDbEntity
  8
G-r_new
 62
7
420
3444827
100
AcDbHatch
 10
0.0
 20
0.0
 30
0.0
210
0.0
220
0.0
230
1.0
  2
SOLID
 70
1
 71
0
 91
1
 92
3
 72
0
 73
1
 93
4
 10
-157.0
 20
49.0
 10
157.0
 20
49.0
 10
157.0
 20
35.0
 10
-157.0
 20
35.0
 97
0
 75
0
 76
1
 98
0
  0
LWPOLYLINE
  5
56
330
17
100
AcDbEntity
  8
G-r_new
100
AcDbPolyline
 90
4
 70
1
 10
-157.0
 20
49.0
 10
157.0
 20
49.0
 10
157.0
 20
35.0
 10
-157.0
 20
35.0
  0
HATCH
  5
58
330
17
100
AcDbEntity
  8
G-r_bm3
 62
7
420
6384235
100
AcDbHatch
 10
0.0
 20
0.0
 30
0.0
210
0.0
220
0.0
230
1.0
  2
SOLID
 70
1
 71
0
 91
1
 92
3
 72
0
 73
1
 93
26
 10
-1200.0
 20
-62.0
 10
105.00141090502407
 20
-62.0
 10
109.85237077473991
 20
-62.36333667122097
 10
114.58526007691042
 20
-63.49960286174962
 10
119.08212846433302
 20
-65.36226673602691
 10
123.23224811305886
 20
-67.9054633276411
 10
126.93342930387885
 20
-71.06657069612115
 10
130.09453667235888
 20
-74.76775188694114
 10
132.6377332639731
 20
-78.91787153566698
 10
134.50039713825038
 20
-83.41473992308958
 10
135.63666332877904
 20
-88.14762922526009
 10
136.01742245353265
 20
-92.98563261954645
 10
136.0
 20
-218.0
 10
124.0
 20
-218.0
 10
123.98257754646734
 20
-93.01436738045355
 10
123.74775370097787
 20
-90.03064752272837
 10
123.0524286765073
 20
-87.13441035816304
 10
121.9125929454453
 20
-84.38260347735569
 10
120.35631304638848
 20
-81.84298549843521
 10
118.42190975544852
 20
-79.57809024455148
 10
116.15701450156479
 20
-77.64368695361152
 10
113.61739652264431
 20
-76.0874070545547
 10
110.86558964183696
 20
-74.9475713234927
 10
107.96935247727163
 20
-74.25224629902213
 10
104.99858909497593
 20
-74.0
 10
-1200.0
 20
-74.0
 97
0
 75
0
 76
1
 98
0
  0
LWPOLYLINE
  5
59
330
17
100
AcDbEntity
  8
G-r_bm3
100
AcDbPolyline
 90
26
 70
1
 10
-1200.0
 20
-62.0
 10
105.00141090502407
 20
-62.0
 10
109.85237077473991
 20
-62.36333667122097
 10
114.58526007691042
 20
-63.49960286174962
 10
119.08212846433302
 20
-65.36226673602691
 10
123.23224811305886
 20
-67.9054633276411
 10
126.93342930387885
 20
-71.06657069612115
 10
130.09453667235888
 20
-74.76775188694114
 10
132.6377332639731
 20
-78.91787153566698
 10
134.50039713825038
 20
-83.41473992308958
 10
135.63666332877904
 20
-88.14762922526009
 10
136.01742245353265
 20
-92.98563261954645
 10
136.0
 20
-218.0
 10
124.0
 20
-218.0
 10
123.98257754646734
 20
-93.01436738045355
 10
123.74775370097787
 20
-90.03064752272837
 10
123.0524286765073
 20
-87.13441035816304
 10
121.9125929454453
 20
-84.38260347735569
 10
120.35631304638848
 20
-81.84298549843521
 10
118.42190975544852
 20
-79.57809024455148
 10
116.15701450156479
 20
-77.64368695361152
 10
113.61739652264431
 20
-76.0874070545547
 10
110.86558964183696
 20
-74.9475713234927
 10
107.96935247727163
 20
-74.25224629902213
 10
104.99858909497593
 20
-74.0
 10
-1200.0
 20
-74.0
  0
HATCH
  5
5A
330
17
100
AcDbEntity
  8
G-r_bm3
 62
7
420
6384235
100
AcDbHatch
 10
0.0
 20
0.0
 30
0.0
210
0.0
220
0.0
230
1.0
  2
SOLID
 70
1
 71
0
 91
1
 92
3
 72
0
 73
1
 93
26
 10
-1200.0
 20
-276.0
 10
104.99858909497593
 20
-276.0
 10
107.96935247727161
 20
-275.74775370097785
 10
110.86558964183698
 20
-275.05242867650725
 10
113.61739652264433
 20
-273.9125929454453
 10
116.15701450156479
 20
-272.3563130463885
 10
118.42190975544854
 20
-270.4219097554485
 10
120.3563130463885
 20
-268.1570145015648
 10
121.91259294544528
 20
-265.61739652264436
 10
123.0524286765073
 20
-262.86558964183695
 10
123.74775370097787
 20
-259.9693524772716
 10
123.98257754646734
 20
-256.98563261954644
 10
124.0
 20
-132.0
 10
136.0
 20
-132.0
 10
136.01742245353265
 20
-257.01436738045356
 10
135.63666332877904
 20
-261.85237077473994
 10
134.50039713825038
 20
-266.5852600769104
 10
132.6377332639731
 20
-271.08212846433304
 10
130.09453667235888
 20
-275.2322481130589
 10
126.93342930387884
 20
-278.9334293038788
 10
123.23224811305886
 20
-282.09453667235886
 10
119.08212846433301
 20
-284.6377332639731
 10
114.5852600769104
 20
-286.5003971382504
 10
109.85237077473992
 20
-287.636663328779
 10
105.00141090502407
 20
-288.0
 10
-1200.0
 20
-288.0
 97
0
 75
0
 76
1
 98
0
  0
LWPOLYLINE
  5
5B
330
17
100
AcDbEntity
  8
G-r_bm3
100
AcDbPolyline
 90
26
 70
1
 10
-1200.0
 20
-276.0
 10
104.99858909497593
 20
-276.0
 10
107.96935247727161
 20
-275.74775370097785
 10
110.86558964183698
 20
-275.05242867650725
 10
113.61739652264433
 20
-273.9125929454453
 10
116.15701450156479
 20
-272.3563130463885
 10
118.42190975544854
 20
-270.4219097554485
 10
120.3563130463885
 20
-268.1570145015648
 10
121.91259294544528
 20
-265.61739652264436
 10
123.0524286765073
 20
-262.86558964183695
 10
123.74775370097787
 20
-259.9693524772716
 10
123.98257754646734
 20
-256.98563261954644
 10
124.0
 20
-132.0
 10
136.0
 20
-132.0
 10
136.01742245353265
 20
-257.01436738045356
 10
135.63666332877904
 20
-261.85237077473994
 10
134.50039713825038
 20
-266.5852600769104
 10
132.6377332639731
 20
-271.08212846433304
 10
130.09453667235888
 20
-275.2322481130589
 10
126.93342930387884
 20
-278.9334293038788
 10
123.23224811305886
 20
-282.09453667235886
 10
119.08212846433301
 20
-284.6377332639731
 10
114.5852600769104
 20
-286.5003971382504
 10
109.85237077473992
 20
-287.636663328779
 10
105.00141090502407
 20
-288.0
 10
-1200.0
 20
-288.0
  0
HATCH
  5
5D
330
17
100
AcDbEntity
  8
G-r_bm1
 62
7
420
1725046
100
AcDbHatch
 10
0.0
 20
0.0
 30
0.0
210
0.0
220
0.0
230
1.0
  2
SOLID
 70
1
 71
0
 91
1
 92
3
 72
0
 73
1
 93
4
 10
-88.0
 20
-56.0
 10
-88.0
 20
-206.0
 10
-100.0
 20
-206.0
 10
-100.0
 20
-56.0
 97
0
 75
0
 76
1
 98
0
  0
LWPOLYLINE
  5
5E
330
17
100
AcDbEntity
  8
G-r_bm1
100
AcDbPolyline
 90
4
 70
1
 10
-88.0
 20
-56.0
 10
-88.0
 20
-206.0
 10
-100.0
 20
-206.0
 10
-100.0
 20
-56.0
  0
HATCH
  5
5F
330
17
100
AcDbEntity
  8
G-r_bm1
 62
7
420
1725046
100
AcDbHatch
 10
0.0
 20
0.0
 30
0.0
210
0.0
220
0.0
230
1.0
  2
SOLID
 70
1
 71
0
 91
1
 92
3
 72
0
 73
1
 93
13
 10
-88.0
 20
-56.0
 10
-88.20444504226559
 20
-54.447085729384874
 10
-88.80384757729337
 20
-53.0
 10
-89.75735931288071
 20
-51.757359312880716
 10
-91.0
 20
-50.80384757729337
 10
-92.44708572938488
 20
-50.20444504226559
 10
-94.0
 20
-50.0
 10
-95.55291427061512
 20
-50.20444504226559
 10
-97.0
 20
-50.80384757729337
 10
-98.24264068711929
 20
-51.757359312880716
 10
-99.19615242270663
 20
-53.0
 10
-99.79555495773441
 20
-54.447085729384874
 10
-100.0
 20
-56.0
 97
0
 75
0
 76
1
 98
0
  0
LWPOLYLINE
  5
60
330
17
100
AcDbEntity
  8
G-r_bm1
100
AcDbPolyline
 90
13
 70
1
 10
-88.0
 20
-56.0
 10
-88.20444504226559
 20
-54.447085729384874
 10
-88.80384757729337
 20
-53.0
 10
-89.75735931288071
 20
-51.757359312880716
 10
-91.0
 20
-50.80384757729337
 10
-92.44708572938488
 20
-50.20444504226559
 10
-94.0
 20
-50.0
 10
-95.55291427061512
 20
-50.20444504226559
 10
-97.0
 20
-50.80384757729337
 10
-98.24264068711929
 20
-51.757359312880716
 10
-99.19615242270663
 20
-53.0
 10
-99.79555495773441
 20
-54.447085729384874
 10
-100.0
 20
-56.0
  0
HATCH
  5
61
330
17
100
AcDbEntity
  8
G-r_bm1
 62
7
420
1725046
100
AcDbHatch
 10
0.0
 20
0.0
 30
0.0
210
0.0
220
0.0
230
1.0
  2
SOLID
 70
1
 71
0
 91
1
 92
3
 72
0
 73
1
 93
4
 10
-100.0
 20
-294.0
 10
-100.0
 20
-144.0
 10
-88.0
 20
-144.0
 10
-88.0
 20
-294.0
 97
0
 75
0
 76
1
 98
0
  0
LWPOLYLINE
  5
62
330
17
100
AcDbEntity
  8
G-r_bm1
100
AcDbPolyline
 90
4
 70
1
 10
-100.0
 20
-294.0
 10
-100.0
 20
-144.0
 10
-88.0
 20
-144.0
 10
-88.0
 20
-294.0
  0
HATCH
  5
63
330
17
100
AcDbEntity
  8
G-r_bm1
 62
7
420
1725046
100
AcDbHatch
 10
0.0
 20
0.0
 30
0.0
210
0.0
220
0.0
230
1.0
  2
SOLID
 70
1
 71
0
 91
1
 92
3
 72
0
 73
1
 93
13
 10
-100.0
 20
-294.0
 10
-99.79555495773441
 20
-295.55291427061513
 10
-99.19615242270663
 20
-297.0
 10
-98.24264068711929
 20
-298.24264068711926
 10
-97.0
 20
-299.19615242270663
 10
-95.55291427061512
 20
-299.7955549577344
 10
-94.0
 20
-300.0
 10
-92.44708572938488
 20
-299.7955549577344
 10
-91.0
 20
-299.19615242270663
 10
-89.75735931288071
 20
-298.24264068711926
 10
-88.80384757729337
 20
-297.0
 10
-88.20444504226559
 20
-295.55291427061513
 10
-88.0
 20
-294.0
 97
0
 75
0
 76
1
 98
0
  0
LWPOLYLINE
  5
64
330
17
100
AcDbEntity
  8
G-r_bm1
100
AcDbPolyline
 90
13
 70
1
 10
-100.0
 20
-294.0
 10
-99.79555495773441
 20
-295.55291427061513
 10
-99.19615242270663
 20
-297.0
 10
-98.24264068711929
 20
-298.24264068711926
 10
-97.0
 20
-299.19615242270663
 10
-95.55291427061512
 20
-299.7955549577344
 10
-94.0
 20
-300.0
 10
-92.44708572938488
 20
-299.7955549577344
 10
-91.0
 20
-299.19615242270663
 10
-89.75735931288071
 20
-298.24264068711926
 10
-88.80384757729337
 20
-297.0
 10
-88.20444504226559
 20
-295.55291427061513
 10
-88.0
 20
-294.0
  0
HATCH
  5
65
330
17
100
AcDbEntity
  8
G-r_bm1
 62
7
420
1725046
100
AcDbHatch
 10
0.0
 20
0.0
 30
0.0
210
0.0
220
0.0
230
1.0
  2
SOLID
 70
1
 71
0
 91
1
 92
3
 72
0
 73
1
 93
4
 10
6.0
 20
-56.0
 10
6.0
 20
-206.0
 10
-6.0
 20
-206.0
 10
-6.0
 20
-56.0
 97
0
 75
0
 76
1
 98
0
  0
LWPOLYLINE
  5
66
330
17
100
AcDbEntity
  8
G-r_bm1
100
AcDbPolyline
 90
4
 70
1
 10
6.0
 20
-56.0
 10
6.0
 20
-206.0
 10
-6.0
 20
-206.0
 10
-6.0
 20
-56.0
  0
HATCH
  5
67
330
17
100
AcDbEntity
  8
G-r_bm1
 62
7
420
1725046
100
AcDbHatch
 10
0.0
 20
0.0
 30
0.0
210
0.0
220
0.0
230
1.0
  2
SOLID
 70
1
 71
0
 91
1
 92
3
 72
0
 73
1
 93
13
 10
6.0
 20
-56.0
 10
5.79555495773441
 20
-54.447085729384874
 10
5.196152422706632
 20
-53.0
 10
4.242640687119286
 20
-51.757359312880716
 10
3.000000000000001
 20
-50.80384757729337
 10
1.5529142706151258
 20
-50.20444504226559
 10
3.6739403974420594e-16
 20
-50.0
 10
-1.552914270615125
 20
-50.20444504226559
 10
-3.0000000000000013
 20
-50.80384757729337
 10
-4.242640687119285
 20
-51.757359312880716
 10
-5.196152422706632
 20
-53.0
 10
-5.795554957734409
 20
-54.447085729384874
 10
-6.0
 20
-56.0
 97
0
 75
0
 76
1
 98
0
  0
LWPOLYLINE
  5
68
330
17
100
AcDbEntity
  8
G-r_bm1
100
AcDbPolyline
 90
13
 70
1
 10
6.0
 20
-56.0
 10
5.79555495773441
 20
-54.447085729384874
 10
5.196152422706632
 20
-53.0
 10
4.242640687119286
 20
-51.757359312880716
 10
3.000000000000001
 20
-50.80384757729337
 10
1.5529142706151258
 20
-50.20444504226559
 10
3.6739403974420594e-16
 20
-50.0
 10
-1.552914270615125
 20
-50.20444504226559
 10
-3.0000000000000013
 20
-50.80384757729337
 10
-4.242640687119285
 20
-51.757359312880716
 10
-5.196152422706632
 20
-53.0
 10
-5.795554957734409
 20
-54.447085729384874
 10
-6.0
 20
-56.0
  0
HATCH
  5
69
330
17
100
AcDbEntity
  8
G-r_bm1
 62
7
420
1725046
100
AcDbHatch
 10
0.0
 20
0.0
 30
0.0
210
0.0
220
0.0
230
1.0
  2
SOLID
 70
1
 71
0
 91
1
 92
3
 72
0
 73
1
 93
4
 10
-6.0
 20
-294.0
 10
-6.0
 20
-144.0
 10
6.0
 20
-144.0
 10
6.0
 20
-294.0
 97
0
 75
0
 76
1
 98
0
  0
LWPOLYLINE
  5
6A
330
17
100
AcDbEntity
  8
G-r_bm1
100
AcDbPolyline
 90
4
 70
1
 10
-6.0
 20
-294.0
 10
-6.0
 20
-144.0
 10
6.0
 20
-144.0
 10
6.0
 20
-294.0
  0
HATCH
  5
6B
330
17
100
AcDbEntity
  8
G-r_bm1
 62
7
420
1725046
100
AcDbHatch
 10
0.0
 20
0.0
 30
0.0
210
0.0
220
0.0
230
1.0
  2
SOLID
 70
1
 71
0
 91
1
 92
3
 72
0
 73
1
 93
13
 10
-6.0
 20
-294.0
 10
-5.79555495773441
 20
-295.55291427061513
 10
-5.196152422706633
 20
-297.0
 10
-4.242640687119286
 20
-298.24264068711926
 10
-3.0000000000000027
 20
-299.19615242270663
 10
-1.5529142706151238
 20
-299.7955549577344
 10
-1.102182119232618e-15
 20
-300.0
 10
1.5529142706151218
 20
-299.7955549577344
 10
3.000000000000001
 20
-299.19615242270663
 10
4.242640687119284
 20
-298.24264068711926
 10
5.196152422706633
 20
-297.0
 10
5.79555495773441
 20
-295.55291427061513
 10
6.0
 20
-294.0
 97
0
 75
0
 76
1
 98
0
  0
LWPOLYLINE
  5
6C
330
17
100
AcDbEntity
  8
G-r_bm1
100
AcDbPolyline
 90
13
 70
1
 10
-6.0
 20
-294.0
 10
-5.79555495773441
 20
-295.55291427061513
 10
-5.196152422706633
 20
-297.0
 10
-4.242640687119286
 20
-298.24264068711926
 10
-3.0000000000000027
 20
-299.19615242270663
 10
-1.5529142706151238
 20
-299.7955549577344
 10
-1.102182119232618e-15
 20
-300.0
 10
1.5529142706151218
 20
-299.7955549577344
 10
3.000000000000001
 20
-299.19615242270663
 10
4.242640687119284
 20
-298.24264068711926
 10
5.196152422706633
 20
-297.0
 10
5.79555495773441
 20
-295.55291427061513
 10
6.0
 20
-294.0
  0
HATCH
  5
6D
330
17
100
AcDbEntity
  8
G-r_bm1
 62
7
420
1725046
100
AcDbHatch
 10
0.0
 20
0.0
 30
0.0
210
0.0
220
0.0
230
1.0
  2
SOLID
 70
1
 71
0
 91
1
 92
3
 72
0
 73
1
 93
4
 10
100.0
 20
-56.0
 10
100.0
 20
-206.0
 10
88.0
 20
-206.0
 10
88.0
 20
-56.0
 97
0
 75
0
 76
1
 98
0
  0
LWPOLYLINE
  5
6E
330
17
100
AcDbEntity
  8
G-r_bm1
100
AcDbPolyline
 90
4
 70
1
 10
100.0
 20
-56.0
 10
100.0
 20
-206.0
 10
88.0
 20
-206.0
 10
88.0
 20
-56.0
  0
HATCH
  5
6F
330
17
100
AcDbEntity
  8
G-r_bm1
 62
7
420
1725046
100
AcDbHatch
 10
0.0
 20
0.0
 30
0.0
210
0.0
220
0.0
230
1.0
  2
SOLID
 70
1
 71
0
 91
1
 92
3
 72
0
 73
1
 93
13
 10
100.0
 20
-56.0
 10
99.79555495773441
 20
-54.447085729384874
 10
99.19615242270663
 20
-53.0
 10
98.24264068711929
 20
-51.757359312880716
 10
97.0
 20
-50.80384757729337
 10
95.55291427061512
 20
-50.20444504226559
 10
94.0
 20
-50.0
 10
92.44708572938488
 20
-50.20444504226559
 10
91.0
 20
-50.80384757729337
 10
89.75735931288071
 20
-51.757359312880716
 10
88.80384757729337
 20
-53.0
 10
88.20444504226559
 20
-54.447085729384874
 10
88.0
 20
-56.0
 97
0
 75
0
 76
1
 98
0
  0
LWPOLYLINE
  5
70
330
17
100
AcDbEntity
  8
G-r_bm1
100
AcDbPolyline
 90
13
 70
1
 10
100.0
 20
-56.0
 10
99.79555495773441
 20
-54.447085729384874
 10
99.19615242270663
 20
-53.0
 10
98.24264068711929
 20
-51.757359312880716
 10
97.0
 20
-50.80384757729337
 10
95.55291427061512
 20
-50.20444504226559
 10
94.0
 20
-50.0
 10
92.44708572938488
 20
-50.20444504226559
 10
91.0
 20
-50.80384757729337
 10
89.75735931288071
 20
-51.757359312880716
 10
88.80384757729337
 20
-53.0
 10
88.20444504226559
 20
-54.447085729384874
 10
88.0
 20
-56.0
  0
HATCH
  5
71
330
17
100
AcDbEntity
  8
G-r_bm1
 62
7
420
1725046
100
AcDbHatch
 10
0.0
 20
0.0
 30
0.0
210
0.0
220
0.0
230
1.0
  2
SOLID
 70
1
 71
0
 91
1
 92
3
 72
0
 73
1
 93
4
 10
88.0
 20
-294.0
 10
88.0
 20
-144.0
 10
100.0
 20
-144.0
 10
100.0
 20
-294.0
 97
0
 75
0
 76
1
 98
0
  0
LWPOLYLINE
  5
72
330
17
100
AcDbEntity
  8
G-r_bm1
100
AcDbPolyline
 90
4
 70
1
 10
88.0
 20
-294.0
 10
88.0
 20
-144.0
 10
100.0
 20
-144.0
 10
100.0
 20
-294.0
  0
HATCH
  5
73
330
17
100
AcDbEntity
  8
G-r_bm1
 62
7
420
1725046
100
AcDbHatch
 10
0.0
 20
0.0
 30
0.0
210
0.0
220
0.0
230
1.0
  2
SOLID
 70
1
 71
0
 91
1
 92
3
 72
0
 73
1
 93
13
 10
88.0
 20
-294.0
 10
88.20444504226559
 20
-295.55291427061513
 10
88.80384757729337
 20
-297.0
 10
89.75735931288071
 20
-298.24264068711926
 10
91.0
 20
-299.19615242270663
 10
92.44708572938488
 20
-299.7955549577344
 10
94.0
 20
-300.0
 10
95.55291427061512
 20
-299.7955549577344
 10
97.0
 20
-299.19615242270663
 10
98.24264068711929
 20
-298.24264068711926
 10
99.19615242270663
 20
-297.0
 10
99.79555495773441
 20
-295.55291427061513
 10
100.0
 20
-294.0
 97
0
 75
0
 76
1
 98
0
  0
LWPOLYLINE
  5
74
330
17
100
AcDbEntity
  8
G-r_bm1
100
AcDbPolyline
 90
13
 70
1
 10
88.0
 20
-294.0
 10
88.20444504226559
 20
-295.55291427061513
 10
88.80384757729337
 20
-297.0
 10
89.75735931288071
 20
-298.24264068711926
 10
91.0
 20
-299.19615242270663
 10
92.44708572938488
 20
-299.7955549577344
 10
94.0
 20
-300.0
 10
95.55291427061512
 20
-299.7955549577344
 10
97.0
 20
-299.19615242270663
 10
98.24264068711929
 20
-298.24264068711926
 10
99.19615242270663
 20
-297.0
 10
99.79555495773441
 20
-295.55291427061513
 10
100.0
 20
-294.0
  0
HATCH
  5
75
330
17
100
AcDbEntity
  8
G-r_bm1
 62
7
420
1725046
100
AcDbHatch
 10
0.0
 20
0.0
 30
0.0
210
0.0
220
0.0
230
1.0
  2
SOLID
 70
1
 71
0
 91
1
 92
3
 72
0
 73
1
 93
4
 10
-88.0
 20
-80.0
 10
-88.0
 20
-230.0
 10
-100.0
 20
-230.0
 10
-100.0
 20
-80.0
 97
0
 75
0
 76
1
 98
0
  0
LWPOLYLINE
  5
76
330
17
100
AcDbEntity
  8
G-r_bm1
100
AcDbPolyline
 90
4
 70
1
 10
-88.0
 20
-80.0
 10
-88.0
 20
-230.0
 10
-100.0
 20
-230.0
 10
-100.0
 20
-80.0
  0
HATCH
  5
77
330
17
100
AcDbEntity
  8
G-r_bm1
 62
7
420
1725046
100
AcDbHatch
 10
0.0
 20
0.0
 30
0.0
210
0.0
220
0.0
230
1.0
  2
SOLID
 70
1
 71
0
 91
1
 92
3
 72
0
 73
1
 93
13
 10
-88.0
 20
-80.0
 10
-88.20444504226559
 20
-78.44708572938488
 10
-88.80384757729337
 20
-77.0
 10
-89.75735931288071
 20
-75.75735931288071
 10
-91.0
 20
-74.80384757729337
 10
-92.44708572938488
 20
-74.20444504226559
 10
-94.0
 20
-74.0
 10
-95.55291427061512
 20
-74.20444504226559
 10
-97.0
 20
-74.80384757729337
 10
-98.24264068711929
 20
-75.75735931288071
 10
-99.19615242270663
 20
-77.0
 10
-99.79555495773441
 20
-78.44708572938487
 10
-100.0
 20
-80.0
 97
0
 75
0
 76
1
 98
0
  0
LWPOLYLINE
  5
78
330
17
100
AcDbEntity
  8
G-r_bm1
100
AcDbPolyline
 90
13
 70
1
 10
-88.0
 20
-80.0
 10
-88.20444504226559
 20
-78.44708572938488
 10
-88.80384757729337
 20
-77.0
 10
-89.75735931288071
 20
-75.75735931288071
 10
-91.0
 20
-74.80384757729337
 10
-92.44708572938488
 20
-74.20444504226559
 10
-94.0
 20
-74.0
 10
-95.55291427061512
 20
-74.20444504226559
 10
-97.0
 20
-74.80384757729337
 10
-98.24264068711929
 20
-75.75735931288071
 10
-99.19615242270663
 20
-77.0
 10
-99.79555495773441
 20
-78.44708572938487
 10
-100.0
 20
-80.0
  0
HATCH
  5
79
330
17
100
AcDbEntity
  8
G-r_bm1
 62
7
420
1725046
100
AcDbHatch
 10
0.0
 20
0.0
 30
0.0
210
0.0
220
0.0
230
1.0
  2
SOLID
 70
1
 71
0
 91
1
 92
3
 72
0
 73
1
 93
4
 10
-100.0
 20
-270.0
 10
-100.0
 20
-120.0
 10
-88.0
 20
-120.0
 10
-88.0
 20
-270.0
 97
0
 75
0
 76
1
 98
0
  0
LWPOLYLINE
  5
7A
330
17
100
AcDbEntity
  8
G-r_bm1
100
AcDbPolyline
 90
4
 70
1
 10
-100.0
 20
-270.0
 10
-100.0
 20
-120.0
 10
-88.0
 20
-120.0
 10
-88.0
 20
-270.0
  0
HATCH
  5
7B
330
17
100
AcDbEntity
  8
G-r_bm1
 62
7
420
1725046
100
AcDbHatch
 10
0.0
 20
0.0
 30
0.0
210
0.0
220
0.0
230
1.0
  2
SOLID
 70
1
 71
0
 91
1
 92
3
 72
0
 73
1
 93
13
 10
-100.0
 20
-270.0
 10
-99.79555495773441
 20
-271.55291427061513
 10
-99.19615242270663
 20
-273.0
 10
-98.24264068711929
 20
-274.24264068711926
 10
-97.0
 20
-275.19615242270663
 10
-95.55291427061512
 20
-275.7955549577344
 10
-94.0
 20
-276.0
 10
-92.44708572938488
 20
-275.7955549577344
 10
-91.0
 20
-275.19615242270663
 10
-89.75735931288071
 20
-274.24264068711926
 10
-88.80384757729337
 20
-273.0
 10
-88.20444504226559
 20
-271.55291427061513
 10
-88.0
 20
-270.0
 97
0
 75
0
 76
1
 98
0
  0
LWPOLYLINE
  5
7C
330
17
100
AcDbEntity
  8
G-r_bm1
100
AcDbPolyline
 90
13
 70
1
 10
-100.0
 20
-270.0
 10
-99.79555495773441
 20
-271.55291427061513
 10
-99.19615242270663
 20
-273.0
 10
-98.24264068711929
 20
-274.24264068711926
 10
-97.0
 20
-275.19615242270663
 10
-95.55291427061512
 20
-275.7955549577344
 10
-94.0
 20
-276.0
 10
-92.44708572938488
 20
-275.7955549577344
 10
-91.0
 20
-275.19615242270663
 10
-89.75735931288071
 20
-274.24264068711926
 10
-88.80384757729337
 20
-273.0
 10
-88.20444504226559
 20
-271.55291427061513
 10
-88.0
 20
-270.0
  0
HATCH
  5
7D
330
17
100
AcDbEntity
  8
G-r_bm1
 62
7
420
1725046
100
AcDbHatch
 10
0.0
 20
0.0
 30
0.0
210
0.0
220
0.0
230
1.0
  2
SOLID
 70
1
 71
0
 91
1
 92
3
 72
0
 73
1
 93
4
 10
100.0
 20
-80.0
 10
100.0
 20
-230.0
 10
88.0
 20
-230.0
 10
88.0
 20
-80.0
 97
0
 75
0
 76
1
 98
0
  0
LWPOLYLINE
  5
7E
330
17
100
AcDbEntity
  8
G-r_bm1
100
AcDbPolyline
 90
4
 70
1
 10
100.0
 20
-80.0
 10
100.0
 20
-230.0
 10
88.0
 20
-230.0
 10
88.0
 20
-80.0
  0
HATCH
  5
7F
330
17
100
AcDbEntity
  8
G-r_bm1
 62
7
420
1725046
100
AcDbHatch
 10
0.0
 20
0.0
 30
0.0
210
0.0
220
0.0
230
1.0
  2
SOLID
 70
1
 71
0
 91
1
 92
3
 72
0
 73
1
 93
13
 10
100.0
 20
-80.0
 10
99.79555495773441
 20
-78.44708572938488
 10
99.19615242270663
 20
-77.0
 10
98.24264068711929
 20
-75.75735931288071
 10
97.0
 20
-74.80384757729337
 10
95.55291427061512
 20
-74.20444504226559
 10
94.0
 20
-74.0
 10
92.44708572938488
 20
-74.20444504226559
 10
91.0
 20
-74.80384757729337
 10
89.75735931288071
 20
-75.75735931288071
 10
88.80384757729337
 20
-77.0
 10
88.20444504226559
 20
-78.44708572938487
 10
88.0
 20
-80.0
 97
0
 75
0
 76
1
 98
0
  0
LWPOLYLINE
  5
80
330
17
100
AcDbEntity
  8
G-r_bm1
100
AcDbPolyline
 90
13
 70
1
 10
100.0
 20
-80.0
 10
99.79555495773441
 20
-78.44708572938488
 10
99.19615242270663
 20
-77.0
 10
98.24264068711929
 20
-75.75735931288071
 10
97.0
 20
-74.80384757729337
 10
95.55291427061512
 20
-74.20444504226559
 10
94.0
 20
-74.0
 10
92.44708572938488
 20
-74.20444504226559
 10
91.0
 20
-74.80384757729337
 10
89.75735931288071
 20
-75.75735931288071
 10
88.80384757729337
 20
-77.0
 10
88.20444504226559
 20
-78.44708572938487
 10
88.0
 20
-80.0
  0
HATCH
  5
81
330
17
100
AcDbEntity
  8
G-r_bm1
 62
7
420
1725046
100
AcDbHatch
 10
0.0
 20
0.0
 30
0.0
210
0.0
220
0.0
230
1.0
  2
SOLID
 70
1
 71
0
 91
1
 92
3
 72
0
 73
1
 93
4
 10
88.0
 20
-270.0
 10
88.0
 20
-120.0
 10
100.0
 20
-120.0
 10
100.0
 20
-270.0
 97
0
 75
0
 76
1
 98
0
  0
LWPOLYLINE
  5
82
330
17
100
AcDbEntity
  8
G-r_bm1
100
AcDbPolyline
 90
4
 70
1
 10
88.0
 20
-270.0
 10
88.0
 20
-120.0
 10
100.0
 20
-120.0
 10
100.0
 20
-270.0
  0
HATCH
  5
83
330
17
100
AcDbEntity
  8
G-r_bm1
 62
7
420
1725046
100
AcDbHatch
 10
0.0
 20
0.0
 30
0.0
210
0.0
220
0.0
230
1.0
  2
SOLID
 70
1
 71
0
 91
1
 92
3
 72
0
 73
1
 93
13
 10
88.0
 20
-270.0
 10
88.20444504226559
 20
-271.55291427061513
 10
88.80384757729337
 20
-273.0
 10
89.75735931288071
 20
-274.24264068711926
 10
91.0
 20
-275.19615242270663
 10
92.44708572938488
 20
-275.7955549577344
 10
94.0
 20
-276.0
 10
95.55291427061512
 20
-275.7955549577344
 10
97.0
 20
-275.19615242270663
 10
98.24264068711929
 20
-274.24264068711926
 10
99.19615242270663
 20
-273.0
 10
99.79555495773441
 20
-271.55291427061513
 10
100.0
 20
-270.0
 97
0
 75
0
 76
1
 98
0
  0
LWPOLYLINE
  5
84
330
17
100
AcDbEntity
  8
G-r_bm1
100
AcDbPolyline
 90
13
 70
1
 10
88.0
 20
-270.0
 10
88.20444504226559
 20
-271.55291427061513
 10
88.80384757729337
 20
-273.0
 10
89.75735931288071
 20
-274.24264068711926
 10
91.0
 20
-275.19615242270663
 10
92.44708572938488
 20
-275.7955549577344
 10
94.0
 20
-276.0
 10
95.55291427061512
 20
-275.7955549577344
 10
97.0
 20
-275.19615242270663
 10
98.24264068711929
 20
-274.24264068711926
 10
99.19615242270663
 20
-273.0
 10
99.79555495773441
 20
-271.55291427061513
 10
100.0
 20
-270.0
  0
HATCH
  5
86
330
17
100
AcDbEntity
  8
G-r_bas
 62
7
420
15105570
100
AcDbHatch
 10
0.0
 20
0.0
 30
0.0
210
0.0
220
0.0
230
1.0
  2
SOLID
 70
1
 71
0
 91
1
 92
3
 72
0
 73
1
 93
4
 10
-76.0
 20
-80.0
 10
-76.0
 20
-274.0
 10
-88.0
 20
-274.0
 10
-88.0
 20
-80.0
 97
0
 75
0
 76
1
 98
0
  0
LWPOLYLINE
  5
87
330
17
100
AcDbEntity
  8
G-r_bas
100
AcDbPolyline
 90
4
 70
1
 10
-76.0
 20
-80.0
 10
-76.0
 20
-274.0
 10
-88.0
 20
-274.0
 10
-88.0
 20
-80.0
  0
HATCH
  5
88
330
17
100
AcDbEntity
  8
G-r_bas
 62
7
420
15105570
100
AcDbHatch
 10
0.0
 20
0.0
 30
0.0
210
0.0
220
0.0
230
1.0
  2
SOLID
 70
1
 71
0
 91
1
 92
3
 72
0
 73
1
 93
13
 10
-76.0
 20
-80.0
 10
-76.20444504226559
 20
-78.44708572938488
 10
-76.80384757729337
 20
-77.0
 10
-77.75735931288071
 20
-75.75735931288071
 10
-79.0
 20
-74.80384757729337
 10
-80.44708572938488
 20
-74.20444504226559
 10
-82.0
 20
-74.0
 10
-83.55291427061512
 20
-74.20444504226559
 10
-85.0
 20
-74.80384757729337
 10
-86.24264068711929
 20
-75.75735931288071
 10
-87.19615242270663
 20
-77.0
 10
-87.79555495773441
 20
-78.44708572938487
 10
-88.0
 20
-80.0
 97
0
 75
0
 76
1
 98
0
  0
LWPOLYLINE
  5
89
330
17
100
AcDbEntity
  8
G-r_bas
100
AcDbPolyline
 90
13
 70
1
 10
-76.0
 20
-80.0
 10
-76.20444504226559
 20
-78.44708572938488
 10
-76.80384757729337
 20
-77.0
 10
-77.75735931288071
 20
-75.75735931288071
 10
-79.0
 20
-74.80384757729337
 10
-80.44708572938488
 20
-74.20444504226559
 10
-82.0
 20
-74.0
 10
-83.55291427061512
 20
-74.20444504226559
 10
-85.0
 20
-74.80384757729337
 10
-86.24264068711929
 20
-75.75735931288071
 10
-87.19615242270663
 20
-77.0
 10
-87.79555495773441
 20
-78.44708572938487
 10
-88.0
 20
-80.0
  0
HATCH
  5
8A
330
17
100
AcDbEntity
  8
G-r_bas
 62
7
420
15105570
100
AcDbHatch
 10
0.0
 20
0.0
 30
0.0
210
0.0
220
0.0
230
1.0
  2
SOLID
 70
1
 71
0
 91
1
 92
3
 72
0
 73
1
 93
4
 10
88.0
 20
-80.0
 10
88.0
 20
-274.0
 10
76.0
 20
-274.0
 10
76.0
 20
-80.0
 97
0
 75
0
 76
1
 98
0
  0
LWPOLYLINE
  5
8B
330
17
100
AcDbEntity
  8
G-r_bas
100
AcDbPolyline
 90
4
 70
1
 10
88.0
 20
-80.0
 10
88.0
 20
-274.0
 10
76.0
 20
-274.0
 10
76.0
 20
-80.0
  0
HATCH
  5
8C
330
17
100
AcDbEntity
  8
G-r_bas
 62
7
420
15105570
100
AcDbHatch
 10
0.0
 20
0.0
 30
0.0
210
0.0
220
0.0
230
1.0
  2
SOLID
 70
1
 71
0
 91
1
 92
3
 72
0
 73
1
 93
13
 10
88.0
 20
-80.0
 10
87.79555495773441
 20
-78.44708572938488
 10
87.19615242270663
 20
-77.0
 10
86.24264068711929
 20
-75.75735931288071
 10
85.0
 20
-74.80384757729337
 10
83.55291427061512
 20
-74.20444504226559
 10
82.0
 20
-74.0
 10
80.44708572938488
 20
-74.20444504226559
 10
79.0
 20
-74.80384757729337
 10
77.75735931288071
 20
-75.75735931288071
 10
76.80384757729337
 20
-77.0
 10
76.20444504226559
 20
-78.44708572938487
 10
76.0
 20
-80.0
 97
0
 75
0
 76
1
 98
0
  0
LWPOLYLINE
  5
8D
330
17
100
AcDbEntity
  8
G-r_bas
100
AcDbPolyline
 90
13
 70
1
 10
88.0
 20
-80.0
 10
87.79555495773441
 20
-78.44708572938488
 10
87.19615242270663
 20
-77.0
 10
86.24264068711929
 20
-75.75735931288071
 10
85.0
 20
-74.80384757729337
 10
83.55291427061512
 20
-74.20444504226559
 10
82.0
 20
-74.0
 10
80.44708572938488
 20
-74.20444504226559
 10
79.0
 20
-74.80384757729337
 10
77.75735931288071
 20
-75.75735931288071
 10
76.80384757729337
 20
-77.0
 10
76.20444504226559
 20
-78.44708572938487
 10
76.0
 20
-80.0
  0
HATCH
  5
8E
330
17
100
AcDbEntity
  8
G-r_bas
 62
7
420
15105570
100
AcDbHatch
 10
0.0
 20
0.0
 30
0.0
210
0.0
220
0.0
230
1.0
  2
SOLID
 70
1
 71
0
 91
1
 92
3
 72
0
 73
1
 93
26
 10
-1086.0
 20
-92.0
 10
103.00154810302273
 20
-92.0
 10
107.85237077473991
 20
-92.36333667122098
 10
112.58526007691042
 20
-93.49960286174962
 10
117.08212846433302
 20
-95.36226673602691
 10
121.23224811305886
 20
-97.9054633276411
 10
124.93342930387885
 20
-101.06657069612115
 10
128.09453667235888
 20
-104.76775188694114
 10
130.6377332639731
 20
-108.91787153566698
 10
132.50039713825038
 20
-113.41473992308958
 10
133.63666332877904
 20
-118.14762922526009
 10
134.01771014786564
 20
-122.98928812264293
 10
134.0
 20
-292.0
 10
122.0
 20
-292.0
 10
121.98228985213434
 20
-123.01071187735707
 10
121.74775370097787
 20
-120.03064752272837
 10
121.0524286765073
 20
-117.13441035816304
 10
119.9125929454453
 20
-114.38260347735569
 10
118.35631304638848
 20
-111.84298549843521
 10
116.42190975544852
 20
-109.57809024455148
 10
114.15701450156479
 20
-107.64368695361152
 10
111.61739652264431
 20
-106.0874070545547
 10
108.86558964183696
 20
-104.9475713234927
 10
105.96935247727163
 20
-104.25224629902213
 10
102.99845189697727
 20
-104.0
 10
-1086.0
 20
-104.0
 97
0
 75
0
 76
1
 98
0
  0
LWPOLYLINE
  5
8F
330
17
100
AcDbEntity
  8
G-r_bas
100
AcDbPolyline
 90
26
 70
1
 10
-1086.0
 20
-92.0
 10
103.00154810302273
 20
-92.0
 10
107.85237077473991
 20
-92.36333667122098
 10
112.58526007691042
 20
-93.49960286174962
 10
117.08212846433302
 20
-95.36226673602691
 10
121.23224811305886
 20
-97.9054633276411
 10
124.93342930387885
 20
-101.06657069612115
 10
128.09453667235888
 20
-104.76775188694114
 10
130.6377332639731
 20
-108.91787153566698
 10
132.50039713825038
 20
-113.41473992308958
 10
133.63666332877904
 20
-118.14762922526009
 10
134.01771014786564
 20
-122.98928812264293
 10
134.0
 20
-292.0
 10
122.0
 20
-292.0
 10
121.98228985213434
 20
-123.01071187735707
 10
121.74775370097787
 20
-120.03064752272837
 10
121.0524286765073
 20
-117.13441035816304
 10
119.9125929454453
 20
-114.38260347735569
 10
118.35631304638848
 20
-111.84298549843521
 10
116.42190975544852
 20
-109.57809024455148
 10
114.15701450156479
 20
-107.64368695361152
 10
111.61739652264431
 20
-106.0874070545547
 10
108.86558964183696
 20
-104.9475713234927
 10
105.96935247727163
 20
-104.25224629902213
 10
102.99845189697727
 20
-104.0
 10
-1086.0
 20
-104.0
  0
HATCH
  5
91
330
17
100
AcDbEntity
  8
G-r_anc
 62
7
420
12597547
100
AcDbHatch
 10
0.0
 20
0.0
 30
0.0
210
0.0
220
0.0
230
1.0
  2
SOLID
 70
1
 71
0
 91
1
 92
3
 72
0
 73
1
 93
4
 10
-145.0
 20
-54.0
 10
295.0
 20
-54.0
 10
295.0
 20
-70.0
 10
-145.0
 20
-70.0
 97
0
 75
0
 76
1
 98
0
  0
LWPOLYLINE
  5
92
330
17
100
AcDbEntity
  8
G-r_anc
100
AcDbPolyline
 90
4
 70
1
 10
-145.0
 20
-54.0
 10
295.0
 20
-54.0
 10
295.0
 20
-70.0
 10
-145.0
 20
-70.0
  0
HATCH
  5
94
330
17
100
AcDbEntity
  8
G-r_bp
 62
7
420
3428459
100
AcDbHatch
 10
0.0
 20
0.0
 30
0.0
210
0.0
220
0.0
230
1.0
  2
SOLID
 70
1
 71
0
 91
1
 92
3
 72
0
 73
1
 93
4
 10
-121.0
 20
-87.0
 10
-109.0
 20
-87.0
 10
-109.0
 20
-37.0
 10
-121.0
 20
-37.0
 97
0
 75
0
 76
1
 98
0
  0
LWPOLYLINE
  5
95
330
17
100
AcDbEntity
  8
G-r_bp
100
AcDbPolyline
 90
4
 70
1
 10
-121.0
 20
-87.0
 10
-109.0
 20
-87.0
 10
-109.0
 20
-37.0
 10
-121.0
 20
-37.0
  0
HATCH
  5
96
330
17
100
AcDbEntity
  8
G-r_anc
 62
7
420
12597547
100
AcDbHatch
 10
0.0
 20
0.0
 30
0.0
210
0.0
220
0.0
230
1.0
  2
SOLID
 70
1
 71
0
 91
1
 92
3
 72
0
 73
1
 93
4
 10
-145.0
 20
-165.0
 10
295.0
 20
-165.0
 10
295.0
 20
-181.0
 10
-145.0
 20
-181.0
 97
0
 75
0
 76
1
 98
0
  0
LWPOLYLINE
  5
97
330
17
100
AcDbEntity
  8
G-r_anc
100
AcDbPolyline
 90
4
 70
1
 10
-145.0
 20
-165.0
 10
295.0
 20
-165.0
 10
295.0
 20
-181.0
 10
-145.0
 20
-181.0
  0
HATCH
  5
98
330
17
100
AcDbEntity
  8
G-r_bp
 62
7
420
3428459
100
AcDbHatch
 10
0.0
 20
0.0
 30
0.0
210
0.0
220
0.0
230
1.0
  2
SOLID
 70
1
 71
0
 91
1
 92
3
 72
0
 73
1
 93
4
 10
-121.0
 20
-198.0
 10
-109.0
 20
-198.0
 10
-109.0
 20
-148.0
 10
-121.0
 20
-148.0
 97
0
 75
0
 76
1
 98
0
  0
LWPOLYLINE
  5
99
330
17
100
AcDbEntity
  8
G-r_bp
100
AcDbPolyline
 90
4
 70
1
 10
-121.0
 20
-198.0
 10
-109.0
 20
-198.0
 10
-109.0
 20
-148.0
 10
-121.0
 20
-148.0
  0
HATCH
  5
9A
330
17
100
AcDbEntity
  8
G-r_anc
 62
7
420
12597547
100
AcDbHatch
 10
0.0
 20
0.0
 30
0.0
210
0.0
220
0.0
230
1.0
  2
SOLID
 70
1
 71
0
 91
1
 92
1
 93
1
 72
2
 10
-40.0
 20
-42.0
 40
8
 50
0
 51
360
 73
1
 97
0
 75
0
 76
1
 98
0
  0
CIRCLE
  5
9B
330
17
100
AcDbEntity
  8
G-r_anc
100
AcDbCircle
 10
-40.0
 20
-42.0
 30
0.0
 40
8.0
  0
HATCH
  5
9C
330
17
100
AcDbEntity
  8
G-r_anc
 62
7
420
12597547
100
AcDbHatch
 10
0.0
 20
0.0
 30
0.0
210
0.0
220
0.0
230
1.0
  2
SOLID
 70
1
 71
0
 91
1
 92
1
 93
1
 72
2
 10
40.0
 20
-42.0
 40
8
 50
0
 51
360
 73
1
 97
0
 75
0
 76
1
 98
0
  0
CIRCLE
  5
9D
330
17
100
AcDbEntity
  8
G-r_anc
100
AcDbCircle
 10
40.0
 20
-42.0
 30
0.0
 40
8.0
  0
HATCH
  5
9E
330
17
100
AcDbEntity
  8
G-r_anc
 62
7
420
12597547
100
AcDbHatch
 10
0.0
 20
0.0
 30
0.0
210
0.0
220
0.0
230
1.0
  2
SOLID
 70
1
 71
0
 91
1
 92
1
 93
1
 72
2
 10
-40.0
 20
-198.0
 40
8
 50
0
 51
360
 73
1
 97
0
 75
0
 76
1
 98
0
  0
CIRCLE
  5
9F
330
17
100
AcDbEntity
  8
G-r_anc
100
AcDbCircle
 10
-40.0
 20
-198.0
 30
0.0
 40
8.0
  0
HATCH
  5
A0
330
17
100
AcDbEntity
  8
G-r_anc
 62
7
420
12597547
100
AcDbHatch
 10
0.0
 20
0.0
 30
0.0
210
0.0
220
0.0
230
1.0
  2
SOLID
 70
1
 71
0
 91
1
 92
1
 93
1
 72
2
 10
40.0
 20
-198.0
 40
8
 50
0
 51
360
 73
1
 97
0
 75
0
 76
1
 98
0
  0
CIRCLE
  5
A1
330
17
100
AcDbEntity
  8
G-r_anc
100
AcDbCircle
 10
40.0
 20
-198.0
 30
0.0
 40
8.0
  0
HATCH
  5
A3
330
17
100
AcDbEntity
  8
G-r_eplate
 62
7
420
15068145
100
AcDbHatch
 10
0.0
 20
0.0
 30
0.0
210
0.0
220
0.0
230
1.0
  2
SOLID
 70
1
 71
0
 91
1
 92
3
 72
0
 73
1
 93
4
 10
-70.0
 20
-260.0
 10
70.0
 20
-260.0
 10
70.0
 20
0.0
 10
-70.0
 20
0.0
 97
0
 75
0
 76
1
 98
0
  0
LWPOLYLINE
  5
A4
330
17
100
AcDbEntity
  8
G-r_eplate
100
AcDbPolyline
 90
4
 70
1
 10
-70.0
 20
-260.0
 10
70.0
 20
-260.0
 10
70.0
 20
0.0
 10
-70.0
 20
0.0
  0
HATCH
  5
A6
330
17
100
AcDbEntity
  8
G-r_ipe
 62
7
420
15199730
100
AcDbHatch
 10
0.0
 20
0.0
 30
0.0
210
0.0
220
0.0
230
1.0
  2
SOLID
 70
1
 71
0
 91
1
 92
3
 72
0
 73
1
 93
12
 10
-60.0
 20
0.0
 10
60.0
 20
0.0
 10
60.0
 20
-9.8
 10
3.1
 20
-9.8
 10
3.1
 20
-230.2
 10
60.0
 20
-230.2
 10
60.0
 20
-240.0
 10
-60.0
 20
-240.0
 10
-60.0
 20
-230.2
 10
-3.1
 20
-230.2
 10
-3.1
 20
-9.8
 10
-60.0
 20
-9.8
 97
0
 75
0
 76
1
 98
0
  0
LWPOLYLINE
  5
A7
330
17
100
AcDbEntity
  8
G-r_ipe
100
AcDbPolyline
 90
12
 70
1
 10
-60.0
 20
0.0
 10
60.0
 20
0.0
 10
60.0
 20
-9.8
 10
3.1
 20
-9.8
 10
3.1
 20
-230.2
 10
60.0
 20
-230.2
 10
60.0
 20
-240.0
 10
-60.0
 20
-240.0
 10
-60.0
 20
-230.2
 10
-3.1
 20
-230.2
 10
-3.1
 20
-9.8
 10
-60.0
 20
-9.8
  0
HATCH
  5
A9
330
17
100
AcDbEntity
  8
G-r_grout
 62
7
420
15395042
100
AcDbHatch
 10
0.0
 20
0.0
 30
0.0
210
0.0
220
0.0
230
1.0
  2
SOLID
 70
1
 71
0
 91
1
 92
3
 72
0
 73
1
 93
4
 10
200.0
 20
-260.0
 10
225.0
 20
-260.0
 10
225.0
 20
0.0
 10
200.0
 20
0.0
 97
0
 75
0
 76
1
 98
0
  0
LWPOLYLINE
  5
AA
330
17
100
AcDbEntity
  8
G-r_grout
100
AcDbPolyline
 90
4
 70
1
 10
200.0
 20
-260.0
 10
225.0
 20
-260.0
 10
225.0
 20
0.0
 10
200.0
 20
0.0
  0
HATCH
  5
AB
330
17
100
AcDbEntity
  8
G-r_eplate
 62
7
420
15068145
100
AcDbHatch
 10
0.0
 20
0.0
 30
0.0
210
0.0
220
0.0
230
1.0
  2
SOLID
 70
1
 71
0
 91
1
 92
3
 72
0
 73
1
 93
4
 10
225.0
 20
-260.0
 10
237.0
 20
-260.0
 10
237.0
 20
0.0
 10
225.0
 20
0.0
 97
0
 75
0
 76
1
 98
0
  0
LWPOLYLINE
  5
AC
330
17
100
AcDbEntity
  8
G-r_eplate
100
AcDbPolyline
 90
4
 70
1
 10
225.0
 20
-260.0
 10
237.0
 20
-260.0
 10
237.0
 20
0.0
 10
225.0
 20
0.0
  0
HATCH
  5
AD
330
17
100
AcDbEntity
  8
G-r_ipe
 62
7
420
15199730
100
AcDbHatch
 10
0.0
 20
0.0
 30
0.0
210
0.0
220
0.0
230
1.0
  2
SOLID
 70
1
 71
0
 91
1
 92
3
 72
0
 73
1
 93
4
 10
237.0
 20
-240.0
 10
587.0
 20
-240.0
 10
587.0
 20
0.0
 10
237.0
 20
0.0
 97
0
 75
0
 76
1
 98
0
  0
LWPOLYLINE
  5
AE
330
17
100
AcDbEntity
  8
G-r_ipe
100
AcDbPolyline
 90
4
 70
1
 10
237.0
 20
-240.0
 10
587.0
 20
-240.0
 10
587.0
 20
0.0
 10
237.0
 20
0.0
  0
HATCH
  5
B0
330
17
100
AcDbEntity
  8
G-r_ipef
 62
7
420
10861005
100
AcDbHatch
 10
0.0
 20
0.0
 30
0.0
210
0.0
220
0.0
230
1.0
  2
SOLID
 70
1
 71
0
 91
1
 92
3
 72
0
 73
1
 93
4
 10
237.0
 20
-9.8
 10
587.0
 20
-9.8
 10
587.0
 20
0.0
 10
237.0
 20
0.0
 97
0
 75
0
 76
1
 98
0
  0
LWPOLYLINE
  5
B1
330
17
100
AcDbEntity
  8
G-r_ipef
100
AcDbPolyline
 90
4
 70
1
 10
237.0
 20
-9.8
 10
587.0
 20
-9.8
 10
587.0
 20
0.0
 10
237.0
 20
0.0
  0
HATCH
  5
B2
330
17
100
AcDbEntity
  8
G-r_ipef
 62
7
420
10861005
100
AcDbHatch
 10
0.0
 20
0.0
 30
0.0
210
0.0
220
0.0
230
1.0
  2
SOLID
 70
1
 71
0
 91
1
 92
3
 72
0
 73
1
 93
4
 10
237.0
 20
-240.0
 10
587.0
 20
-240.0
 10
587.0
 20
-230.2
 10
237.0
 20
-230.2
 97
0
 75
0
 76
1
 98
0
  0
LWPOLYLINE
  5
B3
330
17
100
AcDbEntity
  8
G-r_ipef
100
AcDbPolyline
 90
4
 70
1
 10
237.0
 20
-240.0
 10
587.0
 20
-240.0
 10
587.0
 20
-230.2
 10
237.0
 20
-230.2
  0
TEXT
  5
B5
330
17
100
AcDbEntity
  8
T-small
 62
47
420
4473924
100
AcDbText
 10
412.0
 20
-285.0
 30
0.0
 40
22.86
  1
IPE 240 D4X (después)
  7
ESTANDAR
 41
0.885
 72
1
 11
412.0
 21
-285.0
 31
0.0
100
AcDbText
  0
TEXT
  5
B7
330
17
100
AcDbEntity
  8
T-label
 62
49
420
2236962
100
AcDbText
 10
0.0
 20
135.0
 30
0.0
 40
22.86
  1
columna D4
  7
ESTANDAR
 41
0.885
 72
1
 11
0.0
 21
135.0
 31
0.0
100
AcDbText
  0
TEXT
  5
B9
330
17
100
AcDbEntity
  8
T-bsm
 62
156
420
929604
100
AcDbText
 10
-700.0
 20
25.0
 30
0.0
 40
22.86
  1
VCS eje 4: 3Ø12 + 3Ø12, gancho contra los estribos
  7
NEGRITA
 41
0.885
 72
1
 11
-700.0
 21
25.0
 31
0.0
100
AcDbText
  0
TEXT
  5
BB
330
17
100
AcDbEntity
  8
T-hk
 62
44
420
8017152
100
AcDbText
 10
-700.0
 20
-133.0
 30
0.0
 40
22.86
  1
bastones D4X (a 98)
  7
NEGRITA
 41
0.885
 72
1
 11
-700.0
 21
-133.0
 31
0.0
100
AcDbText
  0
TEXT
  5
BD
330
17
100
AcDbEntity
  8
T-anc
 62
22
420
11088422
100
AcDbText
 10
-140.0
 20
-218.0
 30
0.0
 40
22.86
  1
A1 de D4X
  7
NEGRITA
 41
0.885
 72
1
 11
-140.0
 21
-218.0
 31
0.0
100
AcDbText
  0
TEXT
  5
BE
330
17
100
AcDbEntity
  8
T-small
 62
47
420
4473924
100
AcDbText
 10
0.0
 20
-530.0
 30
0.0
 40
22.86
  1
D4Y: placa, A1 y bastones de frente (iguales a C4)
  7
ESTANDAR
 41
0.885
 72
1
 11
0.0
 21
-530.0
 31
0.0
100
AcDbText
  0
LINE
  5
C1
330
17
100
AcDbEntity
  8
G-cut
100
AcDbLine
 10
295.0
 20
-62.0
 30
0.0
 11
657.0
 21
-62.0
 31
0.0
  0
LINE
  5
C2
330
17
100
AcDbEntity
  8
G-cut
100
AcDbLine
 10
295.0
 20
-173.0
 30
0.0
 11
657.0
 21
-173.0
 31
0.0
  0
LINE
  5
C3
330
17
100
AcDbEntity
  8
G-cut
100
AcDbLine
 10
-40.0
 20
-198.0
 30
0.0
 11
-40.0
 21
-600.0
 31
0.0
  0
LINE
  5
C4
330
17
100
AcDbEntity
  8
G-cut
100
AcDbLine
 10
40.0
 20
-198.0
 30
0.0
 11
40.0
 21
-600.0
 31
0.0
  0
DIMENSION
  5
C6
330
17
100
AcDbEntity
  8
COTAS
100
AcDbDimension
280
0
  2
*D1
  3
COTAS_1-10
 10
617.0
 20
0.0
 30
0.0
 11
632.144
 21
-31.0
 31
0.0
 70
32
 71
5
  1
<>
100
AcDbAlignedDimension
 13
657.0
 23
0.0
 33
0.0
 14
657.0
 24
-62.0
 34
0.0
 50
-90.0
100
AcDbRotatedDimension
  0
DIMENSION
  5
D9
330
17
100
AcDbEntity
  8
COTAS
100
AcDbDimension
280
0
  2
*D2
  3
COTAS_1-10
 10
617.0
 20
-62.0
 30
0.0
 11
632.144
 21
-117.5
 31
0.0
 70
32
 71
5
  1
<>
100
AcDbAlignedDimension
 13
657.0
 23
-62.0
 33
0.0
 14
657.0
 24
-173.0
 34
0.0
 50
-90.0
100
AcDbRotatedDimension
  0
DIMENSION
  5
E8
330
17
100
AcDbEntity
  8
COTAS
100
AcDbDimension
280
0
  2
*D3
  3
COTAS_1-10
 10
-40.0
 20
-600.0
 30
0.0
 11
0.0
 21
-576.0365555555555
 31
0.0
 70
32
 71
5
  1
<> (A1 de D4Y)
100
AcDbAlignedDimension
 13
-40.0
 23
-600.0
 33
0.0
 14
40.0
 24
-600.0
 34
0.0
 50
0.0
100
AcDbRotatedDimension
  0
DIMENSION
  5
F7
330
17
100
AcDbEntity
  8
COTAS
100
AcDbDimension
280
0
  2
*D4
  3
COTAS_1-10
 10
-1140.0
 20
0.0
 30
0.0
 11
-1124.856
 21
-40.0
 31
0.0
 70
32
 71
5
  1
<>
100
AcDbAlignedDimension
 13
-1200.0
 23
0.0
 33
0.0
 14
-1200.0
 24
-80.0
 34
0.0
 50
-90.0
100
AcDbRotatedDimension
  0
DIMENSION
  5
106
330
17
100
AcDbEntity
  8
COTAS
100
AcDbDimension
280
0
  2
*D5
  3
COTAS_1-10
 10
-1140.0
 20
-80.0
 30
0.0
 11
-1116.0365555555557
 21
-89.0
 31
0.0
 70
32
 71
5
  1
<>
100
AcDbAlignedDimension
 13
-1200.0
 23
-80.0
 33
0.0
 14
-1200.0
 24
-98.0
 34
0.0
 50
-90.0
100
AcDbRotatedDimension
  0
DIMENSION
  5
115
330
17
100
AcDbEntity
  8
COTAS
100
AcDbDimension
280
0
  2
*D6
  3
COTAS_1-10
 10
-140.0
 20
0.0
 30
0.0
 11
-124.856
 21
-21.0
 31
0.0
 70
32
 71
5
  1
<>
100
AcDbAlignedDimension
 13
-200.0
 23
0.0
 33
0.0
 14
-200.0
 24
-42.0
 34
0.0
 50
-90.0
100
AcDbRotatedDimension
  0
DIMENSION
  5
124
330
17
100
AcDbEntity
  8
COTAS
100
AcDbDimension
280
0
  2
*D7
  3
COTAS_1-10
 10
-140.0
 20
-42.0
 30
0.0
 11
-124.856
 21
-120.0
 31
0.0
 70
32
 71
5
  1
<>
100
AcDbAlignedDimension
 13
-200.0
 23
-42.0
 33
0.0
 14
-200.0
 24
-198.0
 34
0.0
 50
-90.0
100
AcDbRotatedDimension
  0
ENDSEC
  0
SECTION
  2
OBJECTS
  0
DICTIONARY
  5
A
330
0
100
AcDbDictionary
281
1
  3
ACAD_COLOR
350
B
  3
ACAD_GROUP
350
C
  3
ACAD_LAYOUT
350
D
  3
ACAD_MATERIAL
350
E
  3
ACAD_MLEADERSTYLE
350
F
  3
ACAD_MLINESTYLE
350
10
  3
ACAD_PLOTSETTINGS
350
11
  3
ACAD_PLOTSTYLENAME
350
12
  3
ACAD_SCALELIST
350
14
  3
ACAD_TABLESTYLE
350
15
  3
ACAD_VISUALSTYLE
350
16
  3
EZDXF_META
350
2D
  0
DICTIONARY
  5
B
330
A
100
AcDbDictionary
281
1
  0
DICTIONARY
  5
C
330
A
100
AcDbDictionary
281
1
  0
DICTIONARY
  5
D
330
A
100
AcDbDictionary
281
1
  3
Model
350
1A
  3
Layout1
350
1E
  0
DICTIONARY
  5
E
330
A
100
AcDbDictionary
281
1
  3
ByBlock
350
1F
  3
ByLayer
350
20
  3
Global
350
21
  0
DICTIONARY
  5
F
330
A
100
AcDbDictionary
281
1
  3
Standard
350
2C
  0
DICTIONARY
  5
10
330
A
100
AcDbDictionary
281
1
  3
Standard
350
22
  0
DICTIONARY
  5
11
330
A
100
AcDbDictionary
281
1
  0
ACDBDICTIONARYWDFLT
  5
12
330
A
100
AcDbDictionary
281
1
  3
Normal
350
13
100
AcDbDictionaryWithDefault
340
13
  0
ACDBPLACEHOLDER
  5
13
330
12
  0
DICTIONARY
  5
14
330
A
100
AcDbDictionary
281
1
  0
DICTIONARY
  5
15
330
A
100
AcDbDictionary
281
1
  0
DICTIONARY
  5
16
330
A
100
AcDbDictionary
281
1
  0
LAYOUT
  5
1A
330
D
100
AcDbPlotSettings
  1

  4
A3
  6

 40
7.5
 41
20.0
 42
7.5
 43
20.0
 44
420.0
 45
297.0
 46
0.0
 47
0.0
 48
0.0
 49
0.0
140
0.0
141
0.0
142
1.0
143
1.0
 70
1024
 72
1
 73
0
 74
5
  7

 75
16
 76
0
 77
2
 78
300
147
1.0
148
0.0
149
0.0
100
AcDbLayout
  1
Model
 70
1
 71
0
 10
0.0
 20
0.0
 11
420.0
 21
297.0
 12
0.0
 22
0.0
 32
0.0
 14
1e+20
 24
1e+20
 34
1e+20
 15
-1e+20
 25
-1e+20
 35
-1e+20
146
0.0
 13
0.0
 23
0.0
 33
0.0
 16
1.0
 26
0.0
 36
0.0
 17
0.0
 27
1.0
 37
0.0
 76
1
330
17
  0
LAYOUT
  5
1E
330
D
100
AcDbPlotSettings
  1

  4
A3
  6

 40
7.5
 41
20.0
 42
7.5
 43
20.0
 44
420.0
 45
297.0
 46
0.0
 47
0.0
 48
0.0
 49
0.0
140
0.0
141
0.0
142
1.0
143
1.0
 70
0
 72
1
 73
0
 74
5
  7

 75
16
 76
0
 77
2
 78
300
147
1.0
148
0.0
149
0.0
100
AcDbLayout
  1
Layout1
 70
1
 71
1
 10
0.0
 20
0.0
 11
420.0
 21
297.0
 12
0.0
 22
0.0
 32
0.0
 14
1e+20
 24
1e+20
 34
1e+20
 15
-1e+20
 25
-1e+20
 35
-1e+20
146
0.0
 13
0.0
 23
0.0
 33
0.0
 16
1.0
 26
0.0
 36
0.0
 17
0.0
 27
1.0
 37
0.0
 76
1
330
1B
  0
MATERIAL
  5
1F
102
{ACAD_REACTORS
330
E
102
}
330
E
100
AcDbMaterial
  1
ByBlock
  2

 70
0
 40
1.0
 71
1
 41
1.0
 91
-1023410177
 42
1.0
 72
1
  3

 73
1
 74
1
 75
1
 44
0.5
 73
0
 45
1.0
 46
1.0
 77
1
  4

 78
1
 79
1
170
1
 48
1.0
171
1
  6

172
1
173
1
174
1
140
1.0
141
1.0
175
1
  7

176
1
177
1
178
1
143
1.0
179
1
  8

270
1
271
1
272
1
145
1.0
146
1.0
273
1
  9

274
1
275
1
276
1
 42
1.0
 72
1
  3

 73
1
 74
1
 75
1
 94
63
  0
MATERIAL
  5
20
102
{ACAD_REACTORS
330
E
102
}
330
E
100
AcDbMaterial
  1
ByLayer
  2

 70
0
 40
1.0
 71
1
 41
1.0
 91
-1023410177
 42
1.0
 72
1
  3

 73
1
 74
1
 75
1
 44
0.5
 73
0
 45
1.0
 46
1.0
 77
1
  4

 78
1
 79
1
170
1
 48
1.0
171
1
  6

172
1
173
1
174
1
140
1.0
141
1.0
175
1
  7

176
1
177
1
178
1
143
1.0
179
1
  8

270
1
271
1
272
1
145
1.0
146
1.0
273
1
  9

274
1
275
1
276
1
 42
1.0
 72
1
  3

 73
1
 74
1
 75
1
 94
63
  0
MATERIAL
  5
21
102
{ACAD_REACTORS
330
E
102
}
330
E
100
AcDbMaterial
  1
Global
  2

 70
0
 40
1.0
 71
1
 41
1.0
 91
-1023410177
 42
1.0
 72
1
  3

 73
1
 74
1
 75
1
 44
0.5
 73
0
 45
1.0
 46
1.0
 77
1
  4

 78
1
 79
1
170
1
 48
1.0
171
1
  6

172
1
173
1
174
1
140
1.0
141
1.0
175
1
  7

176
1
177
1
178
1
143
1.0
179
1
  8

270
1
271
1
272
1
145
1.0
146
1.0
273
1
  9

274
1
275
1
276
1
 42
1.0
 72
1
  3

 73
1
 74
1
 75
1
 94
63
  0
MLINESTYLE
  5
22
102
{ACAD_REACTORS
330
10
102
}
330
10
100
AcDbMlineStyle
  2
Standard
 70
0
  3

 62
256
 51
90.0
 52
90.0
 71
2
 49
0.5
 62
256
  6
BYLAYER
 49
-0.5
 62
256
  6
BYLAYER
  0
MLEADERSTYLE
  5
2C
102
{ACAD_REACTORS
330
F
102
}
330
F
100
AcDbMLeaderStyle
179
2
170
2
171
1
172
0
 90
2
 40
0.0
 41
0.0
173
1
 91
-1056964608
 92
-2
290
1
 42
2.0
291
1
 43
8.0
  3
Standard
 44
4.0
300

342
29
174
1
175
1
176
0
178
1
 93
-1056964608
 45
4.0
292
0
297
0
 46
4.0
 94
-1056964608
 47
1.0
 49
1.0
140
1.0
294
1
141
0.0
177
0
142
1.0
295
0
296
0
143
3.75
271
0
272
9
273
9
  0
DICTIONARY
  5
2D
330
A
100
AcDbDictionary
280
1
281
1
  3
CREATED_BY_EZDXF
350
2E
  3
WRITTEN_BY_EZDXF
350
135
  0
DICTIONARYVAR
  5
2E
330
2D
100
DictionaryVariables
280
0
  1
1.4.4 @ 2026-10-09T22:16:32.802413+00:00
  0
DICTIONARYVAR
  5
135
330
2D
100
DictionaryVariables
280
0
  1
1.4.4 @ 2026-10-09T22:16:32.822935+00:00
  0
ENDSEC
  0
EOF
