  0
SECTION
  2
HEADER
  9
$ACADVER
  1
AC1024
  9
$ACADMAINTVER
 70
6
  9
$DWGCODEPAGE
  3
ANSI_1252
  9
$LASTSAVEDBY
  1
ezdxf
  9
$INSBASE
 10
0.0
 20
0.0
 30
0.0
  9
$EXTMIN
 10
1e+20
 20
1e+20
 30
1e+20
  9
$EXTMAX
 10
-1e+20
 20
-1e+20
 30
-1e+20
  9
$LIMMIN
 10
0.0
 20
0.0
  9
$LIMMAX
 10
420.0
 20
297.0
  9
$ORTHOMODE
 70
0
  9
$REGENMODE
 70
1
  9
$FILLMODE
 70
1
  9
$QTEXTMODE
 70
0
  9
$MIRRTEXT
 70
1
  9
$LTSCALE
 40
10.0
  9
$ATTMODE
 70
1
  9
$TEXTSIZE
 40
2.5
  9
$TRACEWID
 40
1.0
  9
$TEXTSTYLE
  7
Standard
  9
$CLAYER
  8
0
  9
$CELTYPE
  6
ByLayer
  9
$CECOLOR
 62
256
  9
$CELTSCALE
 40
1.0
  9
$DISPSILH
 70
0
  9
$DIMSCALE
 40
10.0
  9
$DIMASZ
 40
2.5
  9
$DIMEXO
 40
0.5291666666666666
  9
$DIMDLI
 40
3.75
  9
$DIMRND
 40
0.0
  9
$DIMDLE
 40
0.0
  9
$DIMEXE
 40
0.8819444444444444
  9
$DIMTP
 40
0.0
  9
$DIMTM
 40
0.0
  9
$DIMTXT
 40
1.8288
  9
$DIMCEN
 40
2.5
  9
$DIMTSZ
 40
1.0943166666666666
  9
$DIMTOL
 70
0
  9
$DIMLIM
 70
0
  9
$DIMTIH
 70
0
  9
$DIMTOH
 70
0
  9
$DIMSE1
 70
0
  9
$DIMSE2
 70
0
  9
$DIMTAD
 70
1
  9
$DIMZIN
 70
8
  9
$DIMBLK
  1

  9
$DIMASO
 70
1
  9
$DIMSHO
 70
1
  9
$DIMPOST
  1

  9
$DIMAPOST
  1

  9
$DIMALT
 70
0
  9
$DIMALTD
 70
3
  9
$DIMALTF
 40
0.03937007874
  9
$DIMLFAC
 40
1.0
  9
$DIMTOFL
 70
1
  9
$DIMTVP
 40
0.0
  9
$DIMTIX
 70
0
  9
$DIMSOXD
 70
0
  9
$DIMSAH
 70
0
  9
$DIMBLK1
  1

  9
$DIMBLK2
  1

  9
$DIMSTYLE
  2
COTAS_1-10
  9
$DIMCLRD
 70
0
  9
$DIMCLRE
 70
0
  9
$DIMCLRT
 70
0
  9
$DIMTFAC
 40
1.0
  9
$DIMGAP
 40
0.6
  9
$DIMJUST
 70
0
  9
$DIMSD1
 70
0
  9
$DIMSD2
 70
0
  9
$DIMTOLJ
 70
0
  9
$DIMTZIN
 70
8
  9
$DIMALTZ
 70
0
  9
$DIMALTTZ
 70
0
  9
$DIMUPT
 70
0
  9
$DIMDEC
 70
0
  9
$DIMTDEC
 70
2
  9
$DIMALTU
 70
2
  9
$DIMALTTD
 70
3
  9
$DIMTXSTY
  7
Standard
  9
$DIMAUNIT
 70
0
  9
$DIMADEC
 70
0
  9
$DIMALTRND
 40
0.0
  9
$DIMAZIN
 70
0
  9
$DIMDSEP
 70
44
  9
$DIMATFIT
 70
3
  9
$DIMFRAC
 70
0
  9
$DIMLDRBLK
  1

  9
$DIMLUNIT
 70
2
  9
$DIMLWD
 70
-2
  9
$DIMLWE
 70
-2
  9
$DIMTMOVE
 70
0
  9
$DIMFXL
 40
1.0
  9
$DIMFXLON
 70
0
  9
$DIMJOGANG
 40
0.785398163397
  9
$DIMTFILL
 70
0
  9
$DIMTFILLCLR
 70
0
  9
$DIMARCSYM
 70
0
  9
$DIMLTYPE
  6

  9
$DIMLTEX1
  6

  9
$DIMLTEX2
  6

  9
$DIMTXTDIRECTION
 70
0
  9
$LUNITS
 70
2
  9
$LUPREC
 70
4
  9
$SKETCHINC
 40
1.0
  9
$FILLETRAD
 40
10.0
  9
$AUNITS
 70
0
  9
$AUPREC
 70
2
  9
$MENU
  1
.
  9
$ELEVATION
 40
0.0
  9
$PELEVATION
 40
0.0
  9
$THICKNESS
 40
0.0
  9
$LIMCHECK
 70
0
  9
$CHAMFERA
 40
0.0
  9
$CHAMFERB
 40
0.0
  9
$CHAMFERC
 40
0.0
  9
$CHAMFERD
 40
0.0
  9
$SKPOLY
 70
0
  9
$TDCREATE
 40
2461323.928148148
  9
$TDUCREATE
 40
2458532.153996898
  9
$TDUPDATE
 40
2461323.928148148
  9
$TDUUPDATE
 40
2458532.1544311
  9
$TDINDWG
 40
0.0
  9
$TDUSRTIMER
 40
0.0
  9
$USRTIMER
 70
1
  9
$ANGBASE
 50
0.0
  9
$ANGDIR
 70
0
  9
$PDMODE
 70
0
  9
$PDSIZE
 40
0.0
  9
$PLINEWID
 40
0.0
  9
$SPLFRAME
 70
0
  9
$SPLINETYPE
 70
6
  9
$SPLINESEGS
 70
8
  9
$HANDSEED
  5
71
  9
$SURFTAB1
 70
6
  9
$SURFTAB2
 70
6
  9
$SURFTYPE
 70
6
  9
$SURFU
 70
6
  9
$SURFV
 70
6
  9
$UCSBASE
  2

  9
$UCSNAME
  2

  9
$UCSORG
 10
0.0
 20
0.0
 30
0.0
  9
$UCSXDIR
 10
1.0
 20
0.0
 30
0.0
  9
$UCSYDIR
 10
0.0
 20
1.0
 30
0.0
  9
$UCSORTHOREF
  2

  9
$UCSORTHOVIEW
 70
0
  9
$UCSORGTOP
 10
0.0
 20
0.0
 30
0.0
  9
$UCSORGBOTTOM
 10
0.0
 20
0.0
 30
0.0
  9
$UCSORGLEFT
 10
0.0
 20
0.0
 30
0.0
  9
$UCSORGRIGHT
 10
0.0
 20
0.0
 30
0.0
  9
$UCSORGFRONT
 10
0.0
 20
0.0
 30
0.0
  9
$UCSORGBACK
 10
0.0
 20
0.0
 30
0.0
  9
$PUCSBASE
  2

  9
$PUCSNAME
  2

  9
$PUCSORG
 10
0.0
 20
0.0
 30
0.0
  9
$PUCSXDIR
 10
1.0
 20
0.0
 30
0.0
  9
$PUCSYDIR
 10
0.0
 20
1.0
 30
0.0
  9
$PUCSORTHOREF
  2

  9
$PUCSORTHOVIEW
 70
0
  9
$PUCSORGTOP
 10
0.0
 20
0.0
 30
0.0
  9
$PUCSORGBOTTOM
 10
0.0
 20
0.0
 30
0.0
  9
$PUCSORGLEFT
 10
0.0
 20
0.0
 30
0.0
  9
$PUCSORGRIGHT
 10
0.0
 20
0.0
 30
0.0
  9
$PUCSORGFRONT
 10
0.0
 20
0.0
 30
0.0
  9
$PUCSORGBACK
 10
0.0
 20
0.0
 30
0.0
  9
$USERI1
 70
0
  9
$USERI2
 70
0
  9
$USERI3
 70
0
  9
$USERI4
 70
0
  9
$USERI5
 70
0
  9
$USERR1
 40
0.0
  9
$USERR2
 40
0.0
  9
$USERR3
 40
0.0
  9
$USERR4
 40
0.0
  9
$USERR5
 40
0.0
  9
$WORLDVIEW
 70
1
  9
$SHADEDGE
 70
3
  9
$SHADEDIF
 70
70
  9
$TILEMODE
 70
1
  9
$MAXACTVP
 70
64
  9
$PINSBASE
 10
0.0
 20
0.0
 30
0.0
  9
$PLIMCHECK
 70
0
  9
$PEXTMIN
 10
1e+20
 20
1e+20
 30
1e+20
  9
$PEXTMAX
 10
-1e+20
 20
-1e+20
 30
-1e+20
  9
$PLIMMIN
 10
0.0
 20
0.0
  9
$PLIMMAX
 10
420.0
 20
297.0
  9
$UNITMODE
 70
0
  9
$VISRETAIN
 70
1
  9
$PLINEGEN
 70
0
  9
$PSLTSCALE
 70
1
  9
$TREEDEPTH
 70
3020
  9
$CMLSTYLE
  2
Standard
  9
$CMLJUST
 70
0
  9
$CMLSCALE
 40
20.0
  9
$PROXYGRAPHICS
 70
1
  9
$MEASUREMENT
 70
1
  9
$CELWEIGHT
370
-1
  9
$ENDCAPS
280
0
  9
$JOINSTYLE
280
0
  9
$LWDISPLAY
290
1
  9
$INSUNITS
 70
4
  9
$HYPERLINKBASE
  1

  9
$STYLESHEET
  1

  9
$XEDIT
290
1
  9
$CEPSNTYPE
380
0
  9
$PSTYLEMODE
290
1
  9
$FINGERPRINTGUID
  2
{17998FA7-63B4-40CB-BFEC-593661C4D744}
  9
$VERSIONGUID
  2
{C7149BE8-F46B-4577-9E4C-CE8FCABE71A3}
  9
$EXTNAMES
290
1
  9
$PSVPSCALE
 40
0.0
  9
$OLESTARTUP
290
0
  9
$SORTENTS
280
127
  9
$INDEXCTL
280
0
  9
$HIDETEXT
280
1
  9
$XCLIPFRAME
280
1
  9
$HALOGAP
280
0
  9
$OBSCOLOR
 70
257
  9
$OBSLTYPE
280
0
  9
$INTERSECTIONDISPLAY
280
0
  9
$INTERSECTIONCOLOR
 70
257
  9
$DIMASSOC
280
2
  9
$PROJECTNAME
  1

  9
$CAMERADISPLAY
290
0
  9
$LENSLENGTH
 40
50.0
  9
$CAMERAHEIGHT
 40
0.0
  9
$STEPSPERSEC
 40
24.0
  9
$STEPSIZE
 40
100.0
  9
$3DDWFPREC
 40
2.0
  9
$PSOLWIDTH
 40
0.005
  9
$PSOLHEIGHT
 40
0.08
  9
$LOFTANG1
 40
1.570796326795
  9
$LOFTANG2
 40
1.570796326795
  9
$LOFTMAG1
 40
0.0
  9
$LOFTMAG2
 40
0.0
  9
$LOFTPARAM
 70
7
  9
$LOFTNORMALS
280
1
  9
$LATITUDE
 40
37.795
  9
$LONGITUDE
 40
-122.394
  9
$NORTHDIRECTION
 40
0.0
  9
$TIMEZONE
 70
-8000
  9
$LIGHTGLYPHDISPLAY
280
1
  9
$TILEMODELIGHTSYNCH
280
1
  9
$CMATERIAL
347
20
  9
$SOLIDHIST
280
0
  9
$SHOWHIST
280
1
  9
$DWFFRAME
280
2
  9
$DGNFRAME
280
2
  9
$REALWORLDSCALE
290
1
  9
$INTERFERECOLOR
 62
256
  9
$CSHADOW
280
0
  9
$SHADOWPLANELOCATION
 40
0.0
  0
ENDSEC
  0
SECTION
  2
CLASSES
  0
CLASS
  1
ACDBDICTIONARYWDFLT
  2
AcDbDictionaryWithDefault
  3
ObjectDBX Classes
 90
0
 91
0
280
0
281
0
  0
CLASS
  1
SUN
  2
AcDbSun
  3
SCENEOE
 90
1153
 91
0
280
0
281
0
  0
CLASS
  1
VISUALSTYLE
  2
AcDbVisualStyle
  3
ObjectDBX Classes
 90
4095
 91
0
280
0
281
0
  0
CLASS
  1
MATERIAL
  2
AcDbMaterial
  3
ObjectDBX Classes
 90
1153
 91
0
280
0
281
0
  0
CLASS
  1
SCALE
  2
AcDbScale
  3
ObjectDBX Classes
 90
1153
 91
0
280
0
281
0
  0
CLASS
  1
TABLESTYLE
  2
AcDbTableStyle
  3
ObjectDBX Classes
 90
4095
 91
0
280
0
281
0
  0
CLASS
  1
MLEADERSTYLE
  2
AcDbMLeaderStyle
  3
ACDB_MLEADERSTYLE_CLASS
 90
4095
 91
0
280
0
281
0
  0
CLASS
  1
DICTIONARYVAR
  2
AcDbDictionaryVar
  3
ObjectDBX Classes
 90
0
 91
0
280
0
281
0
  0
CLASS
  1
CELLSTYLEMAP
  2
AcDbCellStyleMap
  3
ObjectDBX Classes
 90
1152
 91
0
280
0
281
0
  0
CLASS
  1
MENTALRAYRENDERSETTINGS
  2
AcDbMentalRayRenderSettings
  3
SCENEOE
 90
1024
 91
0
280
0
281
0
  0
CLASS
  1
ACDBDETAILVIEWSTYLE
  2
AcDbDetailViewStyle
  3
ObjectDBX Classes
 90
1025
 91
0
280
0
281
0
  0
CLASS
  1
ACDBSECTIONVIEWSTYLE
  2
AcDbSectionViewStyle
  3
ObjectDBX Classes
 90
1025
 91
0
280
0
281
0
  0
CLASS
  1
RASTERVARIABLES
  2
AcDbRasterVariables
  3
ISM
 90
0
 91
0
280
0
281
0
  0
CLASS
  1
LAYOUT
  2
AcDbLayout
  3
ObjectDBX Classes
 90
0
 91
0
280
0
281
0
  0
CLASS
  1
ACDBPLACEHOLDER
  2
AcDbPlaceHolder
  3
ObjectDBX Classes
 90
0
 91
0
280
0
281
0
  0
ENDSEC
  0
SECTION
  2
TABLES
  0
TABLE
  2
VPORT
  5
8
330
0
100
AcDbSymbolTable
 70
1
  0
VPORT
  5
23
330
8
100
AcDbSymbolTableRecord
100
AcDbViewportTableRecord
  2
*Active
 70
0
 10
0.0
 20
0.0
 11
1.0
 21
1.0
 12
0.0
 22
0.0
 13
0.0
 23
0.0
 14
0.5
 24
0.5
 15
0.5
 25
0.5
 16
0.0
 26
0.0
 36
1.0
 17
0.0
 27
0.0
 37
0.0
 40
1000.0
 41
1.34
 42
50.0
 43
0.0
 44
0.0
 50
0.0
 51
0.0
 71
0
 72
1000
 73
1
 74
3
 75
0
 76
0
 77
0
 78
0
281
0
 65
0
146
0.0
  0
ENDTAB
  0
TABLE
  2
LTYPE
  5
2
330
0
100
AcDbSymbolTable
 70
3
  0
LTYPE
  5
24
330
2
100
AcDbSymbolTableRecord
100
AcDbLinetypeTableRecord
  2
ByBlock
 70
0
  3

 72
65
 73
0
 40
0.0
  0
LTYPE
  5
25
330
2
100
AcDbSymbolTableRecord
100
AcDbLinetypeTableRecord
  2
ByLayer
 70
0
  3

 72
65
 73
0
 40
0.0
  0
LTYPE
  5
26
330
2
100
AcDbSymbolTableRecord
100
AcDbLinetypeTableRecord
  2
Continuous
 70
0
  3

 72
65
 73
0
 40
0.0
  0
ENDTAB
  0
TABLE
  2
LAYER
  5
1
330
0
100
AcDbSymbolTable
 70
6
  0
LAYER
  5
27
330
1
100
AcDbSymbolTableRecord
100
AcDbLayerTableRecord
  2
0
 70
0
 62
7
  6
Continuous
370
-3
390
13
347
21
  0
LAYER
  5
28
330
1
100
AcDbSymbolTableRecord
100
AcDbLayerTableRecord
  2
Defpoints
 70
0
 62
7
  6
Continuous
290
0
370
-3
390
13
347
21
  0
LAYER
  5
32
330
1
100
AcDbSymbolTableRecord
100
AcDbLayerTableRecord
  2
G-r_conc
 70
0
 62
252
420
7039851
  6
Continuous
370
30
390
13
347
21
  0
LAYER
  5
35
330
1
100
AcDbSymbolTableRecord
100
AcDbLayerTableRecord
  2
G-r_col
 70
0
 62
31
420
13810828
  6
Continuous
370
15
390
13
347
21
  0
LAYER
  5
46
330
1
100
AcDbSymbolTableRecord
100
AcDbLayerTableRecord
  2
G-r_new
 70
0
 62
119
420
1333810
  6
Continuous
370
18
390
13
347
21
  0
LAYER
  5
4B
330
1
100
AcDbSymbolTableRecord
100
AcDbLayerTableRecord
  2
COTAS
 70
0
 62
27
420
3355443
  6
Continuous
370
15
390
13
347
21
  0
ENDTAB
  0
TABLE
  2
STYLE
  5
5
330
0
100
AcDbSymbolTable
 70
3
  0
STYLE
  5
29
330
5
100
AcDbSymbolTableRecord
100
AcDbTextStyleTableRecord
  2
Standard
 70
0
 40
0.0
 41
1.0
 50
0.0
 71
0
 42
2.5
  3
txt
  4

  0
STYLE
  5
2F
330
5
100
AcDbSymbolTableRecord
100
AcDbTextStyleTableRecord
  2
ESTANDAR
 70
0
 40
0.0
 41
1.0
 50
0.0
 71
0
 42
2.5
  3
arial.ttf
  4

  0
STYLE
  5
30
330
5
100
AcDbSymbolTableRecord
100
AcDbTextStyleTableRecord
  2
NEGRITA
 70
0
 40
0.0
 41
1.0
 50
0.0
 71
0
 42
2.5
  3
arialbd.ttf
  4

  0
ENDTAB
  0
TABLE
  2
VIEW
  5
7
330
0
100
AcDbSymbolTable
 70
0
  0
ENDTAB
  0
TABLE
  2
UCS
  5
6
330
0
100
AcDbSymbolTable
 70
0
  0
ENDTAB
  0
TABLE
  2
APPID
  5
3
330
0
100
AcDbSymbolTable
 70
3
  0
APPID
  5
2A
330
3
100
AcDbSymbolTableRecord
100
AcDbRegAppTableRecord
  2
ACAD
 70
0
  0
APPID
  5
6E
330
3
100
AcDbSymbolTableRecord
100
AcDbRegAppTableRecord
  2
HATCHBACKGROUNDCOLOR
 70
0
  0
APPID
  5
6F
330
3
100
AcDbSymbolTableRecord
100
AcDbRegAppTableRecord
  2
EZDXF
 70
0
  0
ENDTAB
  0
TABLE
  2
DIMSTYLE
  5
4
330
0
100
AcDbSymbolTable
 70
2
100
AcDbDimStyleTable
  0
DIMSTYLE
105
2B
330
4
100
AcDbSymbolTableRecord
100
AcDbDimStyleTableRecord
  2
Standard
 70
0
 40
1.0
 41
2.5
 42
0.625
 43
3.75
 44
1.25
 45
0.0
 46
0.0
 47
0.0
 48
0.0
 49
2.5
140
2.5
141
2.5
142
0.0
143
0.03937007874
144
1.0
145
0.0
146
1.0
147
0.625
148
0.0
 69
0
 70
0
 71
0
 72
0
 73
0
 74
0
 75
0
 76
0
 77
1
 78
8
 79
3
170
0
171
3
172
1
173
0
174
0
175
0
176
0
177
0
178
0
179
2
271
2
272
2
273
2
274
3
275
0
276
0
277
2
278
44
279
0
280
0
281
0
282
0
283
0
284
8
285
0
286
0
288
0
289
3
290
0
371
-2
372
-2
  0
DIMSTYLE
105
31
330
4
100
AcDbSymbolTableRecord
100
AcDbDimStyleTableRecord
  2
COTAS_1-10
 70
0
 40
10.0
 41
2.0
 42
0.5291666666666666
 43
3.75
 44
0.8819444444444444
 45
0.0
 46
0.0
 47
0.0
 48
0.0
 49
2.5
140
1.8288
141
2.5
142
1.0943166666666666
143
0.03937007874
144
1.0
145
0.0
146
1.0
147
0.6
148
0.0
 69
0
 70
0
 71
0
 72
0
 73
0
 74
0
 75
0
 76
0
 77
1
 78
8
 79
3
170
0
171
3
172
1
173
0
174
0
175
0
176
8
177
8
178
250
179
2
271
0
272
2
273
2
274
3
275
0
276
0
277
2
278
44
279
0
280
0
281
0
282
0
283
0
284
8
285
0
286
0
288
0
289
3
290
0
340
2F
371
15
372
13
  0
ENDTAB
  0
TABLE
  2
BLOCK_RECORD
  5
9
330
0
100
AcDbSymbolTable
 70
5
  0
BLOCK_RECORD
  5
17
330
9
100
AcDbSymbolTableRecord
100
AcDbBlockTableRecord
  2
*Model_Space
340
1A
 70
0
280
1
281
0
  0
BLOCK_RECORD
  5
1B
330
9
100
AcDbSymbolTableRecord
100
AcDbBlockTableRecord
  2
*Paper_Space
340
1E
 70
0
280
1
281
0
  0
BLOCK_RECORD
  5
4D
330
9
100
AcDbSymbolTableRecord
100
AcDbBlockTableRecord
  2
*D1
340
0
 70
0
280
1
281
0
  0
BLOCK_RECORD
  5
52
330
9
100
AcDbSymbolTableRecord
100
AcDbBlockTableRecord
  2
_OBLIQUE
340
0
 70
0
280
1
281
0
  0
BLOCK_RECORD
  5
60
330
9
100
AcDbSymbolTableRecord
100
AcDbBlockTableRecord
  2
*D2
340
0
 70
0
280
1
281
0
  0
ENDTAB
  0
ENDSEC
  0
SECTION
  2
BLOCKS
  0
BLOCK
  5
18
330
17
100
AcDbEntity
  8
0
100
AcDbBlockBegin
  2
*Model_Space
 70
0
 10
0.0
 20
0.0
 30
0.0
  3
*Model_Space
  1

  0
ENDBLK
  5
19
330
17
100
AcDbEntity
  8
0
100
AcDbBlockEnd
  0
BLOCK
  5
1C
330
1B
100
AcDbEntity
  8
0
100
AcDbBlockBegin
  2
*Paper_Space
 70
0
 10
0.0
 20
0.0
 30
0.0
  3
*Paper_Space
  1

  0
ENDBLK
  5
1D
330
1B
100
AcDbEntity
  8
0
100
AcDbBlockEnd
  0
BLOCK
  5
4E
330
4D
100
AcDbEntity
  8
0
100
AcDbBlockBegin
  2
*D1
 70
1
 10
0.0
 20
0.0
 30
0.0
  3
*D1
  1

  0
LINE
  5
50
330
4D
100
AcDbEntity
  8
0
 62
8
370
13
100
AcDbLine
 10
-164.0
 20
-169.29166666666666
 30
0.0
 11
-164.0
 21
-262.81944444444446
 31
0.0
  0
LINE
  5
51
330
4D
100
AcDbEntity
  8
0
 62
8
370
13
100
AcDbLine
 10
164.0
 20
-169.29166666666666
 30
0.0
 11
164.0
 21
-262.81944444444446
 31
0.0
  0
INSERT
  5
56
330
4D
100
AcDbEntity
  8
COTAS
 62
8
100
AcDbBlockReference
  2
_OBLIQUE
 10
-164.0
 20
-254.0
 30
0.0
 41
21.886333333333333
 42
21.886333333333333
  0
INSERT
  5
58
330
4D
100
AcDbEntity
  8
COTAS
 62
8
100
AcDbBlockReference
  2
_OBLIQUE
 10
164.0
 20
-254.0
 30
0.0
 41
21.886333333333333
 42
21.886333333333333
  0
LINE
  5
5A
330
4D
100
AcDbEntity
  8
0
 62
8
370
15
100
AcDbLine
 10
-164.0
 20
-254.0
 30
0.0
 11
164.0
 21
-254.0
 31
0.0
  0
MTEXT
  5
5B
330
4D
100
AcDbEntity
  8
COTAS
 62
250
100
AcDbMText
 10
0.0
 20
-238.856
 30
0.0
 40
18.288
 71
5
  1
328
  7
ESTANDAR
  0
POINT
  5
5C
330
4D
100
AcDbEntity
  8
Defpoints
100
AcDbPoint
 10
-164.0
 20
-254.0
 30
0.0
  0
POINT
  5
5D
330
4D
100
AcDbEntity
  8
Defpoints
100
AcDbPoint
 10
-164.0
 20
-164.0
 30
0.0
  0
POINT
  5
5E
330
4D
100
AcDbEntity
  8
Defpoints
100
AcDbPoint
 10
164.0
 20
-164.0
 30
0.0
  0
ENDBLK
  5
4F
330
4D
100
AcDbEntity
  8
0
100
AcDbBlockEnd
  0
BLOCK
  5
53
330
52
100
AcDbEntity
  8
0
100
AcDbBlockBegin
  2
_OBLIQUE
 70
0
 10
0.0
 20
0.0
 30
0.0
  3
_OBLIQUE
  1

  0
LINE
  5
55
330
52
100
AcDbEntity
  8
0
  6
BYBLOCK
 62
0
100
AcDbLine
 10
-0.5
 20
-0.5
 30
0.0
 11
0.5
 21
0.5
 31
0.0
  0
ENDBLK
  5
54
330
52
100
AcDbEntity
  8
0
100
AcDbBlockEnd
  0
BLOCK
  5
61
330
60
100
AcDbEntity
  8
0
100
AcDbBlockBegin
  2
*D2
 70
1
 10
0.0
 20
0.0
 30
0.0
  3
*D2
  1

  0
LINE
  5
63
330
60
100
AcDbEntity
  8
0
 62
8
370
13
100
AcDbLine
 10
169.29166666666666
 20
-164.0
 30
0.0
 11
262.81944444444446
 21
-164.0
 31
0.0
  0
LINE
  5
64
330
60
100
AcDbEntity
  8
0
 62
8
370
13
100
AcDbLine
 10
169.29166666666666
 20
164.0
 30
0.0
 11
262.81944444444446
 21
164.0
 31
0.0
  0
INSERT
  5
65
330
60
100
AcDbEntity
  8
COTAS
 62
8
100
AcDbBlockReference
  2
_OBLIQUE
 10
254.0
 20
-164.0
 30
0.0
 41
21.886333333333333
 42
21.886333333333333
 50
90.0
  0
INSERT
  5
67
330
60
100
AcDbEntity
  8
COTAS
 62
8
100
AcDbBlockReference
  2
_OBLIQUE
 10
254.0
 20
164.0
 30
0.0
 41
21.886333333333333
 42
21.886333333333333
 50
90.0
  0
LINE
  5
69
330
60
100
AcDbEntity
  8
0
 62
8
370
15
100
AcDbLine
 10
254.0
 20
-164.0
 30
0.0
 11
254.0
 21
164.0
 31
0.0
  0
MTEXT
  5
6A
330
60
100
AcDbEntity
  8
COTAS
 62
250
100
AcDbMText
 10
238.856
 20
0.0
 30
0.0
 40
18.288
 71
5
  1
328
  7
ESTANDAR
 50
90.0
  0
POINT
  5
6B
330
60
100
AcDbEntity
  8
Defpoints
100
AcDbPoint
 10
254.0
 20
-164.0
 30
0.0
  0
POINT
  5
6C
330
60
100
AcDbEntity
  8
Defpoints
100
AcDbPoint
 10
164.0
 20
-164.0
 30
0.0
  0
POINT
  5
6D
330
60
100
AcDbEntity
  8
Defpoints
100
AcDbPoint
 10
164.0
 20
164.0
 30
0.0
  0
ENDBLK
  5
62
330
60
100
AcDbEntity
  8
0
100
AcDbBlockEnd
  0
ENDSEC
  0
SECTION
  2
ENTITIES
  0
HATCH
  5
33
330
17
100
AcDbEntity
  8
G-r_conc
 62
7
420
16118767
100
AcDbHatch
 10
0.0
 20
0.0
 30
0.0
210
0.0
220
0.0
230
1.0
  2
SOLID
 70
1
 71
0
 91
1
 92
3
 72
0
 73
1
 93
4
 10
-200.0
 20
-200.0
 10
200.0
 20
-200.0
 10
200.0
 20
200.0
 10
-200.0
 20
200.0
 97
0
 75
0
 76
1
 98
0
  0
LWPOLYLINE
  5
34
330
17
100
AcDbEntity
  8
G-r_conc
100
AcDbPolyline
 90
4
 70
1
 10
-200.0
 20
-200.0
 10
200.0
 20
-200.0
 10
200.0
 20
200.0
 10
-200.0
 20
200.0
  0
HATCH
  5
36
330
17
100
AcDbEntity
  8
G-r_col
 62
7
420
15326919
100
AcDbHatch
 10
0.0
 20
0.0
 30
0.0
210
0.0
220
0.0
230
1.0
  2
SOLID
 70
1
 71
0
 91
1
 92
1
 93
1
 72
2
 10
-142.0
 20
-142.0
 40
8
 50
0
 51
360
 73
1
 97
0
 75
0
 76
1
 98
0
  0
CIRCLE
  5
37
330
17
100
AcDbEntity
  8
G-r_col
100
AcDbCircle
 10
-142.0
 20
-142.0
 30
0.0
 40
8.0
  0
HATCH
  5
38
330
17
100
AcDbEntity
  8
G-r_col
 62
7
420
15326919
100
AcDbHatch
 10
0.0
 20
0.0
 30
0.0
210
0.0
220
0.0
230
1.0
  2
SOLID
 70
1
 71
0
 91
1
 92
1
 93
1
 72
2
 10
-142.0
 20
0.0
 40
8
 50
0
 51
360
 73
1
 97
0
 75
0
 76
1
 98
0
  0
CIRCLE
  5
39
330
17
100
AcDbEntity
  8
G-r_col
100
AcDbCircle
 10
-142.0
 20
0.0
 30
0.0
 40
8.0
  0
HATCH
  5
3A
330
17
100
AcDbEntity
  8
G-r_col
 62
7
420
15326919
100
AcDbHatch
 10
0.0
 20
0.0
 30
0.0
210
0.0
220
0.0
230
1.0
  2
SOLID
 70
1
 71
0
 91
1
 92
1
 93
1
 72
2
 10
-142.0
 20
142.0
 40
8
 50
0
 51
360
 73
1
 97
0
 75
0
 76
1
 98
0
  0
CIRCLE
  5
3B
330
17
100
AcDbEntity
  8
G-r_col
100
AcDbCircle
 10
-142.0
 20
142.0
 30
0.0
 40
8.0
  0
HATCH
  5
3C
330
17
100
AcDbEntity
  8
G-r_col
 62
7
420
15326919
100
AcDbHatch
 10
0.0
 20
0.0
 30
0.0
210
0.0
220
0.0
230
1.0
  2
SOLID
 70
1
 71
0
 91
1
 92
1
 93
1
 72
2
 10
0.0
 20
-142.0
 40
8
 50
0
 51
360
 73
1
 97
0
 75
0
 76
1
 98
0
  0
CIRCLE
  5
3D
330
17
100
AcDbEntity
  8
G-r_col
100
AcDbCircle
 10
0.0
 20
-142.0
 30
0.0
 40
8.0
  0
HATCH
  5
3E
330
17
100
AcDbEntity
  8
G-r_col
 62
7
420
15326919
100
AcDbHatch
 10
0.0
 20
0.0
 30
0.0
210
0.0
220
0.0
230
1.0
  2
SOLID
 70
1
 71
0
 91
1
 92
1
 93
1
 72
2
 10
0.0
 20
142.0
 40
8
 50
0
 51
360
 73
1
 97
0
 75
0
 76
1
 98
0
  0
CIRCLE
  5
3F
330
17
100
AcDbEntity
  8
G-r_col
100
AcDbCircle
 10
0.0
 20
142.0
 30
0.0
 40
8.0
  0
HATCH
  5
40
330
17
100
AcDbEntity
  8
G-r_col
 62
7
420
15326919
100
AcDbHatch
 10
0.0
 20
0.0
 30
0.0
210
0.0
220
0.0
230
1.0
  2
SOLID
 70
1
 71
0
 91
1
 92
1
 93
1
 72
2
 10
142.0
 20
-142.0
 40
8
 50
0
 51
360
 73
1
 97
0
 75
0
 76
1
 98
0
  0
CIRCLE
  5
41
330
17
100
AcDbEntity
  8
G-r_col
100
AcDbCircle
 10
142.0
 20
-142.0
 30
0.0
 40
8.0
  0
HATCH
  5
42
330
17
100
AcDbEntity
  8
G-r_col
 62
7
420
15326919
100
AcDbHatch
 10
0.0
 20
0.0
 30
0.0
210
0.0
220
0.0
230
1.0
  2
SOLID
 70
1
 71
0
 91
1
 92
1
 93
1
 72
2
 10
142.0
 20
0.0
 40
8
 50
0
 51
360
 73
1
 97
0
 75
0
 76
1
 98
0
  0
CIRCLE
  5
43
330
17
100
AcDbEntity
  8
G-r_col
100
AcDbCircle
 10
142.0
 20
0.0
 30
0.0
 40
8.0
  0
HATCH
  5
44
330
17
100
AcDbEntity
  8
G-r_col
 62
7
420
15326919
100
AcDbHatch
 10
0.0
 20
0.0
 30
0.0
210
0.0
220
0.0
230
1.0
  2
SOLID
 70
1
 71
0
 91
1
 92
1
 93
1
 72
2
 10
142.0
 20
142.0
 40
8
 50
0
 51
360
 73
1
 97
0
 75
0
 76
1
 98
0
  0
CIRCLE
  5
45
330
17
100
AcDbEntity
  8
G-r_col
100
AcDbCircle
 10
142.0
 20
142.0
 30
0.0
 40
8.0
  0
HATCH
  5
47
330
17
100
AcDbEntity
  8
G-r_new
 62
7
420
3444827
100
AcDbHatch
 10
0.0
 20
0.0
 30
0.0
210
0.0
220
0.0
230
1.0
  2
SOLID
 70
1
 71
0
 91
1
 92
3
 72
0
 73
1
 93
90
 10
-88.2598846298224
 20
-76.94617613083763
 10
-147.63340979976667
 20
-136.3197013007819
 10
-148.7794617658676
 20
-137.8455404867118
 10
-149.56198401031995
 20
-139.54296245244873
 10
-149.92662981445903
 20
-141.37616070423513
 10
-149.85324879309482
 20
-143.24383241482366
 10
-149.34589599315046
 20
-145.0427697481451
 10
-148.43260781112386
 20
-146.67356314076096
 10
-147.1638526973535
 20
-148.0460946901654
 10
-145.60974226141803
 20
-149.08451808442493
 10
-143.85615689342885
 20
-149.73144988145094
 10
-141.98984037291584
 20
-149.95234299825208
 10
141.9954854549964
 20
-150.0
 10
143.24808963541363
 20
-149.88012782604304
 10
144.46544716183138
 20
-149.58786614174383
 10
145.6220971967748
 20
-149.10876601035096
 10
146.68955917768224
 20
-148.45462446714146
 10
147.6415486478805
 20
-147.6415486478805
 10
148.45462446714146
 20
-146.68955917768224
 10
149.10876601035096
 20
-145.6220971967748
 10
149.58786614174383
 20
-144.46544716183138
 10
149.88012782604304
 20
-143.24808963541363
 10
149.97871099359398
 20
-141.99547172497105
 10
150.0
 20
141.9954854549964
 10
149.88012782604304
 20
143.24808963541363
 10
149.58786614174383
 20
144.46544716183138
 10
149.10876601035096
 20
145.6220971967748
 10
148.45462446714146
 20
146.68955917768224
 10
147.6415486478805
 20
147.6415486478805
 10
146.68955917768224
 20
148.45462446714146
 10
145.6220971967748
 20
149.10876601035096
 10
144.46544716183138
 20
149.58786614174383
 10
143.24808963541363
 20
149.88012782604304
 10
141.99547172497105
 20
149.97871099359398
 10
-141.9954854549964
 20
150.0
 10
-143.24808963541363
 20
149.88012782604304
 10
-144.46544716183138
 20
149.58786614174383
 10
-145.62209719677477
 20
149.10876601035096
 10
-146.6895591776822
 20
148.45462446714146
 10
-147.64154864788054
 20
147.64154864788048
 10
-148.45462446714146
 20
146.68955917768224
 10
-149.10876601035096
 20
145.6220971967748
 10
-149.58786614174383
 20
144.46544716183138
 10
-149.88012782604304
 20
143.24808963541363
 10
-150.0215786638681
 20
141.45078632990504
 10
-163.9784213361319
 20
142.54921367009496
 10
-163.75052239181107
 20
145.4449443157933
 10
-162.94382934711078
 20
148.80506266941705
 10
-161.62142971530005
 20
151.9976177954116
 10
-159.81588536410698
 20
154.94399839109198
 10
-157.5716547877159
 20
157.57165478771594
 10
-154.94399839109195
 20
159.81588536410698
 10
-151.99761779541163
 20
161.62142971530005
 10
-148.80506266941705
 20
162.94382934711078
 10
-145.4449443157933
 20
163.75052239181107
 10
-142.0045145450036
 20
164.0
 10
142.00452827502895
 20
164.02128900640602
 10
145.4449443157933
 20
163.75052239181107
 10
148.80506266941705
 20
162.94382934711078
 10
151.9976177954116
 20
161.62142971530005
 10
154.94399839109198
 20
159.81588536410698
 10
157.57165478771591
 20
157.57165478771591
 10
159.81588536410698
 20
154.94399839109198
 10
161.62142971530005
 20
151.9976177954116
 10
162.94382934711078
 20
148.80506266941705
 10
163.75052239181107
 20
145.4449443157933
 10
164.0
 20
142.0045145450036
 10
164.02128900640602
 20
-142.00452827502895
 10
163.75052239181107
 20
-145.4449443157933
 10
162.94382934711078
 20
-148.80506266941705
 10
161.62142971530005
 20
-151.9976177954116
 10
159.81588536410698
 20
-154.94399839109198
 10
157.57165478771591
 20
-157.57165478771591
 10
154.94399839109198
 20
-159.81588536410698
 10
151.9976177954116
 20
-161.62142971530005
 10
148.80506266941705
 20
-162.94382934711078
 10
145.4449443157933
 20
-163.75052239181107
 10
142.0045145450036
 20
-164.0
 10
-142.01015962708416
 20
-164.04765700174792
 10
-147.1472040222483
 20
-163.43964773047935
 10
-152.00997273076837
 20
-161.6456776412261
 10
-156.31958875255202
 20
-158.76608427783552
 10
-159.83790202012457
 20
-154.9599944280132
 10
-162.37048998218813
 20
-150.43773322280757
 10
-163.7774014247593
 20
-145.44920153638327
 10
-163.9808901975348
 20
-140.2700664239295
 10
-162.96971147853466
 20
-135.18652771630283
 10
-160.79974316475517
 20
-130.47950257180975
 10
-157.57979363582976
 20
-126.46709526362167
 10
-98.15937956643405
 20
-67.04668119422597
 97
0
 75
0
 76
1
 98
0
  0
LWPOLYLINE
  5
48
330
17
100
AcDbEntity
  8
G-r_new
100
AcDbPolyline
 90
90
 70
1
 10
-88.2598846298224
 20
-76.94617613083763
 10
-147.63340979976667
 20
-136.3197013007819
 10
-148.7794617658676
 20
-137.8455404867118
 10
-149.56198401031995
 20
-139.54296245244873
 10
-149.92662981445903
 20
-141.37616070423513
 10
-149.85324879309482
 20
-143.24383241482366
 10
-149.34589599315046
 20
-145.0427697481451
 10
-148.43260781112386
 20
-146.67356314076096
 10
-147.1638526973535
 20
-148.0460946901654
 10
-145.60974226141803
 20
-149.08451808442493
 10
-143.85615689342885
 20
-149.73144988145094
 10
-141.98984037291584
 20
-149.95234299825208
 10
141.9954854549964
 20
-150.0
 10
143.24808963541363
 20
-149.88012782604304
 10
144.46544716183138
 20
-149.58786614174383
 10
145.6220971967748
 20
-149.10876601035096
 10
146.68955917768224
 20
-148.45462446714146
 10
147.6415486478805
 20
-147.6415486478805
 10
148.45462446714146
 20
-146.68955917768224
 10
149.10876601035096
 20
-145.6220971967748
 10
149.58786614174383
 20
-144.46544716183138
 10
149.88012782604304
 20
-143.24808963541363
 10
149.97871099359398
 20
-141.99547172497105
 10
150.0
 20
141.9954854549964
 10
149.88012782604304
 20
143.24808963541363
 10
149.58786614174383
 20
144.46544716183138
 10
149.10876601035096
 20
145.6220971967748
 10
148.45462446714146
 20
146.68955917768224
 10
147.6415486478805
 20
147.6415486478805
 10
146.68955917768224
 20
148.45462446714146
 10
145.6220971967748
 20
149.10876601035096
 10
144.46544716183138
 20
149.58786614174383
 10
143.24808963541363
 20
149.88012782604304
 10
141.99547172497105
 20
149.97871099359398
 10
-141.9954854549964
 20
150.0
 10
-143.24808963541363
 20
149.88012782604304
 10
-144.46544716183138
 20
149.58786614174383
 10
-145.62209719677477
 20
149.10876601035096
 10
-146.6895591776822
 20
148.45462446714146
 10
-147.64154864788054
 20
147.64154864788048
 10
-148.45462446714146
 20
146.68955917768224
 10
-149.10876601035096
 20
145.6220971967748
 10
-149.58786614174383
 20
144.46544716183138
 10
-149.88012782604304
 20
143.24808963541363
 10
-150.0215786638681
 20
141.45078632990504
 10
-163.9784213361319
 20
142.54921367009496
 10
-163.75052239181107
 20
145.4449443157933
 10
-162.94382934711078
 20
148.80506266941705
 10
-161.62142971530005
 20
151.9976177954116
 10
-159.81588536410698
 20
154.94399839109198
 10
-157.5716547877159
 20
157.57165478771594
 10
-154.94399839109195
 20
159.81588536410698
 10
-151.99761779541163
 20
161.62142971530005
 10
-148.80506266941705
 20
162.94382934711078
 10
-145.4449443157933
 20
163.75052239181107
 10
-142.0045145450036
 20
164.0
 10
142.00452827502895
 20
164.02128900640602
 10
145.4449443157933
 20
163.75052239181107
 10
148.80506266941705
 20
162.94382934711078
 10
151.9976177954116
 20
161.62142971530005
 10
154.94399839109198
 20
159.81588536410698
 10
157.57165478771591
 20
157.57165478771591
 10
159.81588536410698
 20
154.94399839109198
 10
161.62142971530005
 20
151.9976177954116
 10
162.94382934711078
 20
148.80506266941705
 10
163.75052239181107
 20
145.4449443157933
 10
164.0
 20
142.0045145450036
 10
164.02128900640602
 20
-142.00452827502895
 10
163.75052239181107
 20
-145.4449443157933
 10
162.94382934711078
 20
-148.80506266941705
 10
161.62142971530005
 20
-151.9976177954116
 10
159.81588536410698
 20
-154.94399839109198
 10
157.57165478771591
 20
-157.57165478771591
 10
154.94399839109198
 20
-159.81588536410698
 10
151.9976177954116
 20
-161.62142971530005
 10
148.80506266941705
 20
-162.94382934711078
 10
145.4449443157933
 20
-163.75052239181107
 10
142.0045145450036
 20
-164.0
 10
-142.01015962708416
 20
-164.04765700174792
 10
-147.1472040222483
 20
-163.43964773047935
 10
-152.00997273076837
 20
-161.6456776412261
 10
-156.31958875255202
 20
-158.76608427783552
 10
-159.83790202012457
 20
-154.9599944280132
 10
-162.37048998218813
 20
-150.43773322280757
 10
-163.7774014247593
 20
-145.44920153638327
 10
-163.9808901975348
 20
-140.2700664239295
 10
-162.96971147853466
 20
-135.18652771630283
 10
-160.79974316475517
 20
-130.47950257180975
 10
-157.57979363582976
 20
-126.46709526362167
 10
-98.15937956643405
 20
-67.04668119422597
  0
HATCH
  5
49
330
17
100
AcDbEntity
  8
G-r_new
 62
7
420
3444827
100
AcDbHatch
 10
0.0
 20
0.0
 30
0.0
210
0.0
220
0.0
230
1.0
  2
SOLID
 70
1
 71
0
 91
1
 92
3
 72
0
 73
1
 93
26
 10
-150.0
 20
142.0
 10
-150.0
 20
-141.98990907338828
 10
-149.73144988145094
 20
-143.85615689342885
 10
-149.08451808442493
 20
-145.60974226141803
 10
-148.0460946901654
 20
-147.16385269735352
 10
-146.673563140761
 20
-148.43260781112386
 10
-145.0427697481451
 20
-149.34589599315046
 10
-143.24383241482366
 20
-149.85324879309482
 10
-141.37616070423516
 20
-149.92662981445903
 10
-139.54296245244873
 20
-149.56198401031995
 10
-137.8455404867118
 20
-148.7794617658676
 10
-136.35130711611592
 20
-147.60150315805396
 10
-76.94617613083763
 20
-88.2598846298224
 10
-67.04668119422597
 20
-98.15937956643405
 10
-126.43548944828765
 20
-157.61170027754247
 10
-130.47950257180975
 20
-160.79974316475517
 10
-135.18652771630283
 20
-162.96971147853466
 10
-140.27006642392953
 20
-163.9808901975348
 10
-145.44920153638327
 20
-163.7774014247593
 10
-150.43773322280757
 20
-162.37048998218813
 10
-154.95999442801323
 20
-159.83790202012457
 10
-158.76608427783552
 20
-156.319588752552
 10
-161.6456776412261
 20
-152.00997273076837
 10
-163.43964773047935
 20
-147.1472040222483
 10
-164.0
 20
-142.01009092661172
 10
-164.0
 20
142.0
 97
0
 75
0
 76
1
 98
0
  0
LWPOLYLINE
  5
4A
330
17
100
AcDbEntity
  8
G-r_new
100
AcDbPolyline
 90
26
 70
1
 10
-150.0
 20
142.0
 10
-150.0
 20
-141.98990907338828
 10
-149.73144988145094
 20
-143.85615689342885
 10
-149.08451808442493
 20
-145.60974226141803
 10
-148.0460946901654
 20
-147.16385269735352
 10
-146.673563140761
 20
-148.43260781112386
 10
-145.0427697481451
 20
-149.34589599315046
 10
-143.24383241482366
 20
-149.85324879309482
 10
-141.37616070423516
 20
-149.92662981445903
 10
-139.54296245244873
 20
-149.56198401031995
 10
-137.8455404867118
 20
-148.7794617658676
 10
-136.35130711611592
 20
-147.60150315805396
 10
-76.94617613083763
 20
-88.2598846298224
 10
-67.04668119422597
 20
-98.15937956643405
 10
-126.43548944828765
 20
-157.61170027754247
 10
-130.47950257180975
 20
-160.79974316475517
 10
-135.18652771630283
 20
-162.96971147853466
 10
-140.27006642392953
 20
-163.9808901975348
 10
-145.44920153638327
 20
-163.7774014247593
 10
-150.43773322280757
 20
-162.37048998218813
 10
-154.95999442801323
 20
-159.83790202012457
 10
-158.76608427783552
 20
-156.319588752552
 10
-161.6456776412261
 20
-152.00997273076837
 10
-163.43964773047935
 20
-147.1472040222483
 10
-164.0
 20
-142.01009092661172
 10
-164.0
 20
142.0
  0
DIMENSION
  5
4C
330
17
100
AcDbEntity
  8
COTAS
100
AcDbDimension
280
0
  2
*D1
  3
COTAS_1-10
 10
-164.0
 20
-254.0
 30
0.0
 11
0.0
 21
-238.856
 31
0.0
 70
32
 71
5
  1
<>
100
AcDbAlignedDimension
 13
-164.0
 23
-164.0
 33
0.0
 14
164.0
 24
-164.0
 34
0.0
 50
0.0
100
AcDbRotatedDimension
  0
DIMENSION
  5
5F
330
17
100
AcDbEntity
  8
COTAS
100
AcDbDimension
280
0
  2
*D2
  3
COTAS_1-10
 10
254.0
 20
-164.0
 30
0.0
 11
238.856
 21
0.0
 31
0.0
 70
32
 71
5
  1
<>
100
AcDbAlignedDimension
 13
164.0
 23
-164.0
 33
0.0
 14
164.0
 24
164.0
 34
0.0
 50
90.0
100
AcDbRotatedDimension
  0
ENDSEC
  0
SECTION
  2
OBJECTS
  0
DICTIONARY
  5
A
330
0
100
AcDbDictionary
281
1
  3
ACAD_COLOR
350
B
  3
ACAD_GROUP
350
C
  3
ACAD_LAYOUT
350
D
  3
ACAD_MATERIAL
350
E
  3
ACAD_MLEADERSTYLE
350
F
  3
ACAD_MLINESTYLE
350
10
  3
ACAD_PLOTSETTINGS
350
11
  3
ACAD_PLOTSTYLENAME
350
12
  3
ACAD_SCALELIST
350
14
  3
ACAD_TABLESTYLE
350
15
  3
ACAD_VISUALSTYLE
350
16
  3
EZDXF_META
350
2D
  0
DICTIONARY
  5
B
330
A
100
AcDbDictionary
281
1
  0
DICTIONARY
  5
C
330
A
100
AcDbDictionary
281
1
  0
DICTIONARY
  5
D
330
A
100
AcDbDictionary
281
1
  3
Model
350
1A
  3
Layout1
350
1E
  0
DICTIONARY
  5
E
330
A
100
AcDbDictionary
281
1
  3
ByBlock
350
1F
  3
ByLayer
350
20
  3
Global
350
21
  0
DICTIONARY
  5
F
330
A
100
AcDbDictionary
281
1
  3
Standard
350
2C
  0
DICTIONARY
  5
10
330
A
100
AcDbDictionary
281
1
  3
Standard
350
22
  0
DICTIONARY
  5
11
330
A
100
AcDbDictionary
281
1
  0
ACDBDICTIONARYWDFLT
  5
12
330
A
100
AcDbDictionary
281
1
  3
Normal
350
13
100
AcDbDictionaryWithDefault
340
13
  0
ACDBPLACEHOLDER
  5
13
330
12
  0
DICTIONARY
  5
14
330
A
100
AcDbDictionary
281
1
  0
DICTIONARY
  5
15
330
A
100
AcDbDictionary
281
1
  0
DICTIONARY
  5
16
330
A
100
AcDbDictionary
281
1
  0
LAYOUT
  5
1A
330
D
100
AcDbPlotSettings
  1

  4
A3
  6

 40
7.5
 41
20.0
 42
7.5
 43
20.0
 44
420.0
 45
297.0
 46
0.0
 47
0.0
 48
0.0
 49
0.0
140
0.0
141
0.0
142
1.0
143
1.0
 70
1024
 72
1
 73
0
 74
5
  7

 75
16
 76
0
 77
2
 78
300
147
1.0
148
0.0
149
0.0
100
AcDbLayout
  1
Model
 70
1
 71
0
 10
0.0
 20
0.0
 11
420.0
 21
297.0
 12
0.0
 22
0.0
 32
0.0
 14
1e+20
 24
1e+20
 34
1e+20
 15
-1e+20
 25
-1e+20
 35
-1e+20
146
0.0
 13
0.0
 23
0.0
 33
0.0
 16
1.0
 26
0.0
 36
0.0
 17
0.0
 27
1.0
 37
0.0
 76
1
330
17
  0
LAYOUT
  5
1E
330
D
100
AcDbPlotSettings
  1

  4
A3
  6

 40
7.5
 41
20.0
 42
7.5
 43
20.0
 44
420.0
 45
297.0
 46
0.0
 47
0.0
 48
0.0
 49
0.0
140
0.0
141
0.0
142
1.0
143
1.0
 70
0
 72
1
 73
0
 74
5
  7

 75
16
 76
0
 77
2
 78
300
147
1.0
148
0.0
149
0.0
100
AcDbLayout
  1
Layout1
 70
1
 71
1
 10
0.0
 20
0.0
 11
420.0
 21
297.0
 12
0.0
 22
0.0
 32
0.0
 14
1e+20
 24
1e+20
 34
1e+20
 15
-1e+20
 25
-1e+20
 35
-1e+20
146
0.0
 13
0.0
 23
0.0
 33
0.0
 16
1.0
 26
0.0
 36
0.0
 17
0.0
 27
1.0
 37
0.0
 76
1
330
1B
  0
MATERIAL
  5
1F
102
{ACAD_REACTORS
330
E
102
}
330
E
100
AcDbMaterial
  1
ByBlock
  2

 70
0
 40
1.0
 71
1
 41
1.0
 91
-1023410177
 42
1.0
 72
1
  3

 73
1
 74
1
 75
1
 44
0.5
 73
0
 45
1.0
 46
1.0
 77
1
  4

 78
1
 79
1
170
1
 48
1.0
171
1
  6

172
1
173
1
174
1
140
1.0
141
1.0
175
1
  7

176
1
177
1
178
1
143
1.0
179
1
  8

270
1
271
1
272
1
145
1.0
146
1.0
273
1
  9

274
1
275
1
276
1
 42
1.0
 72
1
  3

 73
1
 74
1
 75
1
 94
63
  0
MATERIAL
  5
20
102
{ACAD_REACTORS
330
E
102
}
330
E
100
AcDbMaterial
  1
ByLayer
  2

 70
0
 40
1.0
 71
1
 41
1.0
 91
-1023410177
 42
1.0
 72
1
  3

 73
1
 74
1
 75
1
 44
0.5
 73
0
 45
1.0
 46
1.0
 77
1
  4

 78
1
 79
1
170
1
 48
1.0
171
1
  6

172
1
173
1
174
1
140
1.0
141
1.0
175
1
  7

176
1
177
1
178
1
143
1.0
179
1
  8

270
1
271
1
272
1
145
1.0
146
1.0
273
1
  9

274
1
275
1
276
1
 42
1.0
 72
1
  3

 73
1
 74
1
 75
1
 94
63
  0
MATERIAL
  5
21
102
{ACAD_REACTORS
330
E
102
}
330
E
100
AcDbMaterial
  1
Global
  2

 70
0
 40
1.0
 71
1
 41
1.0
 91
-1023410177
 42
1.0
 72
1
  3

 73
1
 74
1
 75
1
 44
0.5
 73
0
 45
1.0
 46
1.0
 77
1
  4

 78
1
 79
1
170
1
 48
1.0
171
1
  6

172
1
173
1
174
1
140
1.0
141
1.0
175
1
  7

176
1
177
1
178
1
143
1.0
179
1
  8

270
1
271
1
272
1
145
1.0
146
1.0
273
1
  9

274
1
275
1
276
1
 42
1.0
 72
1
  3

 73
1
 74
1
 75
1
 94
63
  0
MLINESTYLE
  5
22
102
{ACAD_REACTORS
330
10
102
}
330
10
100
AcDbMlineStyle
  2
Standard
 70
0
  3

 62
256
 51
90.0
 52
90.0
 71
2
 49
0.5
 62
256
  6
BYLAYER
 49
-0.5
 62
256
  6
BYLAYER
  0
MLEADERSTYLE
  5
2C
102
{ACAD_REACTORS
330
F
102
}
330
F
100
AcDbMLeaderStyle
179
2
170
2
171
1
172
0
 90
2
 40
0.0
 41
0.0
173
1
 91
-1056964608
 92
-2
290
1
 42
2.0
291
1
 43
8.0
  3
Standard
 44
4.0
300

342
29
174
1
175
1
176
0
178
1
 93
-1056964608
 45
4.0
292
0
297
0
 46
4.0
 94
-1056964608
 47
1.0
 49
1.0
140
1.0
294
1
141
0.0
177
0
142
1.0
295
0
296
0
143
3.75
271
0
272
9
273
9
  0
DICTIONARY
  5
2D
330
A
100
AcDbDictionary
280
1
281
1
  3
CREATED_BY_EZDXF
350
2E
  3
WRITTEN_BY_EZDXF
350
70
  0
DICTIONARYVAR
  5
2E
330
2D
100
DictionaryVariables
280
0
  1
1.4.4 @ 2026-10-09T22:16:32.879478+00:00
  0
DICTIONARYVAR
  5
70
330
2D
100
DictionaryVariables
280
0
  1
1.4.4 @ 2026-10-09T22:16:32.885154+00:00
  0
ENDSEC
  0
EOF
