<svg xmlns="http://www.w3.org/2000/svg" viewBox="0 0 1160 464" width="1160" height="464" font-family="Helvetica, Arial, sans-serif">
<rect width="1160" height="464" fill="#ffffff"/>
<rect x="96.0" y="92.0" width="128.0" height="280.0" fill="#dbe4ed" stroke="#1f3347" stroke-width="0.6"/>
<rect x="112.0" y="160.0" width="96.0" height="7.8" fill="none" stroke="#ffffff" stroke-width="1" stroke-dasharray="5 3"/>
<rect x="112.0" y="160.0" width="96.0" height="7.8" fill="none" stroke="#8a8a8a" stroke-width="0.8" stroke-dasharray="6 4"/>
<rect x="112.0" y="344.2" width="96.0" height="7.8" fill="none" stroke="#8a8a8a" stroke-width="0.8" stroke-dasharray="6 4"/>
<rect x="157.5" y="167.8" width="5.0" height="176.3" fill="none" stroke="#8a8a8a" stroke-width="0.8" stroke-dasharray="6 4"/>
<circle cx="132.0" cy="136.8" r="7.2" fill="#ffffff" stroke="#142433" stroke-width="0.8"/>
<circle cx="188.0" cy="136.8" r="7.2" fill="#ffffff" stroke="#142433" stroke-width="0.8"/>
<circle cx="132.0" cy="321.0" r="7.2" fill="#ffffff" stroke="#142433" stroke-width="0.8"/>
<circle cx="188.0" cy="321.0" r="7.2" fill="#ffffff" stroke="#142433" stroke-width="0.8"/>
<rect x="96.0" y="92.0" width="54.4" height="68.0" fill="none" stroke="#8a8a8a" stroke-width="0.8" stroke-dasharray="6 4"/>
<rect x="169.6" y="92.0" width="54.4" height="68.0" fill="none" stroke="#8a8a8a" stroke-width="0.8" stroke-dasharray="6 4"/>
<rect x="155.2" y="92.0" width="9.6" height="68.0" fill="#34506b" fill-opacity="0.8" stroke="#142433" stroke-width="0.8"/>
<text x="168.0" y="192.0" font-size="11.5" text-anchor="start" fill="#111111">rib PL 12 on the web line,</text>
<text x="168.0" y="206.4" font-size="11.5" text-anchor="start" fill="#111111">150 long on the top flange</text>
<polyline points="96.0,89.0 96.0,64.0 " fill="none" stroke="#222222" stroke-width="0.7"/>
<polyline points="224.0,89.0 224.0,64.0 " fill="none" stroke="#222222" stroke-width="0.7"/>
<polyline points="96.0,68.0 224.0,68.0 " fill="none" stroke="#222222" stroke-width="0.7"/>
<polyline points="93.5,70.5 98.5,65.5 " fill="none" stroke="#222222" stroke-width="1.3"/>
<polyline points="221.5,70.5 226.5,65.5 " fill="none" stroke="#222222" stroke-width="1.3"/>
<text x="160.0" y="64.5" font-size="11" text-anchor="middle" fill="#111111" transform="rotate(-0.0 160.0 64.5)">160</text>
<polyline points="132.0,89.0 132.0,36.0 " fill="none" stroke="#222222" stroke-width="0.7"/>
<polyline points="188.0,89.0 188.0,36.0 " fill="none" stroke="#222222" stroke-width="0.7"/>
<polyline points="132.0,40.0 188.0,40.0 " fill="none" stroke="#222222" stroke-width="0.7"/>
<polyline points="129.5,42.5 134.5,37.5 " fill="none" stroke="#222222" stroke-width="1.3"/>
<polyline points="185.5,42.5 190.5,37.5 " fill="none" stroke="#222222" stroke-width="1.3"/>
<text x="160.0" y="36.5" font-size="11" text-anchor="middle" fill="#111111" transform="rotate(-0.0 160.0 36.5)">70</text>
<polyline points="96.0,89.0 96.0,36.0 " fill="none" stroke="#222222" stroke-width="0.7"/>
<polyline points="132.0,89.0 132.0,36.0 " fill="none" stroke="#222222" stroke-width="0.7"/>
<polyline points="96.0,40.0 132.0,40.0 " fill="none" stroke="#222222" stroke-width="0.7"/>
<polyline points="93.5,42.5 98.5,37.5 " fill="none" stroke="#222222" stroke-width="1.3"/>
<polyline points="129.5,42.5 134.5,37.5 " fill="none" stroke="#222222" stroke-width="1.3"/>
<text x="114.0" y="36.5" font-size="11" text-anchor="middle" fill="#111111" transform="rotate(-0.0 114.0 36.5)">45</text>
<polyline points="188.0,89.0 188.0,36.0 " fill="none" stroke="#222222" stroke-width="0.7"/>
<polyline points="224.0,89.0 224.0,36.0 " fill="none" stroke="#222222" stroke-width="0.7"/>
<polyline points="188.0,40.0 224.0,40.0 " fill="none" stroke="#222222" stroke-width="0.7"/>
<polyline points="185.5,42.5 190.5,37.5 " fill="none" stroke="#222222" stroke-width="1.3"/>
<polyline points="221.5,42.5 226.5,37.5 " fill="none" stroke="#222222" stroke-width="1.3"/>
<text x="206.0" y="36.5" font-size="11" text-anchor="middle" fill="#111111" transform="rotate(-0.0 206.0 36.5)">45</text>
<polyline points="227.0,372.0 252.0,372.0 " fill="none" stroke="#222222" stroke-width="0.7"/>
<polyline points="227.0,352.0 252.0,352.0 " fill="none" stroke="#222222" stroke-width="0.7"/>
<polyline points="248.0,372.0 248.0,352.0 " fill="none" stroke="#222222" stroke-width="0.7"/>
<polyline points="250.5,374.5 245.5,369.5 " fill="none" stroke="#222222" stroke-width="1.3"/>
<polyline points="250.5,354.5 245.5,349.5 " fill="none" stroke="#222222" stroke-width="1.3"/>
<text x="244.5" y="362.0" font-size="11" text-anchor="middle" fill="#111111" transform="rotate(-90.0 244.5 362.0)">25</text>
<polyline points="227.0,352.0 252.0,352.0 " fill="none" stroke="#222222" stroke-width="0.7"/>
<polyline points="227.0,321.0 252.0,321.0 " fill="none" stroke="#222222" stroke-width="0.7"/>
<polyline points="248.0,352.0 248.0,321.0 " fill="none" stroke="#222222" stroke-width="0.7"/>
<polyline points="250.5,354.5 245.5,349.5 " fill="none" stroke="#222222" stroke-width="1.3"/>
<polyline points="250.5,323.4 245.5,318.5 " fill="none" stroke="#222222" stroke-width="1.3"/>
<text x="244.5" y="336.5" font-size="11" text-anchor="middle" fill="#111111" transform="rotate(-90.0 244.5 336.5)">38.8</text>
<polyline points="227.0,321.0 252.0,321.0 " fill="none" stroke="#222222" stroke-width="0.7"/>
<polyline points="227.0,160.0 252.0,160.0 " fill="none" stroke="#222222" stroke-width="0.7"/>
<polyline points="248.0,321.0 248.0,160.0 " fill="none" stroke="#222222" stroke-width="0.7"/>
<polyline points="250.5,323.4 245.5,318.5 " fill="none" stroke="#222222" stroke-width="1.3"/>
<polyline points="250.5,162.5 245.5,157.5 " fill="none" stroke="#222222" stroke-width="1.3"/>
<text x="244.5" y="240.5" font-size="11" text-anchor="middle" fill="#111111" transform="rotate(-90.0 244.5 240.5)">201.2</text>
<polyline points="227.0,160.0 252.0,160.0 " fill="none" stroke="#222222" stroke-width="0.7"/>
<polyline points="227.0,136.8 252.0,136.8 " fill="none" stroke="#222222" stroke-width="0.7"/>
<polyline points="248.0,160.0 248.0,136.8 " fill="none" stroke="#222222" stroke-width="0.7"/>
<polyline points="250.5,162.5 245.5,157.5 " fill="none" stroke="#222222" stroke-width="1.3"/>
<polyline points="250.5,139.3 245.5,134.3 " fill="none" stroke="#222222" stroke-width="1.3"/>
<text x="244.5" y="148.4" font-size="11" text-anchor="middle" fill="#111111" transform="rotate(-90.0 244.5 148.4)">29</text>
<polyline points="227.0,136.8 252.0,136.8 " fill="none" stroke="#222222" stroke-width="0.7"/>
<polyline points="227.0,92.0 252.0,92.0 " fill="none" stroke="#222222" stroke-width="0.7"/>
<polyline points="248.0,136.8 248.0,92.0 " fill="none" stroke="#222222" stroke-width="0.7"/>
<polyline points="250.5,139.3 245.5,134.3 " fill="none" stroke="#222222" stroke-width="1.3"/>
<polyline points="250.5,94.5 245.5,89.5 " fill="none" stroke="#222222" stroke-width="1.3"/>
<text x="244.5" y="114.4" font-size="11" text-anchor="middle" fill="#111111" transform="rotate(-90.0 244.5 114.4)">56</text>
<polyline points="93.0,372.0 68.0,372.0 " fill="none" stroke="#222222" stroke-width="0.7"/>
<polyline points="93.0,92.0 68.0,92.0 " fill="none" stroke="#222222" stroke-width="0.7"/>
<polyline points="72.0,372.0 72.0,92.0 " fill="none" stroke="#222222" stroke-width="0.7"/>
<polyline points="74.5,374.5 69.5,369.5 " fill="none" stroke="#222222" stroke-width="1.3"/>
<polyline points="74.5,94.5 69.5,89.5 " fill="none" stroke="#222222" stroke-width="1.3"/>
<text x="68.5" y="232.0" font-size="11" text-anchor="middle" fill="#111111" transform="rotate(-90.0 68.5 232.0)">350</text>
<text x="64.0" y="448.0" font-size="11.5" text-anchor="start" fill="#111111"><tspan font-weight="bold">PL 160x350x12 A36: types E, C1, CX</tspan></text>
<rect x="608.0" y="92.0" width="128.0" height="280.0" fill="#dbe4ed" stroke="#1f3347" stroke-width="0.6"/>
<rect x="624.0" y="160.0" width="96.0" height="7.8" fill="none" stroke="#ffffff" stroke-width="1" stroke-dasharray="5 3"/>
<rect x="624.0" y="160.0" width="96.0" height="7.8" fill="none" stroke="#8a8a8a" stroke-width="0.8" stroke-dasharray="6 4"/>
<rect x="624.0" y="344.2" width="96.0" height="7.8" fill="none" stroke="#8a8a8a" stroke-width="0.8" stroke-dasharray="6 4"/>
<rect x="669.5" y="167.8" width="5.0" height="176.3" fill="none" stroke="#8a8a8a" stroke-width="0.8" stroke-dasharray="6 4"/>
<circle cx="644.0" cy="124.0" r="7.2" fill="#ffffff" stroke="#142433" stroke-width="0.8"/>
<circle cx="700.0" cy="124.0" r="7.2" fill="#ffffff" stroke="#142433" stroke-width="0.8"/>
<circle cx="644.0" cy="321.0" r="7.2" fill="#ffffff" stroke="#142433" stroke-width="0.8"/>
<circle cx="700.0" cy="321.0" r="7.2" fill="#ffffff" stroke="#142433" stroke-width="0.8"/>
<rect x="608.0" y="92.0" width="54.4" height="68.0" fill="none" stroke="#8a8a8a" stroke-width="0.8" stroke-dasharray="6 4"/>
<rect x="681.6" y="92.0" width="54.4" height="68.0" fill="none" stroke="#8a8a8a" stroke-width="0.8" stroke-dasharray="6 4"/>
<rect x="667.2" y="92.0" width="9.6" height="68.0" fill="#34506b" fill-opacity="0.8" stroke="#142433" stroke-width="0.8"/>
<text x="680.0" y="192.0" font-size="11.5" text-anchor="start" fill="#111111">rib PL 12 on the web line,</text>
<text x="680.0" y="206.4" font-size="11.5" text-anchor="start" fill="#111111">150 long on the top flange</text>
<polyline points="608.0,89.0 608.0,64.0 " fill="none" stroke="#222222" stroke-width="0.7"/>
<polyline points="736.0,89.0 736.0,64.0 " fill="none" stroke="#222222" stroke-width="0.7"/>
<polyline points="608.0,68.0 736.0,68.0 " fill="none" stroke="#222222" stroke-width="0.7"/>
<polyline points="605.5,70.5 610.5,65.5 " fill="none" stroke="#222222" stroke-width="1.3"/>
<polyline points="733.5,70.5 738.5,65.5 " fill="none" stroke="#222222" stroke-width="1.3"/>
<text x="672.0" y="64.5" font-size="11" text-anchor="middle" fill="#111111" transform="rotate(-0.0 672.0 64.5)">160</text>
<polyline points="644.0,89.0 644.0,36.0 " fill="none" stroke="#222222" stroke-width="0.7"/>
<polyline points="700.0,89.0 700.0,36.0 " fill="none" stroke="#222222" stroke-width="0.7"/>
<polyline points="644.0,40.0 700.0,40.0 " fill="none" stroke="#222222" stroke-width="0.7"/>
<polyline points="641.5,42.5 646.5,37.5 " fill="none" stroke="#222222" stroke-width="1.3"/>
<polyline points="697.5,42.5 702.5,37.5 " fill="none" stroke="#222222" stroke-width="1.3"/>
<text x="672.0" y="36.5" font-size="11" text-anchor="middle" fill="#111111" transform="rotate(-0.0 672.0 36.5)">70</text>
<polyline points="608.0,89.0 608.0,36.0 " fill="none" stroke="#222222" stroke-width="0.7"/>
<polyline points="644.0,89.0 644.0,36.0 " fill="none" stroke="#222222" stroke-width="0.7"/>
<polyline points="608.0,40.0 644.0,40.0 " fill="none" stroke="#222222" stroke-width="0.7"/>
<polyline points="605.5,42.5 610.5,37.5 " fill="none" stroke="#222222" stroke-width="1.3"/>
<polyline points="641.5,42.5 646.5,37.5 " fill="none" stroke="#222222" stroke-width="1.3"/>
<text x="626.0" y="36.5" font-size="11" text-anchor="middle" fill="#111111" transform="rotate(-0.0 626.0 36.5)">45</text>
<polyline points="700.0,89.0 700.0,36.0 " fill="none" stroke="#222222" stroke-width="0.7"/>
<polyline points="736.0,89.0 736.0,36.0 " fill="none" stroke="#222222" stroke-width="0.7"/>
<polyline points="700.0,40.0 736.0,40.0 " fill="none" stroke="#222222" stroke-width="0.7"/>
<polyline points="697.5,42.5 702.5,37.5 " fill="none" stroke="#222222" stroke-width="1.3"/>
<polyline points="733.5,42.5 738.5,37.5 " fill="none" stroke="#222222" stroke-width="1.3"/>
<text x="718.0" y="36.5" font-size="11" text-anchor="middle" fill="#111111" transform="rotate(-0.0 718.0 36.5)">45</text>
<polyline points="739.0,372.0 764.0,372.0 " fill="none" stroke="#222222" stroke-width="0.7"/>
<polyline points="739.0,352.0 764.0,352.0 " fill="none" stroke="#222222" stroke-width="0.7"/>
<polyline points="760.0,372.0 760.0,352.0 " fill="none" stroke="#222222" stroke-width="0.7"/>
<polyline points="762.5,374.5 757.5,369.5 " fill="none" stroke="#222222" stroke-width="1.3"/>
<polyline points="762.5,354.5 757.5,349.5 " fill="none" stroke="#222222" stroke-width="1.3"/>
<text x="756.5" y="362.0" font-size="11" text-anchor="middle" fill="#111111" transform="rotate(-90.0 756.5 362.0)">25</text>
<polyline points="739.0,352.0 764.0,352.0 " fill="none" stroke="#222222" stroke-width="0.7"/>
<polyline points="739.0,321.0 764.0,321.0 " fill="none" stroke="#222222" stroke-width="0.7"/>
<polyline points="760.0,352.0 760.0,321.0 " fill="none" stroke="#222222" stroke-width="0.7"/>
<polyline points="762.5,354.5 757.5,349.5 " fill="none" stroke="#222222" stroke-width="1.3"/>
<polyline points="762.5,323.4 757.5,318.5 " fill="none" stroke="#222222" stroke-width="1.3"/>
<text x="756.5" y="336.5" font-size="11" text-anchor="middle" fill="#111111" transform="rotate(-90.0 756.5 336.5)">38.8</text>
<polyline points="739.0,321.0 764.0,321.0 " fill="none" stroke="#222222" stroke-width="0.7"/>
<polyline points="739.0,160.0 764.0,160.0 " fill="none" stroke="#222222" stroke-width="0.7"/>
<polyline points="760.0,321.0 760.0,160.0 " fill="none" stroke="#222222" stroke-width="0.7"/>
<polyline points="762.5,323.4 757.5,318.5 " fill="none" stroke="#222222" stroke-width="1.3"/>
<polyline points="762.5,162.5 757.5,157.5 " fill="none" stroke="#222222" stroke-width="1.3"/>
<text x="756.5" y="240.5" font-size="11" text-anchor="middle" fill="#111111" transform="rotate(-90.0 756.5 240.5)">201.2</text>
<polyline points="739.0,160.0 764.0,160.0 " fill="none" stroke="#222222" stroke-width="0.7"/>
<polyline points="739.0,124.0 764.0,124.0 " fill="none" stroke="#222222" stroke-width="0.7"/>
<polyline points="760.0,160.0 760.0,124.0 " fill="none" stroke="#222222" stroke-width="0.7"/>
<polyline points="762.5,162.5 757.5,157.5 " fill="none" stroke="#222222" stroke-width="1.3"/>
<polyline points="762.5,126.5 757.5,121.5 " fill="none" stroke="#222222" stroke-width="1.3"/>
<text x="756.5" y="142.0" font-size="11" text-anchor="middle" fill="#111111" transform="rotate(-90.0 756.5 142.0)">45</text>
<polyline points="739.0,124.0 764.0,124.0 " fill="none" stroke="#222222" stroke-width="0.7"/>
<polyline points="739.0,92.0 764.0,92.0 " fill="none" stroke="#222222" stroke-width="0.7"/>
<polyline points="760.0,124.0 760.0,92.0 " fill="none" stroke="#222222" stroke-width="0.7"/>
<polyline points="762.5,126.5 757.5,121.5 " fill="none" stroke="#222222" stroke-width="1.3"/>
<polyline points="762.5,94.5 757.5,89.5 " fill="none" stroke="#222222" stroke-width="1.3"/>
<text x="756.5" y="108.0" font-size="11" text-anchor="middle" fill="#111111" transform="rotate(-90.0 756.5 108.0)">40</text>
<polyline points="605.0,372.0 580.0,372.0 " fill="none" stroke="#222222" stroke-width="0.7"/>
<polyline points="605.0,92.0 580.0,92.0 " fill="none" stroke="#222222" stroke-width="0.7"/>
<polyline points="584.0,372.0 584.0,92.0 " fill="none" stroke="#222222" stroke-width="0.7"/>
<polyline points="586.5,374.5 581.5,369.5 " fill="none" stroke="#222222" stroke-width="1.3"/>
<polyline points="586.5,94.5 581.5,89.5 " fill="none" stroke="#222222" stroke-width="1.3"/>
<text x="580.5" y="232.0" font-size="11" text-anchor="middle" fill="#111111" transform="rotate(-90.0 580.5 232.0)">350</text>
<text x="576.0" y="448.0" font-size="11.5" text-anchor="start" fill="#111111"><tspan font-weight="bold">PL 160x350x12 A36: type CY</tspan></text>
<text x="960.0" y="64.0" font-size="11.5" text-anchor="start" fill="#111111">4 holes &#216;18, drilled to the</text>
<text x="960.0" y="80.0" font-size="11.5" text-anchor="start" fill="#111111">measured anchor positions</text>
<text x="960.0" y="104.0" font-size="11.5" text-anchor="start" fill="#111111">fillets: 8 mm on both faces of</text>
<text x="960.0" y="120.0" font-size="11.5" text-anchor="start" fill="#111111">each flange, 5 mm both sides</text>
<text x="960.0" y="136.0" font-size="11.5" text-anchor="start" fill="#111111">of the web, 6 mm both sides of</text>
<text x="960.0" y="152.0" font-size="11.5" text-anchor="start" fill="#111111">the rib (shop)</text>
<text x="960.0" y="176.0" font-size="11.5" text-anchor="start" fill="#111111">level line: top of steel (z = 0)</text>
<text x="960.0" y="192.0" font-size="11.5" text-anchor="start" fill="#111111">is marked on both faces</text>
</svg>
