<svg xmlns="http://www.w3.org/2000/svg" viewBox="0 0 1311 499" width="1311" height="499" font-family="Helvetica, Arial, sans-serif">
<rect width="1311" height="499" fill="#ffffff"/>
<rect x="394.4" y="110.2" width="185.6" height="63.8" fill="#f6f4ee" stroke="#a5a5a5" stroke-width="0.7"/>
<rect x="812.0" y="110.2" width="185.6" height="63.8" fill="#f6f4ee" stroke="#a5a5a5" stroke-width="0.7"/>
<rect x="394.4" y="174.0" width="185.6" height="203.0" fill="#ece9e2" stroke="#6b6b6b" stroke-width="1"/>
<rect x="812.0" y="174.0" width="185.6" height="203.0" fill="#ece9e2" stroke="#6b6b6b" stroke-width="1"/>
<rect x="580.0" y="377.0" width="232.0" height="75.4" fill="#cfc9bb" stroke="#6b6b6b" stroke-width="1"/>
<rect x="580.0" y="116.0" width="232.0" height="261.0" fill="#ece9e2" stroke="#6b6b6b" stroke-width="1"/>
<polyline points="553.9,377.0 838.1,377.0 " fill="none" stroke="#111111" stroke-width="1.8" stroke-dasharray="10 5"/>
<polyline points="613.6,452.4 613.6,143.8 " fill="none" stroke="#9a6b00" stroke-opacity="1.00" stroke-width="9.3" stroke-linejoin="round"/>
<polyline points="696.0,452.4 696.0,143.8 " fill="none" stroke="#9a6b00" stroke-opacity="1.00" stroke-width="9.3" stroke-linejoin="round"/>
<polyline points="778.4,452.4 778.4,143.8 " fill="none" stroke="#9a6b00" stroke-opacity="1.00" stroke-width="9.3" stroke-linejoin="round"/>
<polyline points="638.0,452.4 638.0,92.8 " fill="none" stroke="#117a65" stroke-opacity="0.55" stroke-width="7.0" stroke-linejoin="round"/>
<polyline points="754.0,452.4 754.0,92.8 " fill="none" stroke="#117a65" stroke-opacity="0.55" stroke-width="7.0" stroke-linejoin="round"/>
<polyline points="645.0,206.5 645.0,314.4 " fill="none" stroke="#5d6d7e" stroke-opacity="1.00" stroke-width="7.0" stroke-linejoin="round"/>
<circle cx="645.0" cy="206.5" r="3.5" fill="#5d6d7e" stroke="#ffffff" stroke-width="0.8"/>
<polyline points="696.0,206.5 696.0,314.4 " fill="none" stroke="#5d6d7e" stroke-opacity="1.00" stroke-width="7.0" stroke-linejoin="round"/>
<circle cx="696.0" cy="206.5" r="3.5" fill="#5d6d7e" stroke="#ffffff" stroke-width="0.8"/>
<polyline points="747.0,206.5 747.0,314.4 " fill="none" stroke="#5d6d7e" stroke-opacity="1.00" stroke-width="7.0" stroke-linejoin="round"/>
<circle cx="747.0" cy="206.5" r="3.5" fill="#5d6d7e" stroke="#ffffff" stroke-width="0.8"/>
<circle cx="645.0" cy="220.4" r="3.5" fill="#5d6d7e" stroke="#ffffff" stroke-width="0.8"/>
<circle cx="747.0" cy="220.4" r="3.5" fill="#5d6d7e" stroke="#ffffff" stroke-width="0.8"/>
<polyline points="606.1,229.1 785.9,229.1 " fill="none" stroke="#7d3c98" stroke-width="3"/>
<polyline points="606.1,272.6 785.9,272.6 " fill="none" stroke="#7d3c98" stroke-width="3"/>
<polyline points="606.1,316.1 785.9,316.1 " fill="none" stroke="#7d3c98" stroke-width="3"/>
<polyline points="606.1,359.6 785.9,359.6 " fill="none" stroke="#7d3c98" stroke-width="3"/>
<rect x="623.5" y="141.8" width="145.0" height="203.6" fill="#34506b" fill-opacity="0.45" stroke="#142433" stroke-width="0.8"/>
<rect x="623.5" y="240.7" width="145.0" height="5.8" fill="#e3141e" fill-opacity="0.18" stroke="#e3141e" stroke-width="1.4" stroke-dasharray="5 3"/>
<rect x="661.2" y="174.0" width="69.6" height="5.7" fill="#a9bdd1" stroke="#1f3347" stroke-width="1"/>
<rect x="661.2" y="307.5" width="69.6" height="5.7" fill="#a9bdd1" stroke="#1f3347" stroke-width="1"/>
<rect x="694.2" y="179.7" width="3.6" height="127.8" fill="#a9bdd1" stroke="#1f3347" stroke-width="1"/>
<circle cx="739.5" cy="197.2" r="8.7" fill="none" stroke="#111111" stroke-width="1.6"/>
<circle cx="739.5" cy="197.2" r="4.6" fill="#c0392b" stroke="#ffffff" stroke-width="0.8"/>
<circle cx="739.5" cy="162.4" r="8.7" fill="none" stroke="#111111" stroke-width="1.6"/>
<circle cx="739.5" cy="162.4" r="4.6" fill="#c0392b" stroke="#ffffff" stroke-width="0.8"/>
<circle cx="652.5" cy="197.2" r="8.7" fill="none" stroke="#111111" stroke-width="1.6"/>
<circle cx="652.5" cy="197.2" r="4.6" fill="#c0392b" stroke="#ffffff" stroke-width="0.8"/>
<circle cx="652.5" cy="162.4" r="8.7" fill="none" stroke="#111111" stroke-width="1.6"/>
<circle cx="652.5" cy="162.4" r="4.6" fill="#c0392b" stroke="#ffffff" stroke-width="0.8"/>
<circle cx="696.0" cy="162.4" r="8.7" fill="none" stroke="#111111" stroke-width="1.6"/>
<circle cx="696.0" cy="162.4" r="4.6" fill="#c0392b" stroke="#ffffff" stroke-width="0.8"/>
<circle cx="739.5" cy="237.8" r="4.6" fill="#5d6d7e" fill-opacity="0.35" stroke="#5d6d7e" stroke-width="0.6"/>
<polyline points="731.4,245.9 747.6,229.7 " fill="none" stroke="#d35400" stroke-width="1.8" stroke-dasharray="8 4"/>
<polyline points="731.4,229.7 747.6,245.9 " fill="none" stroke="#d35400" stroke-width="1.8" stroke-dasharray="8 4"/>
<circle cx="652.5" cy="237.8" r="4.6" fill="#5d6d7e" fill-opacity="0.35" stroke="#5d6d7e" stroke-width="0.6"/>
<polyline points="644.4,245.9 660.6,229.7 " fill="none" stroke="#d35400" stroke-width="1.8" stroke-dasharray="8 4"/>
<polyline points="644.4,229.7 660.6,245.9 " fill="none" stroke="#d35400" stroke-width="1.8" stroke-dasharray="8 4"/>
<circle cx="696.0" cy="162.4" r="13.3" fill="none" stroke="#e3141e" stroke-width="2.2"/>
<circle cx="739.5" cy="162.4" r="11.6" fill="none" stroke="#e3141e" stroke-width="2.2"/>
<circle cx="652.5" cy="162.4" r="11.6" fill="none" stroke="#e3141e" stroke-width="2.2"/>
<circle cx="739.5" cy="197.2" r="10.4" fill="none" stroke="#e3141e" stroke-width="2.2"/>
<circle cx="652.5" cy="197.2" r="10.4" fill="none" stroke="#e3141e" stroke-width="2.2"/>
<polyline points="623.5,113.0 623.5,88.8 " fill="none" stroke="#222222" stroke-width="0.7"/>
<polyline points="768.5,113.0 768.5,88.8 " fill="none" stroke="#222222" stroke-width="0.7"/>
<polyline points="623.5,92.8 768.5,92.8 " fill="none" stroke="#222222" stroke-width="0.7"/>
<polyline points="621.0,95.3 626.0,90.3 " fill="none" stroke="#222222" stroke-width="1.3"/>
<polyline points="766.0,95.3 771.0,90.3 " fill="none" stroke="#222222" stroke-width="1.3"/>
<text x="696.0" y="89.3" font-size="11" text-anchor="middle" fill="#111111" transform="rotate(-0.0 696.0 89.3)">250</text>
<polyline points="652.5,113.0 652.5,62.7 " fill="none" stroke="#222222" stroke-width="0.7"/>
<polyline points="739.5,113.0 739.5,62.7 " fill="none" stroke="#222222" stroke-width="0.7"/>
<polyline points="652.5,66.7 739.5,66.7 " fill="none" stroke="#222222" stroke-width="0.7"/>
<polyline points="650.0,69.2 655.0,64.2 " fill="none" stroke="#222222" stroke-width="1.3"/>
<polyline points="737.0,69.2 742.0,64.2 " fill="none" stroke="#222222" stroke-width="1.3"/>
<text x="696.0" y="63.2" font-size="11" text-anchor="middle" fill="#111111" transform="rotate(-0.0 696.0 63.2)">150</text>
<polyline points="1000.6,345.4 1021.9,345.4 " fill="none" stroke="#222222" stroke-width="0.7"/>
<polyline points="1000.6,313.2 1021.9,313.2 " fill="none" stroke="#222222" stroke-width="0.7"/>
<polyline points="1017.9,345.4 1017.9,313.2 " fill="none" stroke="#222222" stroke-width="0.7"/>
<polyline points="1020.4,347.9 1015.4,342.9 " fill="none" stroke="#222222" stroke-width="1.3"/>
<polyline points="1020.4,315.7 1015.4,310.7 " fill="none" stroke="#222222" stroke-width="1.3"/>
<text x="1014.4" y="329.3" font-size="11" text-anchor="middle" fill="#111111" transform="rotate(-90.0 1014.4 329.3)">56</text>
<polyline points="1000.6,313.2 1021.9,313.2 " fill="none" stroke="#222222" stroke-width="0.7"/>
<polyline points="1000.6,197.2 1021.9,197.2 " fill="none" stroke="#222222" stroke-width="0.7"/>
<polyline points="1017.9,313.2 1017.9,197.2 " fill="none" stroke="#222222" stroke-width="0.7"/>
<polyline points="1020.4,315.7 1015.4,310.7 " fill="none" stroke="#222222" stroke-width="1.3"/>
<polyline points="1020.4,199.7 1015.4,194.7 " fill="none" stroke="#222222" stroke-width="1.3"/>
<text x="1014.4" y="255.2" font-size="11" text-anchor="middle" fill="#111111" transform="rotate(-90.0 1014.4 255.2)">200</text>
<polyline points="1000.6,197.2 1021.9,197.2 " fill="none" stroke="#222222" stroke-width="0.7"/>
<polyline points="1000.6,174.0 1021.9,174.0 " fill="none" stroke="#222222" stroke-width="0.7"/>
<polyline points="1017.9,197.2 1017.9,174.0 " fill="none" stroke="#222222" stroke-width="0.7"/>
<polyline points="1020.4,199.7 1015.4,194.7 " fill="none" stroke="#222222" stroke-width="1.3"/>
<polyline points="1020.4,176.5 1015.4,171.5 " fill="none" stroke="#222222" stroke-width="1.3"/>
<text x="1014.4" y="185.6" font-size="11" text-anchor="middle" fill="#111111" transform="rotate(-90.0 1014.4 185.6)">40</text>
<polyline points="1000.6,174.0 1021.9,174.0 " fill="none" stroke="#222222" stroke-width="0.7"/>
<polyline points="1000.6,162.4 1021.9,162.4 " fill="none" stroke="#222222" stroke-width="0.7"/>
<polyline points="1017.9,174.0 1017.9,162.4 " fill="none" stroke="#222222" stroke-width="0.7"/>
<polyline points="1020.4,176.5 1015.4,171.5 " fill="none" stroke="#222222" stroke-width="1.3"/>
<polyline points="1020.4,164.9 1015.4,159.9 " fill="none" stroke="#222222" stroke-width="1.3"/>
<text x="1014.4" y="168.2" font-size="11" text-anchor="middle" fill="#111111" transform="rotate(-90.0 1014.4 168.2)">20</text>
<polyline points="1000.6,162.4 1021.9,162.4 " fill="none" stroke="#222222" stroke-width="0.7"/>
<polyline points="1000.6,141.8 1021.9,141.8 " fill="none" stroke="#222222" stroke-width="0.7"/>
<polyline points="1017.9,162.4 1017.9,141.8 " fill="none" stroke="#222222" stroke-width="0.7"/>
<polyline points="1020.4,164.9 1015.4,159.9 " fill="none" stroke="#222222" stroke-width="1.3"/>
<polyline points="1020.4,144.3 1015.4,139.3 " fill="none" stroke="#222222" stroke-width="1.3"/>
<text x="1014.4" y="152.1" font-size="11" text-anchor="middle" fill="#111111" transform="rotate(-90.0 1014.4 152.1)">36</text>
<polyline points="696.0,150.8 371.2,29.0 " fill="none" stroke="#222222" stroke-width="0.6"/>
<circle cx="696.0" cy="150.8" r="2" fill="#222222"/>
<text x="367.2" y="33.0" font-size="11.5" text-anchor="end" fill="#111111">anchor on the beam axis: runs into</text>
<text x="367.2" y="46.0" font-size="11.5" text-anchor="end" fill="#111111">the mid-face column bar (overlap 16 mm)</text>
<polyline points="644.4,157.8 371.2,75.4 " fill="none" stroke="#222222" stroke-width="0.6"/>
<circle cx="644.4" cy="157.8" r="2" fill="#222222"/>
<text x="367.2" y="79.4" font-size="11.5" text-anchor="end" fill="#111111">top row 20 mm over the flange: washer</text>
<text x="367.2" y="92.4" font-size="11.5" text-anchor="end" fill="#111111">and nut on the 8 mm fillet (-3 mm)</text>
<polyline points="638.0,139.2 371.2,118.9 " fill="none" stroke="#222222" stroke-width="0.6"/>
<circle cx="638.0" cy="139.2" r="2" fill="#222222"/>
<text x="367.2" y="122.9" font-size="11.5" text-anchor="end" fill="#111111">rods of the steel column: 11 mm from the anchors at &#177;75</text>
<polyline points="652.5,206.5 371.2,197.2 " fill="none" stroke="#222222" stroke-width="0.6"/>
<circle cx="652.5" cy="206.5" r="2" fill="#222222"/>
<text x="367.2" y="201.2" font-size="11.5" text-anchor="end" fill="#111111">second row (z = -40): 2 mm over the beam top</text>
<text x="367.2" y="214.2" font-size="11.5" text-anchor="end" fill="#111111">bars, -11 mm with their tolerance</text>
<polyline points="638.0,243.6 371.2,261.0 " fill="none" stroke="#222222" stroke-width="0.6"/>
<circle cx="638.0" cy="243.6" r="2" fill="#222222"/>
<text x="367.2" y="273.0" font-size="11.5" text-anchor="end" fill="#111111">shear key 250x10, 100 deep: its pocket cuts</text>
<text x="367.2" y="286.0" font-size="11.5" text-anchor="end" fill="#111111">the mid-face bar, the ties and the hook tails</text>
<polyline points="739.5,237.8 1020.8,307.4 " fill="none" stroke="#222222" stroke-width="0.6"/>
<circle cx="739.5" cy="237.8" r="2" fill="#222222"/>
<text x="1024.8" y="319.4" font-size="11.5" text-anchor="start" fill="#111111">the two anchors at 10 left out</text>
<text x="1024.8" y="332.4" font-size="11.5" text-anchor="start" fill="#111111">(user, 2026-10-02)</text>
<polyline points="762.7,339.6 1020.8,365.4 " fill="none" stroke="#222222" stroke-width="0.6"/>
<circle cx="762.7" cy="339.6" r="2" fill="#222222"/>
<text x="1024.8" y="377.4" font-size="11.5" text-anchor="start" fill="#111111">RAM plate 250x351x12</text>
<text x="696.0" y="429.2" font-size="11.5" text-anchor="middle" fill="#111111">Hardened pedestal</text>
<text x="406.0" y="275.5" font-size="11.5" text-anchor="start" fill="#111111">Edge beam</text>
<text x="11.6" y="17.4" font-size="11.5" text-anchor="start" fill="#111111"><tspan font-weight="bold">RAM model as drawn, edge column, seen from outside</tspan></text>
</svg>
