<svg xmlns="http://www.w3.org/2000/svg" viewBox="0 0 504 356" width="504" height="356" font-family="Helvetica, Arial, sans-serif">
<rect width="504" height="356" fill="#ffffff"/>
<rect x="200.0" y="272.0" width="160.0" height="68.0" fill="#cfc9bb" stroke="#6b6b6b" stroke-width="1"/>
<rect x="200.0" y="92.0" width="160.0" height="180.0" fill="none" stroke="#8a8a8a" stroke-width="0.8" stroke-dasharray="6 4"/>
<rect x="360.0" y="132.0" width="128.0" height="140.0" fill="none" stroke="#8a8a8a" stroke-width="0.8" stroke-dasharray="6 4"/>
<polyline points="182.0,272.0 378.0,272.0 " fill="none" stroke="#111111" stroke-width="1.8" stroke-dasharray="10 5"/>
<polyline points="404.0,254.0 404.0,150.0 " fill="none" stroke="#aab3bc" stroke-width="1"/>
<polyline points="460.0,254.0 460.0,150.0 " fill="none" stroke="#aab3bc" stroke-width="1"/>
<polyline points="223.2,340.0 223.2,24.0 " fill="none" stroke="#9a6b00" stroke-opacity="1.00" stroke-width="6.4" stroke-linejoin="round"/>
<polyline points="336.8,340.0 336.8,24.0 " fill="none" stroke="#9a6b00" stroke-opacity="1.00" stroke-width="6.4" stroke-linejoin="round"/>
<polyline points="218.0,170.0 342.0,170.0 " fill="none" stroke="#7d3c98" stroke-width="3"/>
<circle cx="218.0" cy="170.0" r="2.0" fill="#7d3c98" stroke="none"/>
<circle cx="342.0" cy="170.0" r="2.0" fill="#7d3c98" stroke="none"/>
<polyline points="218.0,200.0 342.0,200.0 " fill="none" stroke="#7d3c98" stroke-width="3"/>
<circle cx="218.0" cy="200.0" r="2.0" fill="#7d3c98" stroke="none"/>
<circle cx="342.0" cy="200.0" r="2.0" fill="#7d3c98" stroke="none"/>
<polyline points="218.0,230.0 342.0,230.0 " fill="none" stroke="#7d3c98" stroke-width="3"/>
<circle cx="218.0" cy="230.0" r="2.0" fill="#7d3c98" stroke="none"/>
<circle cx="342.0" cy="230.0" r="2.0" fill="#7d3c98" stroke="none"/>
<polyline points="218.0,260.0 342.0,260.0 " fill="none" stroke="#7d3c98" stroke-width="3"/>
<circle cx="218.0" cy="260.0" r="2.0" fill="#7d3c98" stroke="none"/>
<circle cx="342.0" cy="260.0" r="2.0" fill="#7d3c98" stroke="none"/>
<polyline points="218.8,141.6 341.2,141.6 " fill="none" stroke="#7d3c98" stroke-opacity="1.00" stroke-width="5.6" stroke-linejoin="round"/>
<circle cx="218.8" cy="141.6" r="2.8" fill="#7d3c98" stroke="none"/>
<circle cx="341.2" cy="141.6" r="2.8" fill="#7d3c98" stroke="none"/>
<polyline points="218.8,128.0 341.2,128.0 " fill="none" stroke="#7d3c98" stroke-opacity="1.00" stroke-width="5.6" stroke-linejoin="round"/>
<circle cx="218.8" cy="128.0" r="2.8" fill="#7d3c98" stroke="none"/>
<circle cx="341.2" cy="128.0" r="2.8" fill="#7d3c98" stroke="none"/>
<polyline points="488.0,244.8 269.6,244.8 266.7,244.5 263.9,243.8 261.2,242.5 258.8,240.9 256.7,238.8 255.1,236.4 253.8,233.7 253.1,230.9 252.8,228.0 252.8,170.4 " fill="none" stroke="#5d6d7e" stroke-opacity="1.00" stroke-width="4.8" stroke-linejoin="round"/>
<polyline points="488.0,164.0 244.0,164.0 241.1,164.3 238.3,165.0 235.6,166.3 233.2,167.9 231.1,170.0 229.5,172.4 228.2,175.1 227.5,177.9 227.2,180.8 227.2,238.4 " fill="none" stroke="#5d6d7e" stroke-opacity="0.35" stroke-width="4.8" stroke-linejoin="round"/>
<polyline points="488.0,159.2 239.2,159.2 236.3,159.5 233.5,160.2 230.8,161.5 228.4,163.1 226.3,165.2 224.7,167.6 223.4,170.3 222.7,173.1 222.4,176.0 222.4,233.6 " fill="none" stroke="#5d6d7e" stroke-opacity="1.00" stroke-width="4.8" stroke-linejoin="round"/>
<polyline points="240.0,340.0 240.0,68.0 " fill="none" stroke="#117a65" stroke-opacity="0.55" stroke-width="4.8" stroke-linejoin="round"/>
<polyline points="320.0,340.0 320.0,68.0 " fill="none" stroke="#117a65" stroke-opacity="0.55" stroke-width="4.8" stroke-linejoin="round"/>
<circle cx="244.8" cy="154.4" r="2.4" fill="#5d6d7e" stroke="#ffffff" stroke-width="0.8"/>
<circle cx="280.0" cy="154.4" r="2.4" fill="#5d6d7e" stroke="#ffffff" stroke-width="0.8"/>
<circle cx="315.2" cy="154.4" r="2.4" fill="#5d6d7e" stroke="#ffffff" stroke-width="0.8"/>
<circle cx="244.8" cy="249.6" r="2.4" fill="#5d6d7e" stroke="#ffffff" stroke-width="0.8"/>
<circle cx="280.0" cy="249.6" r="2.4" fill="#5d6d7e" stroke="#ffffff" stroke-width="0.8"/>
<circle cx="315.2" cy="249.6" r="2.4" fill="#5d6d7e" stroke="#ffffff" stroke-width="0.8"/>
<line x1="56.0" y1="132.0" x2="187.0" y2="132.0" stroke="#e3141e" stroke-width="2.4"/>
<polygon points="196.0,132.0 187.0,136.1 187.0,128.0" fill="#e3141e"/>
<text x="8.0" y="12.0" font-size="11.5" text-anchor="start" fill="#111111"><tspan font-weight="bold">1. Top ties 14 at -24 and 10, then the joint ties</tspan></text>
<text x="8.0" y="27.2" font-size="11.5" text-anchor="start" fill="#111111">closed ties dropped over the column bars</text>
</svg>
