<svg xmlns="http://www.w3.org/2000/svg" viewBox="0 0 704 384" width="704" height="384" font-family="Helvetica, Arial, sans-serif">
<rect width="704" height="384" fill="#ffffff"/>
<rect x="160.0" y="120.0" width="384.0" height="144.0" fill="#dbe4ed" stroke="#1f3347" stroke-width="0.6"/>
<rect x="352.0" y="120.0" width="192.0" height="144.0" fill="#1e8449" fill-opacity="0.28" stroke="#1e8449" stroke-width="0.8" stroke-dasharray="3 2"/>
<circle cx="240.0" cy="192.0" r="28.8" fill="#ffffff" stroke="#142433" stroke-width="0.8"/>
<circle cx="240.0" cy="192.0" r="48.0" fill="none" stroke="#111111" stroke-width="1.6"/>
<circle cx="464.0" cy="192.0" r="28.8" fill="#ffffff" stroke="#142433" stroke-width="0.8"/>
<circle cx="464.0" cy="192.0" r="48.0" fill="none" stroke="#111111" stroke-width="1.6"/>
<polyline points="160.0,97.8 160.0,93.6 " fill="none" stroke="#222222" stroke-width="0.7"/>
<polyline points="544.0,97.8 544.0,93.6 " fill="none" stroke="#222222" stroke-width="0.7"/>
<polyline points="160.0,97.6 544.0,97.6 " fill="none" stroke="#222222" stroke-width="0.7"/>
<polyline points="157.5,100.1 162.5,95.1 " fill="none" stroke="#222222" stroke-width="1.3"/>
<polyline points="541.5,100.1 546.5,95.1 " fill="none" stroke="#222222" stroke-width="1.3"/>
<text x="352.0" y="94.1" font-size="11" text-anchor="middle" fill="#111111" transform="rotate(-0.0 352.0 94.1)">b = 120</text>
<polyline points="240.0,59.4 240.0,55.2 " fill="none" stroke="#222222" stroke-width="0.7"/>
<polyline points="464.0,59.4 464.0,55.2 " fill="none" stroke="#222222" stroke-width="0.7"/>
<polyline points="240.0,59.2 464.0,59.2 " fill="none" stroke="#222222" stroke-width="0.7"/>
<polyline points="237.5,61.7 242.5,56.7 " fill="none" stroke="#222222" stroke-width="1.3"/>
<polyline points="461.5,61.7 466.5,56.7 " fill="none" stroke="#222222" stroke-width="1.3"/>
<text x="352.0" y="55.7" font-size="11" text-anchor="middle" fill="#111111" transform="rotate(-0.0 352.0 55.7)">s = 70</text>
<polyline points="464.0,286.2 464.0,290.4 " fill="none" stroke="#222222" stroke-width="0.7"/>
<polyline points="544.0,286.2 544.0,290.4 " fill="none" stroke="#222222" stroke-width="0.7"/>
<polyline points="464.0,286.4 544.0,286.4 " fill="none" stroke="#222222" stroke-width="0.7"/>
<polyline points="461.5,288.9 466.5,283.9 " fill="none" stroke="#222222" stroke-width="1.3"/>
<polyline points="541.5,288.9 546.5,283.9 " fill="none" stroke="#222222" stroke-width="1.3"/>
<text x="504.0" y="282.9" font-size="11" text-anchor="middle" fill="#111111" transform="rotate(-0.0 504.0 282.9)">a = 25</text>
<polyline points="566.2,264.0 570.4,264.0 " fill="none" stroke="#222222" stroke-width="0.7"/>
<polyline points="566.2,120.0 570.4,120.0 " fill="none" stroke="#222222" stroke-width="0.7"/>
<polyline points="566.4,264.0 566.4,120.0 " fill="none" stroke="#222222" stroke-width="0.7"/>
<polyline points="568.9,266.5 563.9,261.5 " fill="none" stroke="#222222" stroke-width="1.3"/>
<polyline points="568.9,122.5 563.9,117.5 " fill="none" stroke="#222222" stroke-width="1.3"/>
<text x="562.9" y="192.0" font-size="11" text-anchor="middle" fill="#111111" transform="rotate(-90.0 562.9 192.0)">h = 45</text>
<text x="16.0" y="16.0" font-size="11.5" text-anchor="start" fill="#111111"><tspan font-weight="bold">C. Back plate, seen along the anchors</tspan></text>
<text x="16.0" y="368.0" font-size="11.5" text-anchor="start" fill="#111111">t = 12. Green: bearing area of one anchor = half the plate less its hole; circles: washers 30</text>
</svg>
