<svg xmlns="http://www.w3.org/2000/svg" viewBox="0 0 940 784" width="940" height="784" font-family="Helvetica, Arial, sans-serif">
<rect width="940" height="784" fill="#ffffff"/>
<rect x="304.0" y="71.2" width="380.0" height="627.0" fill="#ece9e2" stroke="#6b6b6b" stroke-width="1"/>
<rect x="684.0" y="166.2" width="95.0" height="332.5" fill="#ece9e2" stroke="#6b6b6b" stroke-width="1"/>
<polyline points="304.0,498.8 684.0,498.8 " fill="none" stroke="#111111" stroke-width="1.8" stroke-dasharray="10 5"/>
<text x="689.7" y="513.9" font-size="11.5" text-anchor="start" fill="#111111">cold joint z = -350 (not an edge)</text>
<text x="494.0" y="684.9" font-size="11.5" text-anchor="middle" fill="#111111">the column goes on below: no free edge in the direction of V</text>
<rect x="264.1" y="85.5" width="11.4" height="332.5" fill="#34506b" stroke="#142433" stroke-width="0.8"/>
<rect x="275.5" y="85.5" width="28.5" height="332.5" fill="#b9b2a0" fill-opacity="0.75" stroke="#6b6b6b" stroke-width="0.6"/>
<rect x="19.0" y="166.2" width="245.1" height="9.3" fill="#a9bdd1" stroke="#1f3347" stroke-width="1"/>
<rect x="19.0" y="384.9" width="245.1" height="9.3" fill="#a9bdd1" stroke="#1f3347" stroke-width="1"/>
<rect x="19.0" y="175.6" width="245.1" height="209.4" fill="#dbe4ed" stroke="#1f3347" stroke-width="0.6"/>
<polyline points="228.0,138.7 541.5,138.7 " fill="none" stroke="#c0392b" stroke-opacity="0.45" stroke-width="15.1" stroke-linejoin="round"/>
<text x="547.2" y="142.5" font-size="11.5" text-anchor="start" fill="#111111">top anchor (tension)</text>
<polygon points="399.0,357.4 304.0,214.9 304.0,499.9 " fill="#e3141e" fill-opacity="0.18" stroke="#e3141e" stroke-width="1.4" stroke-dasharray="5 3"/>
<polyline points="242.2,357.4 412.3,357.4 " fill="none" stroke="#c0392b" stroke-opacity="1.00" stroke-width="15.1" stroke-linejoin="round"/>
<rect x="399.0" y="346.0" width="13.3" height="22.8" fill="#7b241c" stroke="#ffffff" stroke-width="0.8"/>
<rect x="247.9" y="346.0" width="13.3" height="22.8" fill="#7b241c" stroke="#ffffff" stroke-width="0.8"/>
<rect x="261.2" y="343.1" width="2.8" height="28.5" fill="#7b241c" stroke="#ffffff" stroke-width="0.8"/>
<line x1="254.6" y1="267.1" x2="254.6" y2="335.1" stroke="#c0392b" stroke-width="2.4"/>
<polygon points="254.6,344.1 250.5,335.1 258.6,335.1" fill="#c0392b"/>
<text x="254.6" y="259.5" font-size="11.5" text-anchor="middle" fill="#111111">V/2 each</text>
<rect x="304.0" y="364.9" width="38.0" height="20.9" fill="#7f8c8d" fill-opacity="0.30" stroke="#555555" stroke-width="0.8" stroke-dasharray="4 3"/>
<polyline points="323.0,375.4 427.5,428.6 " fill="none" stroke="#222222" stroke-width="0.6"/>
<circle cx="323.0" cy="375.4" r="2" fill="#222222"/>
<text x="431.5" y="440.6" font-size="11.5" text-anchor="start" fill="#111111">the bar bears down on the concrete</text>
<text x="431.5" y="453.6" font-size="11.5" text-anchor="start" fill="#111111">next to the face</text>
<line x1="406.6" y1="342.2" x2="406.6" y2="307.5" stroke="#7f8c8d" stroke-width="2.4"/>
<polygon points="406.6,298.5 410.6,307.5 402.5,307.5" fill="#7f8c8d"/>
<polyline points="356.2,305.1 465.5,214.9 " fill="none" stroke="#222222" stroke-width="0.6"/>
<circle cx="356.2" cy="305.1" r="2" fill="#222222"/>
<text x="469.5" y="218.9" font-size="11.5" text-anchor="start" fill="#111111">pryout: the bar levers about that bearing,</text>
<text x="469.5" y="231.9" font-size="11.5" text-anchor="start" fill="#111111">the nut lifts and pulls the body behind it out</text>
<text x="469.5" y="244.9" font-size="11.5" text-anchor="start" fill="#111111">(the crater opens on the side away from V)</text>
<polyline points="304.0,533.1 399.0,533.1 " fill="none" stroke="#222222" stroke-width="0.7"/>
<polyline points="301.5,535.6 306.5,530.7 " fill="none" stroke="#222222" stroke-width="1.3"/>
<polyline points="396.5,535.6 401.5,530.7 " fill="none" stroke="#222222" stroke-width="1.3"/>
<text x="351.5" y="529.6" font-size="11" text-anchor="middle" fill="#111111" transform="rotate(-0.0 351.5 529.6)">h_ef = 100</text>
<polyline points="301.0,499.9 200.2,499.9 " fill="none" stroke="#222222" stroke-width="0.7"/>
<polyline points="301.0,357.4 200.2,357.4 " fill="none" stroke="#222222" stroke-width="0.7"/>
<polyline points="204.2,499.9 204.2,357.4 " fill="none" stroke="#222222" stroke-width="0.7"/>
<polyline points="206.7,502.4 201.8,497.4 " fill="none" stroke="#222222" stroke-width="1.3"/>
<polyline points="206.7,359.9 201.8,354.9 " fill="none" stroke="#222222" stroke-width="1.3"/>
<text x="200.8" y="428.6" font-size="11" text-anchor="middle" fill="#111111" transform="rotate(-90.0 200.8 428.6)">1.5 h_ef = 150</text>
<polyline points="301.0,357.4 200.2,357.4 " fill="none" stroke="#222222" stroke-width="0.7"/>
<polyline points="301.0,214.9 200.2,214.9 " fill="none" stroke="#222222" stroke-width="0.7"/>
<polyline points="204.2,357.4 204.2,214.9 " fill="none" stroke="#222222" stroke-width="0.7"/>
<polyline points="206.7,359.9 201.8,354.9 " fill="none" stroke="#222222" stroke-width="1.3"/>
<polyline points="206.7,217.4 201.8,212.4 " fill="none" stroke="#222222" stroke-width="1.3"/>
<text x="200.8" y="286.1" font-size="11" text-anchor="middle" fill="#111111" transform="rotate(-90.0 200.8 286.1)">1.5 h_ef = 150</text>
<polyline points="301.0,214.9 200.2,214.9 " fill="none" stroke="#222222" stroke-width="0.7"/>
<polyline points="301.0,71.2 200.2,71.2 " fill="none" stroke="#222222" stroke-width="0.7"/>
<polyline points="204.2,214.9 204.2,71.2 " fill="none" stroke="#222222" stroke-width="0.7"/>
<polyline points="206.7,217.4 201.8,212.4 " fill="none" stroke="#222222" stroke-width="1.3"/>
<polyline points="206.7,73.7 201.8,68.8 " fill="none" stroke="#222222" stroke-width="1.3"/>
<text x="200.8" y="143.1" font-size="11" text-anchor="middle" fill="#111111" transform="rotate(-90.0 200.8 143.1)">151</text>
<polyline points="702.0,357.4 702.0,71.2 " fill="none" stroke="#222222" stroke-width="0.7"/>
<polyline points="704.5,359.9 699.6,354.9 " fill="none" stroke="#222222" stroke-width="1.3"/>
<polyline points="704.5,73.7 699.6,68.8 " fill="none" stroke="#222222" stroke-width="1.3"/>
<text x="698.5" y="214.3" font-size="11" text-anchor="middle" fill="#111111" transform="rotate(-90.0 698.5 214.3)">301 to the top: no cut</text>
<polyline points="86.5,166.2 86.5,357.4 " fill="none" stroke="#222222" stroke-width="0.7"/>
<polyline points="84.0,163.8 88.9,168.7 " fill="none" stroke="#222222" stroke-width="1.3"/>
<polyline points="84.0,354.9 88.9,359.9 " fill="none" stroke="#222222" stroke-width="1.3"/>
<text x="83.0" y="261.8" font-size="11" text-anchor="middle" fill="#111111" transform="rotate(-90.0 83.0 261.8)">-201.2</text>
<polyline points="19.0,166.2 693.5,166.2 " fill="none" stroke="#555555" stroke-width="0.7" stroke-dasharray="12 3 2 3"/>
<text x="19.0" y="160.5" font-size="11.5" text-anchor="start" fill="#111111">z = 0, top of the beams</text>
<text x="311.6" y="457.1" font-size="11.5" text-anchor="start" fill="#111111">pryout body</text>
<text x="304.0" y="61.8" font-size="11.5" text-anchor="start" fill="#111111">top of the pedestal, z = +100</text>
<text x="9.5" y="14.2" font-size="11.5" text-anchor="start" fill="#111111"><tspan font-weight="bold">I. Shear anchors: pryout. Section along the beam through a shear anchor (type E)</tspan></text>
</svg>
