<svg xmlns="http://www.w3.org/2000/svg" viewBox="0 0 945 740" width="945" height="740" font-family="Helvetica, Arial, sans-serif">
<rect width="945" height="740" fill="#ffffff"/>
<rect x="241.5" y="141.8" width="420.0" height="546.0" fill="#ece9e2" stroke="#6b6b6b" stroke-width="1"/>
<polyline points="168.0,246.8 672.0,246.8 " fill="none" stroke="#555555" stroke-width="0.7" stroke-dasharray="12 3 2 3"/>
<text x="163.8" y="251.0" font-size="11.5" text-anchor="end" fill="#111111">z = 0</text>
<rect x="241.5" y="141.8" width="420.0" height="231.0" fill="#2e86c1" fill-opacity="0.22" stroke="#1f5f8b" stroke-width="0.8"/>
<polygon points="414.8,199.5 453.3,141.8 661.5,141.8 661.5,569.6 " fill="#e67e22" fill-opacity="0.30" stroke="#b9620f" stroke-width="1"/>
<polygon points="488.2,199.5 526.8,141.8 661.5,141.8 661.5,459.4 " fill="#e3141e" fill-opacity="0.18" stroke="#e3141e" stroke-width="1.4" stroke-dasharray="5 3"/>
<rect x="367.5" y="157.5" width="168.0" height="367.5" fill="none" stroke="#8a8a8a" stroke-width="0.8" stroke-dasharray="6 4"/>
<circle cx="414.8" cy="199.5" r="8.3" fill="#c0392b" stroke="#ffffff" stroke-width="0.8"/>
<circle cx="414.8" cy="458.0" r="8.3" fill="#5d6d7e" stroke="#ffffff" stroke-width="0.8"/>
<circle cx="488.2" cy="199.5" r="8.3" fill="#c0392b" stroke="#ffffff" stroke-width="0.8"/>
<circle cx="488.2" cy="458.0" r="8.3" fill="#5d6d7e" stroke="#ffffff" stroke-width="0.8"/>
<line x1="582.8" y1="225.8" x2="626.2" y2="225.8" stroke="#c0392b" stroke-width="2.4"/>
<polygon points="635.2,225.8 626.2,229.8 626.2,221.7" fill="#c0392b"/>
<text x="579.6" y="221.6" font-size="11.5" text-anchor="end" fill="#111111">H</text>
<line x1="451.5" y1="215.2" x2="451.5" y2="269.2" stroke="#7f8c8d" stroke-width="2.4"/>
<polygon points="451.5,278.2 447.4,269.2 455.6,269.2" fill="#7f8c8d"/>
<text x="455.7" y="273.0" font-size="11.5" text-anchor="start" fill="#111111">V/4 each, only if all 4 holes bear</text>
<polyline points="664.5,199.5 688.6,199.5 " fill="none" stroke="#222222" stroke-width="0.7"/>
<polyline points="664.5,141.8 688.6,141.8 " fill="none" stroke="#222222" stroke-width="0.7"/>
<polyline points="684.6,199.5 684.6,141.8 " fill="none" stroke="#222222" stroke-width="0.7"/>
<polyline points="687.1,202.0 682.1,197.0 " fill="none" stroke="#222222" stroke-width="1.3"/>
<polyline points="687.1,144.2 682.1,139.3 " fill="none" stroke="#222222" stroke-width="1.3"/>
<text x="681.1" y="170.6" font-size="11" text-anchor="middle" fill="#111111" transform="rotate(-90.0 681.1 170.6)">ca2 = 55</text>
<polyline points="664.5,459.4 688.6,459.4 " fill="none" stroke="#222222" stroke-width="0.7"/>
<polyline points="664.5,199.5 688.6,199.5 " fill="none" stroke="#222222" stroke-width="0.7"/>
<polyline points="684.6,459.4 684.6,199.5 " fill="none" stroke="#222222" stroke-width="0.7"/>
<polyline points="687.1,461.8 682.1,456.9 " fill="none" stroke="#222222" stroke-width="1.3"/>
<polyline points="687.1,202.0 682.1,197.0 " fill="none" stroke="#222222" stroke-width="1.3"/>
<text x="681.1" y="329.4" font-size="11" text-anchor="middle" fill="#111111" transform="rotate(-90.0 681.1 329.4)">1.5 ca1 = 248</text>
<polyline points="664.5,569.6 688.6,569.6 " fill="none" stroke="#222222" stroke-width="0.7"/>
<polyline points="664.5,459.4 688.6,459.4 " fill="none" stroke="#222222" stroke-width="0.7"/>
<polyline points="684.6,569.6 684.6,459.4 " fill="none" stroke="#222222" stroke-width="0.7"/>
<polyline points="687.1,572.1 682.1,567.2 " fill="none" stroke="#222222" stroke-width="1.3"/>
<polyline points="687.1,461.8 682.1,456.9 " fill="none" stroke="#222222" stroke-width="1.3"/>
<text x="681.1" y="514.5" font-size="11" text-anchor="middle" fill="#111111" transform="rotate(-90.0 681.1 514.5)">105</text>
<polyline points="664.5,569.6 730.6,569.6 " fill="none" stroke="#222222" stroke-width="0.7"/>
<polyline points="664.5,199.5 730.6,199.5 " fill="none" stroke="#222222" stroke-width="0.7"/>
<polyline points="726.6,569.6 726.6,199.5 " fill="none" stroke="#222222" stroke-width="0.7"/>
<polyline points="729.1,572.1 724.1,567.2 " fill="none" stroke="#222222" stroke-width="1.3"/>
<polyline points="729.1,202.0 724.1,197.0 " fill="none" stroke="#222222" stroke-width="1.3"/>
<text x="723.1" y="384.6" font-size="11" text-anchor="middle" fill="#111111" transform="rotate(-90.0 723.1 384.6)">1.5 ca1 = 352</text>
<polyline points="238.5,372.8 206.0,372.8 " fill="none" stroke="#222222" stroke-width="0.7"/>
<polyline points="238.5,199.5 206.0,199.5 " fill="none" stroke="#222222" stroke-width="0.7"/>
<polyline points="210.0,372.8 210.0,199.5 " fill="none" stroke="#222222" stroke-width="0.7"/>
<polyline points="212.5,375.2 207.5,370.3 " fill="none" stroke="#222222" stroke-width="1.3"/>
<polyline points="212.5,202.0 207.5,197.0 " fill="none" stroke="#222222" stroke-width="1.3"/>
<text x="206.5" y="286.1" font-size="11" text-anchor="middle" fill="#111111" transform="rotate(-90.0 206.5 286.1)">1.5 h'ef = 165</text>
<polyline points="414.8,126.0 488.2,126.0 " fill="none" stroke="#222222" stroke-width="0.7"/>
<polyline points="412.3,128.5 417.2,123.5 " fill="none" stroke="#222222" stroke-width="1.3"/>
<polyline points="485.8,128.5 490.7,123.5 " fill="none" stroke="#222222" stroke-width="1.3"/>
<text x="451.5" y="122.5" font-size="11" text-anchor="middle" fill="#111111" transform="rotate(-0.0 451.5 122.5)">s = 70</text>
<polyline points="488.2,98.7 661.5,98.7 " fill="none" stroke="#222222" stroke-width="0.7"/>
<polyline points="485.8,101.2 490.7,96.2 " fill="none" stroke="#222222" stroke-width="1.3"/>
<polyline points="659.0,101.2 664.0,96.2 " fill="none" stroke="#222222" stroke-width="1.3"/>
<text x="574.9" y="95.2" font-size="11" text-anchor="middle" fill="#111111" transform="rotate(-0.0 574.9 95.2)">ca1 = 165 (case 1)</text>
<polyline points="414.8,71.4 661.5,71.4 " fill="none" stroke="#222222" stroke-width="0.7"/>
<polyline points="412.3,73.9 417.2,68.9 " fill="none" stroke="#222222" stroke-width="1.3"/>
<polyline points="659.0,73.9 664.0,68.9 " fill="none" stroke="#222222" stroke-width="1.3"/>
<text x="538.1" y="67.9" font-size="11" text-anchor="middle" fill="#111111" transform="rotate(-0.0 538.1 67.9)">ca1 = 235 (case 2)</text>
<text x="228.9" y="456.8" font-size="11.5" text-anchor="end" fill="#111111">blue: A_Nc of the pryout body</text>
<text x="228.9" y="471.5" font-size="11.5" text-anchor="end" fill="#111111">(the tension cone, cut by the</text>
<text x="228.9" y="486.2" font-size="11.5" text-anchor="end" fill="#111111">top and both sides)</text>
<text x="228.9" y="500.9" font-size="11.5" text-anchor="end" fill="#111111"></text>
<text x="228.9" y="515.6" font-size="11.5" text-anchor="end" fill="#111111">red: case 1 trace</text>
<text x="228.9" y="530.2" font-size="11.5" text-anchor="end" fill="#111111">orange: case 2 trace</text>
<text x="228.9" y="545.0" font-size="11.5" text-anchor="end" fill="#111111"></text>
<text x="228.9" y="559.6" font-size="11.5" text-anchor="end" fill="#111111">grey: shear anchors</text>
<text x="10.5" y="15.8" font-size="11.5" text-anchor="start" fill="#111111"><tspan font-weight="bold">L. Top anchors of CY (z = +45) on the face of the cantilever: breakout and pryout</tspan></text>
</svg>
