<svg xmlns="http://www.w3.org/2000/svg" viewBox="0 0 900 590" width="900" height="590" font-family="Helvetica, Arial, sans-serif">
<rect width="900" height="590" fill="#ffffff"/>
<polyline points="270.0,560.0 670.0,560.0 670.0,160.0 270.0,160.0 270.0,560.0 " fill="none" stroke="#222222" stroke-width="0.7"/>
<polyline points="270.0,160.0 411.4,18.6 811.4,18.6 670.0,160.0 " fill="none" stroke="#222222" stroke-width="0.7"/>
<polyline points="811.4,18.6 811.4,418.6 " fill="none" stroke="#222222" stroke-width="0.7"/>
<polyline points="670.0,560.0 811.4,418.6 " fill="none" stroke="#222222" stroke-width="0.7"/>
<polyline points="559.8,144.2 395.8,308.2 395.8,494.2 " fill="none" stroke="#5d6d7e" stroke-opacity="1.00" stroke-width="12.0" stroke-linejoin="round"/>
<polyline points="653.8,144.2 495.5,302.5 495.5,488.5 " fill="none" stroke="#5d6d7e" stroke-opacity="1.00" stroke-width="12.0" stroke-linejoin="round"/>
<polyline points="747.8,144.2 583.8,308.2 583.8,494.2 " fill="none" stroke="#5d6d7e" stroke-opacity="1.00" stroke-width="12.0" stroke-linejoin="round"/>
<polygon points="539.0,124.5 659.0,124.5 659.0,79.5 539.0,79.5 " fill="#34506b" fill-opacity="0.45" stroke="#142433" stroke-width="0.8"/>
<polyline points="406.7,259.3 574.3,91.7 " fill="none" stroke="#c0392b" stroke-opacity="1.00" stroke-width="15.9" stroke-linejoin="round"/>
<polyline points="476.7,259.3 644.3,91.7 " fill="none" stroke="#c0392b" stroke-opacity="1.00" stroke-width="15.9" stroke-linejoin="round"/>
<polyline points="425.8,479.2 493.6,411.4 497.1,407.1 500.4,401.2 503.5,394.0 506.4,385.5 508.8,376.2 510.8,366.2 512.2,355.9 513.1,345.6 513.4,335.6 513.4,136.6 514.0,129.7 515.9,122.9 518.8,116.6 522.8,110.9 527.7,106.0 533.4,102.0 539.8,99.0 546.5,97.2 553.4,96.6 623.4,96.6 630.4,97.2 637.1,99.0 643.4,102.0 649.2,106.0 654.1,110.9 658.1,116.6 661.0,122.9 662.8,129.7 663.4,136.6 663.4,335.6 663.1,345.6 662.2,355.9 660.8,366.2 658.8,376.2 656.4,385.5 653.5,394.0 650.4,401.2 647.1,407.1 643.6,411.4 575.8,479.2 " fill="none" stroke="#1e8449" stroke-opacity="1.00" stroke-width="16.0" stroke-linejoin="round"/>
<polyline points="588.4,96.6 700.0,20.0 " fill="none" stroke="#222222" stroke-width="0.6"/>
<circle cx="588.4" cy="96.6" r="2" fill="#222222"/>
<text x="704.0" y="24.0" font-size="11.5" text-anchor="start" fill="#111111">U &#216;16 resting on both A1</text>
<polyline points="609.7,445.3 700.0,510.0 " fill="none" stroke="#222222" stroke-width="0.6"/>
<circle cx="609.7" cy="445.3" r="2" fill="#222222"/>
<text x="704.0" y="522.0" font-size="11.5" text-anchor="start" fill="#111111">feet: 90 deg hooks</text>
<text x="704.0" y="535.0" font-size="11.5" text-anchor="start" fill="#111111">towards the cantilever face</text>
<polyline points="526.2,209.8 210.0,60.0 " fill="none" stroke="#222222" stroke-width="0.6"/>
<circle cx="526.2" cy="209.8" r="2" fill="#222222"/>
<text x="206.0" y="64.0" font-size="11.5" text-anchor="end" fill="#111111">top anchors A1</text>
<text x="206.0" y="77.0" font-size="11.5" text-anchor="end" fill="#111111">with back plate B1</text>
<polyline points="446.7,257.3 210.0,460.0 " fill="none" stroke="#222222" stroke-width="0.6"/>
<circle cx="446.7" cy="257.3" r="2" fill="#222222"/>
<text x="206.0" y="472.0" font-size="11.5" text-anchor="end" fill="#111111">beam top bars, hooked at the face</text>
<text x="470.0" y="582.0" font-size="11.5" text-anchor="middle" fill="#111111">cantilever face</text>
<text x="5.0" y="10.0" font-size="11.5" text-anchor="start" fill="#111111"><tspan font-weight="bold">C. The U-bar in 3D (type E)</tspan></text>
</svg>
